<?xml version="1.0" encoding="UTF-8"?>
<svg id="Layer_2" xmlns="http://www.w3.org/2000/svg" version="1.1" xmlns:xlink="http://www.w3.org/1999/xlink" viewBox="0 0 733 361.1">
  <!-- Generator: Adobe Illustrator 29.3.1, SVG Export Plug-In . SVG Version: 2.1.0 Build 151)  -->
  <defs>
    <style>
      .st0, .st1, .st2, .st3 {
        fill: #223b8a;
      }

      .st4 {
        stroke-width: .4px;
      }

      .st4, .st5, .st6, .st7, .st8, .st9, .st3 {
        stroke-miterlimit: 10;
      }

      .st4, .st5, .st10, .st8 {
        fill: none;
      }

      .st4, .st5, .st8 {
        stroke: #223b8a;
      }

      .st1 {
        font-family: Nexa-Book, 'Nexa Book';
        font-size: 20.6px;
      }

      .st1, .st8, .st11, .st2 {
        isolation: isolate;
      }

      .st5 {
        stroke-width: .8px;
      }

      .st6 {
        fill: #ef659a;
      }

      .st6, .st7, .st9, .st3 {
        stroke: #69c4db;
        stroke-width: .2px;
      }

      .st7, .st12 {
        fill: #69c4db;
      }

      .st8 {
        stroke-width: 3px;
      }

      .st8, .st2 {
        font-family: Aquatico-Regular, Aquatico;
        font-size: 82.9px;
      }

      .st9 {
        fill: #f9c84e;
      }

      .st13 {
        clip-path: url(#clippath);
      }
    </style>
    <clipPath id="clippath">
      <polygon class="st10" points="56.5 217.5 56.5 303.2 158.7 347 158.7 260.7 56.5 217.5"/>
    </clipPath>
  </defs>
  <g id="Layer_1-2">
    <g>
      <g class="st11">
        <text class="st2" transform="translate(361.2 250)"><tspan x="0" y="0">Neural</tspan></text>
      </g>
      <g class="st11">
        <text class="st2" transform="translate(407.9 333)"><tspan x="0" y="0" xml:space="preserve">B   X</tspan></text>
        <text class="st8" transform="translate(407.9 333)"><tspan x="0" y="0" xml:space="preserve">B   X</tspan></text>
      </g>
      <g>
        <path class="st3" d="M527.8,336.1c0,1.7,0,3.5,0,5.3,0,1.8-.7,3.1-2.4,3.9-2.5,1.1-4.9,2.3-7.4,3.5-1.6.7-3.1.8-4.7,0-2.7-1.2-5.4-2.4-8.1-3.6-1.6-.7-2.4-1.9-2.4-3.6,0-3.7,0-7.4,0-11.1,0,0,0-.2,0-.3.1-1.2.9-1.6,2-1.1,1.8.9,3.5,1.7,5.3,2.6,1,.5,2,1,3.1,1.5,1.6.8,3.1.8,4.7,0,2.6-1.3,5.1-2.6,7.7-3.9.1,0,.3-.1.4-.2.9-.4,1.7,0,1.8,1,0,.4,0,.8,0,1.1v4.9h0,0Z"/>
        <path class="st6" d="M500.6,317.7v5.4c0,.3,0,.5,0,.8-.2.9-.8,1.2-1.6.8-1-.5-1.9-1-2.8-1.4-1.9-1-3.7-1.9-5.6-2.8-1.4-.7-2.1-1.9-2.2-3.5,0-3.7,0-7.4,0-11.1s0-.4,0-.6c.2-.9.9-1.3,1.7-.9,3,1.5,5.9,2.9,8.8,4.5,1,.5,1.3,1.5,1.6,2.5.1.6,0,1.3,0,2v4.3h0Z"/>
        <path class="st3" d="M556.8,292.4c0,.4-.2.7-.4,1.1-.5.8-1,1.4-1.9,1.8-2.7,1.4-5.5,2.9-8.2,4.3-1,.5-1.5.2-1.7-.9,0-.3,0-.5,0-.8,0-3.3,0-6.6,0-9.9,0-1.2-.6-2-1.6-2.5-1.6-.8-3.3-1.6-4.9-2.4-1.6-.8-3.2-1.6-4.8-2.4-.2-.1-.4-.2-.6-.4-.4-.4-.4-.9,0-1.3.2-.2.5-.4.7-.5,2.7-1.4,5.5-2.8,8.3-4.2,1.4-.7,2.9-.7,4.3,0,3.1,1.5,6.2,3,9.2,4.6.8.4,1.4.9,1.6,1.8,0,.2,0,.3,0,.5v9.8c0,.5,0,1,0,1.5h0Z"/>
        <path class="st6" d="M556.7,310.1c0,.2,0,.4-.2.7-.2.4-.4.8-.7,1.1-.4.5-1,.9-1.6,1.2-2.6,1.3-5.2,2.7-7.8,4-1.2.6-1.7.3-1.8-1,0-.6,0-1.1,0-1.7v-9.4c0-.8,0-1.6.4-2.4.3-.6.7-1,1.2-1.3,2.8-1.4,5.6-2.8,8.4-4.2.2,0,.3-.2.5-.2,1.2-.4,1.7.7,1.7,1.6,0,2.5,0,5,0,7.6,0,1.1,0,2.1,0,3.2,0,.3,0,.5,0,.8h0Z"/>
        <path class="st3" d="M556.8,327.7c0,.1,0,.3-.1.4-.5,1.3-1.6,2.2-2.8,2.8-2.5,1.2-5,2.5-7.4,3.8-1.2.6-1.7.3-1.8-1,0-.7,0-1.3,0-2v-9c0-.4,0-.9,0-1.3.2-1.2.8-2.1,2-2.6,2.7-1.2,5.3-2.6,8-3.9.2,0,.3-.2.5-.2,1-.4,1.7.5,1.7,1.5,0,2.1,0,4.2,0,6.3v3.1c0,.7.1,1.6,0,2.3h0Z"/>
        <path class="st6" d="M527.5,301.3v5.2c0,.8-.2,1.5-.6,2.2-.3.6-.8,1-1.4,1.3-2.7,1.2-5.5,2.5-8.2,3.8-1.5.7-3,.7-4.4,0-2.4-1.1-4.8-2.3-7.2-3.3-1.6-.7-2.2-1.9-2.3-3.5,0-1.8,0-3.6,0-5.3v-5.6c0-1.2.4-2,1.5-2.5,2.8-1.4,5.5-2.8,8.3-4.2,1.3-.7,2.7-.7,4,0,1.2.6,2.4,1.2,3.6,1.8,1.7.8,3.4,1.7,5.2,2.5,1,.5,1.5,1.3,1.5,2.4v5.4h0Z"/>
        <path class="st9" d="M502.8,318.5v-5.2c0-.2,0-.5,0-.7.1-1.1.9-1.5,1.9-1,1.4.7,2.8,1.4,4.2,2.1,1.3.7,2.6,1.3,3.9,2,1.5.7,3,.8,4.4,0,2.8-1.4,5.6-2.7,8.4-4.1.1,0,.2-.1.3-.2.8-.4,1.6,0,1.7.9,0,.3,0,.5,0,.8,0,3.5,0,7,0,10.5,0,1.7-.7,3-2.3,3.8-2.5,1.3-5.1,2.5-7.6,3.8-1.6.8-3.2.8-4.9,0-2.6-1.3-5.3-2.6-7.9-3.9-1.6-.7-2.3-2-2.3-3.7,0-1.8,0-3.6,0-5.4h0,0Z"/>
        <path class="st9" d="M542.2,293.6c0,1.7,0,3.5,0,5.3,0,1.6-.8,2.9-2.2,3.6-2.7,1.4-5.5,2.8-8.3,4.3-1,.5-1.5.2-1.7-.9,0-.3,0-.5,0-.8,0-3.4,0-6.8,0-10.2,0-1.1-.5-1.9-1.5-2.3-3.2-1.5-6.4-3-9.6-4.6-.3-.1-.6-.3-.8-.5-.4-.4-.4-.9,0-1.4.2-.2.4-.3.6-.4,2.8-1.5,5.7-2.9,8.5-4.5,1.2-.6,2.3-.6,3.5,0,3.4,1.6,6.8,3.2,10.2,4.8.9.4,1.2,1.2,1.2,2.1,0,1.8,0,3.7,0,5.5h0Z"/>
        <path class="st6" d="M530,335.3v-5.4c0-.8.2-1.5.5-2.2.3-.6.8-1,1.3-1.3,2.8-1.4,5.5-2.8,8.3-4.2.2,0,.4-.2.5-.2.6-.2,1,0,1.3.6.2.3.2.7.2,1.1,0,3.6,0,7.3,0,10.9,0,1.6-.7,2.9-2.2,3.6-2.7,1.3-5.3,2.7-8,4.1-.1,0-.3.1-.4.2-.7.3-1.3,0-1.5-.8,0-.3,0-.6,0-.9v-5.4h0Z"/>
        <path class="st7" d="M530,317.7v-5.4c0-.8.2-1.6.6-2.4.3-.5.7-.9,1.2-1.1,2.8-1.4,5.6-2.8,8.4-4.2,1.1-.5,1.8-.2,1.9,1,0,.2,0,.4,0,.6,0,3.5,0,7,0,10.5,0,1.7-.7,3-2.3,3.8-2.6,1.3-5.3,2.7-7.9,4-1.3.7-2,.3-2-1.2,0-1.9,0-3.7,0-5.6h0Z"/>
        <path class="st6" d="M515.8,259.6c3.6,1.3,6.9,3.3,10.3,5,.4.2.8.5.8,1,0,.5-.4.7-.8.9-3,1.5-6.1,3.1-9.1,4.5-1.3.6-2.7.6-4,0-2.9-1.4-5.8-2.9-8.7-4.4-.5-.2-1-.5-1-1.1,0-.6.5-.8,1-1,2.9-1.4,5.8-2.9,8.6-4.3.5-.2,1-.3,1.4-.5h1.5,0Z"/>
        <path class="st3" d="M497.7,279.7c0,.5-.4.8-.9,1-3.1,1.5-6.3,3.1-9.4,4.6-.4.2-.7.4-1,.7-.4.4-.6.9-.6,1.6,0,3.4,0,6.8,0,10.2s0,.6,0,1c-.1.9-.7,1.2-1.5.8-.9-.5-1.9-1-2.8-1.4-1.8-1-3.7-1.9-5.5-2.9-1.5-.8-2.4-2.1-2.4-3.9,0-1.7,0-3.4,0-5.1v-5.3c0-1.1.5-1.8,1.4-2.3,3-1.4,6-2.9,9-4.3,1.4-.7,2.8-.7,4.1,0,2.9,1.4,5.8,2.9,8.7,4.4.4.2.9.4.8,1h0Z"/>
        <path class="st9" d="M486,309.8v5.7c0,.3,0,.6,0,1-.1.9-.7,1.2-1.5.8-.8-.4-1.7-.8-2.5-1.3-2-1-4-2-6-3.1-1.4-.8-2.2-2-2.2-3.6v-10.6c0-.3,0-.5,0-.8.2-.9.9-1.3,1.8-.9.9.4,1.8.9,2.7,1.3,1.9.9,3.7,1.9,5.6,2.8,1.3.6,1.8,1.6,1.9,2.9.2,2.1,0,4.1,0,5.8h0Z"/>
        <path class="st3" d="M486,327.8v5.4c0,.3,0,.6,0,1-.1.9-.7,1.2-1.5.8-.9-.5-1.9-1-2.8-1.4-1.9-1-3.8-1.9-5.6-2.9-1.5-.8-2.3-2-2.3-3.7v-10.5c0-.3,0-.5,0-.8.2-.9.9-1.3,1.8-.9.8.4,1.6.8,2.3,1.1,2,1,4,2.1,6,3,1.3.6,1.8,1.6,1.9,2.9.1,1.7,0,3.5,0,5.3v.9h0Z"/>
        <path class="st9" d="M500.7,266.8c.8,0,1.5.2,2.2.5,2.8,1.4,5.6,2.8,8.5,4.2s.5.3.8.5c.4.4.4.8,0,1.2-.2.2-.5.3-.7.5-2.9,1.5-5.8,2.9-8.7,4.4-1.3.6-2.7.7-4.1,0-3-1.5-5.9-3-8.9-4.4,0,0,0,0-.1,0-.4-.2-.7-.5-.7-1s.4-.7.8-.9c1.7-.9,3.4-1.7,5.1-2.6,1.2-.6,2.5-1.2,3.7-1.9.7-.4,1.4-.5,2.2-.5h0Z"/>
        <path class="st7" d="M500.7,281.2c.7,0,1.4.2,2.1.5,2.8,1.4,5.7,2.9,8.5,4.3.5.2,1,.4,1,1,0,.6-.5.9-1,1.1-3,1.5-6,3-9.1,4.5-1.1.5-1.6,1.3-1.6,2.6,0,3.4,0,6.7,0,10.1,0,.3,0,.6,0,.9-.2.9-.7,1.2-1.5.8-1-.5-1.9-1-2.8-1.5-1.9-1-3.7-1.9-5.6-2.9-1.4-.8-2.2-2-2.2-3.6,0-3.5,0-7.1,0-10.6,0-1.1.4-1.9,1.5-2.4,2.9-1.4,5.7-2.8,8.6-4.2.7-.3,1.4-.5,2.2-.5h0Z"/>
        <path class="st7" d="M500.6,335.3v5.4c0,.3,0,.6,0,.9-.2.9-.8,1.2-1.6.8-1-.5-2-1-2.9-1.5-1.8-.9-3.7-1.9-5.5-2.8-1.4-.7-2.2-1.9-2.2-3.5,0-3.7,0-7.4,0-11,0-.2,0-.3,0-.5.2-1,.9-1.4,1.8-.9,1.5.7,2.9,1.5,4.4,2.2,1.2.6,2.4,1.3,3.7,1.8,1.7.7,2.3,2,2.3,3.7,0,1.8,0,3.6,0,5.4h0Z"/>
        <path class="st7" d="M529.4,278.6c-.8,0-1.5-.2-2.2-.5-2.9-1.4-5.7-2.9-8.6-4.3-.5-.2-1-.5-1-1.1,0-.6.5-.8,1-1.1,2.9-1.5,5.8-2.9,8.7-4.4,1.3-.7,2.7-.7,4,0,3,1.5,6,3,9,4.5.1,0,.3.2.4.3.5.4.5,1,0,1.4-.2.2-.5.3-.7.4-2.8,1.4-5.7,2.8-8.5,4.3-.7.3-1.4.5-2.2.5h0Z"/>
        <path class="st3" d="M515,274c.8,0,1.5.2,2.2.5,2.9,1.4,5.7,2.9,8.6,4.3.5.2,1,.5,1,1.1,0,.6-.5.8-1,1.1-2.9,1.4-5.7,2.9-8.6,4.3-1.4.7-2.9.7-4.3,0-2.9-1.4-5.7-2.9-8.6-4.3-.5-.2-1-.5-1-1.1,0-.6.5-.8,1-1.1,2.9-1.4,5.7-2.9,8.6-4.3.7-.3,1.4-.5,2.1-.5h0Z"/>
      </g>
      <g>
        <path class="st5" d="M260.9,246.6c0-2,0-3.9-.4-5.6-1-4.5-3.5-8-7.4-10-5.5-3-13.7-2.6-21.9,1-4.7,2-9.3,4-14,6,2.9.9,5.5,2.2,7.6,4.1,2.2-1,4.4-1.9,6.6-2.8,2.9-1.3,5.8-1.9,8.5-2.1,5.9-.3,10.4,2.5,12,7.3v-.2c0,.4.1.6.2.9.7,2.6.5,5.6-.3,8.8-.5,1.8-1.3,3.7-2.2,5.5-2.2-.5-4.7-.8-7.3-.6,1.5-3,2.1-6,1.4-8.3-.8-3.6-4.4-5.5-8.8-4.7-2,.3-4.2,1.4-6.3,2.3l-8.7,3.7c-.1-.2-.2-.3-.3-.5-1-1.2-2.1-2.3-3.4-3.2-5.4-3.6-14-3.7-22.7,0-5.2,2.1-10.4,5.5-14.9,9.7-5.4,5-9.7,11-12.3,17.1-.7,1.8-1.4,3.6-1.8,5.4-.2,1-.4,1.9-.6,2.8-.3,2.3-.3,4.6-.2,6.8,0,2.3,0,4.6,0,6.8,0,4,0,8,0,12,0,.8,0,1.6,0,2.3v1.3c0,1.7,0,3.5,0,5.1-.1,3.9,0,7.7,0,11.6,0,2.1,0,4.2,0,6.3-.1,2.4,0,4.7,0,7.1,8.5-3.6,16.9-7.2,25.4-10.9,0-5.4,0-10.8,0-16.3,0-7.4,0-14.8,0-22.2,0-6,0-11.9,0-17.9.4-1.8,2-3.9,3.9-4.8,1.9-1,3.9-.7,4.4.7.4.9,0,2.1.2,3.1,0,1.8-.1,3.6,0,5.4,0,.9,0,1.7,0,2.5,0,5.4,0,10.7,0,16.1,0,4.5,0,8.9,0,13.4,0,5.5,0,11,0,16.5,10.7-4.6,21.5-9.2,32.2-13.8,5.3-2.1,10.6-5.4,15.2-9.6,5.9-5.2,10.6-11.8,13.3-18.3,2.5-6.2,3.1-12.2,1.7-17-.6-2-1.5-3.8-2.8-5.4-.5-.6-1.1-1.1-1.6-1.7,2.6-4.3,4.4-8.8,5.1-13,.2-1,.3-2,.4-3h0ZM230.8,254.6c.8-.4,1.7-.7,2.5-.6,1,0,1.8.6,2.1,1.4.4,1.3-.2,3.3-1.8,4.7-1.1,1.1-2.4,1.6-3.6,2.2-2.4,1-4.8,2.1-7.2,3.1,0-2.4,0-4.9-.3-7.1,2.8-1.2,5.6-2.4,8.4-3.6h0ZM231.4,306.4c-8.5,3.7-17.1,7.3-25.6,11,0-3.6,0-7.2,0-10.8,0-4.9,0-9.8,0-14.7,0-4.7,0-9.3,0-14,0-2.4,0-4.8,0-7.2,0-1.5,0-3-.3-4.2-.8-2.7-3.2-4.4-6.4-4.4-1.5,0-3.2.2-5,1-1,.5-2,.8-3,1.4-4.5,2.6-8.5,7.3-9.9,11.7-1,3-.6,5.6-.6,8.3,0,4.8,0,9.6,0,14.4,0,4.3,0,8.6,0,12.9,0,4.1,0,8.2,0,12.3v4.2c-2.9,1.2-5.7,2.4-8.6,3.7,0,0,0,0,0,0,0-4.3,0-8.5,0-12.8,0-4.8,0-9.6,0-14.5v-.7c0-4.1,0-8.3,0-12.4,0-1.6,0-3.2,0-4.8,0-1.2,0-2.3,0-3.5,0-3.8,1.5-8.2,4.1-12.4,2.5-4,5.9-7.8,9.8-10.7,3.9-2.9,8.2-5,12.2-5.9,4.9-1.1,9.4-.4,12.3,2,2.5,2,3.9,5.1,4,8.8,0,3.7,0,7.5,0,11.3h.1c5.7-2.5,11.5-5,17.2-7.4,6-2.4,11.7-2.4,15.6,0,1.8,1.2,3.2,2.8,4.1,4.9,1.8,4.3.9,10.4-2.3,16.3-3.7,6.8-10.5,13.2-17.5,16.3h0Z"/>
        <path class="st5" d="M240,276c-2.3-1.1-5.7-.9-9,.5-5.6,2.4-11.1,4.8-16.7,7.1h0c0,7.6,0,15,0,22.5,5.6-2.4,11.3-4.8,16.9-7.2,4.3-1.9,8.4-5.7,10.6-9.9,1.9-3.5,2.4-7,1.4-9.6-.6-1.5-1.7-2.7-3.2-3.4h0ZM234.8,287.9c-.7,1.6-2.3,3.1-4,3.8-2.7,1.1-5.4,2.3-8.1,3.5v-.5c0-2.4,0-4.8,0-7.2,2.8-1.2,5.5-2.4,8.3-3.5,1.3-.5,2.6-.5,3.4,0,1,.7,1.2,2.3.4,3.9h0Z"/>
      </g>
      <g>
        <g class="st13">
          <g>
            <path class="st4" d="M174.2,354.1v5.6c0,.3,0,.3-.3.3,0,0-.1,0-.2,0-42.3,0-84.7,0-127,0-.4,0-.5,0-.5-.5,0-54.9,0-109.8,0-164.6,0-.4,0-.5.5-.5,4.7,0,9.4,0,14.1,0,.5.3.6.9.7,1.4.2,1.2,0,2.4-1,3.3-.7.6-1.2.6-2,.2-.3-.2-.5-.4-.8-.4-.6-.1-1.1.1-1.3.7-.1.4-.2.8-.1,1.2.1,1.1,0,2.2,0,3.3s-.2.7-.7.7c-1.1-.2-2.3,0-3.4,0-.4,0-.9,0-1.2-.4-.3-.5,0-.8.3-1.2.6-1,.6-2,.1-3-.4-.9-1.1-1.2-2-1.4-.8-.1-1.7,0-2.5.2-.2,0-.4.2-.5.4.2,0,.2,0,.4,0,.9-.4,1.7-.5,2.6-.3,1.7.3,2.6,2.1,1.8,3.7-.2.3-.4.6-.5.9-.4.7-.2,1.2.6,1.3.4,0,.7,0,1.1,0h3.4c.6,0,.7,0,.7.7v4c0,.4,0,.8-.4,1s-.7,0-1.1-.2c-.1,0-.3-.2-.4-.3-.4-.3-.9-.3-1.4-.1-1.5.7-2,1.7-2,3.2,0,.7.2,1.5.5,2.1.5,1.1,1.4,1.4,2.5,1.1.5-.1.9-.3,1.4-.2.5,0,.7.3.7.8,0,1.7-.1,3.4-.1,5.1,0,.3-.2.5-.5.5-1.7,0-3.3,0-5,0-.8,0-1.2-.9-.8-1.6.7-1.2.7-1.6-.2-2.7-.8-1-1.7-1.6-3-1.4-.1,0-.3,0-.3.2,0,.2.2.2.3.2.4,0,.7,0,1,.1.9.1,1.6.7,2.1,1.5.2.4.2.8,0,1.3-.1.4-.4.8-.5,1.2-.2.7,0,1.2.7,1.5.3.1.7.2,1,.2,1.2,0,2.4,0,3.6,0h.3c.8,0,.9,0,.9.9,0,1.5,0,3,0,4.5,0,.8.7,1.4,1.5,1.3.4,0,.7-.2,1.1-.3,1.3-.3,1.9,0,2.4,1.1.5,1,.5,2.1.2,3.2-.2.6-.6,1-1,1.3-.6.4-1.1.5-1.7,0-.2-.2-.5-.3-.7-.4-.8-.3-1.4,0-1.5.9,0,.5,0,1,0,1.5,0,1,0,1.9,0,2.9,0,.4-.2.6-.6.6-.4,0-.8,0-1.2-.1-.8,0-1.6.1-2.4.1-1.2,0-1.5-.4-.9-1.4.6-1.1.7-2.2.1-3.3-.3-.6-.8-1-1.5-1.1-1-.3-2-.2-3,.1-.2,0-.5.1-.5.4.2,0,.2,0,.4-.1.9-.4,1.8-.6,2.8-.3,1.7.4,2.5,2.3,1.6,3.8-.2.3-.4.7-.6,1-.2.5,0,.8.5,1,.3,0,.5,0,.8,0h4c.7,0,.8,0,.8.7v4c0,.4,0,.8-.4,1-.4.2-.8,0-1.1-.1-.1,0-.3-.2-.4-.3-.5-.3-1-.3-1.6,0-1.2.6-1.8,1.7-1.8,3,0,.9.2,1.7.7,2.4.5.9,1.3,1.2,2.2.9.5-.1,1-.3,1.5-.3.7,0,1.1.4,1.1,1.1v4.6c0,.6-.1.7-.7.7h-5.1c-.5,0-.9-.2-1.1-.6-.2-.4-.1-.8.2-1.2.5-.6.5-1.3.1-2-.6-1-1.4-1.8-2.7-2-.4,0-.7,0-1.1.2.3.1.6,0,.9,0,1.1,0,2.4.9,2.7,2,.2.5.1,1.1-.2,1.5-.2.4-.4.8-.4,1.2,0,.6.2,1,.8,1,.2,0,.4,0,.7,0h4.6c.8,0,.9,0,.9.9,0,1.7,0,3.3,0,5,0,.7.4,1.1,1.1,1,.4,0,.8-.2,1.2-.3,1.2-.3,1.9,0,2.3,1.1.4,1,.6,2,.2,3.1-.2.7-.7,1.1-1.2,1.5-.4.3-.9.3-1.3,0-.3-.2-.6-.4-.9-.5-.7-.3-1.3,0-1.5.8-.1.5-.1,1,0,1.5.1,1,0,2,0,3.1,0,.4-.2.6-.6.6-1.4,0-2.7,0-4.1,0-.6,0-.9-.5-.6-1.1.2-.5.5-.9.6-1.4.4-1.7-.5-3.1-2.2-3.5-.9-.2-1.8,0-2.7.3-.2,0-.2,0-.4.4.6-.3,1.1-.5,1.7-.5.2,0,.4,0,.6,0,2.3,0,3.5,2.2,2.3,4.2-.2.3-.4.6-.5.9-.1.4,0,.7.4.9.3.1.6.1.8.1h3.9c.7,0,.8.1.8.9v3.8c0,.2,0,.3,0,.5-.1.6-.5.8-1.1.6-.3,0-.5-.3-.7-.4-.5-.4-1-.4-1.5-.1-1.4.6-2,1.8-1.9,3.4,0,.8.3,1.6.7,2.3.5.7,1.2,1,2,.8.3,0,.5-.2.8-.2.3-.1.7-.1,1,0,.6.1.8.4.9,1,0,1.5,0,3.1,0,4.6,0,.6-.2.7-.7.7-1.1,0-2.3,0-3.4,0s-.9,0-1.3,0c-.2,0-.4,0-.6,0-.8-.3-1.1-1-.6-1.7.6-.8.5-1.5,0-2.3-.8-1.1-1.7-1.9-3.2-1.7-.1,0-.2,0-.3,0,0,0,0,0-.1.1.2.1.3,0,.5,0,1.2-.1,2,.5,2.7,1.3.6.7.6,1.4.2,2.2-.2.4-.4.7-.4,1.2,0,.6.2,1,.8,1.2.2,0,.5,0,.7,0h4.6c.7,0,.7,0,.7.7,0,1.7,0,3.4,0,5.1,0,.7.3,1,1,1,.4,0,.7,0,1-.2.3,0,.6-.2.9-.2.5,0,.9,0,1.3.5,1,1.1,1.2,3.2.4,4.5-.3.5-.8.9-1.4,1.1-.3.1-.5,0-.8,0-.3-.1-.6-.4-.9-.5-.8-.4-1.5-.1-1.7.7-.1.5-.1,1,0,1.5.1,1,0,2,0,3.1,0,.4-.2.5-.5.5h-1.7c-.5,0-1.1,0-1.7,0-.1,0-.2,0-.3,0-1.2,0-1.5-.5-.8-1.5.5-.8.6-1.7.4-2.6-.3-1-.9-1.6-1.9-1.8-1-.2-1.9-.1-2.8.2-.2,0-.4.1-.4.4.2,0,.3,0,.4-.1.9-.4,1.9-.5,2.8-.2,1.6.4,2.3,2.2,1.6,3.6-.2.4-.4.7-.6,1.1-.3.7-.2,1,.6,1.2.5.1,1,.1,1.4,0,1-.1,2.1,0,3.2,0,.5,0,.8.2.7.7-.2,1.3.1,2.6,0,3.9,0,.2,0,.5,0,.7-.1.5-.5.7-1,.5-.3,0-.5-.3-.7-.4-.5-.4-1.1-.4-1.7-.1-1.2.6-1.8,1.7-1.8,3,0,.9.2,1.7.6,2.4.6.9,1.3,1.2,2.4.9.3,0,.6-.2.9-.3.9-.2,1.5.3,1.5,1.3v4.3c0,.7-.1.9-.8.9-1.7,0-3.3,0-5,0-1,0-1.4-1-.9-1.7.5-.7.7-1.3,0-2.4-.7-1.1-1.7-1.7-3-1.7-.3,0-.3,0-.6.2.1.1.3,0,.4,0,1.5-.2,2.9,1.1,3.2,2.1.2.5,0,1-.2,1.5-.2.3-.3.7-.4,1.1,0,.7.2,1.1.9,1.1.7,0,1.3,0,2,0h3.2c.7,0,.8,0,.8.8v4.9c0,.9.5,1.3,1.4,1.1.4,0,.7-.2,1.1-.3,1-.3,1.7,0,2.1,1,.5,1,.6,2.1.3,3.2-.2.8-.8,1.4-1.5,1.7-.4.2-.7.2-1.1,0-.3-.2-.6-.4-.9-.5-.8-.3-1.4,0-1.6.9,0,.5-.1,1,0,1.5.1,1,0,1.9,0,2.9,0,.4-.2.6-.6.6-1.2-.2-2.5,0-3.7,0s-1.3-.5-.8-1.3c.7-1.1.8-2.2.2-3.4-.3-.5-.7-.9-1.3-1.1-1.1-.3-2.1-.3-3.1.1-.2,0-.4.2-.5.5,1-.5,2-.7,3.1-.5,1.7.4,2.6,2.3,1.7,3.8-.2.3-.4.6-.5.9-.3.6,0,1,.6,1.2.2,0,.4,0,.7,0h3.9c.7,0,.7,0,.7.8v4c0,.4,0,.8-.4,1-.4.2-.7,0-1.1-.2-1.2-.7-1.9-.6-2.9.4-.6.6-.8,1.2-.8,2,0,.8,0,1.6.4,2.3,0,.1.1.3.3.3,0-.2,0-.3-.1-.5-.4-1.1-.5-2.3,0-3.4.1-.2.3-.4.4-.6.8-.8,1.3-.9,2.2-.3.2.1.4.3.7.4.7.2,1.2,0,1.5-.7,0-.2,0-.5,0-.7v-3.9c0-.7,0-.8.7-.8h3.6c.1,0,.2,0,.3,0,.8.1,1,.6.6,1.3,0,0,0,0,0,.1-1.3,1.3,0,3.7,1.5,4,1.6.3,3,.1,4.1-1.2.7-.8.8-1.5.2-2.4-.6-.9-.1-1.8,1-1.8,1.6,0,3.2,0,4.8,0s.6.2.6.5c0,.2,0,.4,0,.5,0,1.4,0,2.8,0,4.2,0,.9-.4,1.2-1.3,1-.2,0-.5-.1-.7-.2-1.9-.7-3,.5-3.4,1.9-.2.7,0,1.4,0,2.1,0,0,0,.2.2.2.1-.2,0-.4,0-.5-.2-1-.1-1.9.4-2.7.6-.8,1.3-1.2,2.3-.9.5.1,1,.3,1.5.4.9.1,1.2-.1,1.2-1,0-1.6-.2-3.1-.1-4.7,0-1,0-1,1-1,1.6-.1,3.2,0,4.8,0,1.1,0,1.4-.6,1.1-1.6-.1-.3-.2-.6-.4-.9-.3-1-.1-2,.7-2.6,1.2-.9,2.5-1.1,3.9-.6,1.3.5,1.9,2.2,1.2,3.5-.2.4-.4.7-.6,1.1-.3.7-.1,1,.6,1.1.2,0,.4,0,.7,0h3.7c.8,0,.9,0,.9.9v1.6c0,.7,0,1.4,0,2.1,0,.4,0,.9-.4,1.2-.4.2-.7,0-1.1-.1-.5-.3-.9-.7-1.6-.5-.8.2-1.4.7-1.8,1.4-.7,1.3-.5,2.6,0,3.9,0,.1,0,.1.4.3-.3-.6-.5-1.2-.6-1.9-.1-1.3.2-2.4,1.3-3.2.4-.3.9-.3,1.3,0,.3.2.6.4,1,.5.7.3,1.4,0,1.6-.8,0-.3,0-.5,0-.8v-3.7c0-.7,0-.8.8-.8h3.7c.4,0,.7,0,.9.4.2.4,0,.7-.2,1-1.3,1.3-.2,3.8,1.6,4.1,1.3.2,2.5.2,3.5-.7.3-.2.5-.5.7-.8.5-.7.5-1.2,0-1.9-.3-.4-.5-.8-.3-1.2.3-.5.7-.7,1.2-.7,1.6,0,3.2,0,4.9,0,.4,0,.6.2.6.5,0,1.6.2,3.3.1,4.9,0,.6-.4.9-1,.9-.3,0-.7-.1-1-.2-2-.7-3.1.6-3.5,2.2-.2.6,0,1.2,0,1.8,0,.1,0,.3.3.3,0-.3-.1-.6-.2-.8-.2-1.1.1-2,.9-2.8.5-.5,1.1-.7,1.8-.5.6.1,1.1.3,1.7.4.7.1,1.2-.3,1.1-1,0-.7,0-1.3,0-2,0-1-.1-1.9-.1-2.9,0-.7,0-.8.8-.8,1.7,0,3.4-.2,5.1-.1,1,0,1.4-.6,1.1-1.5,0-.3-.2-.6-.3-.8-.5-1.2-.2-2.2.9-2.9,1.1-.8,2.4-.9,3.6-.5.8.2,1.2.8,1.4,1.6.2.7.2,1.5-.2,2.2-.2.3-.4.6-.5,1-.2.5,0,.9.5,1,.5.1,1,.2,1.6.1,1.1-.1,2.2,0,3.4,0,.3,0,.6.2.5.5,0,1.5.1,3,0,4.5,0,.8-.6,1.1-1.3.7-.2-.1-.4-.2-.5-.3-.6-.4-1.1-.4-1.7,0-1.3.7-1.9,2-1.7,3.5,0,.5.2.9.3,1.4,0,.2.1.4.4.5,0-.2,0-.3-.1-.5-.5-1.2-.5-2.4.2-3.6.3-.5.7-.8,1.2-1,.3-.1.6,0,.9,0,.3.2.6.4,1,.5.8.4,1.4.1,1.7-.7,0-.3,0-.6,0-.8v-3.7c0-.7,0-.8.7-.8h3.8c.4,0,.7,0,.9.4.2.4,0,.7-.2,1-1.3,1.4-.2,3.8,1.6,4.1,1.3.2,2.5.2,3.5-.7.3-.2.5-.5.7-.8.5-.7.5-1.3,0-2-.7-.9-.2-1.8,1-1.9,1.6,0,3.2,0,4.9,0,.3,0,.5.2.5.5,0,.4.1.8.1,1.2,0,1.2,0,2.3,0,3.5,0,.9-.4,1.3-1.3,1-.3,0-.5-.1-.8-.2-1.7-.5-2.7.3-3.3,1.8-.3.8-.2,1.5,0,2.3,0,0,0,.2.2.2.1-.2,0-.4,0-.6-.2-1,0-2,.6-2.8.5-.6,1.2-.9,2.1-.7.5.1,1,.3,1.5.4.9.2,1.2-.1,1.2-1,0-1.6-.2-3.2-.1-4.8,0-.8,0-.9.9-.9,1.7,0,3.3-.1,5-.1.9,0,1.3-.6,1-1.4,0-.3-.2-.5-.3-.8-.7-1.5.2-2.9,1.4-3.4.9-.4,1.9-.5,2.8-.2,1.4.3,2.2,2.1,1.6,3.4-.2.4-.4.8-.6,1.1-.4.7-.2,1.1.6,1.3.5,0,1.1,0,1.6,0,.9,0,1.9,0,2.8,0s.7.1.7.7c0,1.3,0,2.6,0,4,0,.2,0,.4,0,.6-.1.5-.5.6-.9.5-.3,0-.6-.3-.8-.5-.5-.4-1-.4-1.6-.1-1.4.7-2,1.9-1.8,3.6,0,.5.2.9.4,1.4,0,.2.1.4.4.4,0-.2,0-.3-.1-.5-.5-1.2-.6-2.3,0-3.5.2-.4.4-.7.8-.9.7-.5,1.1-.5,1.9,0,.3.2.6.4.9.4.6.1,1-.1,1.2-.7,0-.3.1-.6.1-.9v-3.8c0-.7,0-.8.8-.8,1.1,0,2.2,0,3.4,0,.4,0,.8,0,1.2.3.2.3.3.5.1.8,0,0,0,.2-.2.3-1.3,1.3-.3,3.8,1.6,4.2,1.1.2,2.1.2,3-.4.2,0,.3-.2.5-.1h0Z"/>
            <path class="st4" d="M115,194.4c.2.8.5,1.6.1,2.4-.5,1.2-1.3,2-2.8,1.5-.4-.2-.9-.3-1.3-.3-.9-.1-1.3.2-1.3,1.1,0,1,0,1.9.1,2.9,0,.8,0,1.5,0,2.3,0,.3,0,.4-.4.4-1.7,0-3.4,0-5.1,0-.6,0-1.2,0-1.5.7-.3.6-.2,1.3.3,1.8.4.5.4,1,0,1.6-1.1,1.6-2.9,1.8-4.5,1-1.1-.5-1.4-2-.8-3,.2-.3.4-.7.5-1.1.1-.4,0-.7-.4-.9-.3-.1-.7-.2-1.1-.2-1.4,0-2.7,0-4.1,0-.4,0-.5-.1-.5-.5,0-1.3,0-2.6,0-4,0-.1,0-.2,0-.3,0-.7.5-.9,1.1-.6.2,0,.3.2.5.3.6.5,1.2.5,1.9.1,1.6-.9,2.2-2.6,1.6-4.6,0-.3-.2-.6-.3-.9h17.9Z"/>
            <path class="st4" d="M150.6,194.4c.5,1.2.5,2.4-.4,3.4-.5.6-1.2.9-2,.6-.5-.2-1.1-.3-1.6-.4-.9-.2-1.3.3-1.3,1.2,0,1.7.1,3.4.2,5.2,0,.3,0,.3-.3.3-1.6,0-3.3,0-4.9,0h-.3c-.5,0-1.1,0-1.4.6-.3.6-.2,1.1.2,1.7.6,1,.5,1.5-.3,2.3-1.2,1.2-2.8,1.1-4,.6-1.2-.6-1.5-2.1-.8-3.1,0,0,.1-.2.2-.3.6-1.1.3-1.7-1-1.8-1.4-.1-2.8,0-4.3,0-.4,0-.5,0-.5-.5,0-1.3,0-2.5,0-3.8,0-.4,0-.9.3-1.1.4-.2.8,0,1.2.3.8.6,1.3.6,2.2,0,1.4-.9,1.9-2.3,1.5-4.2,0-.4-.2-.8-.3-1.1h17.7,0Z"/>
            <path class="st4" d="M79.3,194.4c.5,1.2.5,2.4-.4,3.4-.5.6-1.1.8-1.9.6-.6-.1-1.1-.4-1.7-.4-.9-.1-1.3.3-1.3,1.2,0,1.7.1,3.4.2,5.1,0,.3-.1.4-.4.4-1.7,0-3.5,0-5.2,0-1.3,0-1.9,1-1.2,2.1,1,1.6,0,2.5-1.2,3.2-1,.5-2.1.4-3.1-.1-1.1-.6-1.4-2-.7-3,.2-.2.3-.5.4-.8.4-.8-.2-1.3-1-1.4-1.4,0-2.7,0-4.1,0s-.8,0-.8-.8c0-1.2,0-2.4,0-3.6,0-.4,0-.9.3-1.1.4-.2.8,0,1.1.3,1.1.8,2.4.4,3.3-.9.8-1.3.6-2.6.2-3.9,0-.1-.2-.2-.1-.4h17.8Z"/>
            <path class="st4" d="M174.2,264.4c-.2,0-.5,0-.7.1-1.5.1-2.7-.7-3.3-2-.2-.4-.1-.9.2-1.2.4-.4.5-.9.4-1.5-.1-.8-.6-1.3-1.4-1.3-1.6,0-3.2,0-4.8,0-.4,0-.5,0-.5-.5,0-1.5,0-3.1.1-4.7,0-1.1-.9-1.7-1.8-1.6-.4,0-.8.2-1.3.3-1,.2-1.5,0-1.9-.8-.6-1.1-.7-2.2-.3-3.4.1-.3.3-.6.5-.8.7-.8,1.3-.9,2.3-.3.4.2.7.5,1.2.5.6,0,1.1-.5,1.1-1.3,0-1.4,0-2.9,0-4.3,0-.5.1-.6.6-.6,1.2,0,2.4,0,3.7,0,.2,0,.5,0,.7.2.3.2.4.5.2.8-.9.9-1,2-.4,3.1.6,1.2,1.7,1.5,2.9,1.6,1,0,1.8-.3,2.6-.8v18.6h0Z"/>
            <path class="st4" d="M174.2,228.2c-1.2.2-2.3.1-3.4-.6-.7-.5-.9-1.2-.7-2,0-.3.2-.6.3-.9.5-1.3,0-2.1-1.4-2.1-1.3,0-2.6,0-3.9,0-.4,0-1,.2-1.2,0-.2-.2,0-.8,0-1.2,0-1.4,0-2.7,0-4.1,0-.9-.6-1.4-1.5-1.2-.5,0-.9.2-1.4.3-.9.2-1.4,0-1.8-.8-.5-.9-.7-1.9-.5-3,.2-1,.8-1.6,1.7-2,.2-.1.5,0,.7,0,.3.2.5.3.8.5,1.1.6,2,0,2-1.2,0-1.4,0-2.8,0-4.3,0-.4.1-.5.5-.5,1.3,0,2.6,0,3.9,0s.6,0,.8.4c.1.3,0,.5-.2.7-1.5,1.3-.3,4.1,1.9,4.4,1.2.2,2.3,0,3.3-.7v18.2h0Z"/>
            <path class="st4" d="M174.2,300.4c-1.9.7-3.2-.4-4-1.8-.3-.5-.2-.9.1-1.3.3-.4.5-.8.4-1.3-.1-.9-.6-1.4-1.5-1.4-1.6,0-3.1,0-4.7,0-.3,0-.5,0-.4-.4,0-1.5,0-3.1.1-4.7,0-1-.9-1.7-1.8-1.5-.6.1-1.1.3-1.7.4-.6.1-1.1-.1-1.4-.7-.6-1.1-.8-2.2-.5-3.5.1-.4.3-.8.7-1.1.8-.7,1.2-.8,2.1-.2.4.3.8.5,1.3.4.6-.1.9-.5.9-1.2,0-1.5,0-2.9,0-4.4,0-.5.1-.5.5-.5,1.3,0,2.6,0,3.9,0,.2,0,.4,0,.6.2.3.2.4.5.1.8,0,0,0,0,0,.1-1.6,1.4-.2,4.2,1.8,4.5,1.2.2,2.3.2,3.2-.7,0,0,0,0,.1,0v18.5h0Z"/>
            <path class="st4" d="M174.2,336.4c-1.6.6-3.7-.4-4.1-2-.1-.4,0-.7.3-1,.5-.6.6-1.3.2-2-.3-.6-.9-.8-1.5-.8-1.5,0-3,0-4.5,0-.4,0-.5-.1-.5-.5,0-1.5,0-3,0-4.5.1-1.3-.9-1.9-2.1-1.7-.4,0-.8.2-1.2.3-.6.2-1.1,0-1.5-.6-.7-1.1-.9-2.3-.5-3.5.1-.4.3-.8.7-1.1.8-.7,1.2-.8,2.2-.2.1,0,.2.2.4.2,1,.5,1.8,0,1.9-1,0-.6,0-1.3,0-1.9,0-.9,0-1.8,0-2.7,0-.3,0-.4.4-.4,1.4,0,2.8,0,4.2,0s.6.1.7.4c.1.3,0,.5-.2.7-.7.8-.8,1.7-.4,2.7.5,1.1,1.3,1.7,2.5,1.8,1.1.1,2.1,0,3-.7,0,0,0,0,.1,0v18.4h0Z"/>
            <path class="st4" d="M174.2,317.2c-1,1.1-2.4,1.3-4,.7-1.2-.4-1.6-1.9-1-2.9.1-.2.2-.4.4-.6.7-1.1.2-1.7-1.1-1.8-1.4-.1-2.8,0-4.2,0-.4,0-.5,0-.5-.5,0-1.3,0-2.6,0-3.9v-.3c0-.8.5-1,1.2-.6.6.4,1.2.9,2,.5,1-.4,1.7-1.1,2-2.1.3-1.3.1-2.6-.6-3.7-.5-.9-1.4-1.2-2.4-.9-.5.1-.9.4-1.5.3-.5,0-.7-.2-.7-.8,0-1.7,0-3.5,0-5.2,0-.3,0-.5.4-.5,1.6,0,3.2,0,4.8,0,.5,0,.9.3,1.1.7.2.4.1.8-.2,1.1-.5.6-.6,1.2-.2,1.9.8,1.7,2.3,2.5,4.2,2.1,0,0,.2,0,.2,0v16.2h0Z"/>
            <path class="st4" d="M173.9,281.5c-1.2.9-2.5.9-3.8.3-1.2-.5-1.5-1.9-.9-3,.2-.3.4-.7.5-1,.2-.4,0-.7-.3-1-.4-.2-.8-.4-1.3-.4-1.3,0-2.6,0-3.9,0-.3,0-.4,0-.4-.4,0-1.3,0-2.7,0-4v-.3c0-.8.5-1,1.2-.6.6.4,1.1.9,1.9.5,1-.4,1.7-1.1,2-2.1.3-1.3.1-2.6-.6-3.8-.6-.9-1.4-1.1-2.4-.8-.5.2-1,.4-1.5.3-.4,0-.5-.2-.5-.6,0-1.8,0-3.6,0-5.4s0-.3.3-.3c1.7,0,3.3,0,5,0s.8.3,1,.7c.2.4.2.7,0,1.1-.7,1-.7,1.5,0,2.5,1,1.4,2.2,2.1,4.1,1.6v16.4c0,.1-.1.3-.3.3h0Z"/>
            <path class="st4" d="M174.2,353.4c-1.1,1.1-2.4,1.2-3.8.7-1.3-.4-1.8-1.9-1.2-3,.2-.3.4-.7.6-1,.2-.5.1-.8-.4-1.1-.4-.2-.8-.3-1.3-.3-1.3,0-2.6,0-3.9,0-.3,0-.4,0-.4-.4,0-1.3,0-2.6,0-4v-.2c0-.3,0-.7.3-.8.3-.2.7,0,1,.2.5.4,1,.8,1.7.5.9-.3,1.6-.9,2-1.8.6-1.6.3-3.1-.7-4.4-.4-.6-1.1-.8-1.9-.6-.5.1-.9.3-1.3.3-.8.1-1-.1-1-.9,0-1.7,0-3.4,0-5.1,0-.3.1-.4.4-.4,1.6,0,3.3,0,4.9,0s.8.3,1,.7c.2.4.2.8,0,1.1-.8.9-.5,1.8,0,2.5,1,1.4,2.4,2.1,4.1,1.6v16.4h0Z"/>
            <path class="st4" d="M174.2,245.1c-1.1,1.1-2.5,1.2-3.9.7-1.3-.4-1.8-1.9-1.1-3.1.2-.3.4-.6.5-1,.2-.5.1-.8-.4-1.1-.4-.2-.8-.3-1.3-.3-1.3,0-2.6,0-3.9,0-.3,0-.4,0-.4-.4,0-1.3,0-2.6,0-4v-.2c0-.3,0-.7.3-.8.3-.2.7,0,1,.2.5.4,1,.8,1.7.5.8-.3,1.6-.8,1.9-1.6.7-1.6.4-3.2-.6-4.6-.6-.8-1.4-.8-2.3-.5-.4.2-.9.3-1.4.2-.6-.1-.8-.3-.8-1,0-1.6,0-3.1,0-4.7,0-.4.1-.5.5-.5,1.7,0,3.5,0,5.2,0,.8,0,1.1.5.8,1.2,0,.2-.1.3-.2.5-.7,1.2-.4,2.5.8,3.2,1.1.7,2.2,1,3.5.6v16.4h0Z"/>
            <path class="st4" d="M132.1,194.4c.7,1.2.9,2.5.3,3.8-.1.3-.3.6-.6.8-.7.7-1,.7-1.9.2-.2-.1-.4-.2-.6-.3-.9-.5-1.7,0-1.8,1-.1,1.3,0,2.5,0,3.8,0,1.1,0,1.1-1.1,1.1s-2.2,0-3.3,0-1-.6-.6-1.1c.6-.8.7-1.7.5-2.7-.3-1.2-1.1-2-2.5-2.2-1.5-.2-3,.1-3.9,1.5-.6.8-.8,1.7-.3,2.7.1.2.2.4.3.6.3.7,0,1.1-.7,1.1-1.4,0-2.7,0-4.1,0h-.7c-.9,0-.8.2-.8-.8,0-1.5-.1-3.1-.2-4.6,0-.4.2-.6.7-.7.4,0,.8.1,1.1.2,1,.3,1.9.4,2.7-.4.9-.9,1.3-1.9,1-3.1,0-.3,0-.6-.1-.9h16.5,0Z"/>
            <path class="st4" d="M167.7,194.4c.6,1.1.8,2.3.4,3.5-.2.7-.8,1.2-1.5,1.6-.3.1-.5,0-.8,0-.3-.2-.7-.4-1-.6-.9-.4-1.7,0-1.8,1-.1,1.3,0,2.5,0,3.8,0,1.1,0,1.1-1.2,1.1-1,0-2.1,0-3.2,0-.7,0-1-.4-.5-1,.5-.8.8-1.7.6-2.6-.3-1.4-1.2-2.2-2.6-2.3-.9,0-1.7,0-2.5.4-1.2.5-1.8,1.6-2,2.8,0,.5.2.9.5,1.2.4.6.4,1.1-.1,1.4-.2.1-.4.1-.6.1-1.7,0-3.3,0-5,0-.4,0-.4-.2-.4-.5,0-1.6,0-3.2-.1-4.8,0-.7.3-1,1-.8.4,0,.7.2,1,.3,1.3.4,2.2,0,2.9-1.1.7-1,.7-2.1.4-3.2,0,0,0-.1,0-.2h16.5,0Z"/>
            <path class="st4" d="M96.5,194.4c.6,1.2.9,2.5.2,3.8-.1.2-.2.4-.4.6-.6.8-1.2.9-2.1.4-.3-.2-.5-.3-.8-.4-.7-.3-1.3,0-1.5.7-.2.5-.1,1-.1,1.5,0,1.1,0,2.3,0,3.4,0,.2,0,.4-.3.4-1.2,0-2.4,0-3.7,0,0,0-.2,0-.3,0-.8,0-1.1-.5-.6-1.2.6-.8.7-1.7.5-2.7-.3-1.2-1.1-1.9-2.3-2.1-1-.2-2.1,0-3,.5-1,.6-1.5,1.5-1.7,2.6,0,.4,0,.7.3,1,.2.2.3.5.4.8.2.5-.1,1-.7,1-1.7,0-3.5,0-5.3,0-.3,0-.4,0-.4-.4,0-1.7-.1-3.4-.1-5.2,0-.4.3-.6.8-.6.4,0,.7.2,1.1.3,1.9.5,3.4-.5,3.7-2.4,0-.7,0-1.4-.2-2h16.7Z"/>
            <path class="st4" d="M174.2,209.3c-1,1-2.2,1.1-3.5.8-1.6-.4-2.3-2.1-1.3-3.5.3-.4.6-.8.3-1.3-.3-.5-.8-.6-1.3-.6-1.4,0-2.8,0-4.2,0-.4,0-.5,0-.5-.5,0-1.3,0-2.7,0-4,0-.3,0-.6.3-.8.3-.2.7,0,.9.1.5.4,1.1.8,1.8.5.9-.4,1.6-.9,2-1.9.5-1.3.2-2.5-.3-3.8h5.5c.3,0,.4,0,.4.4,0,4.9,0,9.7,0,14.6h0Z"/>
            <path class="st4" d="M124.9,258.7c-.8,0-1.6,0-2.5,0-.5,0-.8-.3-1.1-.7-.2-.4-.1-.8.2-1.1.6-.7.6-1.4.2-2.1-1.3-2.4-4.4-2.8-6.1-.8-.9,1.1-1,2.2-.1,3.3.2.3.3.5.1.9-.2.3-.4.5-.8.5-1.4,0-2.8,0-4.2,0-.4,0-.6-.1-.6-.6,0-1.3,0-2.7,0-4s0-.5-.1-.8c-.3-.7-1-1-1.7-.7-.2.1-.4.2-.6.4-.6.4-.9.4-1.5,0-1.4-.9-1.8-3.6-.8-4.9.6-.7,1.3-1,2.2-.7.5.2,1,.3,1.5.4.8.1,1.3-.3,1.3-1.1,0-1.2,0-2.5-.1-3.8,0-.5,0-1,0-1.5,0-.3,0-.4.4-.4,1.7,0,3.5,0,5.3,0,1.2,0,1.7-.7,1.2-1.8,0-.2-.2-.4-.2-.5-.6-1.5,0-2.8,1.5-3.3.8-.3,1.6-.3,2.5-.2,1.1.2,1.7,1,1.8,2.1,0,.6,0,1.2-.4,1.8s-.3.6-.5.9c-.2.6,0,.9.5,1.1.5.1,1.1.2,1.6.2,1.2-.2,2.4,0,3.5,0,.2,0,.3.1.3.3,0,1.5,0,3,0,4.5,0,.8-.5,1-1.2.6,0,0,0,0,0,0-.6-.4-1.2-.9-2-.5-1,.5-1.7,1.1-2,2.2-.3,1.3,0,2.6.7,3.7.6.9,1.3,1.1,2.3.8.3,0,.6-.2.9-.3,1-.2,1.5.2,1.5,1.1,0,1.5,0,3.1,0,4.6,0,.5-.2.6-.6.6-.8,0-1.6,0-2.5,0h0s0,0,0,0Z"/>
            <path class="st4" d="M113.5,277.1h2.6c1,0,1.5-.7,1.1-1.6-.1-.3-.2-.6-.3-.9-.5-1.2-.1-2.2.9-2.9,1.1-.7,2.2-.7,3.4-.4,1.2.4,1.8,2.1,1.2,3.2-.2.4-.5.8-.7,1.2-.4.7-.1,1.1.7,1.3.8.2,1.7,0,2.5,0,.8,0,1.6,0,2.4,0,.3,0,.4,0,.4.4,0,1.5,0,2.9,0,4.4s0,.7-.4.8c-.3.1-.6,0-.9-.2-.6-.4-1.2-.9-2-.5-1,.5-1.7,1.1-2,2.2-.3,1.3,0,2.5.6,3.6.6.9,1.3,1.2,2.4.9.4-.1.9-.3,1.4-.3.8,0,1,.3,1,1.1,0,1.6,0,3.1,0,4.7s0,.4-.4.4c-1.7,0-3.4,0-5.1,0-.5,0-.9-.2-1.1-.6s0-.8.3-1.1c.4-.5.6-1,.3-1.6-.6-1.3-1.5-2.3-3-2.5-1.6-.2-3,.5-3.7,1.8-.5.9-.5,1.8.2,2.7.4.5.4.7,0,1.2-.1.2-.3.2-.5.2-1.4,0-2.9,0-4.3,0-.4,0-.6-.2-.6-.6,0-1.3,0-2.7,0-4,0-.6-.1-1.1-.7-1.4-.6-.3-1.1,0-1.5.3-.7.5-1,.5-1.7,0-1.3-1-1.7-3.5-.7-4.8.6-.8,1.2-1,2.2-.7.5.1.9.2,1.4.4.8.3,1.4-.4,1.3-1.2,0-1.3-.1-2.7-.2-4,0-.5-.2-1.1,0-1.5.3-.3.9,0,1.4-.1.6,0,1.1,0,1.7,0h0c0,0,0,0,0,0Z"/>
            <path class="st4" d="M149.1,241h2.7c.9,0,1.4-.6,1.1-1.5,0-.3-.2-.6-.3-.9-.5-1.3,0-2.5,1.2-3.2.9-.4,1.8-.5,2.8-.3,1.5.3,2.3,2.1,1.5,3.5-.2.4-.4.7-.6,1.1-.3.6,0,1.1.6,1.2.6,0,1.1.1,1.7,0,1.1-.1,2.2,0,3.4,0,.2,0,.3.1.3.3,0,1.5,0,3,0,4.5,0,.8-.5,1.1-1.2.6-.6-.4-1.2-.9-2-.5-.9.4-1.7,1.1-1.9,2.1-.3,1.4-.1,2.7.6,3.8.5.8,1.3,1.1,2.3.8.3,0,.6-.2,1-.3.9-.2,1.5.2,1.5,1.2,0,1.5,0,3,0,4.6,0,.3-.1.4-.4.5-1.8,0-3.5,0-5.3,0-.4,0-.7-.3-.9-.6s0-.7.2-1c.7-.8.7-1.4.1-2.3-1.2-2-3.6-2.5-5.4-1.2-1.4,1-1.6,2.5-.6,3.9.2.3.3.5.1.8-.2.3-.3.5-.8.5-1.4,0-2.8,0-4.2,0-.4,0-.6-.1-.6-.6,0-1.3,0-2.7,0-4s-.2-1.1-.7-1.4c-.5-.3-1-.1-1.5.2-.9.6-1.4.6-2.1-.3-1.1-1.3-1.2-3.3-.3-4.5.5-.7,1.1-.9,2-.7.5.2,1.1.3,1.6.4.9.2,1.3-.2,1.3-1.1,0-1.4,0-2.7-.1-4.1,0-.5-.2-1.1,0-1.4s.9-.1,1.4-.1c.6,0,1.1,0,1.7,0h0c0,0,0,0,0,0Z"/>
            <path class="st4" d="M74.6,280.2c0-.9,0-1.7,0-2.6,0-.3,0-.4.4-.4,1.8,0,3.6,0,5.4,0,1,0,1.5-.6,1.2-1.6,0-.3-.2-.5-.3-.7-.6-1.5,0-2.8,1.5-3.4.8-.3,1.7-.4,2.5-.2,1.5.3,2.2,2.1,1.5,3.5-.2.4-.4.7-.6,1.1-.3.7-.1,1.1.6,1.3.4,0,.9.1,1.3,0,1.2,0,2.4,0,3.6,0,.3,0,.4,0,.4.4,0,1.4,0,2.8,0,4.3,0,.3,0,.7-.3.9-.3.2-.7,0-1-.2-1.3-.9-2.6-.6-3.5.8s-.6,3.8.5,5c.5.6,1.2.7,1.9.5.5-.1,1-.4,1.5-.3.7,0,1.1.2,1.1,1.1,0,1.5,0,3.1,0,4.7s-.1.4-.4.4c-1.8,0-3.5,0-5.3,0s-.7-.2-.9-.6c-.2-.4,0-.7.2-1,.6-.8.7-1.4,0-2.3-1.5-2.3-3.8-2.3-5.5-1.1-1.3,1-1.6,2.5-.6,3.8.2.3.3.5.1.9-.2.3-.4.5-.8.5-1.4,0-2.7,0-4.1,0-.4,0-.6,0-.6-.6,0-1.4,0-2.7,0-4.1,0-.4,0-.7-.3-1-.4-.5-1.1-.6-1.7-.2-1.2.8-1.9.6-2.6-.7-.7-1.3-1-2.7,0-4,.5-.7,1.2-1,2-.7.5.1,1,.3,1.5.4,1,.2,1.5-.2,1.4-1.2,0-.4,0-.8,0-1.2v-1.2h-.1Z"/>
            <path class="st4" d="M77.8,313.1c.9,0,1.8,0,2.8,0,.8,0,1.3-.7,1-1.5,0-.3-.2-.7-.4-1-.5-1.4,0-2.6,1.3-3.2.8-.4,1.7-.4,2.6-.2,1.5.3,2.3,2,1.6,3.4-.2.4-.5.8-.7,1.2-.4.7-.1,1.1.6,1.3.6.1,1.2,0,1.7,0,1.1,0,2.1,0,3.2,0s.3.2.3.4v3.3c0,.4,0,.9,0,1.3-.1.5-.4.7-.9.5-.3,0-.5-.3-.7-.4-.6-.5-1.2-.5-1.8-.1-1.5.8-2.1,2.1-1.8,3.9.1.6.3,1.3.6,1.8.6,1,1.4,1.3,2.5.9.5-.1,1-.4,1.6-.2.6.2.7.3.7.9,0,1.6,0,3.1,0,4.7,0,.4-.2.5-.5.5h-1.8c-1,0-2.1,0-3.2,0-.5,0-.9-.1-1.1-.6-.2-.4,0-.8.3-1.1.4-.4.5-1,.3-1.5-1.2-3-4.2-3.4-6.1-1.5-1,1-1.4,2.3-.3,3.5.2.3.3.5.1.8-.2.3-.4.5-.8.5-1.4,0-2.9,0-4.3,0-.4,0-.5-.1-.4-.5,0-1.4,0-2.8,0-4.2s-.2-1.1-.7-1.4-1,0-1.5.2c-.8.6-1.4.5-2.1-.3-1-1.2-1.2-3.1-.5-4.3.6-.9,1.2-1.2,2.3-.9.5.1,1,.3,1.4.4.8.2,1.3-.2,1.3-1s0-1.7,0-2.5c0-.9,0-1.8,0-2.7,0-.4.1-.4.4-.4.9,0,1.8,0,2.8,0h0c0-.1,0-.1,0-.1Z"/>
            <path class="st4" d="M113.4,313.2h2.7c.9,0,1.4-.7,1.1-1.6,0-.3-.2-.6-.4-.9-.5-1.3-.1-2.3,1.1-3,1-.5,2.1-.6,3.1-.3,1.3.4,2,2,1.4,3.3-.2.5-.5.9-.7,1.3-.3.6,0,1,.6,1.2.4.1.9.1,1.3,0,1.2-.1,2.4,0,3.6,0,.4,0,.4.1.4.4,0,1.4,0,2.7,0,4.1v.3c0,.8-.5,1-1.2.6,0,0,0,0,0,0-.6-.5-1.2-.9-2-.5-1,.4-1.7,1.1-1.9,2.1-.3,1.4,0,2.6.7,3.8.6.9,1.4,1.1,2.5.8.5-.2,1-.4,1.5-.2.5.1.7.4.7.9,0,1.6,0,3.1,0,4.7s0,.5-.5.5c-1.7,0-3.4,0-5.1,0-.5,0-.8-.2-1-.6-.2-.4,0-.8.2-1.1.4-.5.6-1,.4-1.6-.5-1.4-2-2.7-3.4-2.6-1.2,0-2.3.4-3.1,1.5-.6.9-.9,1.9,0,3.1.3.4.3.7,0,1.1-.2.2-.3.3-.6.3-1.4,0-2.8,0-4.3,0s-.5-.1-.5-.5c0-1.3,0-2.6,0-4v-.4c0-1.1-1.1-1.6-2-1-1.2.8-2,.6-2.6-.7-.7-1.3-1-2.7,0-4,.5-.7,1.2-.9,2-.7.5.1,1,.3,1.5.4,1,.2,1.5-.2,1.4-1.2,0-1.7-.1-3.3-.2-5,0-.3,0-.4.4-.4.9,0,1.8,0,2.7,0h0c0-.1,0-.1,0-.1Z"/>
            <path class="st4" d="M77.8,241h2.7c1,0,1.5-.7,1.2-1.7-.1-.3-.2-.6-.4-.9-.5-1.2-.1-2.3,1-2.9,1.1-.6,2.2-.7,3.4-.3,1.3.4,1.8,2.2,1.1,3.4-.2.4-.4.7-.6,1.1-.3.6,0,1,.6,1.2.4.1.9.1,1.3.1,1.2,0,2.4,0,3.6,0,.3,0,.5,0,.5.5,0,1.4,0,2.7,0,4.1v.2c0,.9-.5,1.1-1.3.6-.5-.4-1-.8-1.7-.5-.9.3-1.7.9-2,1.8-.5,1.5-.3,3,.6,4.3.5.8,1.4,1,2.4.7.4-.1.9-.3,1.4-.3.7,0,.9.3.9,1,0,1.6,0,3.2,0,4.8,0,.3-.1.4-.4.4-1.8,0-3.5,0-5.3,0s-.7-.2-.9-.5c-.2-.3-.1-.6,0-.9.8-1.2.7-1.7-.1-2.9-1.7-2.2-4.2-1.6-5.4-.4-.9.9-1.5,2.3-.3,3.6.2.3.3.5,0,.9-.2.3-.4.5-.8.5-1.5,0-2.9,0-4.4,0s-.4-.1-.4-.4c0-1.4,0-2.8,0-4.2s0-.3,0-.4c-.2-1.1-1.1-1.5-2-.9-1.1.7-1.8.6-2.5-.5-.6-1.1-1-2.3-.4-3.6.6-1.2,1.4-1.6,2.7-1.2.4.1.9.3,1.4.3.8.1,1.2-.2,1.2-1,0-.8,0-1.6,0-2.5,0-1,0-1.9,0-2.9,0-.3,0-.4.4-.4.9,0,1.8,0,2.8,0h0c0,0,0,0,0,0Z"/>
            <path class="st4" d="M149.1,277.1h2.7c1,0,1.4-.6,1.2-1.6-.1-.4-.3-.8-.5-1.3-.3-1,.1-2,1.1-2.6,1.1-.6,2.2-.7,3.4-.3,1.2.4,1.8,2.1,1.2,3.3-.2.4-.4.7-.6,1.1-.4.7-.1,1.2.7,1.3,1,.2,2,0,3,0,.6,0,1.2,0,1.8,0s.4,0,.4.3c0,1.5,0,2.9,0,4.4,0,.9-.5,1.2-1.2.7-.6-.4-1.1-.9-2-.5-1,.4-1.7,1.1-2,2.1-.3,1.3-.1,2.6.6,3.8.6.9,1.4,1.1,2.4.8.5-.1.9-.3,1.4-.3.7,0,1,.4,1,1,0,1.6,0,3.1,0,4.7s-.1.4-.4.5c-1.7,0-3.5,0-5.3,0s-.7-.2-.9-.6,0-.7.2-1c.6-.6.6-1.3.2-2-1.4-2.6-3.9-2.7-5.7-1.3-1.3,1-1.5,2.5-.5,3.8.2.3.3.5.1.8-.2.3-.4.5-.8.5-1.4,0-2.7,0-4.1,0q-.7,0-.7-.7c0-1.3,0-2.6,0-4,0-.6-.2-1.1-.7-1.4-.5-.3-1-.1-1.4.2-1,.8-1.6.4-2.2-.3-.8-1-1.4-3.1-.2-4.5.5-.6,1.1-.9,1.9-.7.6.2,1.2.3,1.7.4.7.2,1.2-.2,1.2-1,0-.7,0-1.5,0-2.2,0-1,0-2.1,0-3.2,0-.3.1-.3.4-.3h2.8c0-.1,0,0,0,0Z"/>
            <path class="st4" d="M149.1,313.2c.9,0,1.8,0,2.7,0,.9,0,1.3-.7,1.1-1.5-.1-.4-.3-.7-.4-1.1-.4-1.1,0-2.2.9-2.8,1.1-.7,2.3-.8,3.5-.4,1.2.4,1.8,2.1,1.2,3.3-.2.4-.5.8-.7,1.2-.3.7-.1,1.1.6,1.2.4.1.9.1,1.3,0,1.2-.1,2.4,0,3.6,0,.3,0,.4,0,.4.4,0,1.4,0,2.8,0,4.3s0,.7-.3.9-.7,0-1-.2c-1.4-.9-2.7-.5-3.5.9-.8,1.3-.5,3.7.6,4.9.6.6,1.3.8,2.2.5.5-.2,1-.4,1.5-.3.6.1.8.3.8,1,0,1.6,0,3.1,0,4.7,0,.3-.1.5-.4.5-1.8,0-3.6,0-5.4,0-.8,0-1.1-.8-.7-1.5.8-1.2.7-1.7-.1-2.8-2-2.7-5.4-1.4-6.2.6-.4.9-.3,1.7.3,2.4.4.5.4.7,0,1.2-.1.2-.3.3-.6.3-1.4,0-2.9,0-4.3,0-.4,0-.5-.1-.5-.5,0-1.4,0-2.7,0-4.1s-.1-1.1-.7-1.4c-.6-.3-1.1,0-1.5.3-.7.5-1.1.5-1.8,0-.9-.7-1.7-3-.9-4.4.6-1,1.3-1.4,2.5-1.1.5.1,1,.3,1.4.4.8.2,1.3-.2,1.3-1s0-1.4,0-2.1c0-1.1,0-2.2,0-3.3,0-.3,0-.4.4-.4.9,0,1.8,0,2.8,0h0c0-.1,0,0,0,0Z"/>
            <path class="st4" d="M113.4,205.2h2.6c1,0,1.5-.7,1.2-1.7,0-.2-.2-.5-.3-.7-.6-1.4,0-2.6,1.3-3.2.8-.4,1.7-.4,2.6-.2,1.5.3,2.3,2,1.6,3.4-.2.4-.5.8-.7,1.2-.4.7-.1,1.2.7,1.3.7.1,1.5,0,2.2,0,.9,0,1.8,0,2.7,0,.2,0,.3,0,.3.3,0,1.5,0,2.9,0,4.4,0,.9-.5,1.2-1.2.7-.6-.4-1.2-.9-2-.5-1,.5-1.7,1.2-2,2.3-.3,1.3,0,2.6.7,3.7.5.8,1.3,1,2.2.8.5-.1.9-.4,1.4-.3.6,0,.8.2.8.8,0,1.7,0,3.3,0,5,0,.4-.1.4-.5.4-1.6,0-3.2,0-4.8,0-.5,0-.8-.1-1-.5-.2-.4,0-.8.2-1.1.4-.5.5-1,.3-1.6-.9-2.6-4.4-3.4-6.2-1.3-.9,1-1.2,2.2-.2,3.4.3.3.3.6.1,1-.1.3-.2.4-.6.4-1.5,0-2.9,0-4.4,0-.3,0-.4-.1-.4-.4,0-1.2,0-2.4,0-3.7s0-.7-.2-1c-.4-1-1.3-1.3-2.2-.7-1,.7-1.6.6-2.3-.4-.9-1.2-1-3-.3-4.1.6-.9,1.3-1.2,2.3-.9.5.1,1,.3,1.5.4.8.1,1.2-.2,1.2-1,0-1.7,0-3.4-.2-5.1,0-.5,0-.7.6-.6.8,0,1.7,0,2.6,0h0c0-.1,0,0,0,0Z"/>
            <path class="st4" d="M149.2,205.2h2.6c1,0,1.5-.6,1.2-1.5,0-.3-.2-.6-.3-.9-.5-1.3,0-2.6,1.2-3.2.9-.4,1.8-.5,2.7-.3,1.5.3,2.2,2,1.6,3.4-.2.4-.4.7-.6,1.1-.4.7-.1,1.2.7,1.3.7.1,1.4,0,2.1,0,.9,0,1.8,0,2.7,0,.3,0,.3.1.3.4,0,1.4,0,2.8,0,4.3,0,.3,0,.7-.4.9-.3.2-.7,0-.9-.2-1.3-.9-2.6-.6-3.5.8-.9,1.4-.6,3.9.5,5.1.5.5,1.2.7,1.9.5.5-.1.9-.4,1.5-.3.6,0,.7.2.7.7,0,1.7,0,3.3,0,5,0,.4,0,.5-.5.5-1.6,0-3.2,0-4.9,0-.4,0-.7-.1-.9-.5-.2-.4-.2-.8.1-1.1.7-.7.6-1.5.1-2.3-1.5-2.4-3.9-2.3-5.5-1.1-1.3,1-1.5,2.5-.6,3.8.2.2.3.5.2.8,0,.4-.3.6-.7.6-1.4,0-2.8,0-4.2,0-.4,0-.5,0-.5-.5,0-1.2,0-2.5,0-3.8,0-.4,0-.7-.2-1.1-.3-.7-1.2-1.2-2.1-.5-1,.8-1.7.6-2.4-.5-.7-1.2-1.1-2.5-.3-3.9.6-1,1.3-1.3,2.5-1,.5.1.9.3,1.4.4.8.1,1.3-.2,1.2-1.1,0-1.4,0-2.9-.1-4.3,0-1.3,0-1.3,1.2-1.3h1.9c0,0,0,0,0,0Z"/>
            <path class="st4" d="M91.9,219.7v2.7c0,.2,0,.3-.3.3-1.7,0-3.3,0-5,0s-.7-.2-.9-.5c-.2-.4,0-.7.2-1,.6-.8.7-1.3.1-2.2-1.2-2.1-3.7-2.6-5.6-1.1-1.3,1-1.5,2.5-.5,3.7.2.2.3.5.2.8,0,.4-.2.6-.7.6-1.4,0-2.8,0-4.3,0s-.4,0-.4-.4c0-1.3,0-2.5,0-3.8s-.2-1-.5-1.4c-.5-.7-1.2-.7-1.9-.2-1,.7-1.8.6-2.5-.5-.9-1.5-1-3,0-4.2.5-.7,1.2-1,2-.7.5.2,1.1.3,1.6.4.9.2,1.3-.3,1.3-1.2,0-1.7-.1-3.4-.2-5.1,0-.3,0-.5.4-.5,1.8,0,3.6,0,5.4,0,.9,0,1.4-.7,1.1-1.6,0-.3-.2-.6-.4-.9-.5-1.3,0-2.5,1.2-3.1.9-.5,2-.6,3-.3,1.4.4,2.1,2,1.5,3.3-.2.4-.5.8-.7,1.2-.3.7-.1,1.1.6,1.3.4,0,.9.1,1.3,0,1.2,0,2.4,0,3.6,0,.3,0,.4,0,.4.4,0,1.4,0,2.7,0,4.1v.2c0,.3,0,.7-.3.8-.3.2-.7,0-1-.2-.5-.4-1-.8-1.6-.6-.8.2-1.4.7-1.8,1.4-.9,1.4-.6,3.8.6,5,.6.6,1.4.7,2.2.4.5-.2.9-.3,1.4-.3.4,0,.6.2.5.6,0,.8,0,1.7,0,2.6h0Z"/>
            <path class="st4" d="M109.8,273.6c0,.9,0,1.7,0,2.6,0,.4-.1.5-.4.5-1.7,0-3.5,0-5.2,0-.5,0-1,0-1.3.6-.3.5-.3,1.1,0,1.7.7,1,.6,1.5-.3,2.4-1.2,1.1-2.8,1.1-4,.5-1.2-.5-1.5-2-.8-3.1.1-.2.2-.4.3-.6.5-1,.1-1.6-1-1.6-1.4,0-2.8,0-4.3,0-.4,0-.6-.1-.6-.6,0-1.4,0-2.7,0-4.1,0-.3,0-.7.3-.8.3-.2.7,0,.9.2.5.4,1,.8,1.6.6.8-.3,1.5-.7,1.9-1.5.8-1.4.5-3.7-.6-4.9-.6-.6-1.3-.8-2.1-.4-.5.2-1,.4-1.5.2-.4-.1-.6-.3-.6-.8,0-1.7,0-3.3,0-5,0-.4,0-.5.5-.5,1.6,0,3.1,0,4.7,0,.5,0,.9.3,1.1.7.2.4.1.8-.2,1.2-.6.7-.6,1.3-.2,2.1,1.3,2.4,4.2,2.9,6,.9,1-1.1,1.2-2.3.2-3.4-.2-.3-.3-.5-.1-.9.2-.3.4-.5.8-.5,1.3,0,2.6,0,4,0,.4,0,.4.1.4.5,0,1.2,0,2.5,0,3.8s.2,1,.5,1.4c.5.6,1.1.7,1.7.3,0,0,0,0,0,0,1.2-.8,1.9-.6,2.6.6.6,1,.9,2.2.4,3.3-.7,1.5-1.6,1.7-2.7,1.3-.4-.1-.9-.3-1.3-.3-.9-.1-1.3.3-1.3,1.2,0,.8,0,1.7,0,2.5h.2,0Z"/>
            <path class="st4" d="M109.8,345.7c0,.9,0,1.7,0,2.6,0,.3,0,.4-.4.4-1.7,0-3.4,0-5.2,0-.6,0-1.1,0-1.4.6-.3.6-.2,1.2.2,1.8.5.6.5,1.1,0,1.7-1.2,1.6-3.1,1.7-4.5,1-1.1-.6-1.4-2-.7-3.1,0-.2.2-.3.3-.5.5-1,.3-1.6-1-1.7-1.4,0-2.8,0-4.3,0-.4,0-.5-.1-.5-.5,0-1.4,0-2.7,0-4.1,0-.3,0-.7.3-.8.3-.2.6,0,.9.2.2.1.3.2.5.4.4.3.9.4,1.3.2,1.1-.4,1.9-1.2,2.1-2.4.2-1.2,0-2.3-.6-3.4-.6-1.1-1.5-1.4-2.6-.9-.5.2-1,.3-1.5,0-.3-.1-.5-.3-.5-.7,0-1.7,0-3.4,0-5.1,0-.3,0-.5.4-.5,1.6,0,3.1,0,4.7,0,.6,0,1,.3,1.2.7.2.4,0,.8-.2,1.2-.5.6-.5,1.2-.2,1.9,1.2,2.4,4.2,3,6,1.1.9-1,1.3-2.2.3-3.5-.2-.3-.3-.5-.1-.8.2-.3.4-.5.8-.5,1.3,0,2.6,0,4,0,.4,0,.4.1.4.5,0,1.2,0,2.5,0,3.7,0,.5.1.9.4,1.2.4.6,1.2,1.1,2.1.4,1-.7,1.8-.6,2.4.5.7,1.2,1.1,2.6.3,3.9-.6,1-1.3,1.2-2.4.9-.4-.1-.9-.3-1.3-.4-1-.2-1.4.2-1.4,1.2,0,.8,0,1.6,0,2.5h.2Z"/>
            <path class="st4" d="M128.2,219.7v-2.6c0-.6-.3-1-.9-1.1-.5,0-1,0-1.5.2-1.3.4-2,.1-2.5-1.2-.4-1.1-.5-2.1,0-3.2.1-.2.2-.4.4-.6.6-.8,1.2-.9,2.1-.4.2.1.5.3.7.4.7.3,1.3,0,1.6-.7.2-.5.1-1,.1-1.5,0-1.2,0-2.3,0-3.5,0-.3,0-.4.4-.4,1.3,0,2.7,0,4,0s.6.1.7.4c.1.3,0,.5-.1.7-1.3,1.9-.5,3.9,1.8,4.4,1.7.4,3.1,0,4.1-1.5.6-.9.6-1.4,0-2.3-.2-.3-.4-.7-.2-1,.2-.4.5-.6.9-.6,1.7,0,3.5,0,5.2,0s.3.1.3.3c0,1.7.1,3.4.2,5.1,0,.4-.3.7-.8.7-.4,0-.7-.1-1-.2-1.8-.6-2.9.2-3.5,1.7-.5,1.2-.1,3.8,1.3,4.7,1.1.6,1.6.6,2.4,0,.3-.2.6-.5,1-.3.4.2.5.6.6,1,0,0,0,.1,0,.2v3.9c0,.3,0,.4-.4.4-1.3,0-2.6.1-3.9-.1-.2,0-.4,0-.6,0-.5,0-.7.4-.7.9,0,.5.2.9.4,1.3.2.4.3.8.3,1.3,0,1-.7,1.7-1.6,2-1.1.2-2.2.2-3.2-.2-1.3-.5-1.7-1.4-1.2-2.6.1-.3.2-.6.3-.9.3-.9-.1-1.6-1.1-1.7-.7,0-1.4,0-2.1,0-1.1,0-2.2,0-3.3,0-.3,0-.4,0-.4-.4,0-.9,0-1.7,0-2.6h.1Z"/>
            <path class="st4" d="M109.8,309.7c0,.9,0,1.7,0,2.6,0,.4,0,.5-.5.5-1.7,0-3.4,0-5.1,0-.6,0-1.2,0-1.4.6-.3.6-.2,1.2.2,1.8.5.7.5,1.1,0,1.8-1.1,1.6-3,1.6-4.4.9-1.1-.5-1.4-2-.7-3,.1-.2.2-.4.3-.6.5-1,0-1.7-1-1.7-1.3,0-2.6,0-4,0-.8,0-.8,0-.8-.8,0-1.3,0-2.5,0-3.8,0-.3,0-.7.3-.8.3-.2.6,0,.9.2.2.1.4.3.5.4.4.3.9.3,1.3.2,1.2-.5,2-1.4,2.1-2.7.1-1.2,0-2.3-.7-3.2-.6-.9-1.4-1.1-2.3-.8-.5.2-1,.4-1.5.2-.4-.1-.6-.3-.6-.8,0-1.7,0-3.4,0-5.1,0-.3,0-.5.5-.5,1.6,0,3.2,0,4.9,0s.8.3,1,.7c.2.4.1.7-.1,1.1-.7.8-.7,1.4-.1,2.3,1.5,2.4,3.8,2.4,5.5,1.1,1.3-1,1.5-2.4.6-3.8-.2-.3-.3-.5-.1-.8.2-.3.4-.5.8-.5,1.3,0,2.7,0,4,0,.4,0,.4.1.4.5,0,1.2,0,2.5,0,3.7,0,.4.1.8.3,1.2.5.8,1.3,1,2.1.4,1-.7,1.6-.6,2.3.4.9,1.3,1.2,3.1.2,4.3-.6.7-1.2.9-2.1.7-.5-.1-1-.3-1.5-.4-.9-.2-1.4.2-1.4,1.2,0,.8,0,1.7,0,2.5h.2,0Z"/>
            <path class="st4" d="M56.9,262.1c0-.9,0-1.8,0-2.7,0-.4.1-.4.4-.4,1.6,0,3.2,0,4.8,0,.5,0,.8.3,1,.7.2.4.1.7-.1,1.1-.7.9-.7,1.4-.1,2.3,1.4,2.3,4.5,2.6,6,.6.7-.9,1.1-2.1,0-3.2-.2-.2-.3-.5-.1-.8.2-.3.4-.6.8-.6,1.3,0,2.6,0,3.9,0,.3,0,.5,0,.5.4,0,1.2,0,2.5,0,3.7,0,.5.2,1,.5,1.4.5.7,1.2.8,1.9.3,1.1-.7,1.8-.6,2.5.5.7,1.2,1,2.4.3,3.7-.6,1.2-1.4,1.5-2.6,1.1-.5-.1-.9-.3-1.4-.4-.8,0-1.2.3-1.2,1.1,0,1.6.1,3.2.2,4.8,0,.9,0,.9-.8.9-1.6,0-3.2,0-4.8,0-1.3,0-1.9,1.1-1.2,2.2.7,1.2.5,1.7-.5,2.6-1.2,1-2.5.9-3.8.4-1.2-.5-1.6-2.1-.8-3.2,0,0,.1-.2.2-.3.2-.4.5-.8.2-1.2-.2-.5-.7-.6-1.2-.6-1.4,0-2.8,0-4.3,0-.4,0-.5,0-.5-.5,0-1.4,0-2.7,0-4.1,0-.8.5-1.1,1.2-.7.6.4,1.2.9,2,.5,1-.5,1.7-1.1,1.9-2.2.3-1.3,0-2.5-.6-3.6-.6-1-1.4-1.2-2.6-.8-.4.1-.8.3-1.3.3-.4,0-.6-.2-.6-.6,0-.9,0-1.8,0-2.7h0Z"/>
            <path class="st4" d="M56.9,334.2c0-.9,0-1.8,0-2.7,0-.3,0-.4.4-.4,1.6,0,3.2,0,4.8,0,.5,0,.8.3,1,.7.2.4.2.7-.1,1.1-.8.9-.5,1.7,0,2.4,1.4,2.2,4.3,2.5,5.9.6.9-1.1,1-2.2.1-3.3-.2-.3-.3-.5-.1-.8.2-.3.4-.6.8-.5,1.3,0,2.6,0,3.9,0,.4,0,.4.1.4.5,0,1.2,0,2.5,0,3.7s.2,1,.5,1.4c.5.7,1.3.8,2,.3,1-.7,1.8-.6,2.4.5.7,1.2,1.1,2.4.4,3.7-.6,1.1-1.3,1.4-2.6,1.1-.5-.1-.9-.3-1.4-.4-.9-.1-1.3.3-1.3,1.1,0,1.6.1,3.3.2,4.9q0,.7-.7.7c-1.6,0-3.2,0-4.9,0-.5,0-1.1,0-1.4.6-.3.6-.2,1.2.2,1.7.6.9.5,1.5-.2,2.2-1.1,1.2-2.7,1.3-4.1.6-1.2-.5-1.5-2.1-.8-3.1,0-.1.2-.3.3-.4.5-.9.1-1.7-.9-1.7-1.4,0-2.9,0-4.3,0-.5,0-.6-.1-.6-.6,0-1.3,0-2.7,0-4,0-.9.5-1.1,1.2-.7.6.4,1.2.9,2,.5,1-.5,1.7-1.1,2-2.2.3-1.3,0-2.6-.7-3.7-.5-.8-1.3-1.1-2.2-.8-.5.1-.9.4-1.5.3-.6,0-.7-.2-.7-.7v-2.6h0,0Z"/>
            <path class="st4" d="M56.9,298.1v-2.8c0-.3,0-.3.3-.3,1.7,0,3.3,0,5,0s.7.3.9.7c.2.3.2.7,0,1-.8.9-.7,1.6,0,2.7,1.4,2,3.6,2.1,5.2.9,1.4-1,1.6-2.5.6-3.8-.2-.3-.3-.5-.1-.8s.4-.5.8-.5c1.3,0,2.6,0,3.9,0,.3,0,.5,0,.4.4,0,1.2,0,2.5,0,3.7,0,.8.3,1.4,1,1.8.5.3,1,.2,1.4-.1,1.1-.7,1.8-.6,2.5.5.8,1.5,1,2.9,0,4.1-.6.7-1.2,1-2.1.8-.5-.1-1-.3-1.5-.4-1-.2-1.4.2-1.4,1.2,0,1.7,0,3.3.2,5,0,.4-.1.5-.5.5-1.6,0-3.1,0-4.7,0h-.4c-1.2,0-1.9,1.1-1.2,2.2.9,1.3.5,2-.7,2.9-1.2.8-2.4.7-3.6,0-1.1-.6-1.4-2-.7-3.1,0,0,.1-.2.2-.3.6-1,.3-1.7-.9-1.7-1.5,0-2.9,0-4.4,0s-.5,0-.5-.5c0-1.4,0-2.7,0-4.1s0-.7.3-.8c.3-.2.6,0,.9.2.6.5,1.2.9,2,.5,1-.5,1.7-1.2,1.9-2.3.3-1.3,0-2.5-.6-3.6-.6-.9-1.4-1.2-2.5-.9-.5.1-1,.4-1.5.3-.4,0-.5-.2-.5-.6,0-.9,0-1.8,0-2.7h0Z"/>
            <path class="st4" d="M142.5,312.8c-.8,0-1.7,0-2.5,0-.5,0-1.1,0-1.4.6-.3.5-.2,1.1.1,1.6.7,1.1.6,1.6-.4,2.5-1.2,1.1-2.8,1-3.9.4-1.1-.5-1.5-2-.8-3.1,0-.1.2-.3.2-.4.7-1.1,0-1.8-1-1.8-1.4,0-2.8,0-4.2,0-.5,0-.6-.1-.6-.6,0-1.1,0-2.3,0-3.4,0-.2,0-.5,0-.7,0-.8.5-1,1.2-.6,0,0,0,0,.1,0,.5.4,1,.8,1.7.5.9-.3,1.6-.8,2-1.7.7-1.6.4-3.1-.6-4.5-.5-.7-1.3-.9-2.2-.7-.5.1-1,.4-1.5.3-.4,0-.6-.2-.6-.7,0-1.7,0-3.4,0-5.1s.1-.4.4-.4c1.6,0,3.2,0,4.8,0,.5,0,.8.2,1,.6s0,.8-.2,1.1c-.4.5-.6,1-.3,1.6.5,1.3,1.4,2.2,2.8,2.5,1.4.3,2.6-.1,3.6-1.2.9-1,.9-2.1.1-3.2-.2-.3-.4-.5-.2-.9s.5-.5.9-.5c1.3,0,2.7,0,4,0,.4,0,.5.1.5.5,0,1.5.1,2.9.2,4.4,0,.5.2.9.7,1.2.5.2.9.1,1.4-.2,1.1-.8,1.8-.6,2.5.6.6,1.2,1,2.4.3,3.7-.6,1.1-1.4,1.4-2.6,1.1-.4-.1-.9-.3-1.3-.3-.9-.2-1.4.3-1.3,1.2,0,1.4.1,2.9.2,4.3,0,1.2,0,1.2-1.1,1.2-.6,0-1.3,0-1.9,0h0s0,0,0,0Z"/>
            <path class="st4" d="M128.2,334.3c0-.9,0-1.7,0-2.6,0-.3,0-.4.4-.4,1.6,0,3.3,0,4.9,0,.4,0,.7.2.9.5.2.4,0,.7-.2,1.1-.6.7-.7,1.3-.2,2.1.6,1,1.4,1.8,2.7,2.1,1.7.3,3.6-.9,4-2.5.2-.8,0-1.4-.5-2-.4-.4-.3-.7,0-1.1.1-.2.3-.2.5-.2,1.4,0,2.9,0,4.3,0s.3,0,.3.3c0,1.5.1,2.9.2,4.4,0,.6.2,1,.7,1.3.5.3,1,0,1.4-.2.9-.7,1.6-.6,2.3.4.8,1.2,1.3,3.1.2,4.4-.5.6-1.2.9-2,.7-.5-.1-1-.3-1.4-.4-1-.2-1.5.2-1.5,1.3,0,1.7.1,3.3.2,5,0,.3,0,.4-.4.4-1.7,0-3.3,0-5,0h-.2c-1.6,0-1.7,1.3-1.2,2.1.8,1.4.5,2-.8,2.9-1.1.7-2.3.6-3.5,0-1.1-.6-1.4-2-.7-3.1,0-.1.2-.2.3-.4.5-1,.1-1.8-1-1.8-1.4,0-2.7,0-4.1,0s-.7.1-.7-.7c0-1.1,0-2.2,0-3.4,0-.2,0-.4,0-.7,0-.8.5-1,1.2-.6,0,0,0,0,0,0,.5.4,1,.8,1.7.6.8-.3,1.5-.7,1.9-1.5.8-1.3.5-3.8-.6-4.9-.6-.6-1.3-.7-2.2-.5-.5.2-.9.4-1.5.3-.3,0-.5-.2-.5-.6,0-.9,0-1.7,0-2.6h0,0Z"/>
            <path class="st4" d="M142.4,276.7h-2.6c-1.4,0-1.6,1-1.3,2,0,0,0,0,0,0,.3.6.8,1.1.4,1.8-.5.9-1.3,1.5-2.4,1.6-.5,0-1,0-1.5-.1-1.1-.2-1.9-1.3-1.9-2.4,0-.3.1-.5.2-.6.1-.2.3-.4.4-.6.6-1,.1-1.8-1-1.8-1.2,0-2.5,0-3.8,0-1,0-1,0-1-.9,0-1,0-2,0-3.1,0-.2,0-.5,0-.7,0-.8.5-1,1.2-.6,0,0,0,0,0,0,.5.4,1,.8,1.7.6.8-.3,1.5-.8,1.9-1.5.7-1.3.4-3.7-.6-4.8-.6-.7-1.4-.7-2.2-.4-.5.2-.9.4-1.5.2-.3,0-.5-.2-.5-.6,0-1.7,0-3.5,0-5.2,0-.3,0-.4.4-.4,1.6,0,3.3,0,4.9,0,.5,0,.8.2,1,.6.2.4,0,.7-.2,1-.6.8-.7,1.3-.1,2.2,1.3,2.2,3.5,2.6,5.5,1.3,1.4-1,1.7-2.5.7-3.9-.2-.3-.3-.5,0-.8.2-.3.3-.5.7-.5,1.4,0,2.8,0,4.2,0,.3,0,.4.1.4.4,0,1.5.1,2.9.2,4.4,0,.5.2.9.7,1.2.5.3.9.1,1.4-.2,1.1-.7,1.8-.6,2.5.6.9,1.5.9,3,0,4.1-.5.7-1.2.9-2,.7-.5-.1-1-.3-1.5-.4-1-.2-1.5.2-1.5,1.2,0,1.7.1,3.3.2,5,0,.4,0,.5-.4.5-.9,0-1.8,0-2.7,0h0c0,0,0,0,0,0Z"/>
            <path class="st4" d="M92.5,219.6v-2.4c0-.9-.6-1.4-1.5-1.3-.4,0-.8.2-1.2.3-.9.2-1.5,0-1.9-.8-.6-1.2-.8-2.4-.2-3.6.1-.3.3-.5.5-.7.7-.8,1.1-.8,2-.2.2.1.3.2.5.3.9.5,1.8,0,1.9-1,.1-1.2,0-2.4,0-3.6,0-.5-.2-1,0-1.3.3-.3.9,0,1.3,0,1,0,2,0,3.1,0,.7,0,.9.5.6,1.1,0,0,0,.1-.1.2-1,1.4-.5,3.3,1.2,4,1.9.7,3.6.4,4.9-1.3.6-.8.6-1.5,0-2.3-.3-.3-.4-.7-.2-1.1s.5-.6,1-.6c1.7,0,3.4,0,5.1,0s.3.1.4.4c0,1.7.1,3.4.2,5.1,0,.4-.3.7-.8.6-.3,0-.6-.1-1-.2-2.3-.7-4.2,1.1-3.8,3.5,0,.4.2.9.3,1.3.3.9.9,1.5,1.7,1.9.7.3,1.2.2,1.8-.2.3-.2.6-.6,1.1-.3.4.2.5.7.5,1.2,0,1.3,0,2.6,0,3.9,0,.3,0,.4-.4.4-1.3,0-2.6,0-3.9-.1-1.1-.2-1.5.4-1.2,1.5,0,.3.2.6.3.9.6,1.6,0,2.8-1.7,3.1-1,.2-2,.1-2.9-.2-1.2-.5-1.6-1.3-1.2-2.6.1-.3.2-.6.3-.9.3-1-.1-1.7-1.2-1.8-.7,0-1.3,0-2,0-1.1,0-2.1,0-3.2,0-.4,0-.5-.1-.5-.5,0-.9,0-1.7,0-2.6h0Z"/>
            <path class="st4" d="M57,219.7v-2.4c0-1-.6-1.6-1.6-1.3-.4,0-.8.2-1.2.3-.8.2-1.4,0-1.8-.7-.6-1-.7-2-.5-3.1.2-.8.6-1.4,1.3-1.8.4-.2.7-.2,1,0,.3.2.6.4,1,.6.8.4,1.7,0,1.8-1,0-1.3,0-2.6,0-4,0-.7.4-1.1,1.1-1.1h3.3c.7,0,1,.5.7,1.1,0,0,0,.1-.1.2-1.3,1.4,0,3.7,1.5,4.1,1.8.5,3.4,0,4.4-1.3.7-.9.7-1.5,0-2.4-.2-.3-.4-.7-.2-1.1.2-.4.6-.5,1-.5,1.6,0,3.2,0,4.9,0,.4,0,.5,0,.5.5,0,1.7,0,3.3.1,5,0,.5-.3.6-.7.7-.4,0-.7-.1-1.1-.2-2.1-.6-3.8.5-3.8,2.7,0,1.4.3,2.8,1.6,3.7.9.6,1.5.6,2.3,0,.8-.6,1.5-.4,1.6.7,0,1.4,0,2.8,0,4.3,0,.2-.1.2-.2.2-1.3,0-2.6.2-4,0-1.2-.2-1.7.4-1.3,1.5.2.6.5,1.1.5,1.8,0,1-.5,1.8-1.5,2.1-1.2.4-2.4.3-3.5-.2-1.1-.5-1.5-1.3-1-2.4,0-.3.2-.5.3-.8.5-1.2,0-2-1.4-2-1.6,0-3.3,0-4.9,0-.4,0-.5-.1-.5-.5,0-.8,0-1.7,0-2.5h0,0Z"/>
            <path class="st4" d="M71.1,240.6h-2.5c-.5,0-1.1,0-1.4.6-.2.5-.2,1.1.1,1.6.7,1.1.5,1.7-.4,2.4-1.1,1.1-2.5,1-3.8.5-1.2-.5-1.6-2.1-.9-3.1,0-.1.2-.3.3-.4.5-.9.3-1.6-1-1.7-1.4,0-2.8,0-4.3,0-.5,0-.6-.1-.6-.6,0-1.1,0-2.2,0-3.3,0-.2,0-.5,0-.7,0-.3,0-.7.3-.9.3-.2.6,0,.9.2,1.3.9,2.4.6,3.4-.6,1-1.4.7-4.2-.6-5.3-.5-.4-1.1-.5-1.7-.4-.3,0-.7.2-1,.3-.4.1-.8,0-1.2,0-.3-.1-.4-.3-.4-.7,0-1.6,0-3.2,0-4.8s.1-.5.5-.5c1.8,0,3.6,0,5.4,0,.6,0,.9.4.7,1,0,.2-.1.3-.2.5-.8,1.2-.5,2.6.6,3.4,1.5,1,3.1,1,4.8.3,1.2-.5,1.7-1.9,1.3-3.2-.2-.5-.4-.9-.5-1.4-.1-.5,0-.7.4-.6,1.5.2,3,.1,4.5.1s.3.2.3.4v3.8c0,.3,0,.6.1.8.3.7,1,1,1.7.6.2-.1.4-.2.5-.4.5-.4.9-.4,1.5,0,1.5,1,1.8,3.9.5,5.2-.5.5-1,.6-1.6.5-.6-.2-1.2-.3-1.8-.4-.9-.2-1.3.3-1.3,1.2,0,1.7.1,3.4.2,5.2,0,.3,0,.4-.4.4-.9,0-1.8,0-2.7,0,0,0,0,0,0,0Z"/>
            <path class="st4" d="M95.3,223.2h2.6c.9,0,1.3.6.8,1.4-1.2,1.5-.1,3.4,1.3,3.9,1.3.5,2.5.4,3.7,0,1.5-.5,2.1-1.9,1.6-3.4-.2-.4-.3-.9-.5-1.3-.1-.5,0-.7.5-.6,1.5.2,2.9,0,4.4.1.3,0,.4.1.4.4,0,1.3,0,2.6,0,3.9,0,.6.1,1.1.7,1.4.5.3,1,.1,1.5-.2,1-.7,1.6-.6,2.3.4.8,1.1,1.2,2.9.3,4.1-.7.9-1.3,1.2-2.4.9-.5-.1-1-.3-1.4-.4-.8-.1-1.3.2-1.3,1.1,0,1.1,0,2.3.1,3.4,0,.6,0,1.2,0,1.9,0,.3,0,.4-.4.4-1.7,0-3.4,0-5.2,0-.6,0-1.2,0-1.4.6-.3.6-.2,1.2.2,1.8.5.7.5,1.1,0,1.8-1.2,1.6-3,1.7-4.5.9-1.1-.6-1.4-2-.7-3,.1-.2.2-.3.3-.5.5-1,.2-1.6-1-1.7-1.4,0-2.8,0-4.2,0-.5,0-.7-.1-.6-.6,0-1.3,0-2.7,0-4,0-.8.5-1.1,1.2-.7.6.4,1.2.9,2,.5,1-.5,1.8-1.2,2-2.3.3-1.3,0-2.6-.8-3.8-.5-.7-1.2-1-2.1-.7-.3,0-.6.2-1,.3-.4.1-.7,0-1.1,0-.3-.1-.5-.3-.5-.7,0-1.6,0-3.2,0-4.8,0-.4.1-.5.5-.5.9,0,1.7,0,2.6,0h0Z"/>
            <path class="st4" d="M130.9,223.2h2.6c.4,0,.7,0,.9.4.2.4.1.8-.2,1-1,.9-.3,2.9.7,3.5,1.5,1,3.1.9,4.6.3,1.3-.5,1.9-1.9,1.4-3.3-.2-.5-.3-.9-.5-1.4-.1-.5,0-.7.5-.6,1.5.2,2.9.1,4.4.1s.3.2.3.4c0,1.3,0,2.7,0,4,0,.9.6,1.5,1.4,1.4.4,0,.7-.3,1-.5.5-.4.9-.4,1.5,0,1.5,1,1.8,3.7.6,5-.5.6-1.2.8-1.9.6-.5-.1-1-.3-1.4-.4-1-.2-1.5.2-1.5,1.2,0,1.6.1,3.3.2,4.9,0,.5-.1.5-.5.5-1.7,0-3.3,0-5,0-1.4,0-2,1.1-1.2,2.3.6,1.1.6,1.5-.3,2.4-1.2,1.2-3,1-4,.5-1.1-.6-1.4-2-.7-3.1.1-.2.2-.3.3-.5.4-.9,0-1.6-1-1.6-1.5,0-2.9,0-4.4,0-.4,0-.5-.1-.5-.5,0-1.4,0-2.7,0-4.1,0-.3,0-.7.3-.8.3-.1.6,0,.9.2,1.3.9,2.5.6,3.5-.7.9-1.4.6-4-.6-5.1-.6-.6-1.3-.7-2.1-.4-.5.2-.9.3-1.4.2-.6-.1-.9-.3-.9-1,0-1.6,0-3.1,0-4.7s0-.4.4-.4c.9,0,1.8,0,2.7,0h0Z"/>
            <path class="st4" d="M128.5,255.7c0-.8,0-1.6,0-2.5,0-.6-.5-1.3-1.2-1.4-.5,0-.9,0-1.3,0-1.8.5-2.4.2-2.9-1.7-.3-1-.2-1.9.3-2.8.2-.4.5-.7,1-1,.4-.2.7-.3,1.1,0,.3.2.6.4,1,.6.8.4,1.5,0,1.7-.8.1-.4.1-.8.1-1.2,0-1.2,0-2.4,0-3.6,0-.3,0-.4.4-.4,1.4,0,2.7,0,4.1,0s.9.4.6,1c0,0,0,0,0,.1-1.5,1.4-.2,4.1,1.8,4.4,1.8.3,3.4-.3,4.3-1.8.5-.8.4-1.3-.1-2-.3-.3-.4-.7-.2-1.1.2-.4.6-.6,1-.6,1.6,0,3.2,0,4.9,0s.5,0,.5.4c0,1.7.1,3.4.2,5.1,0,.4-.3.7-.8.6-.3,0-.7-.1-1-.3-1.8-.6-2.8.2-3.5,1.7-.6,1.3,0,3.9,1.4,4.7.9.5,1.5.6,2.3,0,.1,0,.2-.2.3-.2.4-.2.8-.1.8.4,0,.3,0,.6,0,.8v3.8c0,.3,0,.4-.4.4-1.2,0-2.5,0-3.7,0-.7,0-1.1.3-1.4.8-.3.5-.2,1,.2,1.4.8,1,.5,2.3-.6,3.1-1.6,1.2-4,.5-4.8-1.3-.2-.5-.1-1,.2-1.4.2-.3.3-.5.4-.9.1-1.1-.4-1.7-1.5-1.7-1.6,0-3.1,0-4.7,0-.4,0-.5,0-.5-.5,0-.8,0-1.7,0-2.5h.1Z"/>
            <path class="st4" d="M77.6,276.6h-2.6c-.3,0-.4,0-.4-.4,0-1.7-.1-3.4-.2-5.2,0-.3.2-.5.5-.6.3,0,.5,0,.8,0,.2,0,.3,0,.5.1,2.3.7,4.1-.8,3.8-3.2-.1-1.2-.4-2.4-1.5-3.1-.9-.6-1.6-.7-2.4,0-.9.6-1.6.3-1.7-.7,0-1.4,0-2.7,0-4.1,0-.2.1-.2.3-.2,1.4,0,2.8,0,4.2,0,.7,0,1.1-.2,1.5-.8.3-.6.2-1-.2-1.5-.8-1-.5-2.5.8-3.2,1.6-1,3.6-.4,4.5,1.2.3.6.3,1.1,0,1.6-.1.2-.3.4-.3.7-.2,1,0,1.9,1.4,1.8,1.6,0,3.3,0,4.9,0,.4,0,.5,0,.5.5,0,1.6,0,3.2-.1,4.8,0,1.5.8,1.7,1.9,1.6.3,0,.7-.2,1-.3.8-.3,1.4,0,1.8.7.7,1.2.9,2.5.3,3.8,0,.2-.2.4-.4.6-.7.8-1.2.9-2.1.3-.3-.2-.5-.3-.8-.4-.7-.3-1.3,0-1.5.7-.2.5-.2,1-.2,1.5,0,1.1,0,2.3,0,3.4,0,.2,0,.4-.3.4-1.3,0-2.6,0-3.9,0-.3,0-.7,0-.9-.4-.2-.4,0-.6.2-.9.9-1.5.7-3.2-.4-4.1-.8-.7-1.8-.7-2.7-.7-1.7.1-3,1.2-3.3,2.8-.1.5,0,.9.2,1.3.1.2.2.4.3.7.2.6,0,1.1-.7,1.1-.9,0-1.8,0-2.7,0h0s0,0,0,0Z"/>
            <path class="st4" d="M109.9,244.1v2.3c0,.7-.3.9-.9.8-.3,0-.7-.2-1-.3-1.5-.4-2.4,0-3.2,1.3-.9,1.4-.3,4.5,1.5,5.3.7.3,1.3.4,2-.1.3-.2.6-.6,1-.4.4.2.3.7.3,1.1,0,1.3,0,2.6,0,3.9,0,.3,0,.5-.4.4-1.3,0-2.5,0-3.8,0-.7,0-1,.3-1.3.8-.2.4-.2.8,0,1.3,1,1.5.4,3.1-1.3,3.7-1.7.5-3.1,0-3.9-1.7-.3-.5-.3-1,.1-1.5.5-.6.5-1.2.3-1.9s-.9-.8-1.6-.8c-1.5,0-3,0-4.5,0-.4,0-.4,0-.4-.4,0-1.6,0-3.1,0-4.7,0-1.1-.8-1.8-1.9-1.6-.4,0-.7.2-1.1.3-.8.2-1.4,0-1.8-.7-.7-1.2-.9-2.5-.3-3.8,0-.2.2-.4.3-.5.7-.8,1.2-.9,2.1-.4.1,0,.2.1.3.2,1.1.6,2,.2,2.1-1.1,0-.9,0-1.8,0-2.7s0-1.2,0-1.9c0-.2,0-.4.3-.3,1.4,0,2.9,0,4.3,0,.6,0,.8.5.5,1.1-.2.4-.5.7-.6,1.1-.3,1.1.4,2.6,1.6,3.1,1.8.7,3.6.5,4.9-1.2.7-.9.7-1.5,0-2.4-.2-.3-.3-.7-.2-1s.5-.6.9-.6c1.7,0,3.4,0,5.1,0s.4.1.4.4c0,.9,0,1.7,0,2.6h.1,0Z"/>
            <path class="st4" d="M88.9,331.2c.9,0,1.7,0,2.6,0,.3,0,.4.1.4.4,0,1.6,0,3.2-.1,4.8,0,1.6.8,1.7,1.8,1.6.4,0,.7-.2,1-.3.8-.3,1.4-.1,1.8.6.7,1.2.9,2.5.3,3.8-.1.3-.3.6-.6.8-.7.7-1,.7-1.9.2-.3-.2-.5-.3-.8-.5-.7-.2-1.2,0-1.5.7-.2.5-.2,1-.2,1.5,0,1.1,0,2.3,0,3.4,0,.2,0,.4-.3.4-1.3,0-2.6,0-3.9,0,0,0-.2,0-.3,0-.6,0-.8-.5-.5-1,.5-.7.8-1.4.7-2.3-.1-1.3-.9-2.3-2.2-2.6-1.4-.3-2.7-.1-3.8.8-.7.6-1,1.3-1.1,2.2,0,.4,0,.8.3,1.2.7,1.1.3,1.8-.9,1.7-1.6,0-3.1,0-4.7,0-.3,0-.4-.1-.4-.4,0-1.7,0-3.4-.2-5.1,0-.5.3-.6.6-.6.4,0,.8.1,1.2.2,1,.3,1.9.4,2.7-.4.9-.9,1.3-1.9,1-3.1-.1-.8-.3-1.5-.8-2.2-.3-.4-.7-.7-1.1-.9-.7-.4-1.3-.3-2,.2-.9.7-1.6.3-1.7-.8,0-1.3,0-2.7,0-4s.3-.3.5-.3c1.4,0,2.7,0,4.1,0,.7,0,1-.3,1.3-.8.3-.5.3-.9,0-1.4-.9-1.2-.6-2.6.7-3.4,1.7-1,3.7-.4,4.5,1.4.3.6.1,1.1-.2,1.6-.1.2-.3.4-.3.6-.3,1.2.1,1.8,1.4,1.8.8,0,1.6,0,2.5,0h0Z"/>
            <path class="st4" d="M145.6,280.2c0,.8,0,1.6,0,2.4,0,.6-.3.9-.9.8-.3,0-.6-.2-1-.3-1.8-.5-3.2.3-3.6,2.1-.3,1.6,0,3,1.2,4.2.9.8,1.8.9,2.7.2.2-.2.5-.4.9-.3.3.2.3.5.3.8,0,1.4,0,2.7,0,4.1,0,.4,0,.5-.5.5-1.2,0-2.5,0-3.7,0-.7,0-1,.3-1.3.8-.3.5-.2.9.2,1.4.8,1,.6,2.2-.4,3-1.6,1.3-4.1.8-5-1.1-.3-.6,0-1.1.2-1.5.3-.5.4-1,.3-1.5,0-.6-.7-1-1.4-1-1.6,0-3.1,0-4.7,0-.5,0-.6-.2-.6-.6,0-1.6,0-3.1.1-4.7,0-.8-.4-1.3-1.2-1.4-.5,0-.9,0-1.3.1-.3,0-.5.2-.8.2-.6.1-1.1,0-1.4-.6-.8-1.3-1-2.7-.3-4.2,0-.2.2-.3.3-.5.7-.7,1.2-.8,2-.3.2.1.5.3.7.4.8.3,1.4,0,1.7-.8.1-.4.1-.8.1-1.2,0-1.2,0-2.4,0-3.6,0-.4,0-.5.5-.5,1.3,0,2.6,0,4,0s.6,0,.8.3c.2.3,0,.6-.2.8-1.5,1.4-.2,4.1,1.8,4.4,1.7.3,3.2-.2,4.2-1.6.6-.8.6-1.4,0-2.2-.3-.3-.4-.7-.2-1.1.2-.4.5-.6.9-.6,1.7,0,3.4,0,5.1,0s.3.1.3.3v2.6h.2Z"/>
            <path class="st4" d="M127.6,262.2c0,.7,0,1.5,0,2.2,0,1.2.6,1.7,1.8,1.5.3,0,.7-.2,1-.3.8-.2,1.4,0,1.8.7.7,1.2.9,2.5.3,3.8-.1.3-.3.6-.6.8-.7.7-1,.7-1.9.2-.2-.1-.4-.2-.6-.3-.9-.5-1.7,0-1.9.9,0,.5,0,1,0,1.5,0,1,0,2.1,0,3.1,0,.2,0,.4-.3.4-1.3,0-2.6,0-4,0-.9,0-1.2-.5-.7-1.2.6-.8.7-1.7.4-2.6-.3-1.3-1.2-2-2.5-2.1-1.5-.2-2.9.1-3.9,1.4-.6.9-.9,1.8-.3,2.8,0,.2.2.4.2.5.3.7,0,1.1-.8,1.2-1.3,0-2.5,0-3.8,0s-.9,0-1.4,0c-.3,0-.3,0-.4-.3,0-1.7-.1-3.4-.2-5.1,0-.4.2-.7.7-.7.4,0,.7.1,1.1.3,1.6.5,2.7,0,3.5-1.7.6-1.2.1-4-1.4-4.8-.9-.5-1.4-.6-2.3,0-.8.6-1.5.4-1.5-.6-.1-1.4,0-2.9,0-4.3,0-.2.2-.2.3-.2,1.4,0,2.7,0,4.1,0,.7,0,1.1-.2,1.4-.7.3-.6.3-.9,0-1.4-.8-1.1-.7-2.3.4-3.1,1.6-1.2,3.9-1,5,1.3.2.5,0,.9-.2,1.3-.5.6-.5,1.3-.2,1.9.3.6.9.7,1.6.7,1.6,0,3.2,0,4.8,0,.3,0,.4,0,.4.4,0,.9,0,1.7,0,2.6h0,0Z"/>
            <path class="st4" d="M163.3,262.2c0,.7,0,1.5,0,2.3,0,1.2.6,1.7,1.8,1.5.4,0,.7-.2,1.1-.3.8-.2,1.3,0,1.7.7.7,1.4.9,2.8,0,4.2-.2.3-.4.5-.7.7-.4.3-.8.3-1.3,0-.4-.2-.8-.5-1.2-.7-.6-.1-1,0-1.3.6-.2.5-.2,1-.2,1.6,0,1.1,0,2.3,0,3.4,0,.3,0,.5-.4.5-1.3,0-2.6,0-3.9,0-.8,0-1-.5-.6-1.1.5-.8.7-1.6.5-2.5-.3-1.4-1-2.1-2.6-2.3-1.6-.2-3.5.4-4.2,2-.3.7-.4,1.5.1,2.2.1.1.2.3.2.5.2.6,0,1.1-.8,1.1-1.7,0-3.5,0-5.2,0-.3,0-.3-.1-.3-.4,0-1.7,0-3.4-.1-5.2,0-.4.5-.7,1-.6.5.1,1,.3,1.5.4.7.2,1.3,0,1.8-.5,1.2-1,1.4-2.4,1.1-3.9-.3-1.2-.9-2.1-2-2.6-.6-.2-1.1-.2-1.6.2-.1,0-.2.2-.3.2-.2.2-.5.4-.8.2-.3-.2-.3-.5-.4-.8,0-1.4,0-2.8-.1-4.3,0-.4,0-.4.4-.4,1.4,0,2.7,0,4.1,0,.7,0,.9-.4,1.2-.9.2-.4.2-.8,0-1.3-1-1.4-.5-2.8,1-3.5,1.7-.8,3.5,0,4.3,1.6.2.5.1,1-.2,1.4-.2.3-.4.7-.4,1.1,0,1,.4,1.5,1.4,1.5h3.6c.5,0,1,0,1.5,0,.3,0,.5,0,.5.4,0,.9,0,1.8,0,2.7h0,0Z"/>
            <path class="st4" d="M91.8,298.1v2.6c0,.8.4,1.2,1.2,1.3.5,0,1,0,1.6-.3.8-.3,1.5-.1,1.9.7.7,1.3.8,2.6.1,3.9-.1.3-.3.5-.5.7-.7.6-1.1.6-1.8.2-.2-.1-.3-.2-.5-.3-1-.6-1.8-.1-2,1,0,.6,0,1.2,0,1.8v2.7c0,.2,0,.4-.3.4-1.2,0-2.5,0-3.7,0-.1,0-.2,0-.3,0-.7,0-.9-.5-.5-1.1.5-.7.7-1.5.6-2.4-.2-1.4-1.1-2.3-2.4-2.5-1.6-.2-3.1,0-4.1,1.5-.6.9-.9,1.8-.1,2.8,0,.1.1.2.2.4.3.7,0,1.2-.8,1.2-1.7,0-3.4,0-5.1,0-.3,0-.4,0-.4-.4,0-1.7-.1-3.4-.2-5.2,0-.4.4-.7.9-.6.3,0,.7.2,1,.3,1.6.5,2.6,0,3.4-1.6.9-1.8,0-4.4-1.8-5.2-.6-.3-1.2-.3-1.8.2,0,0,0,0,0,0-.9.6-1.6.3-1.7-.8,0-1.3,0-2.7,0-4.1,0-.3.2-.2.4-.2,1.4,0,2.8,0,4.2,0,.8,0,1.1-.2,1.4-.9.2-.4.2-.8,0-1.1-.5-.6-.8-1.3-.5-2.1.4-1,1.1-1.5,2.1-1.7,1.5-.3,2.6.2,3.5,1.5.4.6.3,1.2,0,1.8-.1.2-.3.4-.3.6-.3,1.2.2,1.8,1.4,1.8,1.7,0,3.3,0,5,0,.4,0,.5.1.5.5,0,.8,0,1.7,0,2.5h-.1Z"/>
            <path class="st4" d="M145.6,316.3c0,.8,0,1.5,0,2.3,0,.7-.3,1-1,.8-.5-.1-.9-.3-1.4-.4-.9-.3-1.7.1-2.3.8-1.1,1.2-1,2.6-.5,4.1.3,1,.9,1.6,1.9,2,.6.2,1.1.2,1.6-.2.3-.2.6-.6,1-.4.4.2.3.7.3,1.1,0,1.3,0,2.6,0,3.9,0,.4-.1.4-.5.4-1.4,0-2.7,0-4.1,0-.8,0-1.4,1.1-1.1,1.8,0,0,0,.2.2.3,1.4,1.3,0,3.2-1.3,3.7-1.6.5-2.9,0-3.8-1.3-.5-.6-.4-1.3,0-1.9.2-.3.3-.6.4-1,0-.9-.5-1.5-1.4-1.5-1.6,0-3.1,0-4.7,0-.5,0-.6-.2-.6-.6,0-1.5,0-2.9.1-4.4,0-1.2-.8-1.9-2-1.6-.4,0-.7.2-1.1.3-.7.2-1.3,0-1.7-.7-.7-1.2-.9-2.4-.3-3.7.2-.4.4-.7.7-1,.7-.6,1-.6,1.8-.1.3.2.5.3.8.5.7.3,1.4,0,1.6-.7.1-.5.2-.9.1-1.4,0-1.2,0-2.4,0-3.6,0-.3,0-.4.4-.4,1.4,0,2.8,0,4.2,0,.6,0,.8.3.6.9,0,.1,0,.2-.2.3-1.5,1.5-.1,3.9,1.6,4.3,1.8.4,3.5-.1,4.5-1.6.5-.8.5-1.3,0-2.1-.3-.3-.4-.7-.2-1.1.2-.4.6-.6,1-.6,1.6,0,3.3,0,4.9,0,.3,0,.4.1.4.4,0,.8,0,1.7,0,2.6h.2,0Z"/>
            <path class="st4" d="M113.3,348.7c-.8,0-1.7,0-2.5,0-.4,0-.5-.1-.5-.5,0-1.6,0-3.2-.1-4.8,0-.6.3-.9.9-.8.4,0,.7.2,1.1.3,1.8.6,2.9-.4,3.4-1.8.6-1.7-.1-3.9-1.5-4.7-.8-.5-1.4-.5-2.1,0-.3.2-.6.6-1.1.4-.4-.2-.6-.7-.6-1.2v-3.4c0-.8,0-.8.8-.8,1.3,0,2.7,0,4,0,.8,0,1.5-1.1,1.1-1.8,0,0,0-.1-.1-.2-1.4-1.3-.1-3.4,1.5-3.8,1.6-.4,2.8.2,3.6,1.6.4.6.3,1.2,0,1.7-.2.2-.3.4-.3.7-.2,1,.4,1.8,1.5,1.8,1.6,0,3.3,0,4.9,0,.4,0,.6,0,.6.6,0,1.6,0,3.1-.1,4.7,0,1.1.6,1.7,1.7,1.4.4,0,.7-.2,1.1-.3.8-.2,1.4,0,1.8.7.7,1.2.8,2.4.3,3.7-.1.3-.3.5-.5.7-.8.8-1.1.8-2.1.3-.2-.1-.4-.2-.6-.3-.8-.4-1.6,0-1.8.9,0,.5,0,1,0,1.5,0,1,0,2.1,0,3.1,0,.3,0,.4-.4.4-1.2,0-2.5,0-3.8,0-1,0-1.3-.5-.7-1.3.5-.8.6-1.6.4-2.5-.3-1.2-1-1.9-2.2-2.1-1.6-.3-3.2,0-4.2,1.4-.6.8-.8,1.8-.3,2.7,0,.2.2.4.2.5.3.7,0,1.1-.8,1.2-.9,0-1.7,0-2.6,0h0Z"/>
            <path class="st4" d="M57.2,255.6v-2.2c0-1.1-.8-1.8-1.9-1.6-.4,0-.8.2-1.2.3-.8.2-1.3,0-1.8-.7-.5-.9-.7-1.9-.6-2.9.1-.9.7-1.6,1.5-2,.3-.2.6-.2.8,0,.3.2.6.4.9.6,1,.5,1.9,0,1.9-1.1,0-1.3,0-2.6,0-3.9s.3-1,1-1c1.2,0,2.4,0,3.6,0,.7,0,.9.4.5,1-1.4,2.1-.5,4.1,2,4.6,1.6.3,3.1-.3,4-1.7.5-.8.5-1.4,0-2.2-.2-.3-.4-.7-.2-1.1.2-.4.5-.6,1-.6,1.7,0,3.3,0,5,0,.3,0,.4.1.4.4,0,1.7.1,3.4.2,5.1,0,.5-.3.6-.7.6-.4,0-.7-.1-1.1-.2-1.8-.5-3.1.2-3.6,2-.3,1.1.1,3.5,1.2,4.3.9.7,1.8.9,2.7.1.2-.2.5-.4.8-.2.3.2.4.5.4.8,0,1.4,0,2.8,0,4.2,0,.4,0,.5-.4.4-1.2,0-2.4,0-3.7-.1-.7,0-1.1.3-1.4.9-.3.5-.2,1,.2,1.4.8,1.1.5,2.6-.9,3.3-1.7.9-3.6.3-4.5-1.4-.3-.5-.2-1.1.1-1.5.2-.2.3-.4.4-.7.3-1.2-.4-2-1.6-2s-2.9,0-4.3,0c-.5,0-.6-.1-.6-.6,0-.8,0-1.5,0-2.3h0,0Z"/>
            <path class="st4" d="M109.9,316.3v2.3c0,.7-.4,1-1,.8-.5-.1-1-.3-1.5-.4-.7-.2-1.3,0-1.8.5-1.2,1.1-1.4,2.4-1,3.9.3,1.1.8,1.9,1.8,2.4.6.3,1.2.3,1.8-.1.3-.2.7-.7,1.1-.4.5.2.3.7.3,1.2,0,1.2,0,2.5,0,3.8,0,.4-.1.4-.5.4-1.3,0-2.6,0-4,0-.6,0-.9.4-1.1.8-.2.4-.3.8,0,1.2.7.7.9,1.5.3,2.4-.6,1-1.4,1.4-2.5,1.5-1.4,0-2.3-.5-3-1.7-.3-.6-.3-1.1,0-1.6.5-.6.5-1.2.2-1.8-.3-.6-.9-.8-1.6-.8-1.5,0-2.9,0-4.4,0-.4,0-.5,0-.5-.5,0-1.5,0-3.1,0-4.7,0-.8-.4-1.3-1.2-1.5-.5,0-1.1,0-1.6.2-1.2.4-1.7.1-2.2-1-.6-1.2-.7-2.5,0-3.7.3-.4.6-.7,1-.9.3-.1.5-.1.8,0,.3.2.6.4.9.5,1,.6,1.9.1,2-1.1,0-.6,0-1.3,0-1.9,0-.9,0-1.7,0-2.6s0-.4.3-.4c1.4,0,2.9,0,4.3,0s.9.5.5,1c-.2.4-.5.7-.7,1.1-.3,1,.3,2.5,1.3,3,1.8.9,4,.7,5.3-1.3.5-.8.5-1.4-.1-2.1-.3-.3-.4-.7-.2-1.1.2-.4.5-.6,1-.6,1.7,0,3.3,0,5,0,.3,0,.4.1.4.4,0,.9,0,1.7,0,2.6h.1,0Z"/>
            <path class="st4" d="M106.8,277.3c.9,0,1.7,0,2.6,0,.3,0,.3,0,.3.3,0,1.7,0,3.4.1,5.1,0,.4-.3.7-.8.6-.4,0-.7-.2-1.1-.3-1.5-.4-2.4,0-3.2,1.4-1,1.8-.2,4.5,1.6,5.4.6.3,1.2.3,1.8-.2.3-.2.6-.6,1.1-.4.4.2.3.7.3,1.1,0,1.2,0,2.5,0,3.7,0,.4,0,.5-.5.5-1.3,0-2.6,0-4,0-.8,0-1.5,1.1-1.1,1.8,0,.1.1.2.2.3.8,1.1.6,2.5-.6,3.2-1.8,1.1-3.8.6-4.8-1.4-.2-.5,0-.9.2-1.4.7-1,.5-2-.6-2.5-.2-.1-.4-.1-.6-.1-1.5,0-3,0-4.5,0-.4,0-.5-.1-.5-.5,0-1.5,0-3,0-4.6,0-1.1-.7-1.7-1.8-1.6-.4,0-.8.2-1.2.3-.9.3-1.5,0-1.9-.7-.7-1.2-.9-2.4-.3-3.7.2-.3.4-.6.7-.9.7-.6,1-.6,1.7-.1.2.1.4.2.6.3,1,.6,1.9.1,2-1.1,0-1.1,0-2.2,0-3.4,0-.5-.2-1.1,0-1.4.3-.3.9,0,1.4-.1,1,0,2,0,3.1,0s.9.4.6,1c0,0,0,.1-.1.2-1.5,1.6,0,4,1.6,4.3,1.8.4,3.5,0,4.5-1.5.6-.8.6-1.4,0-2.2-.3-.3-.4-.7-.2-1,.2-.4.5-.6,1-.6.8,0,1.7,0,2.5,0h0s0,0,0,0Z"/>
            <path class="st4" d="M163.3,334.3v2.4c0,1.1.6,1.6,1.7,1.4.4,0,.7-.2,1.1-.3.8-.2,1.4,0,1.8.7.7,1.4.8,2.7,0,4.1-.2.3-.5.6-.8.8-.4.3-.8.3-1.2,0-.4-.2-.8-.6-1.3-.7-.5-.1-1,0-1.2.5-.2.5-.3,1-.3,1.5,0,1.2,0,2.5,0,3.7,0,.2,0,.4-.3.4-1.4,0-2.7,0-4.1,0-.7,0-.9-.5-.5-1,.6-.9.8-1.8.5-2.8-.3-1-.9-1.8-1.9-2-1.5-.4-2.9-.2-4.1.9-1,.9-1.2,2.1-.6,3.3.4.8.4,1,0,1.3-.2.2-.4.2-.6.2-1.7,0-3.4,0-5.2,0-.3,0-.3,0-.4-.3,0-1.7-.1-3.5-.1-5.2,0-.4.5-.7,1-.6.3,0,.5.1.8.2,1.9.6,3.3-.2,3.7-2.1.4-1.6-.4-3.6-1.7-4.4-.7-.4-1.4-.5-2.1,0-.3.2-.6.6-1,.3-.4-.2-.3-.6-.3-1,0-1.3,0-2.6-.1-4,0-.3,0-.5.4-.4,1.4,0,2.8,0,4.2,0,.6,0,.8-.4,1.1-.8.2-.4.3-.8,0-1.2,0,0,0,0,0,0-1.3-1.2-.3-3,.9-3.5,1.9-.8,3.4-.3,4.4,1.5.3.5.1,1-.2,1.5-.1.2-.3.3-.3.6-.3,1.2.2,1.9,1.4,1.9,1.6,0,3.2,0,4.9,0,.5,0,.6.1.6.6,0,.8,0,1.7,0,2.5h0,0Z"/>
            <path class="st4" d="M113.3,312.6c-.8,0-1.6,0-2.4,0-.4,0-.6,0-.6-.5,0-1.6,0-3.1-.1-4.7,0-.7.3-1,1-.9.5.1,1,.3,1.5.4.7.2,1.4,0,1.9-.5,1.1-1,1.4-2.3,1-3.7-.3-1.2-.8-2.1-1.9-2.6-.6-.3-1.2-.3-1.8.2,0,0-.1,0-.2.1-.8.6-1.4.3-1.5-.6,0-1.4,0-2.8,0-4.3,0-.3.2-.2.4-.2,1.4,0,2.7,0,4.1,0,.7,0,1.1-.3,1.4-.8.2-.4.2-.9,0-1.3-.9-1.3-.6-2.7.8-3.5,1.7-1,3.7-.2,4.5,1.6.2.5,0,1-.2,1.4-.2.3-.4.6-.4,1,0,1,.5,1.6,1.6,1.6,1.6,0,3.2,0,4.8,0,.5,0,.6.2.6.6,0,1.6,0,3.2-.1,4.8,0,.9.4,1.3,1.2,1.3.5,0,.9-.1,1.4-.3,1-.3,1.7-.1,2.1.9.5,1.1.7,2.3.2,3.5-.1.3-.3.6-.5.8-.7.7-1.1.8-2,.2-.2-.1-.4-.3-.6-.4-.8-.4-1.6,0-1.8.9,0,.4,0,.9,0,1.3,0,1.1,0,2.3,0,3.4,0,.2,0,.3-.3.3-1.3,0-2.6,0-3.9,0-.3,0-.7,0-.9-.4-.2-.3,0-.6.1-.9.7-.9.7-1.9.4-2.9-.2-.7-.7-1.3-1.4-1.6-1.5-.7-3.6-.3-4.7.9-.8.9-1,1.9-.5,3,0,.2.2.4.3.6.2.6,0,1.1-.8,1.1-.9,0-1.7,0-2.6,0h0Z"/>
            <path class="st4" d="M160.2,295.2c.9,0,1.8,0,2.7,0,.3,0,.4,0,.4.4,0,1.6,0,3.2,0,4.8,0,1.4.6,1.9,2,1.5.4,0,.7-.2,1.1-.3.6-.1,1,0,1.4.5.9,1.3,1,3.2,0,4.5-.7.9-1.3,1-2.2.4-.2-.1-.4-.3-.6-.4-.8-.4-1.4,0-1.7.8-.1.5-.1,1-.1,1.4,0,1.1,0,2.2,0,3.4,0,.2,0,.4-.2.4-1.3,0-2.6,0-4,0-.9,0-1.1-.4-.7-1.2.8-1.4.7-3.1-.3-4-1.2-1.1-2.6-1-4-.5-1.3.4-2,1.3-2.2,2.7,0,.4,0,.8.2,1.2.2.3.3.5.4.8.2.5-.1,1-.7,1-1.8,0-3.6,0-5.4,0-.2,0-.3,0-.3-.3,0-1.7-.1-3.5-.1-5.3,0-.4.4-.6.9-.5.4,0,.8.2,1.2.3,1.3.3,2,0,2.8-1,1.2-1.6.5-4.9-1.3-5.7-.7-.3-1.3-.4-2,.2-.3.2-.6.6-1,.3-.4-.2-.3-.7-.3-1,0-1.3,0-2.6-.1-3.9,0-.4,0-.5.4-.4,1.3,0,2.6,0,3.9,0,.7,0,1.1-.3,1.4-.9.2-.5.2-.9-.2-1.3-.8-1.1-.6-2.4.6-3.2,1.8-1.2,3.7-.7,4.8,1.4.2.5.1,1-.2,1.4-.3.4-.4.9-.4,1.4,0,.7.4,1,1.1,1.1.9,0,1.8,0,2.8,0h0s0,0,0,0Z"/>
            <path class="st4" d="M74.3,280.2v2.4c0,.5-.2.7-.7.7-.3,0-.7-.1-1-.2-2.5-.7-4.3.9-3.9,3.5.2,1.1.5,2.2,1.5,2.9.9.6,1.5.6,2.4,0,.1,0,.2-.2.3-.2.5-.2.7,0,.9.4,0,.3,0,.6,0,.8,0,1.2,0,2.4,0,3.6,0,.4,0,.5-.5.5-1.3,0-2.6,0-3.9,0-.6,0-.9.4-1.1.8-.2.4-.3.8,0,1.2.7.8.9,1.6.3,2.5-.6,1-1.5,1.4-2.6,1.4s-2.1-.5-2.8-1.5c-.4-.6-.4-1.2,0-1.8.2-.3.3-.5.4-.8.2-1.2-.7-1.9-1.7-1.9-1.5,0-2.9,0-4.4,0-.3,0-.4,0-.4-.4,0-1.6,0-3.1,0-4.7,0-1.1-.8-1.7-1.9-1.6-.4,0-.8.2-1.2.3-.9.3-1.5,0-1.9-.8-.5-1-.7-2-.4-3,.2-.8.6-1.3,1.3-1.7.4-.3.7-.2,1.1,0,.3.2.6.4.9.5.9.4,1.7,0,1.8-1,0-.8,0-1.6,0-2.4,0-.7,0-1.5,0-2.3,0-.3,0-.4.3-.4,1.4,0,2.8,0,4.2,0,.3,0,.6,0,.7.3.1.3,0,.5-.2.7-1.4,2-.3,4.3,2.2,4.5,1.7.2,2.9-.4,3.8-1.8.5-.8.5-1.3-.1-2.1-.3-.3-.4-.7-.2-1.1.2-.4.5-.6,1-.6,1.7,0,3.3,0,5,0,.3,0,.4,0,.4.4,0,.9,0,1.7,0,2.6h.2,0Z"/>
            <path class="st4" d="M71.2,313.3h2.6c.3,0,.3,0,.4.3,0,1.7.1,3.5.2,5.2,0,.4-.4.7-1,.6-.5-.1-.9-.3-1.4-.4-1-.3-1.8,0-2.4.8-.9,1.1-1,2.3-.6,3.7.3,1,.8,1.8,1.7,2.3.7.4,1.3.3,2-.2.3-.2.6-.6,1-.4.4.2.3.7.3,1.1,0,1.3,0,2.6,0,3.9,0,.4,0,.5-.4.4-1.2,0-2.5,0-3.7,0-.7,0-1.1.3-1.4.8-.3.5-.2,1,.2,1.4,1.1,1.1.1,3-1.4,3.5-1.6.6-3.2,0-4-1.6-.3-.6-.1-1.1.2-1.6.1-.2.3-.5.4-.8.2-1.1-.4-1.9-1.6-1.9-1.5,0-2.9,0-4.4,0-.4,0-.5,0-.5-.5,0-1.6,0-3.1,0-4.7,0-.8-.5-1.3-1.3-1.5-.5,0-1,0-1.5.2-1.2.4-1.8,0-2.3-1.1-.4-.9-.5-1.9-.3-2.8.2-.8.7-1.4,1.5-1.7.3-.1.5-.1.8,0,.3.2.7.4,1,.6.9.4,1.7,0,1.8-1,0-.5,0-1,0-1.5,0-1.1,0-2.1,0-3.2,0-.2,0-.3.3-.3,1.4,0,2.8,0,4.3,0,.3,0,.5,0,.7.3.1.3,0,.5-.2.7-1.4,2.1-.3,4.2,2.1,4.5,1.7.2,3-.4,3.9-1.8.5-.8.5-1.4-.1-2.1-.3-.3-.4-.7-.2-1.1.2-.4.5-.5,1-.5.8,0,1.6,0,2.5,0h0s0,0,0,0Z"/>
            <path class="st4" d="M149,240.5c-.8,0-1.7,0-2.5,0-.3,0-.5,0-.5-.5,0-1.6,0-3.2-.1-4.9,0-.6.3-.9,1-.8.3,0,.5.1.8.2,1.9.6,3.3-.2,3.7-2.2.3-1.6,0-3.1-1.4-4.2-.9-.7-1.6-.7-2.5,0-.2.2-.5.5-.8.3-.4-.2-.4-.6-.4-.9,0-1.3,0-2.5,0-3.8,0-.4.1-.4.5-.4,1.4,0,2.8,0,4.2,0s.7,0,.9-.3c.2-.5.4-1,.2-1.5,0,0-.1-.2-.2-.2-.8-1.2-.6-2.4.5-3.2,1.1-.8,3.8-.7,4.7,1.1.2.3.1.6,0,.9-.1.4-.3.8-.5,1.2-.4,1,.3,2,1.4,1.9,1.6,0,3.1,0,4.7,0,.4,0,.5,0,.5.5,0,1.5,0,3.1,0,4.6s.8,1.8,2,1.5c.4,0,.7-.2,1.1-.3.8-.2,1.4,0,1.8.7.7,1.4.8,2.7,0,4.1-.2.3-.5.6-.8.8-.4.3-.8.3-1.2,0-.3-.2-.7-.4-1-.6-.8-.3-1.4,0-1.7.7-.2.5-.1,1-.1,1.4,0,1.1,0,2.3,0,3.4,0,.3,0,.4-.4.4-1.3,0-2.7,0-4,0-.7,0-1-.5-.6-1.1.6-.9.8-1.9.5-2.9-.3-1.1-1.1-1.7-2.2-1.9-1.5-.2-2.9,0-4,1.2-.8.9-.9,2-.4,3.1,0,.1.1.3.2.5.3.7,0,1.1-.7,1.2-.9,0-1.7,0-2.6,0h0s0,0,0,0Z"/>
            <path class="st4" d="M113.3,240.5h-2.6c-.3,0-.4,0-.4-.4,0-1.7-.1-3.4-.2-5.1,0-.4.2-.7.7-.7.4,0,.8.1,1.2.3,1.9.7,3-.5,3.5-1.9.5-1.5,0-3.5-1.3-4.4-1-.7-1.7-.8-2.6,0-.3.2-.5.5-.9.2-.3-.2-.3-.5-.3-.8,0-1.3,0-2.6,0-3.9,0-.3,0-.4.4-.4,1.4,0,2.7,0,4.1,0,.8,0,1.4-.9,1.1-1.7,0-.2-.2-.3-.3-.5-.8-1-.6-2.2.3-3,1.3-1.2,4.1-1.1,5.1,1.2.2.5,0,.9-.2,1.3-.1.3-.3.5-.4.9,0,.9.6,1.6,1.5,1.6,1.6,0,3.1,0,4.7,0,.4,0,.5,0,.5.5,0,1.5,0,3,0,4.5,0,1.1.8,1.8,2,1.6.4,0,.7-.2,1.1-.3.9-.2,1.5,0,1.9.8.6,1.2.8,2.4.3,3.6-.1.3-.3.5-.5.7-.8.8-1.1.8-2.1.2-.2,0-.3-.2-.5-.3-.9-.5-1.7,0-1.9,1,0,.4,0,.8,0,1.1,0,1.2,0,2.3,0,3.5,0,.3,0,.3-.3.3-1.3,0-2.7,0-4,0-.7,0-1-.5-.6-1.1.7-1,.8-2,.4-3-.4-1-1.2-1.6-2.3-1.8-1.6-.2-3,0-4,1.4-.6.9-.8,1.8-.3,2.8,0,.2.1.3.2.5.3.7,0,1.2-.8,1.2-.9,0-1.7,0-2.6,0h0s0,0,0,0Z"/>
            <path class="st4" d="M77.6,240.5c-.9,0-1.7,0-2.6,0-.3,0-.4,0-.4-.4,0-1.7,0-3.3-.1-5,0-.6.2-.8.8-.8.3,0,.5.1.8.2,2.3.7,4.2-.9,3.9-3.3-.1-1.1-.4-2.2-1.4-3-1-.7-1.6-.7-2.6,0-.2.2-.5.4-.9.2-.3-.2-.3-.5-.3-.8,0-1.3,0-2.6,0-3.9,0-.3,0-.4.3-.4,1.4,0,2.8,0,4.2,0,.3,0,.7.2.9-.2.3-.5.5-1,.2-1.6,0,0,0-.2-.2-.2-.9-1.2-.6-2.5.7-3.3,1.2-.8,3.8-.7,4.6,1.4.1.2.1.5,0,.7-.1.4-.3.7-.4,1.1-.5,1.1.2,2.2,1.4,2.2s3.1,0,4.6,0c.4,0,.5,0,.4.4,0,1.5,0,3,0,4.6,0,1.2.7,1.8,1.8,1.6.4,0,.8-.2,1.2-.3,1-.3,1.5,0,2,.8.6,1.2.7,2.4.2,3.7-.1.3-.3.6-.6.8-.7.6-1,.7-1.9.2-.3-.2-.5-.3-.8-.5-.7-.2-1.3,0-1.5.7-.2.5-.2,1-.2,1.5,0,1.1,0,2.3,0,3.4s0,.4-.2.4c-1.4-.1-2.8,0-4.2,0-.7,0-1-.5-.6-1.1.6-.9.8-1.9.5-2.9-.3-1-1-1.6-2-1.9-1.4-.3-2.7-.2-3.9.8-.7.5-1,1.3-1.1,2.2,0,.4,0,.7.2,1,.2.2.3.5.4.8.2.6-.1,1.1-.7,1.1-.4,0-.9,0-1.3,0h-1.3s0,0,0,0Z"/>
          </g>
        </g>
        <polygon class="st4" points="56.5 217.5 56.5 303.2 158.7 347 158.7 260.7 56.5 217.5"/>
      </g>
      <path class="st12" d="M297.8,165.5c-1.7-1.1-3.5-1.8-5.3-2.5-10.3-4.3-20.5-8.8-30.8-13-1.9,2-3.9,3.9-5.9,5.8,11.3,4.7,22.6,9.6,33.9,14.4-8.4,12.9-17.1,25.6-25.6,38.5-19.2-7.9-38.1-16.2-57.2-24.3-3.3,1.7-6.8,3-10.3,4.3,19.5,8.2,39,16.5,58.4,24.9-31.7,13.9-63.6,27.2-95.4,40.9-31.7-13.7-63.7-27-95.3-40.9,10.5-4.5,21.1-9.1,31.7-13.5-1.2-2.2-2.3-4.5-3.4-6.8-12.3,5-24.5,10.4-36.8,15.5-6.3-9.7-12.9-19.3-19.3-28.9-2.1-3.2-4.6-6.2-6-9.8,9.2-4,18.6-7.7,27.6-11.9-.7-2.3-1.4-4.7-2.2-7-10.9,4.4-21.7,9.1-32.6,13.7-2.5.8-3.7,3.9-2,6,9.3,14.4,19,28.5,28.5,42.8.8,1,.9,2.4.9,3.7,0,28.5,0,57.1,0,85.6-.4,2.6,1.5,4.4,3.8,5.1,34.2,14.5,68.3,29.1,102.4,43.9,2.7,1.6,5.6,0,8.2-1.2,24.4-10.6,48.8-21.1,73.2-31.5,2.6-.8,3.7-4.5,1.6-6.3-1.3-1.5-3.5-1.1-5.2-.4-23.7,10.1-47.5,20.2-71.2,30.5,0-27.3-.1-54.6,0-81.9,32.5-13.9,65-27.6,97.4-41.7,0,27.3,0,54.6,0,81.9-3.6,1.6-7.3,3-10.9,4.7-3.4.7-3.9,5.8-.8,7.3,3.1.7,5.9-1.2,8.7-2.3,3.6-1.8,7.9-2.6,10.7-5.7,0-29.8-.3-59.7,0-89.5,9.6-15.2,20.1-29.9,29.8-45,1.3-1.6.9-4-.7-5.2h0ZM155.7,343c-32.4-14.2-65.1-27.8-97.5-41.8,0-27.3,0-54.5,0-81.8,32.4,14,64.9,27.8,97.4,41.6.4,27.3,0,54.7.2,82Z"/>
      <path class="st12" d="M308,296.4h82.8c2.5,0,4.5,2,4.5,4.5h0c0,2.5-2,4.5-4.5,4.5h-82.8c-2.5,0-4.5-2-4.5-4.5h0c0-2.5,2-4.5,4.5-4.5Z"/>
      <path class="st12" d="M620.7,296.4h82.8c2.5,0,4.5,2,4.5,4.5h0c0,2.5-2,4.5-4.5,4.5h-82.8c-2.5,0-4.5-2-4.5-4.5h0c0-2.5,2-4.5,4.5-4.5Z"/>
      <g>
        <path class="st0" d="M215.1,123.5c0-8.8-4.1-17.1-11.1-22.4,5.5-12.4,0-27-12.5-32.5-1.4-.6-2.9-1.1-4.3-1.5-1.4-12.1-12.4-20.7-24.5-19.3-6.7.8-12.7,4.6-16.3,10.4-6.3-10.4-19.9-13.7-30.3-7.3-5.8,3.5-9.6,9.5-10.4,16.2-13.2,3.1-21.4,16.4-18.3,29.6.4,1.5.8,3,1.5,4.4-12.4,9.5-14.7,27.2-5.3,39.6,2.6,3.4,6,6.2,9.9,8.2,2.3,15.4,16.7,26,32.2,23.7,8.9-1.3,16.6-6.8,20.8-14.8,7.2,13.8,24.3,19.1,38.1,11.9,8-4.2,13.4-11.9,14.8-20.8,9.6-4.7,15.7-14.6,15.7-25.3h0ZM121.4,166.3c-11.1,0-20.4-8.4-21.6-19.4,0-.2,0-.3,0-.5,0-.6,0-1.2,0-1.7,0-12,9.7-21.7,21.7-21.7,1.8,0,3.3-1.5,3.3-3.3s-1.5-3.3-3.3-3.3c-14.3,0-26.3,10.7-28,24.8-9.8-6.9-12.1-20.5-5.2-30.2,1.2-1.7,2.6-3.2,4.2-4.5,8.8,9.1,23.4,9.3,32.5.5,4.5-4.3,7-10.3,7-16.5,0-1.8-1.5-3.3-3.3-3.3s-3.3,1.5-3.3,3.3c0,9.1-7.4,16.5-16.4,16.5-5.2,0-10-2.4-13.1-6.5-5.2-8.5-2.5-19.7,6.1-24.8,2.2-1.3,4.7-2.2,7.2-2.5,1.7-.3,2.9-1.7,2.9-3.4,0-8.6,7-15.5,15.5-15.5s15.5,7,15.5,15.5v74.8c0,12-9.7,21.7-21.7,21.7h0ZM171.4,166.3c-12,0-21.7-9.7-21.7-21.7v-74.8c0-8.6,6.9-15.6,15.5-15.6,8.6,0,15.6,6.9,15.6,15.5,0,0,0,.3,0,.3,0,1.7,1.2,3,2.9,3.2,9.9,1.2,17,10.2,15.8,20.1-.3,2.6-1.2,5-2.5,7.2-5.5,7.2-15.8,8.7-23.1,3.2-4.1-3.1-6.5-8-6.5-13.1,0-1.8-1.5-3.3-3.3-3.3s-3.3,1.5-3.3,3.3c0,12.7,10.2,23,22.9,23,6.2,0,12.2-2.5,16.5-7,9.4,7.4,11,21.1,3.5,30.5-1.3,1.6-2.8,3-4.5,4.2-1.7-14.2-13.7-24.8-28-24.8-1.8,0-3.3,1.5-3.3,3.3s1.5,3.3,3.3,3.3c12,0,21.7,9.7,21.7,21.7,0,.6,0,1.2,0,1.7,0,.2,0,.3,0,.5-1.2,11-10.5,19.4-21.6,19.4h0Z"/>
        <path class="st0" d="M146.4,34.1c1.8,0,3.3-1.5,3.3-3.3h0V11.3c0-1.8-1.5-3.3-3.3-3.3s-3.3,1.5-3.3,3.3v19.6c0,1.8,1.5,3.3,3.3,3.3h0Z"/>
        <path class="st0" d="M214.1,37.9l-13.9,13.9c-1.3,1.3-1.3,3.3,0,4.6s3.3,1.3,4.6,0l13.9-13.9c1.3-1.3,1.3-3.3,0-4.6s-3.3-1.3-4.6,0Z"/>
        <path class="st0" d="M245.4,107h-19.6c-1.8,0-3.3,1.5-3.3,3.3s1.5,3.3,3.3,3.3h19.6c1.8,0,3.3-1.5,3.3-3.3s-1.5-3.3-3.3-3.3h0Z"/>
        <path class="st0" d="M204.9,164c-1.3-1.3-3.3-1.3-4.6,0s-1.3,3.3,0,4.6l13.9,13.9c1.3,1.3,3.3,1.3,4.6,0s1.3-3.3,0-4.6l-13.9-13.9Z"/>
        <path class="st0" d="M146.4,186.3c-1.8,0-3.3,1.5-3.3,3.3v19.6c0,1.8,1.5,3.3,3.3,3.3s3.3-1.5,3.3-3.3h0v-19.6c0-1.8-1.5-3.3-3.3-3.3Z"/>
        <path class="st0" d="M88,164l-13.9,13.9c-1.3,1.3-1.3,3.3,0,4.6s3.3,1.3,4.6,0h0l13.9-13.9c1.3-1.3,1.3-3.3,0-4.6s-3.3-1.3-4.6,0h0Z"/>
        <path class="st0" d="M67.1,107h-19.6c-1.8,0-3.3,1.5-3.3,3.3s1.5,3.3,3.3,3.3h19.6c1.8,0,3.3-1.5,3.3-3.3s-1.5-3.3-3.3-3.3h0Z"/>
        <path class="st0" d="M88,56.4c1.3,1.3,3.3,1.3,4.6,0s1.3-3.3,0-4.6l-13.9-13.9c-1.3-1.3-3.3-1.3-4.6,0s-1.3,3.3,0,4.6c0,0,13.9,13.9,13.9,13.9Z"/>
      </g>
      <g class="st11">
        <text class="st1" transform="translate(625.7 326.4)"><tspan x="0" y="0">By INSIC</tspan></text>
      </g>
    </g>
  </g>
</svg>