<?xml version="1.0" encoding="UTF-8"?>
<svg id="Layer_2" data-name="Layer 2" xmlns="http://www.w3.org/2000/svg" xmlns:xlink="http://www.w3.org/1999/xlink" viewBox="0 0 733.02 361.07">
  <defs>
    <style>
      .cls-1 {
        stroke-width: .4px;
      }

      .cls-1, .cls-2, .cls-3, .cls-4, .cls-5, .cls-6, .cls-7 {
        stroke-miterlimit: 10;
      }

      .cls-1, .cls-5, .cls-6 {
        stroke: #223b8a;
      }

      .cls-1, .cls-6 {
        fill: none;
      }

      .cls-8, .cls-3, .cls-5, .cls-9, .cls-10 {
        fill: #223b8a;
      }

      .cls-8, .cls-5 {
        font-family: Aquatico-Regular, 'Aquatico Regular';
        font-size: 86.22px;
      }

      .cls-2 {
        fill: #f9c84e;
      }

      .cls-2, .cls-3, .cls-4, .cls-7 {
        stroke: #69c4db;
        stroke-width: .25px;
      }

      .cls-4, .cls-11 {
        fill: #69c4db;
      }

      .cls-5 {
        stroke-width: 3px;
      }

      .cls-9, .cls-11 {
        stroke-width: 0px;
      }

      .cls-6 {
        stroke-width: .75px;
      }

      .cls-12 {
        clip-path: url(#clippath);
      }

      .cls-10 {
        font-family: Nexa-Book, 'Nexa Book';
        font-size: 21.42px;
      }

      .cls-7 {
        fill: #ef659a;
      }
    </style>
    <clipPath id="clippath">
      <polygon class="cls-1" points="37.47 217.88 37.45 307.06 143.79 352.53 143.79 262.79 37.47 217.88"/>
    </clipPath>
  </defs>
  <g id="Layer_1-2" data-name="Layer 1">
    <g>
      <text class="cls-8" transform="translate(381.33 251.66)"><tspan x="0" y="0">Neural</tspan></text>
      <text class="cls-5" transform="translate(448.9 338.01)"><tspan x="0" y="0" xml:space="preserve">B   X</tspan></text>
      <g>
        <path class="cls-3" d="m532.61,341.27c0,1.82.02,3.65,0,5.47-.02,1.83-.77,3.21-2.51,4.01-2.57,1.18-5.13,2.39-7.68,3.62-1.62.78-3.2.8-4.85.06-2.81-1.27-5.63-2.5-8.47-3.71-1.67-.71-2.46-2.01-2.49-3.71-.06-3.84-.01-7.68,0-11.52,0-.09.01-.19.02-.28.12-1.22.94-1.69,2.04-1.16,1.84.89,3.66,1.79,5.5,2.69,1.06.52,2.13,1.04,3.19,1.57,1.63.82,3.26.8,4.88-.03,2.66-1.36,5.32-2.72,7.99-4.08.14-.07.28-.15.42-.22.95-.44,1.77,0,1.91,1.05.05.39.05.79.05,1.19,0,1.68,0,3.36,0,5.05h.01Z"/>
        <path class="cls-7" d="m504.36,322.11c0,1.86,0,3.71,0,5.57,0,.28-.02.57-.08.85-.18.92-.79,1.25-1.64.85-1-.48-1.97-1-2.96-1.5-1.93-.99-3.85-1.99-5.78-2.96-1.49-.75-2.22-2-2.24-3.59-.06-3.84-.02-7.68-.02-11.51,0-.2.03-.41.07-.61.19-.95.89-1.33,1.77-.9,3.07,1.53,6.14,3.06,9.19,4.63,1.02.53,1.4,1.55,1.62,2.62.14.67.08,1.36.08,2.04,0,1.51,0,3.01,0,4.52Z"/>
        <path class="cls-3" d="m562.72,295.74c-.06.39-.17.77-.4,1.17-.47.81-1.08,1.48-1.93,1.91-2.85,1.48-5.69,2.97-8.54,4.44-1.03.53-1.58.23-1.72-.93-.03-.28-.04-.57-.04-.85,0-3.44-.04-6.89.02-10.33.02-1.28-.58-2.06-1.63-2.59-1.7-.85-3.4-1.68-5.1-2.52-1.67-.83-3.34-1.66-5.01-2.5-.22-.11-.45-.24-.64-.41-.44-.39-.46-.94-.08-1.4.21-.25.48-.41.76-.55,2.86-1.45,5.72-2.92,8.59-4.36,1.48-.74,3.01-.75,4.49-.03,3.21,1.57,6.4,3.17,9.6,4.77.81.4,1.44.98,1.66,1.9.07.17.04.34.04.52,0,2.29,0,4.57,0,6.86,0,1.13,0,2.25,0,3.38,0,.55.02,1.05-.06,1.53Z"/>
        <path class="cls-7" d="m562.69,314.2c-.03.23-.08.46-.17.69-.17.44-.44.83-.75,1.19-.45.52-1.01.93-1.63,1.24-2.73,1.37-5.42,2.8-8.13,4.19-1.21.62-1.78.32-1.88-1.03-.04-.58-.03-1.17-.03-1.76,0-3.27,0-6.53,0-9.8,0-.84.08-1.67.42-2.46.27-.62.68-1.08,1.3-1.38,2.91-1.43,5.8-2.89,8.7-4.33.17-.08.34-.17.52-.23,1.22-.43,1.75.69,1.74,1.71-.02,2.62.01,5.25-.02,7.87-.01,1.1,0,2.2-.03,3.3-.01.27-.02.54-.05.8Z"/>
        <path class="cls-3" d="m562.76,332.5c-.03.15-.07.3-.13.44-.54,1.35-1.62,2.26-2.9,2.89-2.59,1.28-5.15,2.64-7.72,3.97-1.23.64-1.79.33-1.89-1.07-.05-.69-.03-1.39-.03-2.09,0-3.12,0-6.25,0-9.37,0-.46.02-.92.09-1.37.2-1.27.81-2.17,2.04-2.74,2.79-1.3,5.53-2.72,8.28-4.1.17-.08.34-.18.52-.24,1.08-.39,1.77.52,1.76,1.51-.02,2.17-.02,4.35-.02,6.52,0,1.09,0,2.17,0,3.26,0,.75.13,1.63-.01,2.39Z"/>
        <path class="cls-7" d="m532.3,305.05c0,1.79,0,3.58,0,5.36,0,.83-.18,1.6-.59,2.32-.34.6-.81,1.05-1.46,1.35-2.85,1.3-5.7,2.62-8.55,3.92-1.55.71-3.08.69-4.62-.04-2.49-1.18-4.99-2.35-7.51-3.47-1.64-.73-2.31-2.02-2.35-3.67-.05-1.85-.01-3.7-.01-5.55,0-1.93,0-3.86,0-5.78,0-1.2.46-2.05,1.6-2.61,2.88-1.42,5.72-2.93,8.59-4.37,1.38-.69,2.81-.7,4.21-.05,1.27.6,2.51,1.25,3.77,1.87,1.79.88,3.58,1.77,5.39,2.62,1.08.5,1.53,1.34,1.53,2.46,0,1.88,0,3.76,0,5.64Z"/>
        <path class="cls-2" d="m506.61,322.93c0-1.81,0-3.62,0-5.42,0-.24,0-.48.04-.71.13-1.12.97-1.59,1.97-1.09,1.46.72,2.91,1.47,4.36,2.21,1.37.69,2.73,1.39,4.1,2.08,1.53.78,3.07.82,4.61.07,2.9-1.41,5.79-2.84,8.69-4.25.11-.06.22-.12.34-.16.88-.37,1.64.03,1.82.97.05.28.07.57.07.85,0,3.65.02,7.3,0,10.94,0,1.79-.76,3.15-2.42,3.97-2.65,1.31-5.29,2.64-7.92,3.99-1.69.86-3.35.88-5.05.02-2.73-1.37-5.47-2.7-8.22-4.02-1.63-.78-2.36-2.1-2.4-3.83-.04-1.87,0-3.74,0-5.62h.02Z"/>
        <path class="cls-2" d="m547.58,297.07c0,1.82.02,3.65,0,5.47-.02,1.7-.79,2.99-2.29,3.78-2.86,1.5-5.73,2.96-8.6,4.43-1.02.52-1.6.23-1.78-.89-.04-.26-.05-.54-.05-.81,0-3.54-.02-7.08,0-10.61,0-1.16-.51-1.93-1.52-2.41-3.32-1.59-6.65-3.17-9.97-4.76-.3-.14-.61-.28-.85-.51-.46-.44-.46-.97-.02-1.42.19-.2.43-.32.67-.44,2.96-1.54,5.93-3.06,8.87-4.63,1.21-.64,2.41-.65,3.6-.1,3.56,1.64,7.11,3.32,10.66,4.98.94.44,1.27,1.24,1.27,2.21.01,1.9,0,3.81,0,5.71Z"/>
        <path class="cls-7" d="m534.85,340.35c0-1.87,0-3.74,0-5.62,0-.81.18-1.57.56-2.28.32-.6.78-1.06,1.4-1.37,2.89-1.44,5.76-2.9,8.64-4.35.18-.09.37-.18.57-.24.58-.19,1.08.03,1.34.58.17.35.21.73.21,1.11,0,3.78.03,7.55-.01,11.33-.02,1.68-.77,2.97-2.32,3.75-2.78,1.4-5.55,2.83-8.33,4.24-.14.07-.28.15-.43.21-.76.31-1.35.02-1.54-.79-.08-.31-.1-.62-.1-.94,0-1.87,0-3.74,0-5.62Z"/>
        <path class="cls-4" d="m534.85,322.06c0-1.87,0-3.74,0-5.62,0-.87.21-1.69.65-2.45.3-.52.72-.92,1.26-1.19,2.93-1.47,5.85-2.94,8.78-4.41,1.14-.57,1.83-.21,2.01,1.04.03.2.03.41.03.62,0,3.65.01,7.3,0,10.95,0,1.79-.74,3.15-2.41,3.98-2.74,1.37-5.47,2.79-8.2,4.18-1.37.7-2.1.26-2.11-1.3-.02-1.94,0-3.87,0-5.81Z"/>
        <path class="cls-7" d="m520.08,261.67c3.73,1.39,7.14,3.47,10.73,5.15.41.19.79.48.78.99,0,.51-.39.78-.8.98-3.15,1.58-6.3,3.18-9.48,4.71-1.35.65-2.78.61-4.13-.06-3.03-1.5-6.06-3.02-9.08-4.53-.49-.24-1.03-.49-1.02-1.12,0-.61.54-.85,1.01-1.08,3-1.5,6-2.99,8.99-4.5.48-.24,1-.34,1.49-.54h1.52Z"/>
        <path class="cls-3" d="m501.26,282.53c0,.57-.44.85-.89,1.07-3.25,1.6-6.51,3.18-9.76,4.76-.41.2-.77.44-1.09.75-.44.46-.64.98-.64,1.63.02,3.53,0,7.05,0,10.57,0,.34-.02.66-.06.99-.13.98-.69,1.29-1.58.85-.97-.49-1.93-.99-2.91-1.5-1.9-.99-3.83-1.96-5.72-2.99-1.59-.85-2.48-2.15-2.46-4.02.02-1.76,0-3.52,0-5.29s0-3.68,0-5.51c0-1.12.49-1.89,1.5-2.38,3.11-1.5,6.23-3.03,9.34-4.52,1.43-.68,2.9-.7,4.31,0,3.04,1.5,6.04,3.05,9.07,4.56.43.22.89.46.88,1.01Z"/>
        <path class="cls-2" d="m489.11,313.86c0,2.26,0,4.11,0,5.97,0,.33-.02.67-.07,1-.14.9-.72,1.22-1.54.82-.87-.42-1.72-.88-2.57-1.32-2.09-1.08-4.2-2.13-6.27-3.26-1.45-.79-2.27-2.05-2.27-3.74,0-3.66,0-7.33,0-10.99,0-.29,0-.57.08-.85.24-.94.97-1.32,1.85-.91.96.45,1.9.93,2.85,1.4,1.95.97,3.88,2,5.86,2.9,1.33.6,1.9,1.63,2.01,2.97.18,2.14.02,4.28.07,6.02Z"/>
        <path class="cls-3" d="m489.11,332.57c0,1.86,0,3.71,0,5.57,0,.33-.02.67-.07,1-.14.9-.71,1.22-1.53.81-.98-.48-1.94-.99-2.91-1.5-1.95-1.01-3.92-1.99-5.85-3.03-1.51-.81-2.35-2.08-2.35-3.84,0-3.65,0-7.3,0-10.94,0-.29,0-.57.08-.85.24-.94.96-1.32,1.84-.91.82.37,1.62.79,2.43,1.19,2.09,1.04,4.17,2.14,6.29,3.11,1.34.62,1.9,1.66,2.02,3.02.15,1.82.04,3.65.06,5.47,0,.3,0,.6,0,.9Z"/>
        <path class="cls-2" d="m504.44,269.15c.81,0,1.56.2,2.28.56,2.93,1.48,5.87,2.95,8.81,4.42.28.14.57.27.8.5.41.41.41.88,0,1.29-.22.22-.49.35-.76.48-3.03,1.51-6.04,3.05-9.08,4.53-1.38.67-2.84.68-4.22,0-3.09-1.51-6.16-3.07-9.25-4.61-.04-.02-.08-.05-.12-.07-.4-.22-.78-.48-.78-.99,0-.5.38-.78.79-.98,1.78-.9,3.56-1.79,5.34-2.68,1.3-.65,2.61-1.29,3.9-1.95.73-.38,1.49-.5,2.29-.51Z"/>
        <path class="cls-4" d="m504.4,284.11c.75-.01,1.5.17,2.23.53,2.95,1.49,5.9,2.97,8.85,4.45.47.23,1.01.45,1,1.08,0,.64-.53.89-1.02,1.13-3.15,1.55-6.29,3.11-9.45,4.64-1.13.55-1.68,1.36-1.67,2.66.04,3.49.01,6.98.02,10.47,0,.32-.01.63-.08.95-.18.89-.75,1.2-1.57.8-1-.48-1.97-1-2.96-1.51-1.94-1-3.89-1.98-5.82-3-1.5-.79-2.29-2.07-2.3-3.77-.02-3.68,0-7.36-.01-11.04,0-1.18.46-1.99,1.57-2.51,2.98-1.42,5.94-2.9,8.9-4.36.71-.35,1.46-.52,2.3-.51Z"/>
        <path class="cls-4" d="m504.35,340.37c0,1.86,0,3.71,0,5.57,0,.3-.02.6-.08.9-.17.89-.8,1.22-1.62.83-1.03-.49-2.03-1.02-3.05-1.54-1.9-.97-3.8-1.95-5.7-2.91-1.5-.76-2.24-2.02-2.26-3.63-.05-3.82-.02-7.65-.01-11.47,0-.17.02-.35.06-.52.2-1.08.89-1.44,1.87-.95,1.53.75,3.05,1.53,4.58,2.3,1.27.64,2.52,1.34,3.82,1.91,1.72.75,2.35,2.13,2.39,3.87.04,1.89,0,3.78,0,5.66Z"/>
        <path class="cls-4" d="m534.26,281.4c-.79.02-1.54-.16-2.27-.53-2.98-1.5-5.96-2.99-8.94-4.48-.49-.24-1.04-.48-1.03-1.12,0-.64.56-.87,1.04-1.11,3.02-1.51,6.04-3.04,9.07-4.53,1.37-.68,2.81-.71,4.18-.04,3.14,1.52,6.25,3.11,9.37,4.67.15.08.3.17.44.28.55.46.56,1.04,0,1.48-.22.17-.48.3-.73.43-2.95,1.48-5.91,2.96-8.86,4.44-.71.36-1.46.52-2.26.51Z"/>
        <path class="cls-3" d="m519.3,276.62c.8.01,1.55.16,2.26.52,2.98,1.5,5.97,2.98,8.95,4.48.5.25,1.07.48,1.06,1.15-.01.63-.56.87-1.05,1.11-2.99,1.49-5.97,2.99-8.96,4.48-1.5.75-3.02.74-4.52-.01-2.97-1.48-5.94-2.97-8.91-4.46-.5-.25-1.08-.48-1.07-1.14.01-.63.57-.86,1.05-1.1,2.98-1.49,5.97-2.97,8.95-4.47.71-.36,1.46-.52,2.22-.54Z"/>
      </g>
      <g>
        <path class="cls-6" d="m250.03,248.13c.1-2.06-.03-4.04-.41-5.86-1-4.63-3.65-8.34-7.68-10.35-5.7-3.14-14.24-2.75-22.79,1.04-4.85,2.09-9.7,4.14-14.55,6.24,3.01.94,5.74,2.32,7.94,4.26,2.28-.99,4.56-1.96,6.84-2.94,3.03-1.32,6.04-2.01,8.81-2.15,6.11-.28,10.84,2.59,12.46,7.57l.05-.16c-.04.37.09.65.16.97.73,2.67.57,5.87-.35,9.2-.54,1.89-1.32,3.81-2.31,5.72-2.34-.57-4.86-.87-7.59-.66,1.51-3.07,2.17-6.23,1.5-8.67-.87-3.75-4.55-5.69-9.15-4.84-2.12.32-4.36,1.43-6.55,2.35l-9,3.86c-.12-.17-.24-.34-.36-.51-1-1.3-2.19-2.42-3.57-3.33-5.65-3.77-14.53-3.83-23.6.09-5.41,2.21-10.82,5.77-15.52,10.13-5.6,5.17-10.14,11.48-12.83,17.76-.78,1.89-1.44,3.78-1.9,5.64-.25,1-.42,1.97-.59,2.95-.32,2.44-.35,4.79-.22,7.05-.1,2.41-.09,4.78-.02,7.11-.09,4.2-.04,8.35-.05,12.52-.02.82-.01,1.62-.02,2.44,0,.44,0,.89,0,1.33.04,1.77-.09,3.62.05,5.34-.13,4.08-.03,8.06-.07,12.1.04,2.17-.09,4.42.05,6.55-.13,2.5-.02,4.91-.08,7.38,8.8-3.73,17.6-7.52,26.4-11.29,0-5.64,0-11.28.01-16.92,0-7.69.05-15.41-.01-23.08.08-6.23,0-12.4.04-18.6.39-1.88,2.05-4.08,4.09-5.03,2-1.05,4.01-.7,4.57.74.38.91.05,2.18.25,3.18-.09,1.9-.12,3.78,0,5.59-.1.89-.05,1.72-.06,2.57,0,5.57-.02,11.15,0,16.72-.02,4.64,0,9.26-.02,13.9,0,5.71,0,11.41-.02,17.13,11.17-4.76,22.34-9.56,33.51-14.34,5.48-2.2,11.02-5.59,15.86-9.96,6.12-5.46,11.06-12.29,13.83-19.04,2.62-6.4,3.22-12.67,1.79-17.67-.63-2.11-1.61-4-2.94-5.58-.52-.62-1.1-1.18-1.7-1.73,2.75-4.51,4.58-9.19,5.34-13.57.19-1.07.29-2.11.38-3.14Zm-31.31,8.38c.87-.38,1.79-.7,2.57-.67,1.06.02,1.83.59,2.2,1.41.42,1.37-.26,3.41-1.83,4.93-1.1,1.14-2.5,1.71-3.78,2.25-2.51,1.06-5.03,2.17-7.54,3.22-.09-2.47.05-5.06-.31-7.41,2.9-1.25,5.8-2.47,8.69-3.74Zm.64,53.82c-8.88,3.81-17.77,7.61-26.65,11.41,0-3.75.03-7.52-.02-11.25.05-5.12.05-10.23,0-15.31.05-4.86.03-9.7.02-14.53.03-2.5.04-5,0-7.47.07-1.54.1-3.09-.34-4.38-.87-2.82-3.37-4.54-6.69-4.62-1.59-.02-3.36.19-5.17,1.04-1.06.47-2.12.86-3.17,1.41-4.71,2.67-8.82,7.57-10.26,12.17-1.03,3.14-.59,5.83-.64,8.64-.05,5.02-.05,10.02-.01,15-.05,4.48-.05,8.93-.02,13.37-.05,4.29-.02,8.55-.03,12.83,0,1.47,0,2.92,0,4.39-2.97,1.27-5.94,2.54-8.91,3.82,0-.03-.02-.07-.03-.1.06-4.45.01-8.86.03-13.3,0-5.02,0-10.03.01-15.05v-.68c0-4.31.04-8.64-.01-12.92.06-1.7.04-3.37,0-5.03.07-1.23.01-2.4.04-3.61.08-3.99,1.58-8.55,4.26-12.88,2.55-4.14,6.12-8.07,10.17-11.1,4.02-3.04,8.49-5.15,12.66-6.1,5.11-1.13,9.74-.39,12.79,2.05,2.63,2.03,4.08,5.3,4.15,9.17.07,3.89-.01,7.85.03,11.76l.15-.05c5.95-2.5,11.91-5.1,17.86-7.63,6.2-2.54,12.21-2.47,16.19-.02,1.9,1.2,3.37,2.92,4.24,5.06,1.85,4.5.95,10.86-2.42,16.98-3.83,7.11-10.9,13.72-18.22,16.94Z"/>
        <path class="cls-6" d="m228.29,278.77c-2.42-1.16-5.88-.97-9.36.54-5.78,2.47-11.56,4.96-17.35,7.42v.07c-.07,7.79,0,15.52-.04,23.29,5.86-2.5,11.72-5.02,17.58-7.53,4.43-1.93,8.72-5.96,11.01-10.27,1.98-3.62,2.45-7.33,1.44-10.03-.63-1.57-1.74-2.8-3.29-3.5Zm-5.42,12.33c-.77,1.67-2.44,3.27-4.15,3.97-2.81,1.19-5.63,2.44-8.44,3.6,0-.13,0-.38,0-.51,0-2.5-.02-4.98.01-7.49,2.88-1.21,5.76-2.48,8.65-3.69,1.36-.57,2.67-.53,3.51.05,1.01.78,1.23,2.39.42,4.07Z"/>
      </g>
      <g>
        <g class="cls-12">
          <path class="cls-1" d="m159.83,359.9c0,1.95,0,3.89,0,5.84,0,.26-.06.36-.32.32-.07-.01-.14,0-.21,0-44.03,0-88.06,0-132.09.01-.43,0-.5-.1-.5-.51.01-57.08.01-114.15,0-171.23,0-.45.1-.53.54-.53,4.9.02,9.8.01,14.71.01.54.35.64.95.72,1.5.18,1.28.08,2.51-1.01,3.43-.73.61-1.27.67-2.08.16-.28-.17-.55-.37-.88-.44-.65-.14-1.16.15-1.32.78-.11.42-.18.86-.14,1.29.12,1.15.05,2.29.05,3.44,0,.55-.21.78-.73.71-1.18-.17-2.36-.02-3.54.02-.44.01-.94.09-1.22-.39-.28-.49.06-.87.3-1.24.66-1.02.61-2.08.14-3.14-.4-.89-1.18-1.3-2.1-1.44-.87-.13-1.74-.06-2.57.26-.22.09-.46.16-.54.45.16.07.26-.05.38-.1.89-.37,1.8-.54,2.75-.36,1.79.35,2.72,2.22,1.92,3.87-.16.33-.37.63-.55.95-.42.78-.21,1.21.67,1.34.38.06.76.03,1.15.03,1.16,0,2.33,0,3.49,0,.66,0,.76.1.76.76,0,1.39,0,2.78,0,4.17,0,.39-.03.8-.42,1-.39.2-.78.07-1.13-.16-.15-.09-.28-.2-.43-.3-.46-.3-.94-.35-1.44-.13-1.56.68-2.06,1.82-2.05,3.31,0,.77.19,1.52.54,2.21.56,1.11,1.44,1.5,2.63,1.15.47-.14.92-.31,1.43-.24.56.08.78.28.78.85,0,1.75-.15,3.51-.11,5.26,0,.36-.19.54-.55.55-1.74.01-3.48.05-5.21-.02-.88-.03-1.29-.92-.84-1.67.75-1.25.74-1.67-.18-2.84-.8-1.01-1.8-1.63-3.16-1.41-.13.02-.34,0-.35.16,0,.22.22.16.36.17.37.02.73.08,1.09.14.98.14,1.68.7,2.19,1.53.26.42.22.86.08,1.31-.14.43-.37.83-.5,1.26-.22.72.01,1.21.71,1.52.34.15.7.21,1.07.2,1.25,0,2.5,0,3.75-.1.1,0,.21,0,.31,0,.88,0,.95.05.93.95-.03,1.55.07,3.09-.06,4.64-.07.81.71,1.46,1.6,1.37.4-.04.78-.17,1.17-.27,1.31-.34,1.95-.06,2.52,1.17.49,1.07.57,2.17.2,3.3-.19.59-.59,1.02-1.07,1.37-.58.41-1.17.5-1.79.07-.24-.17-.5-.32-.78-.42-.81-.29-1.42.07-1.57.92-.09.53-.1,1.06-.05,1.61.1,1,.04,2.01.03,3.02,0,.4-.24.59-.63.61-.44.03-.86-.08-1.3-.11-.82-.04-1.63.12-2.45.11-1.22-.02-1.51-.46-.89-1.5.67-1.13.74-2.26.12-3.42-.33-.62-.85-1.01-1.52-1.18-1.04-.28-2.07-.22-3.07.15-.22.08-.47.15-.53.46.16.06.26-.06.37-.11.94-.4,1.9-.58,2.9-.33,1.75.44,2.57,2.38,1.69,3.97-.2.36-.46.7-.6,1.09-.2.52-.04.83.49,1,.27.08.55.08.83.08,1.37,0,2.75,0,4.12,0,.7,0,.79.09.79.78,0,1.37,0,2.75,0,4.12,0,.39-.03.79-.42,1.01-.41.23-.81.08-1.18-.15-.15-.09-.29-.19-.44-.28-.54-.35-1.08-.33-1.63-.04-1.28.66-1.86,1.75-1.85,3.15,0,.89.22,1.76.69,2.54.55.91,1.32,1.24,2.34.95.52-.15,1.02-.33,1.58-.28.77.07,1.1.39,1.1,1.16,0,1.58,0,3.16,0,4.75,0,.63-.11.74-.72.74-1.76,0-3.51,0-5.27,0-.49,0-.89-.17-1.13-.62-.25-.46-.11-.88.2-1.26.55-.67.56-1.37.11-2.07-.66-1.04-1.48-1.9-2.8-2.04-.39-.04-.77,0-1.12.19.3.13.61.06.91.07,1.17.03,2.46.96,2.83,2.06.19.56.15,1.1-.16,1.61-.24.4-.37.82-.42,1.28-.07.61.24,1.01.85,1.09.22.03.45.02.68.02,1.58,0,3.16,0,4.75,0,.87,0,.91.06.89.91-.02,1.74-.01,3.48,0,5.22,0,.71.46,1.11,1.18,1.05.43-.04.85-.16,1.27-.27,1.22-.34,1.93,0,2.43,1.15.46,1.05.6,2.13.25,3.25-.22.7-.69,1.19-1.29,1.58-.45.29-.91.3-1.38.06-.33-.16-.62-.38-.96-.52-.77-.32-1.4,0-1.58.81-.12.51-.13,1.02-.07,1.55.12,1.06.05,2.12.04,3.18,0,.38-.22.58-.59.58-1.41,0-2.82.04-4.22,0-.66-.02-.93-.53-.64-1.14.23-.47.55-.89.66-1.41.4-1.74-.53-3.23-2.27-3.61-.96-.21-1.9-.07-2.81.31-.21.08-.2.1-.43.45.61-.27,1.16-.49,1.77-.56.22-.03.45-.05.67-.05,2.4.03,3.64,2.25,2.41,4.32-.18.3-.38.58-.49.92-.15.45-.02.73.43.9.28.11.58.11.87.11,1.36,0,2.71,0,4.07,0,.75,0,.87.13.88.89,0,1.32,0,2.64,0,3.96,0,.16,0,.31-.03.47-.13.63-.55.87-1.15.65-.28-.1-.53-.27-.76-.45-.5-.37-1.01-.39-1.57-.14-1.42.63-2.09,1.89-1.96,3.52.06.84.29,1.64.76,2.36.51.77,1.21,1.06,2.11.87.29-.06.57-.16.85-.25.36-.11.72-.13,1.08-.06.6.12.88.44.89,1.04.01,1.6.01,3.2,0,4.8,0,.62-.16.77-.78.78-1.18.01-2.36,0-3.55,0-.45,0-.9-.02-1.35.07-.23.04-.45,0-.67-.07-.87-.29-1.17-1.09-.61-1.81.63-.8.57-1.57.03-2.35-.8-1.13-1.79-1.95-3.3-1.8-.12.01-.24,0-.36.04-.05.02-.09.04-.14.13.16.14.35.07.52.06,1.22-.12,2.1.48,2.84,1.35.58.68.65,1.44.25,2.24-.19.39-.38.78-.44,1.22-.09.66.21,1.07.86,1.2.24.05.48.04.73.04,1.6,0,3.2,0,4.8,0,.78,0,.78.02.77.78-.02,1.76-.01,3.51,0,5.27,0,.74.32,1.03,1.06,1.05.37,0,.73-.06,1.08-.17.32-.1.64-.17.97-.22.52-.08.96.1,1.31.49,1.01,1.14,1.2,3.35.42,4.66-.34.57-.84.91-1.43,1.16-.28.12-.54.05-.8-.07-.33-.15-.62-.39-.94-.55-.84-.43-1.52-.12-1.74.78-.12.51-.14,1.03-.08,1.55.12,1.06.04,2.12.05,3.18,0,.37-.21.53-.56.53-.57,0-1.15,0-1.72,0-.57,0-1.15-.03-1.72.08-.12.02-.24.02-.36.01-1.22-.05-1.51-.54-.88-1.59.52-.86.65-1.74.38-2.7-.29-1.03-.97-1.68-2.01-1.9-.99-.21-1.97-.12-2.92.23-.19.07-.39.15-.46.41.18.07.29-.07.41-.13.96-.45,1.97-.49,2.96-.25,1.62.4,2.41,2.25,1.66,3.75-.19.37-.42.72-.6,1.1-.34.73-.19,1.04.62,1.21.5.11,1,.11,1.5.05,1.09-.13,2.19-.07,3.28-.05.57.01.79.22.72.73-.19,1.34.12,2.67.02,4.01-.02.24,0,.49-.07.72-.15.55-.54.75-1.08.57-.29-.1-.52-.28-.76-.45-.55-.4-1.13-.41-1.72-.12-1.29.64-1.88,1.73-1.89,3.12,0,.89.2,1.77.67,2.54.59.97,1.4,1.27,2.5.96.32-.09.63-.21.95-.26.98-.17,1.58.33,1.59,1.32,0,1.48,0,2.96,0,4.43,0,.75-.13.93-.85.94-1.74.04-3.48.05-5.21,0-1.01-.03-1.49-1.01-.9-1.82.55-.75.75-1.31-.04-2.47-.74-1.1-1.74-1.79-3.13-1.73-.31.01-.31.02-.62.23.14.14.3.05.44.03,1.59-.25,3.05,1.18,3.37,2.21.16.53.03,1.04-.23,1.51-.2.36-.32.73-.38,1.13-.1.69.23,1.12.93,1.16.69.04,1.39.01,2.09.01,1.1,0,2.19,0,3.29,0,.76,0,.84.08.85.83,0,1.7,0,3.41,0,5.11,0,.97.47,1.36,1.42,1.19.39-.07.78-.18,1.17-.28,1.06-.27,1.75.04,2.23,1.02.51,1.05.67,2.15.35,3.29-.24.84-.79,1.41-1.56,1.8-.39.2-.77.16-1.15-.04-.3-.17-.59-.37-.91-.51-.85-.35-1.49,0-1.66.89-.1.53-.11,1.06-.05,1.61.11,1,.04,2.01.03,3.02,0,.4-.24.65-.63.59-1.3-.19-2.6.01-3.9.01-.99,0-1.31-.54-.79-1.38.72-1.16.84-2.33.17-3.55-.31-.56-.78-.94-1.38-1.12-1.1-.33-2.2-.28-3.27.14-.22.09-.45.19-.48.52,1.03-.54,2.07-.78,3.19-.54,1.81.38,2.71,2.35,1.8,3.99-.18.32-.39.62-.55.95-.31.66-.09,1.07.64,1.2.22.04.45.04.68.04,1.36,0,2.71,0,4.07,0,.69,0,.78.1.78.79,0,1.37,0,2.75,0,4.12,0,.42-.06.82-.46,1.04-.41.22-.77.03-1.12-.19-1.25-.76-1.99-.66-3.04.38-.58.58-.8,1.3-.86,2.07-.07.84.08,1.66.43,2.44.06.14.13.29.35.33.05-.21-.09-.35-.15-.51-.45-1.18-.56-2.36,0-3.54.11-.24.27-.45.45-.63.83-.87,1.31-.93,2.34-.32.22.13.44.27.69.37.69.25,1.3-.05,1.52-.75.08-.25.08-.51.08-.78,0-1.34,0-2.68,0-4.02,0-.7.09-.79.78-.79,1.23,0,2.47,0,3.7,0,.12,0,.24,0,.36.02.81.11,1.05.63.61,1.33-.03.04-.05.09-.09.13-1.35,1.38-.03,3.87,1.57,4.2,1.66.35,3.1.14,4.26-1.21.73-.85.79-1.51.19-2.45-.62-.96-.15-1.89,1-1.91,1.67-.03,3.34,0,5.01,0,.4,0,.62.16.66.57.02.19.08.38.08.57-.02,1.46.05,2.92.1,4.38.03.92-.45,1.28-1.36,1.09-.26-.05-.51-.12-.75-.21-1.93-.68-3.07.57-3.55,2.02-.24.74-.1,1.48.07,2.21.02.1.07.2.22.24.15-.19,0-.39-.03-.57-.22-.99-.13-1.93.45-2.79.6-.88,1.33-1.2,2.38-.97.53.11,1.03.33,1.56.41.91.14,1.21-.13,1.24-1.03.05-1.62-.16-3.23-.11-4.85.03-1.04.03-1,1.04-1.08,1.65-.12,3.3-.06,4.95-.1,1.1-.02,1.5-.62,1.16-1.66-.11-.33-.26-.65-.37-.97-.36-1.02-.11-2.06.74-2.72,1.23-.96,2.63-1.17,4.09-.64,1.34.49,1.94,2.32,1.26,3.66-.19.37-.42.72-.6,1.1-.32.68-.12,1.05.62,1.19.22.04.45.04.68.04,1.29,0,2.57,0,3.86,0,.87,0,.93.06.93.91,0,.54,0,1.08,0,1.62.01.73-.02,1.46.07,2.19.05.45,0,.94-.44,1.21-.38.23-.77.1-1.13-.13-.49-.32-.96-.72-1.62-.53-.81.23-1.44.74-1.84,1.45-.74,1.32-.54,2.68,0,4.02.05.12.06.11.44.31-.35-.66-.56-1.28-.62-1.93-.13-1.34.25-2.47,1.39-3.28.44-.31.89-.35,1.37-.08.33.19.65.41,1,.56.78.35,1.43.04,1.64-.79.07-.27.07-.55.07-.83,0-1.29,0-2.57,0-3.86,0-.73.09-.83.8-.83,1.29,0,2.57,0,3.86,0,.38,0,.74.04.94.42.21.39.1.78-.18,1.06-1.35,1.39-.17,3.95,1.66,4.26,1.31.23,2.56.2,3.65-.73.29-.25.53-.55.75-.86.51-.76.5-1.26,0-2.02-.27-.4-.54-.8-.27-1.3.27-.5.74-.71,1.3-.73,1.69-.06,3.37.07,5.05.1.39,0,.59.18.58.57-.04,1.7.18,3.4.11,5.11-.03.65-.41.98-1.06.9-.35-.04-.68-.14-1.01-.25-2.1-.71-3.2.65-3.61,2.24-.16.63-.05,1.28.09,1.91.03.15.08.3.32.31.03-.32-.11-.59-.17-.87-.24-1.16.12-2.12.92-2.95.52-.54,1.14-.7,1.86-.53.59.15,1.17.35,1.77.45.77.13,1.28-.31,1.18-1.09-.08-.68-.09-1.35-.06-2.03.04-1.01-.14-2.01-.11-3.02.02-.76.09-.87.83-.85,1.76.04,3.51-.16,5.26-.12,1,.02,1.42-.6,1.11-1.55-.1-.3-.23-.58-.34-.88-.47-1.22-.18-2.32.91-3.06,1.16-.8,2.46-.9,3.79-.48.8.25,1.28.85,1.47,1.63.19.77.2,1.55-.25,2.27-.2.32-.42.64-.56,1-.22.55-.06.89.51,1.01.54.11,1.08.18,1.65.12,1.16-.12,2.33-.05,3.49-.04.35,0,.58.21.55.56-.1,1.54.12,3.09,0,4.63-.07.82-.64,1.1-1.37.71-.2-.11-.39-.23-.57-.36-.58-.42-1.16-.37-1.76-.04-1.32.73-1.98,2.09-1.75,3.6.07.48.17.96.34,1.42.08.21.14.44.44.49.08-.21-.07-.36-.13-.52-.5-1.28-.54-2.53.18-3.76.3-.51.72-.84,1.23-1.08.31-.14.61-.09.91.04.35.16.65.4.99.57.87.44,1.5.15,1.75-.78.08-.29.09-.58.09-.88,0-1.27,0-2.54,0-3.81,0-.7.1-.8.78-.8,1.3,0,2.61,0,3.91,0,.38,0,.74.08.93.46.18.37.07.74-.19,1.02-1.34,1.45-.18,3.95,1.65,4.26,1.31.22,2.56.21,3.65-.72.28-.24.51-.52.72-.82.5-.7.53-1.38,0-2.11-.7-.98-.21-1.92,1-1.97,1.69-.08,3.37.05,5.05.1.34.01.5.18.53.51.04.43.12.86.11,1.3-.04,1.22.06,2.43.1,3.65.03.96-.45,1.31-1.4,1.06-.27-.07-.54-.14-.8-.23-1.77-.57-2.79.32-3.41,1.86-.32.79-.19,1.61.04,2.41.02.08.06.16.2.18.12-.21,0-.42-.05-.63-.23-1.08-.07-2.08.66-2.94.56-.67,1.26-.96,2.14-.74.52.13,1.02.34,1.56.43.97.16,1.28-.11,1.3-1.08.04-1.67-.17-3.33-.11-5,.03-.82.08-.9.9-.89,1.74.04,3.47-.15,5.21-.12.94.02,1.34-.59,1.07-1.49-.09-.28-.18-.57-.32-.83-.77-1.52.19-2.98,1.44-3.52.95-.41,1.96-.48,2.96-.23,1.44.36,2.26,2.14,1.68,3.57-.17.42-.44.79-.65,1.19-.4.78-.19,1.17.66,1.32.57.1,1.14.05,1.71.02.97-.06,1.95-.02,2.92-.02.65,0,.74.11.76.77.03,1.37-.06,2.75.05,4.12.02.21-.03.42-.09.62-.13.48-.48.67-.96.54-.33-.09-.6-.27-.86-.47-.53-.41-1.06-.42-1.66-.14-1.44.69-2.1,1.99-1.89,3.77.06.49.18.96.38,1.41.08.17.14.37.4.41.07-.19-.08-.32-.14-.47-.48-1.21-.61-2.42.02-3.63.2-.38.46-.69.81-.94.76-.54,1.17-.57,1.95-.07.29.19.59.37.94.45.59.14,1.08-.13,1.26-.71.1-.3.11-.61.11-.93,0-1.3,0-2.61,0-3.91,0-.72.1-.8.82-.81,1.16-.02,2.33.06,3.49-.09.44-.06.87.01,1.21.36.25.26.32.53.13.84-.05.09-.1.19-.18.26-1.37,1.31-.27,3.98,1.67,4.33,1.1.2,2.14.19,3.13-.39.16-.09.32-.21.52-.15Z"/>
          <path class="cls-1" d="m98.28,193.81c.24.84.47,1.68.13,2.54-.51,1.27-1.39,2.13-2.95,1.57-.44-.16-.9-.27-1.35-.35-.9-.15-1.37.25-1.35,1.15.02,1.01.08,2.01.11,3.02.03.8.04,1.6.08,2.4.02.32-.08.41-.4.41-1.75.02-3.51.06-5.26.09-.63,0-1.27.01-1.56.68-.28.65-.23,1.31.26,1.9.45.55.44,1.07.03,1.67-1.14,1.67-3.02,1.91-4.7,1.09-1.16-.56-1.48-2.05-.79-3.11.24-.36.41-.75.55-1.17.15-.46-.04-.75-.44-.91-.35-.14-.71-.23-1.11-.23-1.41.01-2.81-.02-4.22,0-.39,0-.5-.12-.5-.51.01-1.37-.02-2.75-.03-4.12,0-.12,0-.24.01-.36.08-.7.48-.91,1.12-.59.18.09.36.21.52.34.61.5,1.25.5,1.93.14,1.68-.89,2.32-2.67,1.69-4.75-.09-.31-.23-.61-.35-.92,6.19,0,12.38,0,18.57,0Z"/>
          <path class="cls-1" d="m135.31,193.81c.47,1.26.51,2.47-.41,3.57-.54.65-1.21.89-2.04.66-.57-.16-1.13-.34-1.7-.44-.91-.16-1.4.36-1.35,1.28.09,1.79.13,3.58.21,5.36.01.28-.09.34-.35.35-1.7.02-3.41.05-5.11.08-.1,0-.21,0-.31,0-.57.02-1.15.06-1.42.66-.27.59-.18,1.18.16,1.73.63,1.03.56,1.53-.27,2.39-1.2,1.24-2.92,1.19-4.19.6-1.23-.58-1.58-2.15-.82-3.26.07-.1.14-.2.2-.3.62-1.16.33-1.78-1.06-1.88-1.47-.11-2.95-.04-4.43-.01-.39,0-.49-.1-.49-.49.02-1.32.03-2.64-.06-3.96-.03-.41-.08-.92.32-1.14.44-.25.86.05,1.23.32.84.62,1.4.63,2.28.08,1.46-.92,1.99-2.44,1.51-4.38-.1-.4-.23-.79-.35-1.18,6.15,0,12.31,0,18.46,0Z"/>
          <path class="cls-1" d="m61.15,193.81c.5,1.26.51,2.46-.42,3.56-.52.61-1.14.85-1.94.66-.61-.14-1.18-.38-1.81-.46-.89-.11-1.36.34-1.32,1.26.08,1.77.12,3.54.19,5.31.02.35-.11.43-.44.43-1.81.01-3.61.04-5.42.08-1.33.03-1.96,1.04-1.25,2.16,1.07,1.67.06,2.64-1.23,3.3-1.07.54-2.21.4-3.26-.13-1.15-.58-1.49-2.09-.77-3.16.18-.26.3-.54.42-.83.38-.87-.22-1.39-1.07-1.42-1.42-.06-2.85-.02-4.27-.02-.82,0-.82,0-.82-.79,0-1.23.03-2.47-.06-3.7-.03-.41-.08-.9.34-1.13.44-.24.82.06,1.18.32,1.13.83,2.54.45,3.41-.95.81-1.31.66-2.67.18-4.05-.05-.14-.18-.26-.13-.43h18.46Z"/>
          <path class="cls-1" d="m159.83,266.63c-.26.04-.51.1-.77.12-1.51.12-2.83-.7-3.42-2.11-.19-.46-.14-.89.19-1.26.41-.45.52-.95.44-1.53-.12-.84-.58-1.33-1.44-1.35-1.67-.03-3.34-.03-5-.02-.37,0-.52-.05-.5-.47.05-1.61-.01-3.24.11-4.85.08-1.1-.96-1.82-1.9-1.62-.44.09-.87.21-1.31.32-.99.25-1.51.04-1.97-.86-.58-1.14-.77-2.32-.31-3.56.12-.31.28-.6.5-.84.78-.86,1.37-.95,2.35-.33.38.24.77.48,1.24.47.63-.03,1.1-.54,1.13-1.33.04-1.49.05-2.99.02-4.48-.01-.52.11-.66.64-.65,1.27.03,2.54-.02,3.8-.04.26,0,.51,0,.75.16.35.25.46.56.16.87-.91.98-1.01,2.03-.4,3.19.63,1.22,1.72,1.56,2.97,1.67,1.02.09,1.9-.27,2.73-.82v19.3Z"/>
          <path class="cls-1" d="m159.83,228.97c-1.23.21-2.42.11-3.5-.59-.74-.48-.97-1.2-.7-2.04.1-.31.23-.62.35-.92.57-1.37.03-2.19-1.48-2.2-1.36,0-2.71,0-4.07-.01-.44,0-1.03.21-1.29-.1-.21-.26-.07-.83-.06-1.26.02-1.43.05-2.85.07-4.28.01-.9-.61-1.44-1.51-1.28-.48.08-.94.22-1.41.34-.93.23-1.43.01-1.89-.84-.53-.98-.71-2.02-.5-3.12.2-1,.85-1.63,1.76-2.04.26-.11.48-.03.69.08.29.16.56.35.85.51,1.15.63,2.11.08,2.12-1.24.01-1.48,0-2.96-.03-4.43,0-.41.11-.52.52-.51,1.35.03,2.71.03,4.07.03.34,0,.64.08.79.39.13.28.03.57-.18.76-1.51,1.38-.27,4.31,2,4.59,1.26.16,2.37,0,3.4-.74v18.88Z"/>
          <path class="cls-1" d="m159.83,304.08c-2.02.68-3.37-.39-4.13-1.83-.27-.51-.22-.97.15-1.39.35-.4.5-.85.43-1.39-.13-.91-.67-1.43-1.59-1.44-1.63-.01-3.27-.02-4.9-.01-.36,0-.47-.09-.46-.46.04-1.61,0-3.23.11-4.84.07-1.05-.9-1.78-1.86-1.6-.58.11-1.14.26-1.72.37-.66.13-1.15-.12-1.48-.7-.65-1.13-.87-2.32-.5-3.59.13-.45.36-.86.72-1.18.87-.78,1.2-.81,2.19-.19.43.27.85.56,1.39.45.59-.12.96-.57.98-1.3.04-1.53.05-3.06.02-4.58,0-.47.12-.57.57-.56,1.34.02,2.67,0,4.01-.02.23,0,.44.01.64.16.32.24.39.51.15.85-.03.04-.06.09-.1.12-1.62,1.49-.24,4.38,1.86,4.65,1.22.16,2.39.19,3.37-.71.03-.03.1,0,.15-.01v19.2Z"/>
          <path class="cls-1" d="m159.83,341.54c-1.62.64-3.82-.46-4.26-2.12-.11-.41.01-.77.28-1.06.57-.62.58-1.33.25-2.03-.31-.66-.93-.82-1.61-.82-1.56,0-3.13-.02-4.69,0-.41,0-.48-.13-.47-.5.04-1.55-.02-3.1.1-4.64.11-1.36-.93-1.99-2.16-1.72-.44.09-.87.23-1.3.34-.65.16-1.18-.05-1.53-.61-.71-1.14-.94-2.37-.56-3.68.12-.43.34-.83.69-1.15.85-.78,1.27-.83,2.24-.21.13.08.26.17.4.24,1,.52,1.84.07,1.98-1.06.08-.66.02-1.32.02-1.98,0-.94.01-1.88,0-2.82,0-.28.06-.4.37-.4,1.44.01,2.89,0,4.33,0,.34,0,.61.14.76.44.15.29-.04.51-.21.7-.76.84-.88,1.75-.44,2.79.49,1.16,1.38,1.73,2.58,1.89,1.12.15,2.18.04,3.1-.7.03-.02.1,0,.14,0v19.09Z"/>
          <path class="cls-1" d="m159.83,321.61c-1.08,1.16-2.5,1.35-4.12.74-1.22-.46-1.69-1.93-1.06-3.05.12-.21.24-.42.37-.62.72-1.13.21-1.74-1.1-1.85-1.45-.13-2.92-.03-4.38,0-.38,0-.49-.08-.49-.48,0-1.34.06-2.68-.05-4.01,0-.1,0-.21,0-.31.1-.85.57-1.08,1.28-.59.62.43,1.2.91,2.03.53.99-.46,1.76-1.12,2.04-2.21.35-1.38.11-2.69-.61-3.9-.55-.92-1.42-1.22-2.46-.93-.5.13-.96.4-1.51.33-.47-.06-.74-.23-.72-.79.04-1.81.04-3.61.03-5.42,0-.35.07-.48.45-.47,1.67.03,3.34.03,5,.02.57,0,.91.31,1.14.76.21.41.11.81-.2,1.15-.57.61-.59,1.29-.24,2.02.85,1.77,2.42,2.56,4.35,2.2.08-.02.17,0,.26,0v16.9Z"/>
          <path class="cls-1" d="m159.5,284.46c-1.23.92-2.58.92-3.91.34-1.24-.55-1.59-1.93-.9-3.1.2-.34.41-.68.57-1.04.19-.42.06-.77-.36-1.01-.43-.24-.86-.39-1.37-.38-1.35.04-2.71.03-4.06.06-.3,0-.43-.05-.43-.39,0-1.39.05-2.78-.05-4.17,0-.09,0-.17,0-.26.09-.85.55-1.07,1.27-.6.61.4,1.17.89,1.99.54,1.02-.44,1.81-1.12,2.09-2.22.35-1.4.12-2.73-.66-3.93-.6-.92-1.43-1.18-2.48-.86-.52.16-1.03.4-1.61.28-.38-.08-.56-.24-.56-.66.03-1.88.03-3.75.03-5.63,0-.26.06-.36.34-.36,1.74.01,3.47,0,5.21,0,.5,0,.81.31,1.02.7.2.37.16.76-.1,1.13-.73,1.03-.73,1.6,0,2.62,1.01,1.41,2.27,2.17,4.27,1.63v17.01c-.09.13-.15.27-.32.31Z"/>
          <path class="cls-1" d="m159.83,359.17c-1.15,1.12-2.51,1.22-3.96.77-1.31-.41-1.9-1.97-1.22-3.15.2-.34.42-.68.58-1.04.24-.54.11-.83-.38-1.12-.41-.24-.84-.35-1.33-.34-1.35.03-2.71,0-4.07.04-.33,0-.41-.09-.41-.4,0-1.37.05-2.75-.05-4.12,0-.05,0-.11,0-.16.04-.32,0-.72.33-.88.35-.17.72-.04,1.02.19.53.41,1.07.83,1.79.55.92-.35,1.7-.91,2.06-1.86.61-1.66.32-3.22-.72-4.62-.46-.62-1.16-.86-1.95-.66-.47.12-.93.29-1.4.36-.81.12-1.08-.13-1.08-.92,0-1.77.03-3.54.02-5.32,0-.36.12-.42.44-.42,1.7.02,3.41.02,5.11.02.51,0,.8.31,1.02.69.21.37.21.8-.1,1.12-.87.89-.55,1.86,0,2.64,1.07,1.5,2.45,2.15,4.28,1.64v17.01Z"/>
          <path class="cls-1" d="m159.83,246.6c-1.17,1.13-2.55,1.24-4.01.75-1.32-.44-1.84-1.99-1.14-3.18.19-.33.4-.65.55-1,.24-.54.11-.83-.38-1.12-.41-.24-.84-.34-1.33-.33-1.35.03-2.71,0-4.07.03-.32,0-.41-.09-.41-.41,0-1.37.05-2.75-.05-4.12,0-.05,0-.11,0-.16.05-.32,0-.72.34-.87.35-.16.72-.03,1.02.2.52.4,1.04.81,1.75.56.88-.31,1.63-.83,2.01-1.7.74-1.71.45-3.34-.64-4.8-.6-.81-1.48-.87-2.4-.54-.45.16-.91.34-1.41.24-.67-.12-.85-.34-.84-1.01.02-1.63.03-3.27.02-4.9,0-.37.12-.48.47-.48,1.81.01,3.61,0,5.42.02.81,0,1.12.48.85,1.24-.06.18-.14.36-.23.52-.73,1.27-.41,2.6.83,3.38,1.12.71,2.32,1.08,3.65.67v17.01Z"/>
          <path class="cls-1" d="m116.12,193.81c.75,1.25.93,2.55.35,3.91-.15.34-.36.63-.64.88-.76.68-1.06.7-1.93.16-.21-.13-.41-.26-.63-.36-.95-.47-1.81-.02-1.92,1.03-.14,1.32,0,2.64-.03,3.96-.02,1.17,0,1.16-1.15,1.16-1.13,0-2.26.03-3.39.03-.7,0-1.02-.58-.62-1.16.6-.87.78-1.78.55-2.81-.29-1.24-1.15-2.07-2.61-2.24-1.59-.19-3.07.12-4.07,1.51-.62.86-.84,1.82-.27,2.82.11.19.18.41.26.62.27.71,0,1.16-.77,1.18-1.41.03-2.82.02-4.22.03-.24,0-.49,0-.73,0-.91-.04-.79.17-.82-.85-.06-1.6-.11-3.19-.16-4.79-.02-.44.2-.67.69-.73.41-.05.79.12,1.16.24,1.01.33,1.98.42,2.81-.41.91-.9,1.31-1.97,1.09-3.26-.05-.31-.1-.61-.15-.92,5.74,0,11.47,0,17.21,0Z"/>
          <path class="cls-1" d="m153.15,193.81c.61,1.16.87,2.36.45,3.65-.25.78-.82,1.26-1.52,1.62-.29.15-.54.05-.79-.08-.35-.19-.68-.42-1.03-.59-.92-.44-1.79,0-1.9,1.02-.14,1.32.02,2.64-.01,3.96-.03,1.18,0,1.17-1.2,1.16-1.09,0-2.19.04-3.28.03-.78,0-1.01-.42-.57-1.07.57-.85.84-1.74.63-2.75-.3-1.43-1.24-2.27-2.74-2.42-.89-.09-1.76.03-2.59.39-1.27.56-1.85,1.62-2.1,2.9-.1.48.2.89.48,1.28.44.62.37,1.13-.15,1.48-.2.13-.42.14-.65.14-1.74.01-3.48,0-5.21.03-.39,0-.41-.18-.42-.47-.04-1.67-.09-3.33-.14-5-.02-.72.36-1.04,1.07-.88.37.09.73.22,1.09.32,1.35.37,2.26,0,3.03-1.16.7-1.05.69-2.18.39-3.34-.02-.07-.03-.14-.04-.2,5.74,0,11.47,0,17.21,0Z"/>
          <path class="cls-1" d="m79.09,193.81c.64,1.28.89,2.58.23,3.93-.11.22-.23.43-.38.62-.65.83-1.3.94-2.19.39-.26-.16-.53-.33-.82-.44-.72-.3-1.36,0-1.61.75-.17.5-.15,1.03-.15,1.55,0,1.18,0,2.36.01,3.55,0,.23,0,.4-.32.38-1.27-.08-2.53-.09-3.8.05-.1.01-.21,0-.31,0-.88-.06-1.13-.49-.65-1.21.59-.88.76-1.8.51-2.82-.32-1.27-1.16-1.99-2.42-2.19-1.08-.17-2.14-.06-3.13.48-1.05.58-1.59,1.51-1.76,2.67-.06.39.05.76.27,1.08.17.25.29.51.39.79.19.56-.13,1.08-.72,1.09-1.82.03-3.65.03-5.48.05-.28,0-.39-.1-.4-.39-.04-1.79-.11-3.58-.15-5.37-.01-.42.31-.67.83-.61.37.04.74.16,1.11.27,1.95.56,3.53-.48,3.82-2.5.1-.73-.06-1.41-.21-2.11h17.32Z"/>
          <path class="cls-1" d="m159.83,209.35c-1.03,1.01-2.27,1.17-3.61.86-1.71-.39-2.41-2.22-1.4-3.63.31-.42.58-.87.3-1.38-.28-.52-.79-.67-1.36-.67-1.44,0-2.88-.03-4.33-.02-.41,0-.56-.09-.56-.54.02-1.39-.01-2.78-.02-4.17,0-.31.01-.67.32-.83.33-.18.68-.08.98.14.56.42,1.12.87,1.88.57.94-.37,1.69-.95,2.05-1.93.5-1.36.25-2.65-.31-3.93,1.89,0,3.79,0,5.68,0,.31,0,.37.06.37.37-.01,5.06,0,10.12,0,15.18Z"/>
          <path class="cls-1" d="m108.55,260.71c-.85,0-1.7-.02-2.56,0-.55.02-.88-.28-1.12-.7-.23-.41-.13-.82.18-1.15.64-.69.6-1.42.18-2.2-1.34-2.47-4.55-2.91-6.31-.85-.96,1.12-1.01,2.26-.14,3.44.21.28.35.55.15.9-.2.33-.41.55-.85.54-1.44-.04-2.89-.03-4.33-.02-.42,0-.6-.11-.59-.59.04-1.39.02-2.78.02-4.17,0-.28,0-.55-.11-.82-.3-.73-1.03-1.03-1.74-.68-.21.11-.41.26-.61.4-.58.4-.95.4-1.53.02-1.44-.96-1.87-3.73-.8-5.09.61-.78,1.36-1.02,2.3-.72.51.16,1.02.33,1.55.41.85.12,1.33-.28,1.31-1.15-.03-1.3-.09-2.6-.14-3.91-.02-.52-.02-1.04-.05-1.56-.02-.3.09-.38.38-.38,1.82-.02,3.65-.07,5.47-.1,1.28-.02,1.75-.7,1.29-1.91-.07-.19-.16-.38-.24-.57-.62-1.51-.03-2.88,1.51-3.46.83-.31,1.7-.36,2.56-.18,1.11.22,1.8,1.06,1.88,2.19.05.66-.06,1.27-.44,1.83-.19.28-.36.59-.5.91-.25.59-.09.94.52,1.11.55.15,1.13.23,1.7.16,1.23-.17,2.46-.02,3.69-.06.24,0,.29.12.29.32,0,1.55.04,3.09.03,4.64,0,.83-.49,1.07-1.21.67-.02,0-.03-.02-.04-.03-.62-.46-1.23-.93-2.08-.53-1.01.47-1.77,1.16-2.03,2.28-.32,1.38-.09,2.69.69,3.88.58.89,1.37,1.16,2.39.87.32-.09.62-.2.94-.28.99-.26,1.59.19,1.58,1.19-.01,1.6-.05,3.2-.03,4.8,0,.51-.17.6-.62.58-.85-.03-1.7,0-2.56,0,0,0,0,0,0,.01Z"/>
          <path class="cls-1" d="m96.68,279.88c.9,0,1.81,0,2.71,0,1.06,0,1.54-.69,1.19-1.69-.11-.31-.23-.61-.35-.92-.48-1.2-.14-2.33.96-3.01,1.11-.69,2.33-.77,3.55-.37,1.27.41,1.9,2.14,1.3,3.38-.21.44-.49.84-.7,1.27-.37.75-.11,1.16.7,1.33.87.18,1.73-.01,2.59,0,.82.01,1.63.02,2.45.01.28,0,.4.07.4.38,0,1.51.03,3.02.03,4.53,0,.32,0,.69-.37.85-.34.15-.65,0-.92-.19-.61-.44-1.21-.89-2.03-.51-1.03.48-1.8,1.19-2.05,2.32-.3,1.34-.07,2.62.66,3.79.58.93,1.4,1.21,2.46.92.46-.13.9-.35,1.41-.32.8.05,1.09.33,1.08,1.11-.01,1.62-.04,3.23-.04,4.85,0,.32-.06.45-.43.45-1.77,0-3.54.02-5.32.04-.5,0-.89-.18-1.11-.61-.22-.43-.03-.8.26-1.14.42-.48.6-1.03.34-1.63-.59-1.38-1.53-2.42-3.08-2.63-1.66-.22-3.16.56-3.86,1.89-.5.96-.52,1.88.2,2.76.44.54.41.78,0,1.27-.13.16-.27.23-.49.22-1.49-.02-2.99-.03-4.48-.01-.46,0-.6-.17-.59-.62.02-1.39,0-2.78.01-4.17,0-.62-.12-1.18-.74-1.49-.6-.3-1.1-.06-1.58.3-.72.54-1.09.55-1.73.08-1.39-1-1.78-3.67-.75-5.02.63-.83,1.28-1.03,2.34-.73.48.13.97.24,1.45.39.88.27,1.44-.37,1.4-1.2-.06-1.39-.12-2.78-.16-4.16-.02-.52-.24-1.17.05-1.52.28-.33.95-.09,1.45-.12.59-.03,1.18,0,1.77,0v-.09Z"/>
          <path class="cls-1" d="m133.77,242.32c.92,0,1.84,0,2.76,0,.93,0,1.45-.67,1.18-1.55-.1-.33-.23-.65-.36-.97-.56-1.38-.1-2.65,1.24-3.29.92-.44,1.91-.52,2.9-.3,1.57.36,2.35,2.17,1.59,3.63-.21.4-.46.77-.65,1.18-.32.67-.09,1.15.62,1.26.58.1,1.16.14,1.76.07,1.16-.13,2.33-.01,3.49-.03.24,0,.29.11.29.32,0,1.55.04,3.09.01,4.64-.02.86-.53,1.12-1.23.65-.64-.44-1.23-.93-2.08-.54-.97.45-1.73,1.11-2.01,2.18-.36,1.41-.13,2.76.65,3.99.56.87,1.39,1.15,2.4.87.33-.09.66-.22.99-.3.97-.22,1.54.24,1.53,1.21-.02,1.58-.06,3.16-.05,4.75,0,.36-.15.46-.44.47-1.84.01-3.69.03-5.53.02-.41,0-.72-.26-.89-.62-.17-.36-.08-.7.16-1.02.68-.88.7-1.47.13-2.42-1.28-2.11-3.71-2.64-5.64-1.23-1.45,1.06-1.71,2.61-.67,4.05.19.27.28.52.11.81-.18.3-.35.56-.79.55-1.46-.03-2.92-.03-4.38-.02-.46,0-.62-.14-.6-.63.04-1.39.02-2.78.02-4.17,0-.61-.16-1.14-.72-1.46-.56-.31-1.06-.11-1.54.24-.9.66-1.49.58-2.23-.28-1.14-1.33-1.26-3.43-.28-4.67.53-.68,1.19-.97,2.06-.73.57.16,1.13.33,1.71.44.94.17,1.37-.22,1.35-1.19-.04-1.41-.09-2.81-.13-4.22-.01-.5-.2-1.16.05-1.47.25-.31.94-.12,1.44-.13.59-.01,1.18,0,1.77,0,0-.03,0-.06,0-.09Z"/>
          <path class="cls-1" d="m56.32,283.09c0-.9.01-1.81,0-2.71,0-.3.06-.43.39-.43,1.86-.02,3.72-.07,5.57-.1,1.06-.02,1.56-.67,1.23-1.67-.08-.26-.2-.52-.31-.77-.64-1.52-.05-2.92,1.52-3.5.85-.31,1.73-.38,2.61-.18,1.55.35,2.34,2.18,1.59,3.65-.2.38-.45.74-.64,1.13-.35.72-.13,1.18.66,1.31.44.08.9.12,1.35.08,1.25-.1,2.5-.04,3.75-.03.29,0,.38.08.38.38,0,1.48-.04,2.95.03,4.43.02.33.03.75-.33.93-.35.18-.71.02-1.03-.19-1.38-.91-2.73-.59-3.61.85-.88,1.44-.62,3.93.55,5.15.55.58,1.21.76,1.99.57.52-.13,1-.41,1.56-.36.69.06,1.16.23,1.12,1.14-.07,1.61-.07,3.23-.07,4.85,0,.32-.11.43-.41.43-1.84,0-3.68.02-5.53.02-.42,0-.73-.22-.92-.58-.2-.38-.09-.73.17-1.06.67-.87.68-1.46.08-2.42-1.52-2.43-3.92-2.41-5.67-1.14-1.39,1.01-1.62,2.56-.62,3.94.21.29.31.57.11.91-.19.34-.43.53-.86.52-1.42-.04-2.85-.04-4.27-.03-.45,0-.63-.09-.62-.6.04-1.42.01-2.85.02-4.28,0-.39-.09-.76-.33-1.07-.44-.55-1.11-.61-1.76-.17-1.22.82-2.01.65-2.7-.68-.72-1.37-1.01-2.78.02-4.15.53-.7,1.21-1.02,2.1-.76.51.15,1.03.3,1.55.42,1.03.23,1.53-.19,1.49-1.24-.02-.43-.04-.87-.05-1.3,0-.43,0-.87,0-1.3-.03,0-.07,0-.1,0Z"/>
          <path class="cls-1" d="m59.63,317.35c.96,0,1.91.02,2.87,0,.83-.02,1.31-.7,1.08-1.51-.1-.35-.25-.68-.38-1.02-.56-1.42-.04-2.73,1.36-3.33.88-.38,1.82-.45,2.75-.24,1.53.34,2.37,2.08,1.69,3.51-.2.42-.47.81-.68,1.22-.38.74-.15,1.19.66,1.35.6.11,1.2.09,1.81.06,1.11-.06,2.22,0,3.33,0,.3,0,.32.16.32.4,0,1.15,0,2.29,0,3.44,0,.45.1.9.01,1.35-.11.56-.37.72-.92.55-.27-.08-.49-.26-.71-.43-.6-.47-1.22-.49-1.89-.14-1.51.79-2.2,2.23-1.89,4.02.12.67.3,1.32.67,1.9.63,1,1.43,1.31,2.58.98.54-.15,1.06-.43,1.67-.25.62.18.77.34.76.98-.02,1.62-.07,3.23-.06,4.85,0,.46-.19.55-.56.56-.63,0-1.25,0-1.88,0-1.09,0-2.19,0-3.28.01-.49,0-.89-.14-1.12-.59-.24-.46-.04-.83.27-1.18.4-.45.56-1,.34-1.55-1.24-3.12-4.39-3.49-6.36-1.57-1.04,1.01-1.43,2.38-.28,3.65.24.26.29.55.11.86-.18.3-.38.53-.81.52-1.49-.04-2.99-.04-4.48-.03-.37,0-.47-.11-.46-.47.02-1.44,0-2.89,0-4.33,0-.61-.16-1.14-.73-1.44-.57-.3-1.06-.1-1.54.25-.87.64-1.5.56-2.19-.27-1.07-1.27-1.28-3.23-.47-4.46.63-.96,1.3-1.22,2.4-.93.5.13,1,.28,1.5.39.88.2,1.39-.2,1.39-1.09,0-.87-.05-1.74-.08-2.6-.03-.96-.04-1.91-.09-2.86-.02-.37.12-.43.44-.43.96.01,1.91,0,2.87,0,0-.04,0-.07,0-.11Z"/>
          <path class="cls-1" d="m96.6,317.4c.95,0,1.91,0,2.86,0,.93-.01,1.43-.73,1.15-1.64-.1-.33-.25-.64-.37-.96-.51-1.31-.12-2.44,1.11-3.12,1.04-.57,2.15-.66,3.27-.32,1.35.4,2.05,2.1,1.44,3.4-.22.47-.52.9-.74,1.36-.31.66-.1,1.05.61,1.23.46.12.93.14,1.4.1,1.25-.11,2.5-.02,3.75-.04.37,0,.42.14.42.45,0,1.42.02,2.85.03,4.27,0,.09,0,.17,0,.26-.05.8-.5,1.04-1.2.65-.02,0-.03-.02-.04-.03-.62-.47-1.24-.93-2.08-.55-.99.45-1.75,1.12-2.02,2.22-.36,1.42-.1,2.75.68,3.97.6.92,1.41,1.14,2.55.8.51-.16,1.01-.37,1.57-.24.57.13.78.38.78.96-.01,1.63-.04,3.27-.04,4.9,0,.39-.07.54-.51.53-1.75-.02-3.51,0-5.26.02-.48,0-.86-.16-1.08-.58-.22-.42-.08-.79.22-1.14.41-.47.58-1,.38-1.63-.47-1.46-2.11-2.76-3.54-2.7-1.28.05-2.43.45-3.18,1.57-.65.95-.96,2.02.04,3.19.36.42.28.77-.01,1.16-.17.22-.36.28-.63.28-1.48-.02-2.95-.04-4.43-.04-.39,0-.55-.13-.54-.54.02-1.37,0-2.75,0-4.12,0-.14,0-.28,0-.42-.1-1.15-1.14-1.65-2.1-1.01-1.21.81-2.03.63-2.7-.69-.7-1.37-1-2.78.05-4.15.54-.71,1.24-.97,2.11-.74.52.14,1.03.3,1.55.42,1.02.24,1.54-.25,1.5-1.3-.08-1.73-.12-3.47-.19-5.21-.01-.32.05-.45.41-.44.94.03,1.88,0,2.81,0,0-.04,0-.08,0-.12Z"/>
          <path class="cls-1" d="m59.56,242.29c.92,0,1.84,0,2.76,0,1.04-.01,1.54-.73,1.2-1.72-.11-.31-.25-.61-.37-.91-.48-1.22-.12-2.36,1.01-3.04,1.12-.66,2.34-.76,3.56-.34,1.31.45,1.88,2.24,1.19,3.56-.21.4-.46.77-.65,1.18-.29.64-.09,1.03.58,1.2.46.11.93.15,1.4.11,1.23-.1,2.46-.02,3.7-.05.35-.01.51.08.5.49,0,1.41-.06,2.82.04,4.22,0,.07,0,.14,0,.21-.06.93-.57,1.19-1.35.65-.55-.38-1.07-.82-1.79-.55-.95.35-1.73.93-2.08,1.9-.57,1.58-.3,3.08.63,4.45.56.82,1.42,1.02,2.46.69.46-.15.91-.33,1.41-.27.69.08.96.34.95,1.03-.02,1.67-.05,3.34-.06,5,0,.33-.11.4-.41.4-1.84-.01-3.68,0-5.53,0-.41,0-.7-.21-.89-.54-.19-.32-.15-.66.06-.98.81-1.25.78-1.77-.13-2.97-1.75-2.3-4.36-1.71-5.65-.46-.93.9-1.55,2.4-.34,3.7.25.27.3.57.1.9-.19.31-.39.52-.82.51-1.51-.04-3.02-.05-4.53-.05-.34,0-.4-.11-.4-.42.01-1.44,0-2.89,0-4.33,0-.14.01-.28-.01-.42-.17-1.11-1.18-1.54-2.13-.9-1.13.77-1.9.63-2.59-.57-.66-1.16-1.02-2.4-.4-3.71.6-1.28,1.45-1.65,2.8-1.26.46.14.93.28,1.41.36.86.14,1.3-.23,1.29-1.09,0-.85-.05-1.7-.08-2.55-.03-.99-.04-1.98-.09-2.97-.01-.3.08-.38.38-.38.96.02,1.91,0,2.87,0v-.1Z"/>
          <path class="cls-1" d="m133.74,279.88c.92,0,1.84,0,2.76,0,1.01,0,1.5-.66,1.2-1.62-.14-.44-.35-.87-.5-1.31-.34-1.03.11-2.13,1.15-2.74,1.11-.65,2.31-.72,3.51-.33,1.27.42,1.89,2.19,1.27,3.44-.2.4-.46.77-.67,1.17-.38.76-.12,1.2.71,1.37,1.06.21,2.11-.06,3.17,0,.62.04,1.25.02,1.88.02.25,0,.38.05.38.34,0,1.51.04,3.02.02,4.53-.01.94-.52,1.23-1.26.72-.62-.42-1.19-.92-2.03-.54-.99.45-1.77,1.12-2.04,2.2-.36,1.39-.13,2.73.63,3.94.58.92,1.41,1.19,2.48.88.48-.14.94-.36,1.46-.31.74.08,1.01.37,1,1.09-.02,1.62-.06,3.23-.06,4.85,0,.35-.14.46-.44.47-1.82.02-3.65.04-5.47.04-.43,0-.77-.24-.95-.63-.18-.39-.07-.74.21-1.05.59-.65.63-1.37.22-2.11-1.47-2.67-4.02-2.8-5.91-1.37-1.35,1.01-1.54,2.57-.55,3.91.21.28.31.54.12.85-.19.32-.37.56-.84.54-1.41-.05-2.81-.02-4.22-.03-.69,0-.69,0-.69-.71,0-1.37.01-2.75,0-4.12,0-.6-.17-1.13-.75-1.43-.56-.28-1.05-.12-1.49.25-.99.84-1.69.39-2.26-.31-.84-1.05-1.48-3.24-.24-4.67.55-.63,1.18-.95,2.02-.71.6.17,1.2.33,1.81.46.76.16,1.25-.22,1.26-1.02.01-.78-.03-1.56-.05-2.34-.03-1.09-.05-2.19-.1-3.28-.02-.33.13-.36.39-.36.96,0,1.91,0,2.87,0v-.11Z"/>
          <path class="cls-1" d="m133.72,317.4c.95,0,1.91.01,2.86,0,.89-.01,1.38-.7,1.12-1.56-.12-.38-.28-.74-.42-1.11-.44-1.16-.1-2.27.96-2.94,1.14-.72,2.39-.81,3.65-.38,1.24.42,1.86,2.17,1.25,3.41-.2.42-.47.81-.68,1.22-.35.7-.14,1.12.61,1.3.46.11.93.15,1.4.1,1.25-.12,2.5-.03,3.75-.04.28,0,.39.06.39.37,0,1.48.03,2.95.03,4.43,0,.33.04.74-.32.93-.36.19-.71.02-1.02-.18-1.43-.92-2.8-.57-3.67.93-.81,1.4-.52,3.9.6,5.07.63.66,1.39.79,2.24.5.52-.17,1.04-.4,1.61-.27.63.14.81.36.8,1-.02,1.63-.06,3.27-.05,4.9,0,.36-.15.48-.44.48-1.86.02-3.72.05-5.58.02-.79-.01-1.18-.86-.75-1.53.79-1.22.76-1.78-.11-2.94-2.09-2.77-5.63-1.43-6.44.59-.37.93-.31,1.74.32,2.52.43.53.42.73.04,1.24-.15.21-.33.28-.58.27-1.49-.02-2.99-.03-4.48-.04-.38,0-.55-.13-.54-.55.03-1.41.02-2.82.02-4.22,0-.6-.14-1.15-.72-1.46-.59-.32-1.1-.09-1.58.27-.77.57-1.19.57-1.86.03-.91-.73-1.77-3.15-.9-4.59.65-1.08,1.4-1.44,2.61-1.11.5.13.99.3,1.5.4.83.16,1.31-.24,1.31-1.09,0-.71-.03-1.42-.05-2.14-.03-1.13-.05-2.26-.1-3.39-.02-.32.09-.37.37-.37.96.01,1.91,0,2.87,0,0-.04,0-.08,0-.12Z"/>
          <path class="cls-1" d="m96.67,205.06c.9,0,1.81,0,2.71,0,1.08,0,1.58-.69,1.22-1.72-.09-.26-.2-.51-.31-.77-.6-1.45-.09-2.72,1.35-3.37.88-.4,1.82-.46,2.75-.26,1.53.33,2.36,2.11,1.67,3.53-.2.42-.47.81-.68,1.22-.38.76-.13,1.2.71,1.36.76.15,1.52.02,2.28.01.94-.01,1.88.01,2.81,0,.24,0,.33.08.33.33,0,1.51.04,3.02.03,4.54,0,.93-.52,1.23-1.26.73-.64-.43-1.23-.92-2.08-.53-1.05.49-1.82,1.22-2.05,2.38-.28,1.36-.03,2.66.74,3.82.54.82,1.36,1.09,2.31.85.48-.12.93-.38,1.45-.36.65.03.79.16.79.8-.01,1.72-.04,3.44-.03,5.16,0,.37-.12.46-.47.46-1.65,0-3.3.03-4.95.06-.47,0-.86-.15-1.09-.57-.24-.44-.09-.83.22-1.19.44-.49.56-1.05.34-1.69-.94-2.74-4.55-3.52-6.46-1.35-.89,1.01-1.25,2.33-.18,3.51.27.3.3.64.15,1.01-.11.27-.25.4-.58.4-1.51-.02-3.02-.03-4.54-.02-.36,0-.43-.12-.43-.45.02-1.27,0-2.54,0-3.81,0-.37-.03-.73-.16-1.07-.41-1.06-1.35-1.36-2.28-.72-1.03.71-1.66.6-2.4-.41-.94-1.3-1.09-3.09-.34-4.24.63-.98,1.32-1.26,2.44-.96.53.14,1.05.34,1.6.42.81.11,1.28-.26,1.26-1.09-.04-1.75-.09-3.51-.18-5.26-.02-.51.07-.7.63-.67.88.05,1.77.01,2.66.01v-.12Z"/>
          <path class="cls-1" d="m133.88,205.07c.9,0,1.81,0,2.71,0,.99,0,1.51-.66,1.22-1.6-.1-.31-.22-.62-.34-.92-.57-1.4-.08-2.69,1.28-3.32.91-.42,1.88-.5,2.85-.28,1.51.34,2.33,2.13,1.65,3.54-.2.4-.46.77-.67,1.17-.4.78-.13,1.24.73,1.39.75.14,1.49.02,2.23,0,.94-.02,1.88.02,2.81,0,.29,0,.34.12.34.37.01,1.48-.04,2.95.03,4.43.02.34.04.77-.37.96-.35.16-.68,0-.97-.2-1.36-.91-2.68-.62-3.59.79-.93,1.44-.65,4.07.57,5.28.57.57,1.25.68,2.02.49.5-.13.97-.4,1.51-.36.59.04.7.16.69.76-.02,1.72-.03,3.44-.02,5.16,0,.38-.09.5-.49.5-1.69,0-3.37.02-5.06.05-.43,0-.74-.14-.94-.52-.2-.39-.17-.79.14-1.11.69-.73.66-1.54.12-2.42-1.57-2.54-4.09-2.4-5.76-1.13-1.35,1.02-1.56,2.56-.58,3.91.19.25.3.5.22.82-.1.39-.28.6-.75.59-1.44-.04-2.89-.04-4.33-.02-.4,0-.54-.08-.53-.51.03-1.3,0-2.61.01-3.91,0-.39-.07-.76-.24-1.11-.35-.7-1.23-1.24-2.17-.55-1.08.79-1.82.64-2.51-.52-.75-1.27-1.12-2.62-.31-4.02.62-1.08,1.39-1.35,2.59-1.01.48.14.96.29,1.46.37.88.15,1.32-.24,1.3-1.14-.03-1.49-.08-2.99-.14-4.48-.06-1.39-.07-1.39,1.29-1.39.66,0,1.32,0,1.98,0,0-.03,0-.06,0-.09Z"/>
          <path class="cls-1" d="m74.29,220.14c0,.92,0,1.84,0,2.76,0,.26-.07.36-.35.36-1.74-.01-3.48,0-5.21,0-.42,0-.75-.19-.92-.56-.18-.37-.1-.73.16-1.06.67-.86.69-1.38.15-2.33-1.27-2.22-3.86-2.74-5.82-1.18-1.31,1.04-1.53,2.55-.54,3.88.18.25.3.51.25.82-.07.39-.21.63-.71.62-1.48-.05-2.95-.05-4.43-.05-.32,0-.41-.1-.4-.41.02-1.32,0-2.64,0-3.96,0-.55-.17-1.02-.52-1.43-.57-.68-1.24-.76-1.97-.25-1.09.76-1.88.61-2.56-.55-.89-1.53-1.04-3.1-.07-4.33.55-.7,1.22-.99,2.1-.75.57.16,1.13.34,1.7.44.9.17,1.39-.3,1.35-1.21-.07-1.77-.12-3.54-.2-5.31-.02-.35.07-.47.45-.47,1.88-.01,3.75-.06,5.63-.1.96-.02,1.45-.7,1.17-1.62-.1-.33-.25-.64-.37-.97-.53-1.36-.09-2.56,1.22-3.22.98-.49,2.04-.58,3.09-.28,1.41.39,2.15,2.09,1.52,3.44-.2.44-.48.84-.7,1.27-.36.71-.14,1.17.63,1.33.44.09.9.13,1.35.09,1.23-.1,2.47-.01,3.7-.05.33-.01.44.08.44.43-.01,1.41-.05,2.82.05,4.22,0,.07,0,.14,0,.21-.04.32,0,.71-.33.88-.35.18-.72.04-1.02-.19-.51-.38-1.01-.79-1.7-.58-.8.25-1.47.72-1.92,1.44-.9,1.45-.62,3.97.58,5.19.64.66,1.42.74,2.26.45.48-.16.94-.34,1.47-.27.38.06.58.21.56.64-.03.88,0,1.77,0,2.66-.03,0-.05,0-.08,0Z"/>
          <path class="cls-1" d="m92.93,276.21c0,.9-.02,1.81.01,2.71.01.38-.11.47-.46.47-1.81.02-3.61.07-5.42.09-.56,0-1.08.08-1.32.63-.26.57-.29,1.18.08,1.74.71,1.08.64,1.57-.28,2.48-1.2,1.19-2.9,1.13-4.16.56-1.2-.54-1.58-2.12-.87-3.23.12-.19.25-.38.35-.58.53-1.03.12-1.69-1.04-1.7-1.48,0-2.96-.02-4.43,0-.46,0-.58-.11-.58-.58.02-1.41-.01-2.81-.02-4.22,0-.33-.02-.7.33-.87.34-.17.69-.03.98.18.51.37,1,.81,1.69.61.85-.26,1.56-.75,2.02-1.54.82-1.43.52-3.89-.62-5.07-.62-.65-1.35-.8-2.18-.46-.52.22-1.04.37-1.61.16-.39-.14-.59-.36-.58-.8.03-1.74.04-3.48.05-5.21,0-.37.08-.53.51-.53,1.63.02,3.27,0,4.9-.04.57-.01.91.3,1.15.74.23.42.13.84-.19,1.2-.6.68-.58,1.38-.16,2.15,1.36,2.47,4.38,2.97,6.19.96,1.04-1.14,1.26-2.37.25-3.54-.24-.27-.34-.56-.15-.9.19-.33.4-.56.85-.54,1.37.04,2.75.04,4.12.03.38,0,.46.13.45.48-.02,1.3,0,2.61,0,3.91,0,.57.21,1.05.55,1.48.47.58,1.18.68,1.81.3.03-.02.05-.04.08-.06,1.22-.8,1.98-.64,2.68.65.59,1.09.96,2.26.4,3.48-.73,1.59-1.66,1.78-2.86,1.38-.44-.15-.9-.27-1.36-.35-.92-.15-1.36.28-1.34,1.21.02.87,0,1.74,0,2.6.06,0,.12,0,.18,0Z"/>
          <path class="cls-1" d="m92.93,351.25c0,.9-.02,1.81,0,2.71,0,.32-.07.41-.4.42-1.79.02-3.58.06-5.37.09-.59,0-1.19.05-1.46.67-.27.63-.24,1.27.22,1.86.51.66.51,1.13.03,1.8-1.24,1.71-3.18,1.77-4.69,1-1.16-.59-1.45-2.09-.74-3.18.1-.16.22-.31.31-.48.55-1,.28-1.71-1.06-1.77-1.47-.07-2.95-.02-4.43,0-.45,0-.55-.13-.54-.56.02-1.41,0-2.81-.01-4.22,0-.33-.02-.7.33-.87.34-.17.67-.02.97.18.17.12.33.25.5.37.43.28.89.37,1.38.17,1.15-.46,1.97-1.24,2.2-2.49.22-1.23.05-2.42-.59-3.51-.66-1.12-1.52-1.42-2.73-.95-.5.19-.99.31-1.51.1-.36-.14-.55-.36-.54-.78.04-1.75.05-3.51.06-5.27,0-.34.08-.47.46-.47,1.62,0,3.23,0,4.85-.05.61-.02.99.27,1.25.75.24.45.1.87-.23,1.24-.52.59-.54,1.23-.21,1.93,1.21,2.54,4.4,3.17,6.26,1.19.94-1,1.39-2.34.26-3.63-.23-.26-.31-.54-.13-.85.19-.32.39-.56.84-.55,1.37.04,2.75.04,4.12.03.38,0,.46.13.45.48-.02,1.29,0,2.57-.01,3.86,0,.47.13.89.37,1.28.39.64,1.22,1.15,2.17.46,1.07-.78,1.83-.62,2.51.54.75,1.29,1.13,2.66.26,4.07-.64,1.04-1.36,1.29-2.53.96-.45-.13-.89-.29-1.35-.37-1.05-.19-1.49.23-1.45,1.29.03.85,0,1.7,0,2.55.06,0,.12,0,.17,0Z"/>
          <path class="cls-1" d="m112.03,220.14c0-.89,0-1.77,0-2.66,0-.67-.31-1.01-.97-1.13-.53-.1-1.03.02-1.53.19-1.39.46-2.07.14-2.58-1.24-.41-1.11-.5-2.23.06-3.32.11-.21.23-.43.38-.61.66-.82,1.3-.92,2.2-.37.25.15.5.32.77.43.73.31,1.4,0,1.65-.76.16-.5.15-1.03.15-1.55-.01-1.2,0-2.4-.04-3.6,0-.34.09-.44.43-.44,1.39.02,2.78,0,4.17,0,.35,0,.62.12.78.41.15.27.04.54-.12.78-1.32,1.98-.49,4.06,1.85,4.57,1.75.38,3.23-.09,4.31-1.57.66-.9.65-1.5-.03-2.39-.25-.33-.37-.68-.19-1.06.19-.39.53-.61.96-.61,1.81,0,3.61.03,5.42.03.26,0,.32.11.32.34.05,1.77.12,3.54.17,5.31.01.44-.33.71-.84.7-.37,0-.71-.15-1.05-.26-1.87-.65-2.99.23-3.67,1.81-.54,1.26-.14,3.99,1.36,4.87,1.11.65,1.63.66,2.46.02.3-.23.62-.52,1.03-.33.44.2.53.65.6,1.09.01.07,0,.14,0,.21,0,1.34,0,2.68,0,4.01,0,.3-.06.44-.4.43-1.35-.04-2.71.11-4.06-.11-.22-.04-.45-.02-.67.02-.51.08-.75.39-.73.9.02.48.23.9.39,1.34.17.44.34.87.31,1.35-.06,1.02-.68,1.81-1.7,2.04-1.12.25-2.24.23-3.33-.18-1.34-.51-1.74-1.44-1.21-2.75.12-.3.25-.6.36-.91.31-.93-.15-1.7-1.13-1.78-.73-.06-1.46-.03-2.19-.04-1.13,0-2.26-.02-3.39-.01-.34,0-.45-.09-.44-.43.02-.9,0-1.81,0-2.71.03,0,.07,0,.1,0Z"/>
          <path class="cls-1" d="m92.93,313.72c0,.89-.03,1.77.01,2.66.02.39-.07.51-.47.51-1.76,0-3.51.04-5.27.06-.59,0-1.2.06-1.48.66-.29.63-.25,1.27.19,1.87.54.73.53,1.14,0,1.87-1.19,1.63-3.1,1.7-4.61.96-1.16-.57-1.48-2.08-.78-3.16.12-.19.25-.38.35-.58.51-1,.09-1.72-1.05-1.73-1.37,0-2.75.02-4.12.04-.88.01-.88.02-.88-.83,0-1.32-.02-2.64-.03-3.96,0-.34,0-.69.35-.87.33-.17.64,0,.93.17.19.12.37.26.55.39.43.31.92.36,1.39.16,1.26-.52,2.08-1.41,2.22-2.82.13-1.21-.1-2.35-.76-3.38-.58-.9-1.42-1.17-2.43-.82-.52.18-1.04.4-1.61.19-.39-.15-.63-.36-.61-.84.04-1.76.05-3.51.06-5.27,0-.35.09-.47.47-.47,1.69.01,3.37-.02,5.06-.02.51,0,.83.33,1.03.74.19.38.15.76-.13,1.12-.68.85-.7,1.43-.13,2.37,1.52,2.47,3.92,2.52,5.73,1.18,1.4-1.03,1.6-2.54.59-3.94-.2-.28-.3-.54-.11-.86.18-.31.37-.53.8-.52,1.39.04,2.78.04,4.17.02.39,0,.44.14.44.48-.02,1.29,0,2.57-.01,3.86,0,.45.13.86.35,1.23.52.88,1.38,1.05,2.21.46.99-.71,1.71-.59,2.39.43.94,1.39,1.2,3.25.16,4.5-.59.7-1.27.98-2.16.72-.51-.15-1.03-.3-1.55-.41-.96-.21-1.44.23-1.42,1.21.02.87,0,1.74,0,2.6.06,0,.12,0,.18,0Z"/>
          <path class="cls-1" d="m37.87,264.27c0-.94.02-1.88,0-2.81-.01-.37.13-.43.45-.43,1.65,0,3.3-.02,4.95-.03.55,0,.85.36,1.07.78.2.38.12.77-.15,1.12-.69.9-.71,1.44-.11,2.41,1.48,2.39,4.63,2.69,6.27.58.71-.92,1.13-2.15.06-3.36-.22-.25-.34-.51-.15-.85.2-.35.41-.6.88-.58,1.34.04,2.68.04,4.01.03.36,0,.48.09.47.46-.02,1.29,0,2.57-.01,3.86,0,.57.19,1.05.54,1.48.57.69,1.28.79,2.02.28,1.1-.76,1.89-.62,2.55.55.68,1.21,1.08,2.49.36,3.84-.64,1.2-1.42,1.52-2.71,1.14-.48-.14-.95-.31-1.46-.37-.85-.1-1.29.27-1.27,1.13.04,1.65.11,3.3.17,4.95.03.92.02.91-.87.92-1.65.02-3.3.04-4.95.07-1.39.03-1.99,1.13-1.24,2.31.78,1.23.52,1.82-.49,2.68-1.2,1.02-2.57.97-3.91.39-1.25-.54-1.62-2.16-.86-3.29.07-.1.15-.19.21-.3.23-.39.48-.8.23-1.26-.26-.48-.75-.59-1.25-.59-1.48-.02-2.95-.03-4.43-.02-.41,0-.57-.09-.56-.55.02-1.42-.02-2.85-.01-4.28,0-.85.53-1.15,1.22-.68.66.45,1.27.94,2.13.54,1-.48,1.76-1.18,2.02-2.3.31-1.35.06-2.62-.65-3.79-.6-.99-1.46-1.25-2.66-.88-.43.13-.84.31-1.31.26-.41-.04-.67-.16-.65-.66.04-.92.01-1.84.01-2.76.03,0,.05,0,.08,0Z"/>
          <path class="cls-1" d="m37.87,339.26c0-.94.01-1.88,0-2.81,0-.32.09-.41.41-.41,1.67,0,3.34-.01,5.01-.02.53,0,.82.36,1.04.75.21.38.17.78-.13,1.11-.88.98-.56,1.73-.07,2.5,1.44,2.29,4.48,2.59,6.15.63.98-1.15,1.03-2.27.14-3.48-.19-.26-.33-.52-.13-.85.19-.32.39-.58.84-.56,1.35.04,2.71.04,4.07.02.39,0,.45.14.45.49-.02,1.29,0,2.57,0,3.86,0,.55.19,1.02.52,1.43.57.71,1.31.82,2.05.31,1.09-.75,1.85-.63,2.52.52.71,1.22,1.11,2.51.38,3.89-.63,1.18-1.38,1.49-2.67,1.14-.48-.13-.96-.29-1.45-.37-.9-.14-1.34.26-1.31,1.19.05,1.7.12,3.4.17,5.11.02.7.02.7-.68.71-1.69.02-3.37.04-5.06.07-.57,0-1.16.04-1.44.63-.28.6-.21,1.21.16,1.78.6.95.54,1.51-.23,2.31-1.19,1.23-2.83,1.31-4.27.62-1.2-.57-1.55-2.14-.82-3.23.1-.14.2-.28.29-.43.57-.97.15-1.73-.98-1.75-1.49-.03-2.99-.04-4.48-.02-.47,0-.61-.14-.6-.62.03-1.39-.02-2.78-.01-4.17,0-.89.52-1.19,1.24-.7.64.44,1.24.92,2.08.54,1.03-.47,1.8-1.19,2.05-2.33.31-1.38.05-2.69-.72-3.88-.54-.83-1.33-1.1-2.3-.86-.5.12-.97.39-1.51.35-.61-.04-.73-.16-.73-.74,0-.9,0-1.81,0-2.71.03,0,.05,0,.08,0Z"/>
          <path class="cls-1" d="m37.86,301.74c0-.96,0-1.91,0-2.87,0-.27.07-.36.35-.35,1.72.01,3.44,0,5.16,0,.49,0,.73.36.94.72.2.35.21.75-.08,1.07-.84.92-.71,1.71.03,2.76,1.48,2.1,3.71,2.15,5.46.92,1.42-1,1.68-2.58.67-3.97-.2-.27-.31-.53-.13-.86.18-.33.39-.56.84-.55,1.35.04,2.71.04,4.07.03.36,0,.47.1.46.46-.02,1.29-.02,2.57,0,3.86,0,.8.33,1.44,1.03,1.87.52.32,1.01.22,1.5-.12,1.14-.78,1.89-.65,2.59.56.88,1.51,1,3.05.09,4.25-.59.78-1.22,1.03-2.18.79-.52-.13-1.03-.29-1.55-.41-.99-.22-1.48.19-1.45,1.22.05,1.74.1,3.47.18,5.21.02.44-.12.55-.54.55-1.63,0-3.27.03-4.9.04-.14,0-.28,0-.42,0-1.3.04-1.97,1.15-1.25,2.24.89,1.35.5,2.1-.76,2.98-1.2.83-2.52.72-3.75.09-1.16-.59-1.45-2.13-.71-3.22.07-.1.14-.2.2-.3.65-1.01.28-1.78-.93-1.82-1.53-.05-3.06-.06-4.59-.06-.39,0-.5-.09-.49-.49.02-1.42-.01-2.85-.01-4.28,0-.33,0-.69.34-.87.33-.17.67-.03.93.17.63.48,1.25.89,2.08.5,1.03-.48,1.78-1.21,2.02-2.35.28-1.31.05-2.56-.65-3.7-.59-.97-1.45-1.26-2.55-.93-.51.15-1,.4-1.56.28-.37-.08-.53-.23-.52-.63.02-.94,0-1.88,0-2.82.02,0,.05,0,.07,0Z"/>
          <path class="cls-1" d="m126.84,316.97c-.87,0-1.74-.01-2.61,0-.56.01-1.15.07-1.43.66-.26.57-.19,1.15.13,1.69.68,1.13.58,1.7-.39,2.58-1.21,1.1-2.93,1-4.09.43-1.17-.57-1.53-2.12-.81-3.19.09-.13.16-.26.24-.4.7-1.19.07-1.85-1.09-1.88-1.44-.04-2.88,0-4.33.03-.47.01-.61-.12-.59-.61.04-1.18-.01-2.36-.02-3.55,0-.24-.02-.49,0-.73.05-.79.5-1.03,1.2-.63.05.03.09.05.13.08.52.37,1.02.82,1.74.57.92-.32,1.7-.85,2.07-1.77.68-1.64.4-3.21-.58-4.63-.53-.78-1.34-.97-2.27-.72-.53.14-1.03.43-1.61.32-.39-.07-.6-.23-.58-.69.05-1.77.07-3.55.07-5.32,0-.33.11-.41.41-.41,1.67,0,3.34-.02,5.01-.04.48,0,.86.18,1.08.6.22.42.06.81-.24,1.14-.43.48-.61,1.02-.36,1.63.54,1.33,1.45,2.34,2.87,2.61,1.42.27,2.72-.15,3.7-1.3.92-1.08.95-2.22.12-3.36-.21-.29-.38-.57-.17-.94.21-.37.47-.53.92-.52,1.39.03,2.78.03,4.17.01.4,0,.49.12.49.5.03,1.51.11,3.02.17,4.53.02.53.22.98.72,1.24.51.25.96.13,1.41-.17,1.16-.79,1.92-.63,2.61.61.66,1.21,1.02,2.48.31,3.81-.63,1.17-1.41,1.48-2.68,1.11-.45-.13-.9-.26-1.35-.35-.95-.18-1.44.27-1.4,1.25.06,1.49.12,2.99.17,4.48.04,1.22.03,1.23-1.15,1.25-.66.02-1.32,0-1.98,0,0,.02,0,.04,0,.05Z"/>
          <path class="cls-1" d="m112.03,339.39c0-.89.01-1.77,0-2.66,0-.31.06-.42.4-.42,1.7.01,3.41,0,5.11-.02.44,0,.78.19.98.56.21.39.1.76-.18,1.1-.63.77-.68,1.34-.18,2.19.64,1.08,1.5,1.89,2.79,2.15,1.74.34,3.77-.9,4.21-2.61.21-.81-.04-1.49-.55-2.13-.37-.46-.34-.74.05-1.19.15-.17.31-.24.54-.24,1.49.03,2.99.05,4.48.05.27,0,.35.07.36.35.04,1.53.11,3.06.17,4.58.02.58.22,1.05.76,1.33.53.27,1,.09,1.45-.24.98-.71,1.66-.62,2.36.38.86,1.22,1.34,3.2.16,4.59-.57.67-1.24.91-2.08.68-.5-.14-1-.29-1.5-.41-1.05-.25-1.58.23-1.53,1.31.08,1.74.12,3.47.19,5.21.02.35-.1.42-.43.43-1.74.06-3.48.07-5.21.07-.07,0-.14,0-.21,0-1.63.03-1.78,1.34-1.24,2.23.86,1.41.51,2.13-.86,3.05-1.15.78-2.44.64-3.62.05-1.18-.59-1.5-2.13-.76-3.2.09-.13.18-.25.26-.39.57-1.04.12-1.83-1.08-1.85-1.43-.02-2.85,0-4.28,0-.75,0-.69.11-.68-.69,0-1.16-.02-2.33-.04-3.49,0-.23-.02-.45,0-.68.05-.79.51-1.03,1.2-.64.03.02.06.04.09.06.53.41,1.07.84,1.79.6.83-.27,1.51-.78,1.96-1.54.8-1.39.49-3.91-.64-5.06-.64-.65-1.4-.76-2.25-.47-.49.17-.97.37-1.51.27-.36-.07-.54-.21-.53-.61.03-.9,0-1.81,0-2.71.02,0,.05,0,.07,0Z"/>
          <path class="cls-1" d="m126.79,279.48c-.89,0-1.77,0-2.66,0-1.45,0-1.67,1.01-1.32,2.1.01.03.03.06.05.09.35.58.79,1.17.37,1.87-.56.94-1.39,1.54-2.5,1.66-.52.06-1.04,0-1.55-.11-1.18-.25-1.99-1.33-1.93-2.54.01-.26.12-.47.24-.67.13-.22.3-.43.43-.65.61-1.05.15-1.87-1.07-1.88-1.3-.01-2.61,0-3.91.02-1.03.02-1.02.03-1.03-.97,0-1.06-.03-2.12-.04-3.18,0-.24-.02-.49,0-.73.05-.8.5-1.03,1.2-.64.03.02.06.03.09.05.53.41,1.06.84,1.79.61.85-.28,1.54-.79,1.98-1.58.78-1.4.46-3.86-.66-5.02-.65-.68-1.43-.76-2.3-.46-.49.17-.97.37-1.51.25-.34-.08-.49-.23-.49-.6.04-1.81.06-3.61.07-5.42,0-.3.1-.38.38-.38,1.7,0,3.4,0,5.11-.02.47,0,.81.21,1.01.6.19.38.07.73-.19,1.06-.66.83-.69,1.35-.14,2.28,1.39,2.33,3.64,2.7,5.67,1.32,1.5-1.02,1.74-2.59.68-4.04-.21-.29-.27-.55-.08-.86.18-.28.34-.52.76-.51,1.46.04,2.92.04,4.38.03.35,0,.42.11.43.44.04,1.53.11,3.05.17,4.58.02.54.23.98.73,1.24.51.27.96.12,1.41-.18,1.14-.78,1.89-.6,2.62.61.91,1.52.89,3.13-.01,4.29-.54.69-1.22.93-2.07.72-.52-.13-1.03-.29-1.55-.42-1.03-.24-1.55.22-1.51,1.28.07,1.74.11,3.47.19,5.21.02.37-.09.47-.45.47-.92-.02-1.84,0-2.76,0,0,.03,0,.06,0,.09Z"/>
          <path class="cls-1" d="m74.89,220.1c0-.83,0-1.67,0-2.5,0-.96-.61-1.48-1.58-1.31-.41.07-.8.21-1.2.32-.93.26-1.54.04-2-.82-.65-1.22-.82-2.48-.24-3.79.12-.27.29-.52.49-.73.76-.8,1.19-.85,2.13-.26.18.11.35.22.54.32.96.5,1.85.05,1.96-1.03.13-1.25,0-2.5.03-3.75.02-.47-.19-1.07.08-1.36.28-.3.89-.08,1.35-.09,1.06,0,2.12.01,3.18.03.69.01.98.52.65,1.14-.04.08-.09.15-.14.22-1.02,1.5-.47,3.46,1.24,4.12,1.97.76,3.78.37,5.05-1.36.63-.86.63-1.51-.03-2.35-.27-.34-.39-.7-.19-1.11.2-.41.57-.59,1.02-.59,1.76.01,3.51.03,5.27.03.32,0,.36.13.37.4.05,1.77.12,3.54.17,5.31.01.4-.33.7-.82.65-.34-.03-.67-.14-1.01-.24-2.39-.71-4.41,1.16-3.93,3.64.09.44.16.89.3,1.31.3.92.92,1.57,1.79,1.99.68.33,1.3.26,1.89-.21.32-.25.67-.62,1.11-.36.44.25.53.74.53,1.23,0,1.36-.01,2.71,0,4.07,0,.32-.08.42-.41.41-1.33-.04-2.67.07-4.01-.11-1.19-.16-1.61.41-1.23,1.56.1.31.23.61.34.92.6,1.66-.08,2.92-1.81,3.22-1.02.18-2.04.13-3.02-.25-1.28-.5-1.68-1.4-1.2-2.69.12-.31.25-.61.36-.92.35-1-.15-1.79-1.21-1.86-.68-.04-1.36-.02-2.03-.03-1.11,0-2.23-.03-3.34,0-.44.01-.51-.14-.5-.53.03-.89,0-1.77,0-2.66.02,0,.03,0,.05,0Z"/>
          <path class="cls-1" d="m37.92,220.15c0-.82,0-1.63,0-2.45.02-1.09-.62-1.62-1.69-1.4-.4.09-.8.22-1.2.32-.85.22-1.41,0-1.85-.75-.59-1.01-.78-2.09-.54-3.25.17-.84.67-1.41,1.39-1.85.37-.23.7-.24,1.07,0,.34.21.67.43,1.03.6.88.41,1.8-.07,1.85-1.05.07-1.37.02-2.74.03-4.12q0-1.13,1.13-1.13c1.15,0,2.29,0,3.44,0,.72,0,1.01.48.68,1.13-.04.08-.08.15-.14.22-1.35,1.5-.03,3.89,1.57,4.31,1.87.48,3.49.05,4.62-1.4.73-.93.74-1.57.06-2.54-.24-.34-.42-.7-.22-1.11.21-.43.61-.51,1.06-.51,1.69.01,3.37.02,5.06,0,.39,0,.55.08.55.5.03,1.72.08,3.44.15,5.16.02.51-.29.66-.69.71-.39.05-.75-.13-1.11-.23-2.17-.63-3.91.56-3.97,2.84-.04,1.49.29,2.91,1.65,3.84.89.61,1.57.62,2.43,0,.87-.62,1.56-.37,1.63.71.09,1.47.03,2.95.04,4.43,0,.2-.11.23-.26.23-1.37.02-2.74.17-4.11-.08-1.23-.23-1.74.38-1.37,1.57.19.61.54,1.16.56,1.83.03,1.09-.49,1.88-1.54,2.19-1.24.37-2.47.3-3.66-.21-1.14-.48-1.51-1.38-1.08-2.53.1-.27.22-.54.33-.81.48-1.21-.09-2.07-1.41-2.07-1.7-.01-3.41-.02-5.11,0-.41,0-.49-.13-.47-.5.03-.87,0-1.74,0-2.61.03,0,.07,0,.1,0Z"/>
          <path class="cls-1" d="m52.66,241.88c-.87,0-1.74,0-2.61,0-.57,0-1.15.07-1.41.67-.25.57-.22,1.17.13,1.69.78,1.16.48,1.72-.38,2.52-1.19,1.11-2.59,1.09-3.98.53-1.26-.5-1.68-2.15-.94-3.27.09-.14.2-.28.29-.43.56-.97.33-1.68-.99-1.75-1.47-.08-2.95-.05-4.43-.04-.47,0-.62-.12-.61-.62.03-1.13-.01-2.26-.03-3.39,0-.24-.03-.49-.01-.73.02-.34,0-.73.36-.91.35-.17.67,0,.97.2,1.36.89,2.53.67,3.51-.66,1.07-1.46.77-4.33-.58-5.52-.52-.46-1.14-.57-1.8-.42-.35.08-.69.21-1.04.31-.42.12-.83.08-1.22-.1-.29-.13-.45-.35-.44-.69.03-1.67.06-3.34.06-5.01,0-.37.13-.48.47-.48,1.88.02,3.75.02,5.63.04.63,0,.93.45.77,1.06-.04.16-.12.33-.22.47-.82,1.2-.53,2.71.67,3.53,1.59,1.08,3.27,1.04,4.95.33,1.28-.54,1.82-1.94,1.38-3.31-.16-.49-.37-.97-.52-1.46-.14-.47-.01-.68.45-.62,1.56.2,3.12.11,4.68.11.31,0,.27.17.27.37,0,1.32,0,2.64,0,3.96,0,.3,0,.59.11.87.3.76,1.07,1.05,1.78.67.2-.11.37-.25.56-.38.57-.39.97-.4,1.53-.03,1.61,1.07,1.89,4.06.52,5.4-.49.48-1.04.66-1.71.49-.62-.16-1.23-.35-1.86-.46-.89-.16-1.37.33-1.33,1.24.07,1.79.12,3.58.2,5.36.01.32-.08.38-.37.38-.94-.01-1.88,0-2.81,0,0,.03,0,.06,0,.08Z"/>
          <path class="cls-1" d="m77.76,223.83c.9,0,1.81,0,2.71,0,.97.01,1.38.67.8,1.44-1.2,1.57-.13,3.51,1.39,4.07,1.32.48,2.58.46,3.86.03,1.53-.52,2.2-1.98,1.67-3.51-.16-.46-.34-.9-.48-1.37-.15-.54-.03-.73.5-.66,1.52.21,3.05.1,4.58.11.31,0,.37.12.37.4-.02,1.34-.02,2.68-.03,4.01,0,.58.14,1.1.68,1.43.56.34,1.05.15,1.53-.19,1-.71,1.65-.61,2.36.39.79,1.11,1.26,3.01.36,4.29-.68.98-1.36,1.25-2.5.93-.5-.14-.99-.31-1.5-.39-.88-.15-1.33.25-1.31,1.14.03,1.18.08,2.36.12,3.54.02.64.03,1.29.07,1.93.02.31-.1.37-.38.38-1.79.02-3.58.07-5.37.09-.59,0-1.2.04-1.47.66-.28.63-.25,1.27.21,1.86.52.68.52,1.15.01,1.84-1.22,1.65-3.12,1.74-4.65.98-1.16-.58-1.47-2.08-.76-3.17.11-.17.23-.35.33-.53.57-1.01.16-1.68-1.06-1.73-1.44-.06-2.88-.03-4.33.01-.52.01-.68-.11-.66-.66.04-1.39-.01-2.78,0-4.17,0-.86.51-1.17,1.2-.7.66.44,1.26.96,2.13.55,1.04-.49,1.83-1.22,2.04-2.39.26-1.4.04-2.73-.81-3.91-.54-.75-1.3-.99-2.2-.75-.33.09-.66.2-.99.3-.38.11-.76.07-1.12-.08-.33-.13-.51-.35-.5-.76.04-1.65.06-3.3.05-4.95,0-.42.14-.48.5-.47.89.03,1.77,0,2.66,0Z"/>
          <path class="cls-1" d="m114.86,223.83c.9,0,1.81,0,2.71,0,.39,0,.74.09.93.45.2.38.12.79-.17,1.06-1.03.95-.3,2.97.71,3.62,1.57,1.01,3.18.98,4.81.33,1.38-.55,1.95-1.97,1.47-3.4-.16-.47-.36-.94-.5-1.42-.14-.5-.01-.7.48-.64,1.52.2,3.05.11,4.58.11.31,0,.32.16.32.39,0,1.39-.01,2.78,0,4.17,0,.96.66,1.6,1.48,1.47.39-.06.68-.33.99-.54.56-.39.98-.39,1.52,0,1.51,1.06,1.86,3.82.67,5.21-.54.63-1.2.84-2,.63-.5-.14-1-.28-1.5-.4-1.06-.26-1.6.21-1.55,1.29.07,1.7.11,3.4.2,5.1.02.47-.12.56-.56.56-1.74,0-3.48.04-5.21.07-1.45.03-2.03,1.1-1.28,2.35.67,1.12.59,1.59-.33,2.5-1.23,1.23-3.16,1.04-4.21.47-1.16-.64-1.46-2.12-.71-3.22.12-.17.23-.35.31-.54.43-.96-.01-1.66-1.08-1.67-1.51-.02-3.03-.02-4.54.01-.41,0-.52-.11-.51-.52.02-1.41-.02-2.82-.03-4.22,0-.33,0-.71.34-.87.33-.15.67-.02.98.18,1.4.93,2.64.66,3.6-.77.95-1.42.66-4.14-.58-5.32-.64-.61-1.4-.69-2.22-.41-.47.16-.94.35-1.46.26-.67-.12-.9-.35-.9-1.02.01-1.62.04-3.23.04-4.85,0-.33.08-.45.44-.44.92.03,1.84,0,2.76,0Z"/>
          <path class="cls-1" d="m112.34,257.58c0-.85-.05-1.71.01-2.55.05-.65-.55-1.31-1.2-1.42-.47-.08-.93-.04-1.38.1-1.86.56-2.52.17-3.02-1.74-.26-.99-.19-1.95.3-2.87.24-.44.57-.78.99-1.04.39-.24.77-.27,1.17-.02.34.21.67.43,1.03.6.82.39,1.53.05,1.77-.82.12-.42.14-.85.13-1.29,0-1.25,0-2.5-.03-3.75,0-.32.06-.45.42-.45,1.43.02,2.85,0,4.28,0,.72,0,.97.44.64,1.07-.02.05-.05.1-.09.13-1.61,1.5-.17,4.26,1.85,4.59,1.83.3,3.53-.3,4.45-1.83.48-.8.46-1.37-.14-2.1-.28-.35-.45-.73-.23-1.15.22-.41.6-.6,1.08-.6,1.69.02,3.37.04,5.06.04.34,0,.47.08.48.45.04,1.75.12,3.51.18,5.26.02.43-.33.72-.85.65-.36-.04-.71-.15-1.05-.27-1.86-.65-2.96.2-3.68,1.8-.61,1.35.08,4.1,1.5,4.94.96.57,1.53.59,2.43-.07.11-.08.22-.16.34-.23.45-.25.79-.11.88.4.05.29.02.59.02.88,0,1.3,0,2.61,0,3.91,0,.31-.07.42-.4.41-1.28-.05-2.57.06-3.85-.08-.74-.08-1.16.29-1.49.88-.3.55-.16,1.01.2,1.49.81,1.06.55,2.37-.62,3.24-1.67,1.24-4.17.55-4.99-1.36-.23-.53-.12-1.02.18-1.48.18-.28.36-.54.4-.89.13-1.11-.39-1.73-1.51-1.74-1.63-.02-3.27-.02-4.9,0-.39,0-.51-.09-.49-.49.03-.87.01-1.74.01-2.61.03,0,.07,0,.1,0Z"/>
          <path class="cls-1" d="m59.41,279.33c-.89,0-1.77,0-2.66,0-.28,0-.39-.07-.4-.37-.04-1.79-.11-3.58-.17-5.36-.01-.35.19-.5.47-.59.27-.09.55-.05.82.03.16.05.33.09.5.14,2.35.7,4.25-.86,4-3.32-.13-1.26-.44-2.46-1.56-3.27-.9-.65-1.66-.7-2.47-.1-.92.67-1.7.36-1.76-.78-.08-1.42-.02-2.85-.03-4.28,0-.23.12-.25.29-.25,1.44.04,2.88-.1,4.32.09.71.09,1.19-.19,1.53-.81.32-.58.23-1.06-.17-1.57-.86-1.09-.48-2.55.83-3.34,1.66-1.01,3.76-.44,4.7,1.27.32.59.28,1.16-.09,1.71-.14.22-.3.42-.35.69-.21,1.03-.03,1.95,1.49,1.89,1.7-.06,3.41,0,5.11-.02.39,0,.53.08.52.5-.06,1.67-.05,3.34-.12,5-.07,1.59.88,1.72,1.95,1.65.35-.02.7-.18,1.04-.29.83-.27,1.44-.08,1.85.68.71,1.28.9,2.61.26,3.97-.1.22-.24.42-.39.61-.69.84-1.28.93-2.2.36-.26-.16-.53-.33-.82-.44-.7-.28-1.34.02-1.58.73-.17.5-.17,1.02-.16,1.54.01,1.18.01,2.36.03,3.55,0,.25,0,.43-.35.41-1.34-.08-2.67-.03-4.01.03-.34.02-.68.02-.9-.37-.22-.39.02-.63.18-.9.92-1.53.75-3.28-.44-4.3-.83-.7-1.83-.77-2.85-.69-1.81.13-3.08,1.2-3.46,2.91-.11.49-.07.96.23,1.39.15.21.26.45.35.69.25.64-.08,1.16-.77,1.17-.92.02-1.84,0-2.76,0,0,.01,0,.03,0,.04Z"/>
          <path class="cls-1" d="m92.99,245.57c0,.8,0,1.6,0,2.4,0,.69-.3.97-.98.85-.36-.06-.7-.19-1.05-.29-1.53-.42-2.5.02-3.31,1.38-.89,1.48-.32,4.72,1.56,5.56.74.33,1.38.37,2.03-.15.31-.24.64-.6,1.06-.38.43.23.34.71.34,1.13,0,1.36-.01,2.71,0,4.07,0,.36-.09.48-.46.46-1.32-.04-2.64-.03-3.96-.09-.7-.03-1.04.35-1.33.88-.25.46-.21.87.09,1.31,1.07,1.54.44,3.26-1.38,3.84-1.74.55-3.26-.09-4.1-1.72-.28-.55-.26-1.08.14-1.55.52-.6.57-1.28.26-1.95-.31-.67-.95-.84-1.65-.84-1.55.01-3.09,0-4.64.01-.37,0-.46-.1-.45-.46.04-1.62.05-3.23.07-4.85.01-1.17-.84-1.88-2-1.65-.39.08-.77.21-1.15.32-.85.25-1.48.05-1.91-.71-.72-1.27-.93-2.6-.28-3.97.09-.2.22-.39.36-.56.7-.86,1.3-.96,2.23-.37.12.07.23.15.35.22,1.11.66,2.07.19,2.15-1.1.06-.92.01-1.84.01-2.76,0-.64.01-1.29,0-1.93,0-.26.07-.37.35-.36,1.49,0,2.99-.01,4.48,0,.64,0,.86.52.48,1.11-.25.38-.55.71-.66,1.16-.31,1.17.43,2.73,1.63,3.22,1.87.76,3.77.49,5.08-1.23.72-.95.73-1.54.01-2.48-.25-.33-.36-.69-.17-1.07.19-.38.53-.6.97-.6,1.77,0,3.55.04,5.32.04.34,0,.39.14.39.43-.01.89,0,1.77,0,2.66.05,0,.09,0,.14,0Z"/>
          <path class="cls-1" d="m71.19,336.11c.9,0,1.81.02,2.71,0,.35-.01.43.11.42.44-.05,1.67-.05,3.34-.12,5-.07,1.63.84,1.72,1.92,1.69.37,0,.71-.16,1.05-.29.83-.3,1.44-.11,1.86.63.72,1.27.92,2.59.29,3.97-.15.32-.34.61-.6.84-.77.69-1.09.72-1.98.17-.28-.17-.55-.36-.86-.47-.69-.24-1.3.03-1.55.71-.18.52-.18,1.06-.17,1.59.01,1.18.01,2.36.03,3.55,0,.23,0,.41-.32.39-1.35-.09-2.71-.05-4.06.04-.09,0-.17,0-.26-.02-.64-.07-.88-.51-.54-1.05.47-.73.79-1.48.71-2.38-.13-1.4-.94-2.42-2.32-2.71-1.42-.3-2.76-.11-3.92.84-.71.58-1.04,1.36-1.16,2.25-.06.46.09.85.33,1.22.77,1.14.32,1.83-.97,1.79-1.63-.06-3.27,0-4.9.02-.35,0-.43-.12-.43-.45-.04-1.75-.1-3.51-.17-5.26-.02-.47.28-.59.64-.65.43-.08.82.11,1.21.23,1.01.33,1.98.41,2.81-.41.91-.9,1.31-1.99,1.08-3.26-.14-.8-.29-1.6-.83-2.27-.32-.4-.7-.7-1.15-.95-.72-.39-1.37-.33-2.03.16-.91.69-1.69.36-1.75-.79-.08-1.39-.02-2.78-.02-4.17,0-.38.28-.29.48-.29,1.42.01,2.85,0,4.27.08.68.03,1.07-.26,1.39-.79.3-.5.29-.96-.07-1.44-.93-1.27-.61-2.69.77-3.51,1.73-1.02,3.84-.39,4.72,1.41.28.58.14,1.11-.18,1.62-.13.21-.27.4-.32.64-.28,1.25.15,1.83,1.42,1.86.85.02,1.7,0,2.56,0h0Z"/>
          <path class="cls-1" d="m130.09,283.11c0,.82-.01,1.63,0,2.45.01.65-.3.96-.94.85-.34-.06-.67-.16-1-.26-1.83-.53-3.31.26-3.72,2.15-.35,1.63,0,3.17,1.29,4.32.98.88,1.88.97,2.79.18.24-.21.55-.45.89-.27.33.17.33.55.33.88,0,1.41-.03,2.82-.01,4.22,0,.38-.06.54-.5.52-1.28-.05-2.57-.01-3.86-.07-.71-.03-1.09.32-1.39.87-.29.52-.18.98.19,1.43.79,1.01.62,2.25-.41,3.11-1.65,1.39-4.29.8-5.18-1.18-.27-.59-.09-1.13.25-1.61.34-.48.39-.99.32-1.54-.08-.62-.68-1.04-1.48-1.04-1.62-.01-3.23-.04-4.85,0-.51,0-.59-.18-.58-.62.06-1.62.08-3.23.11-4.85.01-.83-.46-1.36-1.28-1.49-.47-.08-.93,0-1.39.13-.28.09-.56.19-.85.24-.6.11-1.13-.06-1.45-.59-.86-1.4-1.09-2.86-.26-4.37.1-.18.22-.36.36-.51.7-.74,1.24-.81,2.1-.27.23.15.47.3.72.42.81.36,1.49.02,1.73-.83.12-.42.14-.85.13-1.29,0-1.23,0-2.47-.04-3.7,0-.37.07-.51.48-.51,1.37.02,2.75,0,4.12,0,.32,0,.65,0,.82.33.16.31.05.66-.17.87-1.57,1.5-.22,4.24,1.86,4.6,1.8.3,3.35-.23,4.34-1.66.61-.88.59-1.48-.07-2.31-.27-.34-.4-.71-.2-1.11.2-.38.54-.59.97-.58,1.77.01,3.55.04,5.32.04.27,0,.31.11.31.34,0,.9,0,1.81,0,2.71.06,0,.12,0,.18,0Z"/>
          <path class="cls-1" d="m111.37,264.37c0,.78.02,1.56,0,2.34-.04,1.21.65,1.79,1.85,1.51.35-.08.7-.2,1.05-.3.82-.24,1.45-.02,1.87.7.72,1.25.91,2.56.32,3.92-.14.32-.35.6-.6.84-.78.71-1.07.74-1.97.19-.19-.12-.38-.24-.58-.34-.95-.5-1.77-.08-1.96.97-.09.52-.06,1.04-.05,1.56.02,1.08.01,2.16.02,3.23,0,.2.02.37-.28.37-1.37-.02-2.74,0-4.11.03-.93.02-1.21-.53-.69-1.3.58-.85.71-1.75.45-2.72-.36-1.32-1.25-2.05-2.59-2.19-1.58-.17-3.03.11-4.04,1.47-.66.89-.89,1.87-.28,2.9.1.18.16.38.24.57.27.73-.01,1.18-.81,1.2-1.32.03-2.64.02-3.96.02-.47,0-.94-.02-1.41,0-.26,0-.36-.07-.37-.35-.04-1.77-.11-3.54-.17-5.31-.01-.45.25-.69.76-.71.41-.02.78.14,1.16.27,1.7.57,2.8,0,3.63-1.73.6-1.24.11-4.12-1.47-5.02-.96-.55-1.48-.58-2.38.07-.83.6-1.53.37-1.61-.65-.11-1.49-.04-2.99-.06-4.48,0-.24.16-.22.32-.22,1.41.03,2.82-.08,4.22.07.69.07,1.16-.16,1.49-.78.31-.59.31-.94-.1-1.48-.83-1.11-.68-2.4.45-3.22,1.71-1.25,4.01-1.06,5.17,1.38.24.5.1.96-.22,1.36-.52.62-.56,1.31-.24,1.99.32.66.95.78,1.63.78,1.67-.01,3.34,0,5.01-.01.34,0,.43.08.42.43-.03.89-.01,1.77-.01,2.66h-.1Z"/>
          <path class="cls-1" d="m148.5,264.36c0,.78.01,1.56,0,2.35-.03,1.27.62,1.8,1.88,1.52.37-.08.73-.21,1.1-.31.81-.22,1.38-.02,1.76.7.77,1.43.94,2.88.05,4.34-.19.32-.45.57-.76.77-.43.29-.85.3-1.31.04-.42-.24-.79-.56-1.28-.68-.62-.15-1.09.04-1.37.62-.25.52-.24,1.08-.24,1.63,0,1.18,0,2.36.02,3.55,0,.35-.06.48-.44.47-1.35-.02-2.71.04-4.06.01-.82-.01-1.06-.49-.59-1.19.55-.81.75-1.67.55-2.61-.3-1.43-1.09-2.18-2.68-2.41-1.68-.24-3.66.37-4.39,2.13-.32.78-.45,1.57.11,2.32.11.15.17.34.23.52.26.67-.06,1.18-.8,1.19-1.81.03-3.62.01-5.42.03-.29,0-.34-.12-.35-.37-.04-1.79-.1-3.58-.15-5.37-.01-.46.47-.75,1.03-.61.54.13,1.07.28,1.6.42.72.19,1.34-.02,1.88-.49,1.25-1.09,1.47-2.46,1.11-4.02-.29-1.23-.91-2.16-2.08-2.67-.58-.25-1.15-.23-1.67.18-.11.09-.22.17-.34.24-.25.16-.49.39-.8.23-.32-.16-.36-.49-.37-.81-.05-1.48-.08-2.95-.15-4.43-.02-.37.09-.46.45-.46,1.41.03,2.81-.03,4.22.1.7.06.97-.43,1.25-.91.26-.45.2-.88-.1-1.31-.99-1.42-.56-2.94,1.02-3.68,1.76-.82,3.68-.1,4.48,1.67.23.52.15,1.02-.19,1.46-.25.33-.39.68-.41,1.1-.05,1.04.38,1.52,1.43,1.52,1.25,0,2.5,0,3.75,0,.52,0,1.04.02,1.56,0,.36-.02.48.09.47.46-.02.92,0,1.84,0,2.76,0,0-.01,0-.02,0Z"/>
          <path class="cls-1" d="m74.21,301.74c0,.89,0,1.77,0,2.66,0,.81.46,1.28,1.28,1.34.57.04,1.09-.05,1.62-.26.88-.35,1.53-.14,1.97.69.7,1.32.88,2.68.15,4.07-.14.26-.31.5-.54.69-.7.63-1.1.67-1.9.18-.18-.11-.35-.22-.53-.32-1.05-.58-1.89-.15-2.05,1.04-.08.62-.02,1.25-.03,1.87,0,.92,0,1.84,0,2.76,0,.23,0,.4-.32.38-1.3-.05-2.6-.08-3.9.06-.12.01-.24,0-.36-.02-.74-.1-.96-.52-.55-1.14.5-.75.75-1.54.64-2.45-.18-1.43-1.11-2.42-2.54-2.61-1.7-.22-3.25.07-4.27,1.59-.6.89-.9,1.89-.14,2.9.08.11.13.24.18.37.3.75-.04,1.26-.86,1.27-1.75.02-3.51.02-5.26.03-.29,0-.43-.04-.44-.39-.04-1.79-.11-3.58-.17-5.36-.01-.42.41-.72.94-.63.36.06.71.17,1.05.28,1.62.56,2.74-.04,3.49-1.62.89-1.87-.05-4.57-1.83-5.36-.66-.3-1.27-.28-1.84.19-.03.02-.06.04-.09.06-.89.64-1.66.32-1.73-.8-.08-1.4-.02-2.81-.03-4.22,0-.32.22-.25.39-.25,1.46,0,2.92.02,4.38.04.81,0,1.14-.22,1.47-.96.17-.4.18-.79-.1-1.12-.56-.65-.86-1.34-.5-2.19.41-.99,1.16-1.58,2.19-1.81,1.52-.34,2.75.21,3.59,1.55.41.64.35,1.24-.02,1.85-.13.21-.27.4-.34.64-.32,1.21.18,1.9,1.44,1.91,1.72.01,3.44.01,5.16-.02.42,0,.52.12.51.52-.03.87,0,1.74,0,2.61-.03,0-.07,0-.1,0Z"/>
          <path class="cls-1" d="m130.09,320.63c0,.8-.01,1.6,0,2.4.01.71-.36,1.04-1.06.87-.49-.12-.97-.27-1.45-.4-.97-.26-1.73.11-2.36.82-1.14,1.29-1.07,2.73-.55,4.24.34.99.96,1.7,1.93,2.1.61.25,1.17.17,1.71-.23.32-.24.64-.65,1.09-.4.43.24.31.72.31,1.14,0,1.34-.02,2.68,0,4.02,0,.38-.11.46-.47.45-1.41-.02-2.81-.03-4.22-.01-.82.01-1.47,1.14-1.11,1.88.04.09.09.19.17.26,1.43,1.35.04,3.37-1.33,3.81-1.63.52-2.97.07-3.95-1.33-.47-.67-.46-1.32-.02-1.98.22-.33.36-.66.38-1.06.05-.98-.49-1.57-1.48-1.58-1.62-.02-3.23-.05-4.85-.01-.53.01-.62-.16-.6-.64.06-1.53.09-3.06.11-4.59.02-1.3-.86-2-2.13-1.71-.39.09-.76.22-1.15.33-.78.21-1.38,0-1.77-.7-.7-1.22-.91-2.49-.36-3.83.17-.41.4-.76.74-1.05.71-.6,1.07-.63,1.86-.15.27.16.53.34.81.47.75.33,1.44.01,1.68-.77.15-.47.16-.96.15-1.44,0-1.23-.01-2.47-.04-3.7,0-.31.06-.42.4-.42,1.46.02,2.92,0,4.38.01.63,0,.84.33.62.91-.04.11-.08.24-.16.32-1.52,1.52-.13,4.06,1.64,4.48,1.9.45,3.66-.14,4.64-1.7.54-.85.52-1.4-.09-2.18-.28-.36-.44-.73-.22-1.15.22-.41.59-.59,1.07-.59,1.7.02,3.4.04,5.11.03.35,0,.43.12.43.44-.02.88,0,1.77,0,2.66.06,0,.11,0,.17,0Z"/>
          <path class="cls-1" d="m96.53,354.34c-.87,0-1.74-.02-2.61,0-.41.02-.47-.14-.48-.51-.03-1.67-.09-3.33-.15-5-.02-.64.26-.94.9-.86.37.05.74.16,1.1.29,1.9.64,3.03-.44,3.58-1.9.64-1.72-.13-4.02-1.6-4.91-.86-.52-1.45-.51-2.2.04-.33.24-.67.61-1.11.37-.45-.25-.63-.73-.64-1.24,0-1.16,0-2.33,0-3.49,0-.86,0-.85.84-.84,1.39.01,2.78.02,4.17.01.82,0,1.51-1.19,1.12-1.92-.03-.06-.07-.12-.12-.17-1.48-1.37-.15-3.54,1.58-3.95,1.63-.39,2.92.18,3.79,1.62.39.64.34,1.2-.08,1.78-.17.22-.32.45-.36.74-.18,1.09.42,1.85,1.53,1.87,1.7.03,3.41.05,5.11.04.45,0,.62.07.59.58-.07,1.63-.07,3.27-.12,4.9-.03,1.13.63,1.72,1.74,1.5.39-.08.77-.21,1.15-.33.83-.24,1.47,0,1.9.75.7,1.24.88,2.53.3,3.88-.12.27-.29.51-.49.73-.82.84-1.18.88-2.17.26-.19-.12-.38-.24-.58-.34-.88-.43-1.68-.02-1.86.95-.1.53-.07,1.07-.06,1.61.03,1.08,0,2.16.02,3.23,0,.29-.07.39-.38.39-1.3-.03-2.6,0-3.91.03-1.08.03-1.35-.48-.76-1.38.53-.81.65-1.67.41-2.59-.3-1.2-1.05-1.98-2.29-2.19-1.71-.29-3.28-.03-4.38,1.45-.64.87-.86,1.84-.26,2.86.1.18.16.38.24.57.28.75,0,1.18-.81,1.2-.89.02-1.77,0-2.66,0h0Z"/>
          <path class="cls-1" d="m38.23,257.46c0-.76,0-1.53,0-2.29,0-1.13-.85-1.85-1.97-1.62-.42.08-.83.23-1.25.33-.85.22-1.4,0-1.85-.75-.57-.94-.74-1.98-.59-3.05.13-.95.68-1.64,1.53-2.1.31-.17.59-.18.88,0,.33.19.64.41.98.58,1.02.53,1.97.02,2.01-1.14.05-1.35,0-2.71,0-4.06q0-1.03,1.02-1.02c1.23,0,2.47,0,3.7.03.72.02.94.44.56,1.02-1.44,2.18-.53,4.27,2.06,4.74,1.65.3,3.21-.36,4.11-1.73.57-.86.55-1.45-.08-2.27-.26-.34-.41-.7-.2-1.1.21-.4.56-.59,1.02-.58,1.72.01,3.44.02,5.16,0,.36,0,.43.13.44.44.05,1.77.13,3.54.18,5.31.01.48-.35.59-.73.62-.41.04-.78-.15-1.16-.26-1.88-.54-3.2.2-3.79,2.08-.36,1.15.15,3.63,1.28,4.43.96.69,1.83.97,2.82.11.23-.2.5-.43.84-.26.35.17.37.53.37.86,0,1.46-.03,2.92-.02,4.38,0,.37-.1.47-.46.46-1.27-.04-2.54.05-3.8-.11-.74-.09-1.16.31-1.49.89-.31.54-.17,1,.19,1.48.88,1.17.47,2.67-.91,3.44-1.73.96-3.74.34-4.64-1.43-.29-.57-.21-1.11.14-1.61.16-.23.32-.46.38-.73.27-1.27-.38-2.06-1.69-2.06-1.49,0-2.99-.02-4.48.02-.53.02-.63-.15-.61-.63.04-.8.01-1.6.01-2.4h.05Z"/>
          <path class="cls-1" d="m92.99,320.64c0,.8,0,1.6,0,2.4,0,.71-.37,1.02-1.09.84-.52-.13-1.03-.28-1.55-.41-.72-.18-1.34.04-1.87.51-1.27,1.12-1.45,2.52-1.07,4.08.27,1.11.83,1.96,1.85,2.49.65.34,1.28.35,1.9-.11.34-.25.68-.68,1.14-.43.47.25.34.78.34,1.23,0,1.3-.01,2.61,0,3.91,0,.38-.11.46-.47.46-1.37-.03-2.75,0-4.12-.05-.66-.02-.9.43-1.17.87-.25.4-.26.85.07,1.21.68.77.89,1.58.35,2.51-.58,1.01-1.46,1.44-2.6,1.52-1.44.1-2.42-.54-3.13-1.73-.36-.59-.31-1.16.1-1.69.47-.6.57-1.24.22-1.89-.34-.63-.93-.87-1.65-.86-1.51.01-3.02-.01-4.54.02-.42,0-.56-.08-.54-.53.05-1.61.05-3.23.07-4.85.01-.86-.44-1.38-1.3-1.52-.57-.1-1.1.07-1.63.24-1.2.39-1.82.13-2.34-1.02-.58-1.29-.7-2.6.08-3.87.26-.43.64-.72,1.08-.95.29-.15.57-.14.84.01.32.17.63.37.94.55,1.06.6,1.97.11,2.09-1.11.07-.66-.01-1.32,0-1.98.01-.9,0-1.81,0-2.71,0-.23,0-.39.32-.39,1.49,0,2.99-.02,4.48-.02.66,0,.89.49.53,1.08-.24.38-.56.71-.68,1.16-.3,1.06.32,2.57,1.37,3.12,1.87.98,4.16.72,5.49-1.31.56-.86.54-1.41-.11-2.22-.28-.34-.4-.71-.2-1.1.2-.39.55-.6,1.02-.59,1.74.02,3.48.03,5.21.02.35,0,.44.12.44.45-.02.89,0,1.77,0,2.66.05,0,.09,0,.14,0Z"/>
          <path class="cls-1" d="m89.79,280.09c.9,0,1.81.01,2.71,0,.28,0,.35.1.35.36.04,1.77.1,3.54.15,5.31.01.46-.36.76-.88.66-.39-.07-.77-.21-1.15-.32-1.56-.44-2.54-.02-3.33,1.42-1.02,1.86-.17,4.69,1.67,5.59.67.33,1.29.3,1.89-.16.32-.25.67-.64,1.1-.41.45.24.33.75.33,1.18,0,1.29-.02,2.57,0,3.86,0,.42-.09.57-.54.55-1.37-.05-2.74-.05-4.12-.06-.8,0-1.52,1.19-1.15,1.91.06.11.13.21.2.3.88,1.19.65,2.59-.63,3.38-1.91,1.18-3.93.65-4.97-1.5-.25-.51-.04-.98.25-1.41.73-1.08.48-2.03-.67-2.61-.22-.11-.43-.12-.65-.12-1.56,0-3.13,0-4.69.03-.43,0-.51-.13-.5-.53.04-1.58.05-3.16.07-4.74.01-1.15-.75-1.82-1.9-1.67-.42.05-.8.21-1.2.33-.89.27-1.56.06-1.99-.74-.68-1.24-.9-2.53-.27-3.88.16-.35.39-.65.68-.9.68-.59.99-.62,1.76-.15.19.12.38.24.58.35,1.07.61,2.01.14,2.08-1.1.07-1.16.01-2.33.02-3.49,0-.5-.16-1.16.09-1.46.26-.32.94-.1,1.44-.11,1.06-.02,2.12-.04,3.18-.04.7,0,.97.46.64,1.07-.04.08-.1.15-.15.21-1.52,1.64.03,4.11,1.64,4.46,1.92.43,3.59-.09,4.63-1.61.6-.88.59-1.49-.08-2.31-.27-.33-.37-.68-.19-1.06.19-.41.54-.61,1.01-.6.87.01,1.74,0,2.61,0,0,0,0,.02,0,.03Z"/>
          <path class="cls-1" d="m148.51,339.36c0,.82,0,1.63,0,2.45-.02,1.15.63,1.69,1.77,1.45.39-.08.77-.21,1.15-.32.86-.25,1.46-.02,1.87.77.72,1.41.87,2.83,0,4.25-.2.33-.47.59-.8.8-.42.28-.82.27-1.26.03-.44-.24-.82-.58-1.32-.7-.54-.13-1.01.05-1.27.53-.26.47-.3.99-.3,1.51,0,1.29,0,2.57.02,3.86,0,.23,0,.39-.32.39-1.42,0-2.85.02-4.27.01-.68,0-.95-.51-.57-1.09.6-.9.85-1.84.57-2.9-.28-1.08-.91-1.83-2.01-2.1-1.57-.39-3.05-.2-4.27.93-1.05.97-1.23,2.2-.58,3.47.41.8.41,1.06.02,1.4-.19.18-.42.24-.67.24-1.79,0-3.58.01-5.37.03-.27,0-.36-.08-.37-.35-.04-1.81-.11-3.61-.15-5.42-.01-.42.48-.71,1.01-.6.27.05.53.15.8.23,2,.6,3.4-.2,3.9-2.23.4-1.63-.44-3.77-1.79-4.56-.76-.44-1.49-.49-2.22.1-.29.23-.6.58-1.01.34-.38-.22-.32-.65-.33-1.03-.04-1.37-.08-2.74-.15-4.11-.02-.36.07-.47.45-.46,1.44.03,2.89,0,4.33.04.64.02.87-.42,1.13-.84.25-.39.27-.82-.02-1.22-.02-.03-.03-.06-.06-.09-1.37-1.22-.27-3.14.94-3.67,1.94-.85,3.52-.28,4.54,1.61.29.53.12,1.04-.19,1.52-.12.19-.27.36-.33.59-.35,1.23.22,1.98,1.49,1.97,1.69,0,3.37,0,5.06-.03.48,0,.62.13.6.61-.04.87-.01,1.74-.01,2.61,0,0-.01,0-.02,0Z"/>
          <path class="cls-1" d="m96.48,316.83c-.82,0-1.63-.02-2.45,0-.44.02-.58-.07-.59-.55-.01-1.63-.08-3.27-.15-4.9-.03-.71.35-1.07,1.05-.91.52.12,1.03.29,1.55.41.75.18,1.41-.01,1.97-.53,1.15-1.06,1.41-2.35,1.08-3.84-.27-1.22-.82-2.19-1.98-2.74-.66-.31-1.27-.29-1.84.17-.05.04-.12.08-.17.12-.81.58-1.5.35-1.57-.63-.1-1.47-.04-2.95-.05-4.43,0-.32.25-.23.42-.23,1.41,0,2.82-.02,4.22.05.73.03,1.13-.28,1.44-.87.24-.46.2-.89-.1-1.31-.97-1.34-.62-2.79.84-3.59,1.81-.99,3.9-.25,4.72,1.65.23.53.06.99-.24,1.41-.22.3-.4.61-.4.99-.02,1.07.52,1.64,1.62,1.66,1.67.02,3.34.04,5.01,0,.55-.01.65.16.62.66-.07,1.65-.08,3.3-.12,4.95-.02.91.38,1.34,1.29,1.4.5.03.96-.14,1.42-.28,1.09-.34,1.72-.11,2.22.92.57,1.17.73,2.37.18,3.61-.13.3-.3.58-.54.81-.75.74-1.17.79-2.06.24-.22-.14-.44-.29-.67-.39-.87-.4-1.66,0-1.84.94-.09.46-.09.93-.07,1.4.03,1.18.02,2.36.04,3.55,0,.23-.08.3-.3.29-1.35-.05-2.71-.04-4.06.05-.36.03-.68-.03-.89-.4-.21-.36-.05-.64.15-.91.7-.94.72-1.96.38-3.02-.25-.76-.74-1.31-1.49-1.64-1.55-.68-3.76-.26-4.86.94-.86.95-1.02,2-.49,3.16.09.2.18.41.26.62.25.66-.09,1.16-.82,1.17-.9.01-1.81,0-2.71,0Z"/>
          <path class="cls-1" d="m145.32,298.66c.92,0,1.84.02,2.76,0,.34,0,.45.09.44.43-.02,1.67,0,3.34-.03,5.01-.03,1.44.64,1.99,2.06,1.61.38-.1.76-.25,1.14-.32.58-.11,1.05.07,1.41.56.98,1.34,1.01,3.37.06,4.68-.68.94-1.32,1.07-2.29.46-.22-.14-.44-.29-.67-.39-.81-.37-1.49-.04-1.74.8-.15.49-.14.99-.13,1.5,0,1.16,0,2.33.01,3.49,0,.18.06.39-.26.38-1.37-.06-2.74,0-4.11.05-.93.04-1.18-.46-.7-1.25.88-1.46.78-3.22-.32-4.19-1.25-1.11-2.73-.99-4.18-.53-1.32.42-2.07,1.4-2.29,2.77-.07.42,0,.83.23,1.2.17.26.3.54.4.84.19.56-.12,1.08-.72,1.09-1.86.02-3.72,0-5.58.01-.22,0-.3-.07-.3-.3-.05-1.82-.11-3.65-.15-5.47,0-.38.43-.65.93-.56.44.08.86.24,1.3.34,1.33.32,2.1-.01,2.93-1.09,1.24-1.63.5-5.08-1.38-5.91-.73-.32-1.38-.37-2.03.16-.3.24-.64.6-1.06.36-.39-.22-.32-.69-.33-1.09-.04-1.35-.08-2.71-.15-4.06-.02-.37.09-.47.45-.46,1.35.04,2.71-.05,4.06.08.74.07,1.12-.34,1.42-.91.26-.48.16-.92-.16-1.35-.87-1.19-.65-2.54.6-3.34,1.9-1.21,3.88-.7,4.95,1.41.26.52.11,1.02-.21,1.46-.31.43-.44.9-.39,1.42.07.69.45,1.08,1.14,1.1.95.03,1.91,0,2.87,0,0,0,0,.01,0,.02Z"/>
          <path class="cls-1" d="m55.94,283.11c0,.83,0,1.67,0,2.5,0,.48-.19.72-.69.77-.36.03-.68-.11-1.01-.21-2.57-.72-4.44.97-4.04,3.64.18,1.18.52,2.26,1.58,2.98.97.65,1.57.66,2.51,0,.11-.08.22-.17.34-.23.48-.25.78-.09.9.44.07.3,0,.59,0,.88,0,1.23-.02,2.47.01,3.7,0,.42-.09.57-.53.55-1.35-.05-2.71-.03-4.06-.08-.66-.02-.89.45-1.16.88-.25.4-.28.84.04,1.21.7.79.9,1.62.34,2.56-.6,1.01-1.51,1.49-2.68,1.49-1.26,0-2.23-.49-2.93-1.56-.42-.66-.38-1.27.02-1.89.17-.26.31-.52.37-.84.25-1.27-.75-1.93-1.78-1.93-1.53,0-3.06.02-4.59.05-.35,0-.44-.1-.43-.44.03-1.62.04-3.23.06-4.85.01-1.12-.82-1.82-1.93-1.62-.41.08-.8.2-1.2.31-.97.26-1.56.02-2.02-.86-.52-1-.68-2.06-.44-3.17.17-.8.66-1.34,1.33-1.77.4-.26.77-.25,1.16,0,.31.19.61.4.93.56.93.45,1.79-.05,1.92-1.08.1-.82-.03-1.63,0-2.45.02-.78.01-1.56,0-2.35,0-.26.03-.41.36-.4,1.46.03,2.92.03,4.38.04.28,0,.58.05.71.34.12.26-.03.5-.18.72-1.46,2.12-.28,4.48,2.3,4.73,1.72.16,3.02-.45,3.95-1.86.52-.79.47-1.39-.12-2.14-.28-.35-.44-.73-.21-1.15.21-.39.57-.58,1.03-.58,1.72.01,3.44.02,5.16.01.3,0,.44.08.43.4-.02.9,0,1.81,0,2.71.06,0,.12,0,.18,0Z"/>
          <path class="cls-1" d="m52.74,317.52c.89,0,1.77,0,2.66,0,.27,0,.36.07.37.35.05,1.81.13,3.61.18,5.42.01.43-.46.72-1,.6-.49-.11-.97-.26-1.45-.39-1.03-.28-1.83.08-2.49.87-.97,1.15-1,2.44-.63,3.82.28,1.05.84,1.84,1.8,2.36.71.38,1.39.35,2.03-.17.29-.24.61-.58,1.01-.38.42.22.35.7.35,1.12-.02,1.36-.02,2.71,0,4.07,0,.37-.1.47-.46.46-1.28-.04-2.57,0-3.85-.07-.73-.04-1.13.3-1.45.86-.31.55-.19,1.05.22,1.47,1.13,1.14.14,3.1-1.42,3.66-1.69.6-3.34-.06-4.17-1.67-.3-.59-.15-1.11.16-1.62.15-.25.32-.49.37-.79.21-1.19-.42-1.93-1.71-1.97-1.53-.05-3.06,0-4.59.03-.37,0-.51-.07-.5-.48.04-1.63.04-3.27.06-4.9.01-.87-.47-1.4-1.34-1.52-.56-.08-1.06.08-1.58.24-1.25.38-1.86.1-2.38-1.11-.41-.95-.52-1.93-.28-2.95.21-.85.77-1.41,1.53-1.8.29-.15.57-.11.84.05.36.2.7.44,1.08.62.89.42,1.74-.05,1.88-1.03.07-.52.02-1.04,0-1.56-.02-1.11,0-2.22-.01-3.34,0-.22.02-.35.3-.35,1.48.02,2.95.03,4.43.04.29,0,.57.06.71.34.13.27-.03.51-.18.72-1.43,2.14-.36,4.37,2.21,4.7,1.76.23,3.09-.4,4.04-1.86.52-.79.48-1.42-.12-2.14-.3-.36-.42-.74-.21-1.15.21-.4.57-.56,1.04-.55.85.02,1.7,0,2.55,0,0,0,0,0,0,.01Z"/>
          <path class="cls-1" d="m133.6,241.79c-.87,0-1.74-.02-2.61,0-.36.01-.47-.1-.47-.47-.03-1.69-.08-3.37-.13-5.05-.02-.65.35-.98,1-.85.27.05.53.15.8.23,1.99.6,3.48-.19,3.86-2.25.31-1.65-.04-3.22-1.46-4.35-.9-.71-1.68-.7-2.6-.04-.26.19-.53.47-.88.3-.38-.18-.38-.58-.38-.95,0-1.32.02-2.64,0-3.96,0-.37.11-.46.47-.46,1.44.02,2.89.02,4.33.02.35,0,.72.1.94-.35.26-.52.46-1.01.18-1.57-.05-.09-.11-.18-.17-.26-.87-1.21-.64-2.48.57-3.36,1.17-.86,3.92-.78,4.87,1.18.16.33.14.64.04.95-.15.42-.33.84-.48,1.26-.38,1.06.29,2.03,1.41,2.02,1.63,0,3.27-.02,4.9-.05.37,0,.51.06.5.48-.03,1.6-.02,3.2-.02,4.8,0,1.24.83,1.89,2.05,1.61.37-.08.73-.2,1.1-.31.86-.25,1.46-.02,1.87.78.72,1.41.87,2.83,0,4.25-.2.33-.48.58-.8.8-.41.27-.8.28-1.22.04-.36-.2-.7-.45-1.07-.62-.79-.36-1.45-.05-1.72.77-.16.49-.14.99-.14,1.5,0,1.18,0,2.36.02,3.55,0,.3-.08.38-.38.38-1.39,0-2.78.02-4.17.01-.72,0-1-.5-.6-1.1.65-.95.84-1.96.51-3.06-.34-1.13-1.11-1.82-2.28-2.01-1.59-.26-3.05-.02-4.18,1.24-.85.94-.97,2.09-.39,3.19.08.15.14.31.21.47.27.68-.04,1.18-.78,1.2-.9.03-1.81,0-2.71,0v.03Z"/>
          <path class="cls-1" d="m96.5,241.76c-.89,0-1.77,0-2.66,0-.29,0-.38-.07-.39-.38-.04-1.75-.11-3.51-.16-5.26-.01-.46.23-.71.73-.74.43-.03.82.14,1.21.28,1.99.71,3.16-.5,3.67-1.96.54-1.54-.05-3.66-1.31-4.62-1.01-.77-1.75-.85-2.67-.08-.26.22-.57.47-.94.26-.32-.19-.32-.54-.32-.88,0-1.34.01-2.68,0-4.01,0-.35.1-.44.43-.43,1.42.02,2.85.01,4.27.02.85,0,1.46-.9,1.17-1.72-.06-.18-.16-.34-.28-.5-.79-1.08-.67-2.24.34-3.13,1.37-1.21,4.23-1.17,5.27,1.23.22.51-.07.94-.25,1.38-.12.3-.34.56-.37.9-.09.91.61,1.68,1.56,1.68,1.62,0,3.23.02,4.85,0,.39,0,.5.09.49.49-.05,1.56-.05,3.13-.08,4.69-.03,1.18.84,1.92,2.03,1.69.39-.08.76-.21,1.15-.32.9-.25,1.53-.02,1.96.8.65,1.22.83,2.48.26,3.79-.13.29-.3.55-.52.77-.8.8-1.17.85-2.14.24-.16-.1-.32-.21-.49-.3-.98-.51-1.79-.1-1.98.99-.07.4-.08.79-.07,1.19.02,1.2.02,2.4.04,3.6,0,.28-.1.35-.36.35-1.39,0-2.78.03-4.17.02-.75,0-1.06-.56-.62-1.19.69-1,.81-2.05.41-3.16-.4-1.09-1.22-1.7-2.36-1.85-1.63-.21-3.14.06-4.18,1.47-.66.89-.86,1.88-.26,2.91.09.16.15.35.22.52.29.77.02,1.2-.83,1.22-.89.02-1.77,0-2.66,0,0,0,0,0,0,.01Z"/>
          <path class="cls-1" d="m59.43,241.81c-.89,0-1.77-.01-2.66,0-.33,0-.45-.07-.46-.43-.03-1.72-.09-3.44-.13-5.16-.02-.59.24-.85.84-.79.29.03.57.13.85.21,2.44.74,4.37-.89,4.05-3.45-.15-1.18-.45-2.31-1.49-3.08-1.02-.75-1.65-.77-2.67-.04-.26.19-.55.45-.89.25-.32-.18-.33-.55-.33-.88,0-1.36.01-2.71,0-4.07,0-.27.03-.41.36-.4,1.44.02,2.88.01,4.33,0,.32,0,.69.21.93-.21.3-.53.5-1.07.22-1.67-.04-.09-.1-.18-.16-.26-.93-1.27-.65-2.64.69-3.48,1.25-.79,3.91-.68,4.83,1.43.11.26.12.5.03.75-.14.37-.29.74-.45,1.1-.5,1.18.19,2.24,1.48,2.24,1.6,0,3.2-.02,4.79-.06.37,0,.47.09.46.46-.05,1.58-.07,3.16-.1,4.74-.02,1.2.72,1.85,1.92,1.7.41-.05.8-.19,1.2-.31.99-.29,1.59-.05,2.05.87.62,1.24.77,2.5.16,3.8-.15.32-.35.6-.61.83-.77.67-1.07.7-1.94.16-.28-.17-.55-.36-.86-.47-.71-.25-1.33.03-1.57.74-.17.5-.17,1.02-.16,1.54.01,1.18.02,2.36.02,3.55,0,.17.09.43-.24.4-1.44-.11-2.88.03-4.32.02-.75,0-.99-.48-.58-1.1.64-.95.86-1.96.52-3.06-.31-1.02-.99-1.71-2.04-1.95-1.45-.33-2.83-.16-4.03.8-.71.57-1.05,1.35-1.18,2.24-.06.4.04.76.24,1.09.16.25.29.51.39.79.21.61-.12,1.11-.77,1.13-.45.02-.9.02-1.36.02-.45,0-.9,0-1.36,0,0,0,0,.01,0,.02Z"/>
        </g>
        <polygon class="cls-1" points="37.47 217.88 37.45 307.06 143.79 352.53 143.79 262.79 37.47 217.88"/>
      </g>
      <path class="cls-11" d="m288.4,163.83c-1.72-1.15-3.69-1.84-5.56-2.65-10.72-4.43-21.31-9.2-32.08-13.51-1.97,2.06-4.03,4.04-6.1,5.99,11.79,4.85,23.48,9.95,35.22,14.93-8.7,13.46-17.83,26.63-26.61,40.04-19.94-8.17-39.67-16.82-59.5-25.25-3.47,1.73-7.08,3.17-10.74,4.43,20.29,8.53,40.52,17.2,60.74,25.88-32.92,14.49-66.13,28.34-99.17,42.57-33.01-14.25-66.21-28.08-99.12-42.57,10.97-4.71,21.92-9.47,32.94-14.04-1.22-2.34-2.39-4.7-3.5-7.09-12.82,5.22-25.47,10.84-38.25,16.16-6.59-10.09-13.38-20.04-20.05-30.08-2.17-3.36-4.76-6.49-6.25-10.24,9.59-4.12,19.3-7.97,28.74-12.41-.74-2.44-1.47-4.88-2.32-7.28-11.38,4.53-22.6,9.5-33.88,14.28-2.61.81-3.85,4.04-2.09,6.26,9.7,14.94,19.77,29.65,29.66,44.48.86,1.08.89,2.49.91,3.83-.05,29.68-.01,59.36-.02,89.05-.46,2.66,1.58,4.62,3.94,5.34,35.54,15.11,71.05,30.3,106.48,45.65,2.83,1.66,5.84-.06,8.49-1.21,25.37-10.98,50.76-21.9,76.17-32.75,2.71-.83,3.86-4.63,1.65-6.58-1.32-1.61-3.69-1.15-5.37-.45-24.7,10.51-49.4,21.05-74.04,31.72.07-28.41-.12-56.81.1-85.22,33.75-14.47,67.61-28.7,101.27-43.39.05,28.39.03,56.78.01,85.17-3.77,1.65-7.6,3.16-11.33,4.87-3.56.77-4.08,6.02-.86,7.57,3.23.71,6.16-1.23,9.03-2.37,3.76-1.87,8.19-2.75,11.14-5.95-.06-31.01-.26-62.06.1-93.05,10.01-15.78,20.86-31.06,30.99-46.77,1.38-1.64.91-4.13-.74-5.36Zm-147.73,184.59c-33.71-14.74-67.67-28.9-101.43-43.52.01-28.36-.02-56.72.02-85.08,33.7,14.54,67.49,28.9,101.25,43.3.38,28.43.06,56.87.16,85.3Z"/>
      <rect class="cls-11" x="294.34" y="299.97" width="95.47" height="9.32" rx="4.66" ry="4.66"/>
      <rect class="cls-11" x="637.55" y="299.97" width="95.47" height="9.32" rx="4.66" ry="4.66"/>
      <g>
        <path class="cls-9" d="m202.35,120.14c.03-9.15-4.24-17.78-11.53-23.31,5.75-12.91-.06-28.05-12.97-33.8-1.46-.65-2.97-1.16-4.52-1.53-1.47-12.58-12.85-21.58-25.43-20.11-7.01.82-13.25,4.82-16.92,10.84-6.59-10.8-20.69-14.22-31.5-7.63-6.01,3.67-10,9.9-10.83,16.89-13.76,3.24-22.29,17.02-19.05,30.78.37,1.56.88,3.07,1.53,4.53-12.88,9.85-15.34,28.28-5.49,41.16,2.74,3.58,6.26,6.48,10.3,8.48,2.43,16.04,17.4,27.06,33.44,24.63,9.23-1.4,17.25-7.11,21.59-15.38,7.54,14.36,25.29,19.89,39.65,12.35,8.27-4.34,13.98-12.36,15.38-21.59,10.02-4.94,16.36-15.16,16.34-26.33Zm-97.37,44.49c-11.52-.06-21.17-8.75-22.43-20.2.02-.18.02-.36.01-.54-.05-.6-.07-1.2-.07-1.81.01-12.45,10.1-22.53,22.54-22.54,1.88,0,3.4-1.52,3.4-3.4s-1.52-3.4-3.4-3.4c-14.83.02-27.32,11.1-29.11,25.83-10.17-7.2-12.58-21.28-5.37-31.45,1.24-1.75,2.71-3.31,4.39-4.64,9.18,9.48,24.3,9.71,33.78.53,4.66-4.51,7.28-10.72,7.27-17.21,0-1.88-1.52-3.4-3.4-3.4s-3.4,1.52-3.4,3.4c0,9.45-7.65,17.12-17.1,17.13-5.36,0-10.41-2.5-13.65-6.77-5.38-8.88-2.55-20.44,6.33-25.83,2.29-1.39,4.85-2.27,7.51-2.59,1.73-.29,3-1.8,2.98-3.56,0-8.92,7.23-16.16,16.16-16.16s16.16,7.23,16.16,16.16v77.84c-.01,12.48-10.12,22.58-22.6,22.6Zm51.99,0c-12.47-.01-22.58-10.12-22.6-22.6v-77.84c-.05-8.92,7.14-16.2,16.07-16.25,8.92-.05,16.2,7.14,16.25,16.07,0,.09-.02.27-.02.36,0,1.72,1.28,3.17,2.99,3.37,10.31,1.23,17.67,10.59,16.44,20.9-.32,2.66-1.2,5.22-2.59,7.51-5.71,7.53-16.45,9.01-23.98,3.29-4.27-3.24-6.78-8.29-6.77-13.65,0-1.88-1.52-3.4-3.4-3.4s-3.4,1.52-3.4,3.4c-.03,13.19,10.65,23.91,23.84,23.94,6.48.01,12.69-2.61,17.21-7.27,9.76,7.74,11.4,21.93,3.66,31.7-1.33,1.68-2.9,3.16-4.65,4.4-1.79-14.73-14.28-25.81-29.11-25.83-1.88,0-3.4,1.52-3.4,3.4s1.52,3.4,3.4,3.4c12.45.01,22.53,10.1,22.54,22.54,0,.61-.02,1.21-.07,1.81-.01.18,0,.36.01.54-1.27,11.45-10.91,20.14-22.43,20.2h0Z"/>
        <path class="cls-9" d="m130.98,27.19c1.88,0,3.4-1.52,3.4-3.4h0V3.4c0-1.88-1.52-3.4-3.4-3.4s-3.4,1.52-3.4,3.4v20.39c0,1.88,1.52,3.4,3.4,3.4h0Z"/>
        <path class="cls-9" d="m201.36,31.14l-14.42,14.42c-1.33,1.33-1.33,3.48,0,4.81s3.48,1.33,4.81,0l14.42-14.42c1.33-1.33,1.33-3.48,0-4.81-1.33-1.33-3.48-1.33-4.81,0Z"/>
        <path class="cls-9" d="m233.91,102.93h-20.39c-1.88,0-3.4,1.52-3.4,3.4s1.52,3.4,3.4,3.4h20.39c1.88,0,3.4-1.52,3.4-3.4s-1.52-3.4-3.4-3.4h0Z"/>
        <path class="cls-9" d="m191.74,162.29c-1.33-1.33-3.48-1.33-4.81,0s-1.33,3.48,0,4.81l14.42,14.42c1.33,1.33,3.48,1.33,4.81,0,1.33-1.33,1.33-3.48,0-4.81l-14.42-14.42Z"/>
        <path class="cls-9" d="m130.98,185.47c-1.88,0-3.4,1.52-3.4,3.4v20.39c0,1.88,1.52,3.4,3.4,3.4s3.4-1.52,3.4-3.4h0v-20.39c0-1.88-1.52-3.4-3.4-3.4Z"/>
        <path class="cls-9" d="m70.21,162.29l-14.42,14.42c-1.33,1.33-1.33,3.48,0,4.81,1.33,1.33,3.48,1.33,4.81,0h0l14.42-14.42c1.33-1.33,1.33-3.48,0-4.81-1.33-1.33-3.48-1.33-4.81,0h0Z"/>
        <path class="cls-9" d="m48.43,102.93h-20.39c-1.88,0-3.4,1.52-3.4,3.4s1.52,3.4,3.4,3.4h20.39c1.88,0,3.4-1.52,3.4-3.4s-1.52-3.4-3.4-3.4h0Z"/>
        <path class="cls-9" d="m70.21,50.37c1.33,1.33,3.48,1.33,4.81,0s1.33-3.48,0-4.81l-14.42-14.42c-1.33-1.33-3.48-1.33-4.81,0s-1.33,3.48,0,4.81l14.42,14.42Z"/>
      </g>
      <text class="cls-10" transform="translate(648.46 331.16)"><tspan x="0" y="0">By INSIC</tspan></text>
    </g>
  </g>
</svg>