<?xml version="1.0" encoding="UTF-8"?>
<svg id="Layer_2" data-name="Layer 2" xmlns="http://www.w3.org/2000/svg" viewBox="0 0 205.5 205.5">
  <defs>
    <style>
      .cls-1 {
        fill: none;
        stroke: #223b8a;
        stroke-miterlimit: 10;
      }
    </style>
  </defs>
  <g id="Layer_2-2" data-name="Layer 2">
    <g id="Layer_1-2" data-name="Layer 1-2">
      <g>
        <path class="cls-1" d="M171.4,116c0-8.8-4.1-17.1-11.1-22.4,5.5-12.4,0-27-12.5-32.5-1.4-.6-2.9-1.1-4.3-1.5-1.4-12.1-12.4-20.7-24.5-19.3-6.7.8-12.7,4.6-16.3,10.4-6.3-10.4-19.9-13.7-30.3-7.3-5.8,3.5-9.6,9.5-10.4,16.2-13.2,3.1-21.4,16.4-18.3,29.6.4,1.5.8,3,1.5,4.4-12.4,9.5-14.7,27.2-5.3,39.6,2.6,3.4,6,6.2,9.9,8.2,2.3,15.4,16.7,26,32.2,23.7,8.9-1.3,16.6-6.8,20.8-14.8,7.2,13.8,24.3,19.1,38.1,11.9,8-4.2,13.4-11.9,14.8-20.8,9.6-4.7,15.7-14.6,15.7-25.3h0v-.1ZM77.7,158.8c-11.1,0-20.4-8.4-21.6-19.4v-2.2c0-12,9.7-21.7,21.7-21.7,1.8,0,3.3-1.5,3.3-3.3s-1.5-3.3-3.3-3.3c-14.3,0-26.3,10.7-28,24.8-9.8-6.9-12.1-20.5-5.2-30.2,1.2-1.7,2.6-3.2,4.2-4.5,8.8,9.1,23.4,9.3,32.5.5,4.5-4.3,7-10.3,7-16.5,0-1.8-1.5-3.3-3.3-3.3s-3.3,1.5-3.3,3.3c0,9.1-7.4,16.5-16.4,16.5-5.2,0-10-2.4-13.1-6.5-5.2-8.5-2.5-19.7,6.1-24.8,2.2-1.3,4.7-2.2,7.2-2.5,1.7-.3,2.9-1.7,2.9-3.4,0-8.6,7-15.5,15.5-15.5s15.5,7,15.5,15.5v74.8c0,12-9.7,21.7-21.7,21.7h0ZM127.7,158.8c-12,0-21.7-9.7-21.7-21.7V62.3c0-8.6,6.9-15.6,15.5-15.6s15.6,6.9,15.6,15.5v.3c0,1.7,1.2,3,2.9,3.2,9.9,1.2,17,10.2,15.8,20.1-.3,2.6-1.2,5-2.5,7.2-5.5,7.2-15.8,8.7-23.1,3.2-4.1-3.1-6.5-8-6.5-13.1,0-1.8-1.5-3.3-3.3-3.3s-3.3,1.5-3.3,3.3c0,12.7,10.2,23,22.9,23,6.2,0,12.2-2.5,16.5-7,9.4,7.4,11,21.1,3.5,30.5-1.3,1.6-2.8,3-4.5,4.2-1.7-14.2-13.7-24.8-28-24.8-1.8,0-3.3,1.5-3.3,3.3s1.5,3.3,3.3,3.3c12,0,21.7,9.7,21.7,21.7v2.2c-1.2,11-10.5,19.4-21.6,19.4h0l.1-.1Z"/>
        <path class="cls-1" d="M102.7,26.6c1.8,0,3.3-1.5,3.3-3.3h0V3.8c0-1.8-1.5-3.3-3.3-3.3s-3.3,1.5-3.3,3.3v19.6c0,1.8,1.5,3.3,3.3,3.3h0v-.1Z"/>
        <path class="cls-1" d="M170.4,30.4l-13.9,13.9c-1.3,1.3-1.3,3.3,0,4.6s3.3,1.3,4.6,0l13.9-13.9c1.3-1.3,1.3-3.3,0-4.6s-3.3-1.3-4.6,0Z"/>
        <path class="cls-1" d="M201.7,99.5h-19.6c-1.8,0-3.3,1.5-3.3,3.3s1.5,3.3,3.3,3.3h19.6c1.8,0,3.3-1.5,3.3-3.3s-1.5-3.3-3.3-3.3h0Z"/>
        <path class="cls-1" d="M161.2,156.5c-1.3-1.3-3.3-1.3-4.6,0s-1.3,3.3,0,4.6l13.9,13.9c1.3,1.3,3.3,1.3,4.6,0s1.3-3.3,0-4.6l-13.9-13.9Z"/>
        <path class="cls-1" d="M102.7,178.8c-1.8,0-3.3,1.5-3.3,3.3v19.6c0,1.8,1.5,3.3,3.3,3.3s3.3-1.5,3.3-3.3h0v-19.6c0-1.8-1.5-3.3-3.3-3.3Z"/>
        <path class="cls-1" d="M44.3,156.5l-13.9,13.9c-1.3,1.3-1.3,3.3,0,4.6s3.3,1.3,4.6,0h0l13.9-13.9c1.3-1.3,1.3-3.3,0-4.6s-3.3-1.3-4.6,0h0Z"/>
        <path class="cls-1" d="M23.4,99.5H3.8c-1.8,0-3.3,1.5-3.3,3.3s1.5,3.3,3.3,3.3h19.6c1.8,0,3.3-1.5,3.3-3.3s-1.5-3.3-3.3-3.3h0Z"/>
        <path class="cls-1" d="M44.3,48.9c1.3,1.3,3.3,1.3,4.6,0s1.3-3.3,0-4.6l-13.9-13.9c-1.3-1.3-3.3-1.3-4.6,0s-1.3,3.3,0,4.6l13.9,13.9Z"/>
      </g>
    </g>
  </g>
</svg>