<?xml version="1.0" encoding="UTF-8"?>
<svg id="Layer_1" data-name="Layer 1" xmlns="http://www.w3.org/2000/svg" xmlns:xlink="http://www.w3.org/1999/xlink" viewBox="0 0 517.11 653.05">
  <defs>
    <style>
      .cls-1 {
        fill: #223b8a;
      }

      .cls-2 {
        stroke-width: .4px;
      }

      .cls-2, .cls-3 {
        stroke: #223b8a;
        stroke-miterlimit: 10;
      }

      .cls-2, .cls-3, .cls-4 {
        fill: none;
      }

      .cls-3 {
        stroke-width: .75px;
      }

      .cls-5 {
        fill: #69c4db;
      }

      .cls-6 {
        clip-path: url(#clippath);
      }
    </style>
    <clipPath id="clippath">
      <polygon class="cls-4" points="66.83 388.57 66.79 547.62 256.44 628.71 256.44 468.66 66.83 388.57"/>
    </clipPath>
  </defs>
  <g>
    <path class="cls-3" d="M445.91,442.52c.18-3.67-.05-7.2-.73-10.45-1.78-8.26-6.51-14.87-13.7-18.46-10.17-5.6-25.4-4.9-40.64,1.85-8.65,3.73-17.3,7.38-25.95,11.13,5.37,1.68,10.24,4.14,14.16,7.6,4.07-1.77,8.13-3.5,12.2-5.24,5.4-2.35,10.77-3.58,15.71-3.83,10.9-.5,19.33,4.62,22.22,13.5l.09-.29c-.07.66.16,1.16.29,1.73,1.3,4.76,1.02,10.47-.62,16.41-.96,3.37-2.35,6.79-4.12,10.2-4.17-1.02-8.67-1.55-13.54-1.18,2.69-5.48,3.87-11.11,2.68-15.46-1.55-6.69-8.11-10.15-16.32-8.63-3.78.57-7.78,2.55-11.68,4.19l-16.05,6.88c-.21-.3-.43-.61-.64-.91-1.78-2.32-3.91-4.32-6.37-5.94-10.08-6.72-25.91-6.83-42.09.16-9.65,3.94-19.3,10.29-27.68,18.07-9.99,9.22-18.08,20.47-22.88,31.67-1.39,3.37-2.57,6.74-3.39,10.06-.45,1.78-.75,3.51-1.05,5.26-.57,4.35-.62,8.54-.39,12.57-.18,4.3-.16,8.52-.04,12.68-.16,7.49-.07,14.89-.09,22.33-.04,1.46-.02,2.89-.04,4.35v2.37c.07,3.16-.16,6.46.09,9.52-.23,7.28-.05,14.37-.12,21.58.07,3.87-.16,7.88.09,11.68-.23,4.46-.04,8.76-.14,13.16,15.69-6.65,31.39-13.41,47.08-20.13,0-10.06,0-20.12.02-30.18,0-13.71.09-27.48-.02-41.16.14-11.11,0-22.11.07-33.17.7-3.35,3.66-7.28,7.29-8.97,3.57-1.87,7.15-1.25,8.15,1.32.68,1.62.09,3.89.45,5.67-.16,3.39-.21,6.74,0,9.97-.18,1.59-.09,3.07-.11,4.58,0,9.93-.04,19.89,0,29.82-.04,8.28,0,16.51-.04,24.79,0,10.18,0,20.35-.04,30.55,19.92-8.49,39.84-17.05,59.76-25.57,9.77-3.92,19.65-9.97,28.28-17.76,10.91-9.74,19.72-21.92,24.66-33.96,4.67-11.41,5.74-22.6,3.19-31.51-1.12-3.76-2.87-7.13-5.24-9.95-.93-1.11-1.96-2.1-3.03-3.09,4.9-8.04,8.17-16.39,9.52-24.2.34-1.91.52-3.76.68-5.6l.05-.02ZM390.07,457.46c1.55-.68,3.19-1.25,4.58-1.19,1.89.04,3.26,1.05,3.92,2.51.75,2.44-.46,6.08-3.26,8.79-1.96,2.03-4.46,3.05-6.74,4.01-4.48,1.89-8.97,3.87-13.45,5.74-.16-4.41.09-9.02-.55-13.22,5.17-2.23,10.34-4.41,15.5-6.67v.02ZM391.21,553.45c-15.84,6.79-31.69,13.57-47.53,20.35,0-6.69.05-13.41-.04-20.06.09-9.13.09-18.24,0-27.3.09-8.67.05-17.3.04-25.91.05-4.46.07-8.92,0-13.32.12-2.75.18-5.51-.61-7.81-1.55-5.03-6.01-8.1-11.93-8.24-2.84-.04-5.99.34-9.22,1.85-1.89.84-3.78,1.53-5.65,2.51-8.4,4.76-15.73,13.5-18.3,21.7-1.84,5.6-1.05,10.4-1.14,15.41-.09,8.95-.09,17.87-.02,26.75-.09,7.99-.09,15.93-.04,23.84-.09,7.65-.04,15.25-.05,22.88v7.83c-5.3,2.26-10.59,4.53-15.89,6.81,0-.05-.04-.12-.05-.18.11-7.94.02-15.8.05-23.72,0-8.95,0-17.89.02-26.84v-1.21c0-7.69.07-15.41-.02-23.04.11-3.03.07-6.01,0-8.97.12-2.19.02-4.28.07-6.44.14-7.12,2.82-15.25,7.6-22.97,4.55-7.38,10.91-14.39,18.14-19.8,7.17-5.42,15.14-9.18,22.58-10.88,9.11-2.02,17.37-.7,22.81,3.66,4.69,3.62,7.28,9.45,7.4,16.35.12,6.94-.02,14,.05,20.97l.27-.09c10.61-4.46,21.24-9.1,31.85-13.61,11.06-4.53,21.78-4.41,28.87-.04,3.39,2.14,6.01,5.21,7.56,9.02,3.3,8.03,1.69,19.37-4.32,30.28-6.83,12.68-19.44,24.47-32.49,30.21l-.02-.02Z"/>
    <path class="cls-3" d="M407.14,497.16c-4.32-2.07-10.49-1.73-16.69.96-10.31,4.41-20.62,8.85-30.94,13.23v.12c-.12,13.89,0,27.68-.07,41.54,10.45-4.46,20.9-8.95,31.35-13.43,7.9-3.44,15.55-10.63,19.64-18.32,3.53-6.46,4.37-13.07,2.57-17.89-1.12-2.8-3.1-4.99-5.87-6.24l.02.02ZM397.47,519.15c-1.37,2.98-4.35,5.83-7.4,7.08-5.01,2.12-10.04,4.35-15.05,6.42v-.91c0-4.46-.04-8.88.02-13.36,5.14-2.16,10.27-4.42,15.43-6.58,2.43-1.02,4.76-.95,6.26.09,1.8,1.39,2.19,4.26.75,7.26h0Z"/>
  </g>
  <g>
    <g class="cls-6">
      <g>
        <path class="cls-2" d="M285.05,641.85v10.42c0,.46-.11.64-.57.57-.12-.02-.25,0-.37,0-78.52,0-157.05,0-235.57.02-.77,0-.89-.18-.89-.91.02-101.8.02-203.58,0-305.37,0-.8.18-.95.96-.95,8.74.04,17.48.02,26.23.02.96.62,1.14,1.69,1.28,2.68.32,2.28.14,4.48-1.8,6.12-1.3,1.09-2.26,1.19-3.71.29-.5-.3-.98-.66-1.57-.78-1.16-.25-2.07.27-2.35,1.39-.2.75-.32,1.53-.25,2.3.21,2.05.09,4.08.09,6.13,0,.98-.37,1.39-1.3,1.27-2.1-.3-4.21-.04-6.31.04-.78.02-1.68.16-2.18-.7-.5-.87.11-1.55.54-2.21,1.18-1.82,1.09-3.71.25-5.6-.71-1.59-2.1-2.32-3.75-2.57-1.55-.23-3.1-.11-4.58.46-.39.16-.82.29-.96.8.29.12.46-.09.68-.18,1.59-.66,3.21-.96,4.9-.64,3.19.62,4.85,3.96,3.42,6.9-.29.59-.66,1.12-.98,1.69-.75,1.39-.37,2.16,1.19,2.39.68.11,1.36.05,2.05.05h6.22c1.18,0,1.36.18,1.36,1.36v7.44c0,.7-.05,1.43-.75,1.78s-1.39.12-2.02-.29c-.27-.16-.5-.36-.77-.54-.82-.54-1.68-.62-2.57-.23-2.78,1.21-3.67,3.25-3.66,5.9,0,1.37.34,2.71.96,3.94,1,1.98,2.57,2.68,4.69,2.05.84-.25,1.64-.55,2.55-.43,1,.14,1.39.5,1.39,1.52,0,3.12-.27,6.26-.2,9.38,0,.64-.34.96-.98.98-3.1.02-6.21.09-9.29-.04-1.57-.05-2.3-1.64-1.5-2.98,1.34-2.23,1.32-2.98-.32-5.06-1.43-1.8-3.21-2.91-5.64-2.51-.23.04-.61,0-.62.29,0,.39.39.29.64.3.66.04,1.3.14,1.94.25,1.75.25,3,1.25,3.91,2.73.46.75.39,1.53.14,2.34-.25.77-.66,1.48-.89,2.25-.39,1.28.02,2.16,1.27,2.71.61.27,1.25.37,1.91.36,2.23,0,4.46,0,6.69-.18h.55c1.57,0,1.69.09,1.66,1.69-.05,2.76.12,5.51-.11,8.28-.12,1.44,1.27,2.6,2.85,2.44.71-.07,1.39-.3,2.09-.48,2.34-.61,3.48-.11,4.49,2.09.87,1.91,1.02,3.87.36,5.89-.34,1.05-1.05,1.82-1.91,2.44-1.03.73-2.09.89-3.19.12-.43-.3-.89-.57-1.39-.75-1.44-.52-2.53.12-2.8,1.64-.16.95-.18,1.89-.09,2.87.18,1.78.07,3.58.05,5.39,0,.71-.43,1.05-1.12,1.09-.78.05-1.53-.14-2.32-.2-1.46-.07-2.91.21-4.37.2-2.18-.04-2.69-.82-1.59-2.68,1.19-2.02,1.32-4.03.21-6.1-.59-1.11-1.52-1.8-2.71-2.1-1.85-.5-3.69-.39-5.48.27-.39.14-.84.27-.95.82.29.11.46-.11.66-.2,1.68-.71,3.39-1.03,5.17-.59,3.12.78,4.58,4.24,3.01,7.08-.36.64-.82,1.25-1.07,1.94-.36.93-.07,1.48.87,1.78.48.14.98.14,1.48.14h7.35c1.25,0,1.41.16,1.41,1.39v7.35c0,.7-.05,1.41-.75,1.8-.73.41-1.44.14-2.1-.27-.27-.16-.52-.34-.78-.5-.96-.62-1.93-.59-2.91-.07-2.28,1.18-3.32,3.12-3.3,5.62,0,1.59.39,3.14,1.23,4.53.98,1.62,2.35,2.21,4.17,1.69.93-.27,1.82-.59,2.82-.5,1.37.12,1.96.7,1.96,2.07v8.47c0,1.12-.2,1.32-1.28,1.32h-9.4c-.87,0-1.59-.3-2.02-1.11-.45-.82-.2-1.57.36-2.25.98-1.19,1-2.44.2-3.69-1.18-1.85-2.64-3.39-4.99-3.64-.7-.07-1.37,0-2,.34.54.23,1.09.11,1.62.12,2.09.05,4.39,1.71,5.05,3.67.34,1,.27,1.96-.29,2.87-.43.71-.66,1.46-.75,2.28-.12,1.09.43,1.8,1.52,1.94.39.05.8.04,1.21.04h8.47c1.55,0,1.62.11,1.59,1.62-.04,3.1-.02,6.21,0,9.31,0,1.27.82,1.98,2.1,1.87.77-.07,1.52-.29,2.26-.48,2.18-.61,3.44,0,4.33,2.05.82,1.87,1.07,3.8.45,5.8-.39,1.25-1.23,2.12-2.3,2.82-.8.52-1.62.54-2.46.11-.59-.29-1.11-.68-1.71-.93-1.37-.57-2.5,0-2.82,1.44-.21.91-.23,1.82-.12,2.76.21,1.89.09,3.78.07,5.67,0,.68-.39,1.03-1.05,1.03-2.51,0-5.03.07-7.53,0-1.18-.04-1.66-.95-1.14-2.03.41-.84.98-1.59,1.18-2.51.71-3.1-.95-5.76-4.05-6.44-1.71-.37-3.39-.12-5.01.55-.37.14-.36.18-.77.8,1.09-.48,2.07-.87,3.16-1,.39-.05.8-.09,1.19-.09,4.28.05,6.49,4.01,4.3,7.7-.32.54-.68,1.03-.87,1.64-.27.8-.04,1.3.77,1.61.5.2,1.03.2,1.55.2h7.26c1.34,0,1.55.23,1.57,1.59v7.06c0,.29,0,.55-.05.84-.23,1.12-.98,1.55-2.05,1.16-.5-.18-.95-.48-1.36-.8-.89-.66-1.8-.7-2.8-.25-2.53,1.12-3.73,3.37-3.5,6.28.11,1.5.52,2.92,1.36,4.21.91,1.37,2.16,1.89,3.76,1.55.52-.11,1.02-.29,1.52-.45.64-.2,1.28-.23,1.93-.11,1.07.21,1.57.78,1.59,1.85.02,2.85.02,5.71,0,8.56,0,1.11-.29,1.37-1.39,1.39-2.1.02-4.21,0-6.33,0-.8,0-1.61-.04-2.41.12-.41.07-.8,0-1.19-.12-1.55-.52-2.09-1.94-1.09-3.23,1.12-1.43,1.02-2.8.05-4.19-1.43-2.02-3.19-3.48-5.89-3.21-.21.02-.43,0-.64.07-.09.04-.16.07-.25.23.29.25.62.12.93.11,2.18-.21,3.75.86,5.06,2.41,1.03,1.21,1.16,2.57.45,3.99-.34.7-.68,1.39-.78,2.18-.16,1.18.37,1.91,1.53,2.14.43.09.86.07,1.3.07h8.56c1.39,0,1.39.04,1.37,1.39-.04,3.14-.02,6.26,0,9.4,0,1.32.57,1.84,1.89,1.87.66,0,1.3-.11,1.93-.3.57-.18,1.14-.3,1.73-.39.93-.14,1.71.18,2.34.87,1.8,2.03,2.14,5.97.75,8.31-.61,1.02-1.5,1.62-2.55,2.07-.5.21-.96.09-1.43-.12-.59-.27-1.11-.7-1.68-.98-1.5-.77-2.71-.21-3.1,1.39-.21.91-.25,1.84-.14,2.76.21,1.89.07,3.78.09,5.67,0,.66-.37.95-1,.95h-3.07c-1.02,0-2.05-.05-3.07.14-.21.04-.43.04-.64.02-2.18-.09-2.69-.96-1.57-2.84.93-1.53,1.16-3.1.68-4.82-.52-1.84-1.73-3-3.58-3.39-1.77-.37-3.51-.21-5.21.41-.34.12-.7.27-.82.73.32.12.52-.12.73-.23,1.71-.8,3.51-.87,5.28-.45,2.89.71,4.3,4.01,2.96,6.69-.34.66-.75,1.28-1.07,1.96-.61,1.3-.34,1.85,1.11,2.16.89.2,1.78.2,2.68.09,1.94-.23,3.91-.12,5.85-.09,1.02.02,1.41.39,1.28,1.3-.34,2.39.21,4.76.04,7.15-.04.43,0,.87-.12,1.28-.27.98-.96,1.34-1.93,1.02-.52-.18-.93-.5-1.36-.8-.98-.71-2.02-.73-3.07-.21-2.3,1.14-3.35,3.09-3.37,5.56,0,1.59.36,3.16,1.19,4.53,1.05,1.73,2.5,2.26,4.46,1.71.57-.16,1.12-.37,1.69-.46,1.75-.3,2.82.59,2.84,2.35v7.9c0,1.34-.23,1.66-1.52,1.68-3.1.07-6.21.09-9.29,0-1.8-.05-2.66-1.8-1.61-3.25.98-1.34,1.34-2.34-.07-4.41-1.32-1.96-3.1-3.19-5.58-3.09-.55.02-.55.04-1.11.41.25.25.54.09.78.05,2.84-.45,5.44,2.1,6.01,3.94.29.95.05,1.85-.41,2.69-.36.64-.57,1.3-.68,2.02-.18,1.23.41,2,1.66,2.07,1.23.07,2.48.02,3.73.02h5.87c1.36,0,1.5.14,1.52,1.48v9.11c0,1.73.84,2.43,2.53,2.12.7-.12,1.39-.32,2.09-.5,1.89-.48,3.12.07,3.98,1.82.91,1.87,1.19,3.83.62,5.87-.43,1.5-1.41,2.51-2.78,3.21-.7.36-1.37.29-2.05-.07-.54-.3-1.05-.66-1.62-.91-1.52-.62-2.66,0-2.96,1.59-.18.95-.2,1.89-.09,2.87.2,1.78.07,3.58.05,5.39,0,.71-.43,1.16-1.12,1.05-2.32-.34-4.64.02-6.96.02-1.77,0-2.34-.96-1.41-2.46,1.28-2.07,1.5-4.16.3-6.33-.55-1-1.39-1.68-2.46-2-1.96-.59-3.92-.5-5.83.25-.39.16-.8.34-.86.93,1.84-.96,3.69-1.39,5.69-.96,3.23.68,4.83,4.19,3.21,7.12-.32.57-.7,1.11-.98,1.69-.55,1.18-.16,1.91,1.14,2.14.39.07.8.07,1.21.07h7.26c1.23,0,1.39.18,1.39,1.41v7.35c0,.75-.11,1.46-.82,1.85-.73.39-1.37.05-2-.34-2.23-1.36-3.55-1.18-5.42.68-1.03,1.03-1.43,2.32-1.53,3.69-.12,1.5.14,2.96.77,4.35.11.25.23.52.62.59.09-.37-.16-.62-.27-.91-.8-2.1-1-4.21,0-6.31.2-.43.48-.8.8-1.12,1.48-1.55,2.34-1.66,4.17-.57.39.23.78.48,1.23.66,1.23.45,2.32-.09,2.71-1.34.14-.45.14-.91.14-1.39v-7.17c0-1.25.16-1.41,1.39-1.41h6.6c.21,0,.43,0,.64.04,1.44.2,1.87,1.12,1.09,2.37-.05.07-.09.16-.16.23-2.41,2.46-.05,6.9,2.8,7.49,2.96.62,5.53.25,7.6-2.16,1.3-1.52,1.41-2.69.34-4.37-1.11-1.71-.27-3.37,1.78-3.41,2.98-.05,5.96,0,8.93,0,.71,0,1.11.29,1.18,1.02.04.34.14.68.14,1.02-.04,2.6.09,5.21.18,7.81.05,1.64-.8,2.28-2.43,1.94-.46-.09-.91-.21-1.34-.37-3.44-1.21-5.48,1.02-6.33,3.6-.43,1.32-.18,2.64.12,3.94.04.18.12.36.39.43.27-.34,0-.7-.05-1.02-.39-1.77-.23-3.44.8-4.98,1.07-1.57,2.37-2.14,4.24-1.73.95.2,1.84.59,2.78.73,1.62.25,2.16-.23,2.21-1.84.09-2.89-.29-5.76-.2-8.65.05-1.85.05-1.78,1.85-1.93,2.94-.21,5.89-.11,8.83-.18,1.96-.04,2.68-1.11,2.07-2.96-.2-.59-.46-1.16-.66-1.73-.64-1.82-.2-3.67,1.32-4.85,2.19-1.71,4.69-2.09,7.29-1.14,2.39.87,3.46,4.14,2.25,6.53-.34.66-.75,1.28-1.07,1.96-.57,1.21-.21,1.87,1.11,2.12.39.07.8.07,1.21.07h6.88c1.55,0,1.66.11,1.66,1.62v2.89c.02,1.3-.04,2.6.12,3.91.09.8,0,1.68-.78,2.16-.68.41-1.37.18-2.02-.23-.87-.57-1.71-1.28-2.89-.95-1.44.41-2.57,1.32-3.28,2.59-1.32,2.35-.96,4.78,0,7.17.09.21.11.2.78.55-.62-1.18-1-2.28-1.11-3.44-.23-2.39.45-4.41,2.48-5.85.78-.55,1.59-.62,2.44-.14.59.34,1.16.73,1.78,1,1.39.62,2.55.07,2.92-1.41.12-.48.12-.98.12-1.48v-6.88c0-1.3.16-1.48,1.43-1.48h6.88c.68,0,1.32.07,1.68.75.37.7.18,1.39-.32,1.89-2.41,2.48-.3,7.04,2.96,7.6,2.34.41,4.57.36,6.51-1.3.52-.45.95-.98,1.34-1.53.91-1.36.89-2.25,0-3.6-.48-.71-.96-1.43-.48-2.32.48-.89,1.32-1.27,2.32-1.3,3.01-.11,6.01.12,9.01.18.7,0,1.05.32,1.03,1.02-.07,3.03.32,6.06.2,9.11-.05,1.16-.73,1.75-1.89,1.61-.62-.07-1.21-.25-1.8-.45-3.75-1.27-5.71,1.16-6.44,3.99-.29,1.12-.09,2.28.16,3.41.05.27.14.54.57.55.05-.57-.2-1.05-.3-1.55-.43-2.07.21-3.78,1.64-5.26.93-.96,2.03-1.25,3.32-.95,1.05.27,2.09.62,3.16.8,1.37.23,2.28-.55,2.1-1.94-.14-1.21-.16-2.41-.11-3.62.07-1.8-.25-3.58-.2-5.39.04-1.36.16-1.55,1.48-1.52,3.14.07,6.26-.29,9.38-.21,1.78.04,2.53-1.07,1.98-2.76-.18-.54-.41-1.03-.61-1.57-.84-2.18-.32-4.14,1.62-5.46,2.07-1.43,4.39-1.61,6.76-.86,1.43.45,2.28,1.52,2.62,2.91.34,1.37.36,2.76-.45,4.05-.36.57-.75,1.14-1,1.78-.39.98-.11,1.59.91,1.8.96.2,1.93.32,2.94.21,2.07-.21,4.16-.09,6.22-.07.62,0,1.03.37.98,1-.18,2.75.21,5.51,0,8.26-.12,1.46-1.14,1.96-2.44,1.27-.36-.2-.7-.41-1.02-.64-1.03-.75-2.07-.66-3.14-.07-2.35,1.3-3.53,3.73-3.12,6.42.12.86.3,1.71.61,2.53.14.37.25.78.78.87.14-.37-.12-.64-.23-.93-.89-2.28-.96-4.51.32-6.71.54-.91,1.28-1.5,2.19-1.93.55-.25,1.09-.16,1.62.07.62.29,1.16.71,1.77,1.02,1.55.78,2.68.27,3.12-1.39.14-.52.16-1.03.16-1.57v-6.79c0-1.25.18-1.43,1.39-1.43h6.97c.68,0,1.32.14,1.66.82.32.66.12,1.32-.34,1.82-2.39,2.59-.32,7.04,2.94,7.6,2.34.39,4.57.37,6.51-1.28.5-.43.91-.93,1.28-1.46.89-1.25.95-2.46,0-3.76-1.25-1.75-.37-3.42,1.78-3.51,3.01-.14,6.01.09,9.01.18.61.02.89.32.95.91.07.77.21,1.53.2,2.32-.07,2.18.11,4.33.18,6.51.05,1.71-.8,2.34-2.5,1.89-.48-.12-.96-.25-1.43-.41-3.16-1.02-4.98.57-6.08,3.32-.57,1.41-.34,2.87.07,4.3.04.14.11.29.36.32.21-.37,0-.75-.09-1.12-.41-1.93-.12-3.71,1.18-5.24,1-1.19,2.25-1.71,3.82-1.32.93.23,1.82.61,2.78.77,1.73.29,2.28-.2,2.32-1.93.07-2.98-.3-5.94-.2-8.92.05-1.46.14-1.61,1.61-1.59,3.1.07,6.19-.27,9.29-.21,1.68.04,2.39-1.05,1.91-2.66-.16-.5-.32-1.02-.57-1.48-1.37-2.71.34-5.31,2.57-6.28,1.69-.73,3.5-.86,5.28-.41,2.57.64,4.03,3.82,3,6.37-.3.75-.78,1.41-1.16,2.12-.71,1.39-.34,2.09,1.18,2.35,1.02.18,2.03.09,3.05.04,1.73-.11,3.48-.04,5.21-.04,1.16,0,1.32.2,1.36,1.37.05,2.44-.11,4.9.09,7.35.04.37-.05.75-.16,1.11-.23.86-.86,1.19-1.71.96-.59-.16-1.07-.48-1.53-.84-.95-.73-1.89-.75-2.96-.25-2.57,1.23-3.75,3.55-3.37,6.72.11.87.32,1.71.68,2.51.14.3.25.66.71.73.12-.34-.14-.57-.25-.84-.86-2.16-1.09-4.32.04-6.47.36-.68.82-1.23,1.44-1.68,1.36-.96,2.09-1.02,3.48-.12.52.34,1.05.66,1.68.8,1.05.25,1.93-.23,2.25-1.27.18-.54.2-1.09.2-1.66v-6.97c0-1.28.18-1.43,1.46-1.44,2.07-.04,4.16.11,6.22-.16.78-.11,1.55.02,2.16.64.45.46.57.95.23,1.5-.09.16-.18.34-.32.46-2.44,2.34-.48,7.1,2.98,7.72,1.96.36,3.82.34,5.58-.7.29-.16.57-.37.93-.27l-.11.04Z"/>
        <path class="cls-2" d="M175.28,345.64c.43,1.5.84,3,.23,4.53-.91,2.26-2.48,3.8-5.26,2.8-.78-.29-1.61-.48-2.41-.62-1.61-.27-2.44.45-2.41,2.05.04,1.8.14,3.58.2,5.39.05,1.43.07,2.85.14,4.28.04.57-.14.73-.71.73-3.12.04-6.26.11-9.38.16-1.12,0-2.26.02-2.78,1.21-.5,1.16-.41,2.34.46,3.39.8.98.78,1.91.05,2.98-2.03,2.98-5.39,3.41-8.38,1.94-2.07-1-2.64-3.66-1.41-5.55.43-.64.73-1.34.98-2.09.27-.82-.07-1.34-.78-1.62-.62-.25-1.27-.41-1.98-.41-2.51.02-5.01-.04-7.53,0-.7,0-.89-.21-.89-.91.02-2.44-.04-4.9-.05-7.35,0-.21,0-.43.02-.64.14-1.25.86-1.62,2-1.05.32.16.64.37.93.61,1.09.89,2.23.89,3.44.25,3-1.59,4.14-4.76,3.01-8.47-.16-.55-.41-1.09-.62-1.64h33.12l.02.04Z"/>
        <path class="cls-2" d="M241.32,345.64c.84,2.25.91,4.41-.73,6.37-.96,1.16-2.16,1.59-3.64,1.18-1.02-.29-2.02-.61-3.03-.78-1.62-.29-2.5.64-2.41,2.28.16,3.19.23,6.38.37,9.56.02.5-.16.61-.62.62-3.03.04-6.08.09-9.11.14h-.55c-1.02.04-2.05.11-2.53,1.18-.48,1.05-.32,2.1.29,3.09,1.12,1.84,1,2.73-.48,4.26-2.14,2.21-5.21,2.12-7.47,1.07-2.19-1.03-2.82-3.83-1.46-5.81.12-.18.25-.36.36-.54,1.11-2.07.59-3.17-1.89-3.35-2.62-.2-5.26-.07-7.9-.02-.7,0-.87-.18-.87-.87.04-2.35.05-4.71-.11-7.06-.05-.73-.14-1.64.57-2.03.78-.45,1.53.09,2.19.57,1.5,1.11,2.5,1.12,4.07.14,2.6-1.64,3.55-4.35,2.69-7.81-.18-.71-.41-1.41-.62-2.1h32.92l-.02-.07Z"/>
        <path class="cls-2" d="M109.06,345.64c.89,2.25.91,4.39-.75,6.35-.93,1.09-2.03,1.52-3.46,1.18-1.09-.25-2.1-.68-3.23-.82-1.59-.2-2.43.61-2.35,2.25.14,3.16.21,6.31.34,9.47.04.62-.2.77-.78.77-3.23.02-6.44.07-9.67.14-2.37.05-3.5,1.85-2.23,3.85,1.91,2.98.11,4.71-2.19,5.89-1.91.96-3.94.71-5.81-.23-2.05-1.03-2.66-3.73-1.37-5.64.32-.46.54-.96.75-1.48.68-1.55-.39-2.48-1.91-2.53-2.53-.11-5.08-.04-7.62-.04q-1.46,0-1.46-1.41c0-2.19.05-4.41-.11-6.6-.05-.73-.14-1.61.61-2.02.78-.43,1.46.11,2.1.57,2.02,1.48,4.53.8,6.08-1.69,1.44-2.34,1.18-4.76.32-7.22-.09-.25-.32-.46-.23-.77h32.92l.05-.02Z"/>
        <path class="cls-2" d="M285.05,475.51c-.46.07-.91.18-1.37.21-2.69.21-5.05-1.25-6.1-3.76-.34-.82-.25-1.59.34-2.25.73-.8.93-1.69.78-2.73-.21-1.5-1.03-2.37-2.57-2.41-2.98-.05-5.96-.05-8.92-.04-.66,0-.93-.09-.89-.84.09-2.87-.02-5.78.2-8.65.14-1.96-1.71-3.25-3.39-2.89-.78.16-1.55.37-2.34.57-1.77.45-2.69.07-3.51-1.53-1.03-2.03-1.37-4.14-.55-6.35.21-.55.5-1.07.89-1.5,1.39-1.53,2.44-1.69,4.19-.59.68.43,1.37.86,2.21.84,1.12-.05,1.96-.96,2.02-2.37.07-2.66.09-5.33.04-7.99-.02-.93.2-1.18,1.14-1.16,2.26.05,4.53-.04,6.78-.07.46,0,.91,0,1.34.29.62.45.82,1,.29,1.55-1.62,1.75-1.8,3.62-.71,5.69,1.12,2.18,3.07,2.78,5.3,2.98,1.82.16,3.39-.48,4.87-1.46v34.42l-.02.04Z"/>
        <path class="cls-2" d="M285.05,408.35c-2.19.37-4.32.2-6.24-1.05-1.32-.86-1.73-2.14-1.25-3.64.18-.55.41-1.11.62-1.64,1.02-2.44.05-3.91-2.64-3.92-2.43,0-4.83,0-7.26-.02-.78,0-1.84.37-2.3-.18-.37-.46-.12-1.48-.11-2.25.04-2.55.09-5.08.12-7.63.02-1.61-1.09-2.57-2.69-2.28-.86.14-1.68.39-2.51.61-1.66.41-2.55.02-3.37-1.5-.95-1.75-1.27-3.6-.89-5.56.36-1.78,1.52-2.91,3.14-3.64.46-.2.86-.05,1.23.14.52.29,1,.62,1.52.91,2.05,1.12,3.76.14,3.78-2.21.02-2.64,0-5.28-.05-7.9,0-.73.2-.93.93-.91,2.41.05,4.83.05,7.26.05.61,0,1.14.14,1.41.7.23.5.05,1.02-.32,1.36-2.69,2.46-.48,7.69,3.57,8.19,2.25.29,4.23,0,6.06-1.32v33.71Z"/>
        <path class="cls-2" d="M285.05,542.3c-3.6,1.21-6.01-.7-7.37-3.26-.48-.91-.39-1.73.27-2.48.62-.71.89-1.52.77-2.48-.23-1.62-1.19-2.55-2.84-2.57-2.91-.02-5.83-.04-8.74-.02-.64,0-.84-.16-.82-.82.07-2.87,0-5.76.2-8.63.12-1.87-1.61-3.17-3.32-2.85-1.03.2-2.03.46-3.07.66-1.18.23-2.05-.21-2.64-1.25-1.16-2.02-1.55-4.14-.89-6.4.23-.8.64-1.53,1.28-2.1,1.55-1.39,2.14-1.44,3.91-.34.77.48,1.52,1,2.48.8,1.05-.21,1.71-1.02,1.75-2.32.07-2.73.09-5.46.04-8.17,0-.84.21-1.02,1.02-1,2.39.04,4.76,0,7.15-.04.41,0,.78.02,1.14.29.57.43.7.91.27,1.52-.05.07-.11.16-.18.21-2.89,2.66-.43,7.81,3.32,8.29,2.18.29,4.26.34,6.01-1.27.05-.05.18,0,.27-.02v34.24h0Z"/>
        <path class="cls-2" d="M285.05,609.11c-2.89,1.14-6.81-.82-7.6-3.78-.2-.73.02-1.37.5-1.89,1.02-1.11,1.03-2.37.45-3.62-.55-1.18-1.66-1.46-2.87-1.46-2.78,0-5.58-.04-8.36,0-.73,0-.86-.23-.84-.89.07-2.76-.04-5.53.18-8.28.2-2.43-1.66-3.55-3.85-3.07-.78.16-1.55.41-2.32.61-1.16.29-2.1-.09-2.73-1.09-1.27-2.03-1.68-4.23-1-6.56.21-.77.61-1.48,1.23-2.05,1.52-1.39,2.26-1.48,3.99-.37.23.14.46.3.71.43,1.78.93,3.28.12,3.53-1.89.14-1.18.04-2.35.04-3.53,0-1.68.02-3.35,0-5.03,0-.5.11-.71.66-.71,2.57.02,5.15,0,7.72,0,.61,0,1.09.25,1.36.78.27.52-.07.91-.37,1.25-1.36,1.5-1.57,3.12-.78,4.98.87,2.07,2.46,3.09,4.6,3.37,2,.27,3.89.07,5.53-1.25.05-.04.18,0,.25,0v34.05l-.02.02Z"/>
        <path class="cls-2" d="M285.05,573.56c-1.93,2.07-4.46,2.41-7.35,1.32-2.18-.82-3.01-3.44-1.89-5.44.21-.37.43-.75.66-1.11,1.28-2.02.37-3.1-1.96-3.3-2.59-.23-5.21-.05-7.81,0-.68,0-.87-.14-.87-.86,0-2.39.11-4.78-.09-7.15v-.55c.18-1.52,1.02-1.93,2.28-1.05,1.11.77,2.14,1.62,3.62.95,1.77-.82,3.14-2,3.64-3.94.62-2.46.2-4.8-1.09-6.96-.98-1.64-2.53-2.18-4.39-1.66-.89.23-1.71.71-2.69.59-.84-.11-1.32-.41-1.28-1.41.07-3.23.07-6.44.05-9.67,0-.62.12-.86.8-.84,2.98.05,5.96.05,8.92.04,1.02,0,1.62.55,2.03,1.36.37.73.2,1.44-.36,2.05-1.02,1.09-1.05,2.3-.43,3.6,1.52,3.16,4.32,4.57,7.76,3.92.14-.04.3,0,.46,0v30.14l-.02-.04Z"/>
        <path class="cls-2" d="M284.46,507.31c-2.19,1.64-4.6,1.64-6.97.61-2.21-.98-2.84-3.44-1.61-5.53.36-.61.73-1.21,1.02-1.85.34-.75.11-1.37-.64-1.8-.77-.43-1.53-.7-2.44-.68-2.41.07-4.83.05-7.24.11-.54,0-.77-.09-.77-.7,0-2.48.09-4.96-.09-7.44v-.46c.16-1.52.98-1.91,2.26-1.07,1.09.71,2.09,1.59,3.55.96,1.82-.78,3.23-2,3.73-3.96.62-2.5.21-4.87-1.18-7.01-1.07-1.64-2.55-2.1-4.42-1.53-.93.29-1.84.71-2.87.5-.68-.14-1-.43-1-1.18.05-3.35.05-6.69.05-10.04,0-.46.11-.64.61-.64,3.1.02,6.19,0,9.29,0,.89,0,1.44.55,1.82,1.25.36.66.29,1.36-.18,2.02-1.3,1.84-1.3,2.85,0,4.67,1.8,2.51,4.05,3.87,7.62,2.91v30.34c-.16.23-.27.48-.57.55l.04-.02Z"/>
        <path class="cls-2" d="M285.05,640.55c-2.05,2-4.48,2.18-7.06,1.37-2.34-.73-3.39-3.51-2.18-5.62.36-.61.75-1.21,1.03-1.85.43-.96.2-1.48-.68-2-.73-.43-1.5-.62-2.37-.61-2.41.05-4.83,0-7.26.07-.59,0-.73-.16-.73-.71,0-2.44.09-4.9-.09-7.35v-.29c.07-.57,0-1.28.59-1.57.62-.3,1.28-.07,1.82.34.95.73,1.91,1.48,3.19.98,1.64-.62,3.03-1.62,3.67-3.32,1.09-2.96.57-5.74-1.28-8.24-.82-1.11-2.07-1.53-3.48-1.18-.84.21-1.66.52-2.5.64-1.44.21-1.93-.23-1.93-1.64,0-3.16.05-6.31.04-9.49,0-.64.21-.75.78-.75,3.03.04,6.08.04,9.11.04.91,0,1.43.55,1.82,1.23.37.66.37,1.43-.18,2-1.55,1.59-.98,3.32,0,4.71,1.91,2.68,4.37,3.83,7.63,2.92v30.34l.04-.04Z"/>
        <path class="cls-2" d="M285.05,439.79c-2.09,2.02-4.55,2.21-7.15,1.34-2.35-.78-3.28-3.55-2.03-5.67.34-.59.71-1.16.98-1.78.43-.96.2-1.48-.68-2-.73-.43-1.5-.61-2.37-.59-2.41.05-4.83,0-7.26.05-.57,0-.73-.16-.73-.73,0-2.44.09-4.9-.09-7.35v-.29c.09-.57,0-1.28.61-1.55.62-.29,1.28-.05,1.82.36.93.71,1.85,1.44,3.12,1,1.57-.55,2.91-1.48,3.58-3.03,1.32-3.05.8-5.96-1.14-8.56-1.07-1.44-2.64-1.55-4.28-.96-.8.29-1.62.61-2.51.43-1.19-.21-1.52-.61-1.5-1.8.04-2.91.05-5.83.04-8.74,0-.66.21-.86.84-.86,3.23.02,6.44,0,9.67.04,1.44,0,2,.86,1.52,2.21-.11.32-.25.64-.41.93-1.3,2.26-.73,4.64,1.48,6.03,2,1.27,4.14,1.93,6.51,1.19v30.34h0Z"/>
        <path class="cls-2" d="M207.09,345.64c1.34,2.23,1.66,4.55.62,6.97-.27.61-.64,1.12-1.14,1.57-1.36,1.21-1.89,1.25-3.44.29-.37-.23-.73-.46-1.12-.64-1.69-.84-3.23-.04-3.42,1.84-.25,2.35,0,4.71-.05,7.06-.04,2.09,0,2.07-2.05,2.07s-4.03.05-6.05.05c-1.25,0-1.82-1.03-1.11-2.07,1.07-1.55,1.39-3.17.98-5.01-.52-2.21-2.05-3.69-4.65-3.99-2.84-.34-5.48.21-7.26,2.69-1.11,1.53-1.5,3.25-.48,5.03.2.34.32.73.46,1.11.48,1.27,0,2.07-1.37,2.1-2.51.05-5.03.04-7.53.05h-1.3c-1.62-.07-1.41.3-1.46-1.52-.11-2.85-.2-5.69-.29-8.54-.04-.78.36-1.19,1.23-1.3.73-.09,1.41.21,2.07.43,1.8.59,3.53.75,5.01-.73,1.62-1.61,2.34-3.51,1.94-5.81-.09-.55-.18-1.09-.27-1.64h30.69-.02Z"/>
        <path class="cls-2" d="M273.13,345.64c1.09,2.07,1.55,4.21.8,6.51-.45,1.39-1.46,2.25-2.71,2.89-.52.27-.96.09-1.41-.14-.62-.34-1.21-.75-1.84-1.05-1.64-.78-3.19,0-3.39,1.82-.25,2.35.04,4.71-.02,7.06-.05,2.1,0,2.09-2.14,2.07-1.94,0-3.91.07-5.85.05-1.39,0-1.8-.75-1.02-1.91,1.02-1.52,1.5-3.1,1.12-4.9-.54-2.55-2.21-4.05-4.89-4.32-1.59-.16-3.14.05-4.62.7-2.26,1-3.3,2.89-3.75,5.17-.18.86.36,1.59.86,2.28.78,1.11.66,2.02-.27,2.64-.36.23-.75.25-1.16.25-3.1.02-6.21,0-9.29.05-.7,0-.73-.32-.75-.84-.07-2.98-.16-5.94-.25-8.92-.04-1.28.64-1.85,1.91-1.57.66.16,1.3.39,1.94.57,2.41.66,4.03,0,5.4-2.07,1.25-1.87,1.23-3.89.7-5.96-.04-.12-.05-.25-.07-.36h30.69l-.02-.04Z"/>
        <path class="cls-2" d="M141.05,345.64c1.14,2.28,1.59,4.6.41,7.01-.2.39-.41.77-.68,1.11-1.16,1.48-2.32,1.68-3.91.7-.46-.29-.95-.59-1.46-.78-1.28-.54-2.43,0-2.87,1.34-.3.89-.27,1.84-.27,2.76,0,2.1,0,4.21.02,6.33,0,.41,0,.71-.57.68-2.26-.14-4.51-.16-6.78.09-.18.02-.37,0-.55,0-1.57-.11-2.02-.87-1.16-2.16,1.05-1.57,1.36-3.21.91-5.03-.57-2.26-2.07-3.55-4.32-3.91-1.93-.3-3.82-.11-5.58.86-1.87,1.03-2.84,2.69-3.14,4.76-.11.7.09,1.36.48,1.93.3.45.52.91.7,1.41.34,1-.23,1.93-1.28,1.94-3.25.05-6.51.05-9.77.09-.5,0-.7-.18-.71-.7-.07-3.19-.2-6.38-.27-9.58-.02-.75.55-1.19,1.48-1.09.66.07,1.32.29,1.98.48,3.48,1,6.3-.86,6.81-4.46.18-1.3-.11-2.51-.37-3.76h30.89l.02-.02Z"/>
        <path class="cls-2" d="M285.05,373.36c-1.84,1.8-4.05,2.09-6.44,1.53-3.05-.7-4.3-3.96-2.5-6.47.55-.75,1.03-1.55.54-2.46-.5-.93-1.41-1.19-2.43-1.19-2.57,0-5.14-.05-7.72-.04-.73,0-1-.16-1-.96.04-2.48-.02-4.96-.04-7.44,0-.55.02-1.19.57-1.48.59-.32,1.21-.14,1.75.25,1,.75,2,1.55,3.35,1.02,1.68-.66,3.01-1.69,3.66-3.44.89-2.43.45-4.73-.55-7.01h10.13c.55,0,.66.11.66.66-.02,9.02,0,18.05,0,27.07l.02-.04Z"/>
        <path class="cls-2" d="M193.59,464.95c-1.52,0-3.03-.04-4.57,0-.98.04-1.57-.5-2-1.25-.41-.73-.23-1.46.32-2.05,1.14-1.23,1.07-2.53.32-3.92-2.39-4.41-8.11-5.19-11.25-1.52-1.71,2-1.8,4.03-.25,6.13.37.5.62.98.27,1.61-.36.59-.73.98-1.52.96-2.57-.07-5.15-.05-7.72-.04-.75,0-1.07-.2-1.05-1.05.07-2.48.04-4.96.04-7.44,0-.5,0-.98-.2-1.46-.54-1.3-1.84-1.84-3.1-1.21-.37.2-.73.46-1.09.71-1.03.71-1.69.71-2.73.04-2.57-1.71-3.33-6.65-1.43-9.08,1.09-1.39,2.43-1.82,4.1-1.28.91.29,1.82.59,2.76.73,1.52.21,2.37-.5,2.34-2.05-.05-2.32-.16-4.64-.25-6.97-.04-.93-.04-1.85-.09-2.78-.04-.54.16-.68.68-.68,3.25-.04,6.51-.12,9.76-.18,2.28-.04,3.12-1.25,2.3-3.41-.12-.34-.29-.68-.43-1.02-1.11-2.69-.05-5.14,2.69-6.17,1.48-.55,3.03-.64,4.57-.32,1.98.39,3.21,1.89,3.35,3.91.09,1.18-.11,2.26-.78,3.26-.34.5-.64,1.05-.89,1.62-.45,1.05-.16,1.68.93,1.98.98.27,2.02.41,3.03.29,2.19-.3,4.39-.04,6.58-.11.43,0,.52.21.52.57,0,2.76.07,5.51.05,8.28,0,1.48-.87,1.91-2.16,1.19-.04,0-.05-.04-.07-.05-1.11-.82-2.19-1.66-3.71-.95-1.8.84-3.16,2.07-3.62,4.07-.57,2.46-.16,4.8,1.23,6.92,1.03,1.59,2.44,2.07,4.26,1.55.57-.16,1.11-.36,1.68-.5,1.77-.46,2.84.34,2.82,2.12-.02,2.85-.09,5.71-.05,8.56,0,.91-.3,1.07-1.11,1.03-1.52-.05-3.03,0-4.57,0v.02l.04-.07Z"/>
        <path class="cls-2" d="M172.42,499.14h4.83c1.89,0,2.75-1.23,2.12-3.01-.2-.55-.41-1.09-.62-1.64-.86-2.14-.25-4.16,1.71-5.37,1.98-1.23,4.16-1.37,6.33-.66,2.26.73,3.39,3.82,2.32,6.03-.37.78-.87,1.5-1.25,2.26-.66,1.34-.2,2.07,1.25,2.37,1.55.32,3.09-.02,4.62,0,1.46.02,2.91.04,4.37.02.5,0,.71.12.71.68,0,2.69.05,5.39.05,8.08,0,.57,0,1.23-.66,1.52-.61.27-1.16,0-1.64-.34-1.09-.78-2.16-1.59-3.62-.91-1.84.86-3.21,2.12-3.66,4.14-.54,2.39-.12,4.67,1.18,6.76,1.03,1.66,2.5,2.16,4.39,1.64.82-.23,1.61-.62,2.51-.57,1.43.09,1.94.59,1.93,1.98-.02,2.89-.07,5.76-.07,8.65,0,.57-.11.8-.77.8-3.16,0-6.31.04-9.49.07-.89,0-1.59-.32-1.98-1.09s-.05-1.43.46-2.03c.75-.86,1.07-1.84.61-2.91-1.05-2.46-2.73-4.32-5.49-4.69-2.96-.39-5.64,1-6.88,3.37-.89,1.71-.93,3.35.36,4.92.78.96.73,1.39,0,2.26-.23.29-.48.41-.87.39-2.66-.04-5.33-.05-7.99-.02-.82,0-1.07-.3-1.05-1.11.04-2.48,0-4.96.02-7.44,0-1.11-.21-2.1-1.32-2.66-1.07-.54-1.96-.11-2.82.54-1.28.96-1.94.98-3.09.14-2.48-1.78-3.17-6.55-1.34-8.95,1.12-1.48,2.28-1.84,4.17-1.3.86.23,1.73.43,2.59.7,1.57.48,2.57-.66,2.5-2.14-.11-2.48-.21-4.96-.29-7.42-.04-.93-.43-2.09.09-2.71.5-.59,1.69-.16,2.59-.21,1.05-.05,2.1,0,3.16,0v-.16l.04.02Z"/>
        <path class="cls-2" d="M238.57,432.16h4.92c1.66,0,2.59-1.19,2.1-2.76-.18-.59-.41-1.16-.64-1.73-1-2.46-.18-4.73,2.21-5.87,1.64-.78,3.41-.93,5.17-.54,2.8.64,4.19,3.87,2.84,6.47-.37.71-.82,1.37-1.16,2.1-.57,1.19-.16,2.05,1.11,2.25,1.03.18,2.07.25,3.14.12,2.07-.23,4.16-.02,6.22-.05.43,0,.52.2.52.57,0,2.76.07,5.51.02,8.28-.04,1.53-.95,2-2.19,1.16-1.14-.78-2.19-1.66-3.71-.96-1.73.8-3.09,1.98-3.58,3.89-.64,2.51-.23,4.92,1.16,7.12,1,1.55,2.48,2.05,4.28,1.55.59-.16,1.18-.39,1.77-.54,1.73-.39,2.75.43,2.73,2.16-.04,2.82-.11,5.64-.09,8.47,0,.64-.27.82-.78.84-3.28.02-6.58.05-9.86.04-.73,0-1.28-.46-1.59-1.11s-.14-1.25.29-1.82c1.21-1.57,1.25-2.62.23-4.32-2.28-3.76-6.62-4.71-10.06-2.19-2.59,1.89-3.05,4.65-1.19,7.22.34.48.5.93.2,1.44-.32.54-.62,1-1.41.98-2.6-.05-5.21-.05-7.81-.04-.82,0-1.11-.25-1.07-1.12.07-2.48.04-4.96.04-7.44,0-1.09-.29-2.03-1.28-2.6-1-.55-1.89-.2-2.75.43-1.61,1.18-2.66,1.03-3.98-.5-2.03-2.37-2.25-6.12-.5-8.33.95-1.21,2.12-1.73,3.67-1.3,1.02.29,2.02.59,3.05.78,1.68.3,2.44-.39,2.41-2.12-.07-2.51-.16-5.01-.23-7.53-.02-.89-.36-2.07.09-2.62s1.68-.21,2.57-.23c1.05-.02,2.1,0,3.16,0v-.16h.02Z"/>
        <path class="cls-2" d="M100.44,504.87c0-1.61.02-3.23,0-4.83,0-.54.11-.77.7-.77,3.32-.04,6.63-.12,9.93-.18,1.89-.04,2.78-1.19,2.19-2.98-.14-.46-.36-.93-.55-1.37-1.14-2.71-.09-5.21,2.71-6.24,1.52-.55,3.09-.68,4.65-.32,2.76.62,4.17,3.89,2.84,6.51-.36.68-.8,1.32-1.14,2.02-.62,1.28-.23,2.1,1.18,2.34.78.14,1.61.21,2.41.14,2.23-.18,4.46-.07,6.69-.05.52,0,.68.14.68.68,0,2.64-.07,5.26.05,7.9.04.59.05,1.34-.59,1.66-.62.32-1.27.04-1.84-.34-2.46-1.62-4.87-1.05-6.44,1.52s-1.11,7.01.98,9.18c.98,1.03,2.16,1.36,3.55,1.02.93-.23,1.78-.73,2.78-.64,1.23.11,2.07.41,2,2.03-.12,2.87-.12,5.76-.12,8.65,0,.57-.2.77-.73.77-3.28,0-6.56.04-9.86.04-.75,0-1.3-.39-1.64-1.03-.36-.68-.16-1.3.3-1.89,1.19-1.55,1.21-2.6.14-4.32-2.71-4.33-6.99-4.3-10.11-2.03-2.48,1.8-2.89,4.57-1.11,7.03.37.52.55,1.02.2,1.62-.34.61-.77.95-1.53.93-2.53-.07-5.08-.07-7.62-.05-.8,0-1.12-.16-1.11-1.07.07-2.53.02-5.08.04-7.63,0-.7-.16-1.36-.59-1.91-.78-.98-1.98-1.09-3.14-.3-2.18,1.46-3.58,1.16-4.82-1.21-1.28-2.44-1.8-4.96.04-7.4.95-1.25,2.16-1.82,3.75-1.36.91.27,1.84.54,2.76.75,1.84.41,2.73-.34,2.66-2.21-.04-.77-.07-1.55-.09-2.32v-2.32h-.18l-.02.02Z"/>
        <path class="cls-2" d="M106.35,565.97c1.71,0,3.41.04,5.12,0,1.48-.04,2.34-1.25,1.93-2.69-.18-.62-.45-1.21-.68-1.82-1-2.53-.07-4.87,2.43-5.94,1.57-.68,3.25-.8,4.9-.43,2.73.61,4.23,3.71,3.01,6.26-.36.75-.84,1.44-1.21,2.18-.68,1.32-.27,2.12,1.18,2.41,1.07.2,2.14.16,3.23.11,1.98-.11,3.96,0,5.94,0,.54,0,.57.29.57.71v6.13c0,.8.18,1.61.02,2.41-.2,1-.66,1.28-1.64.98-.48-.14-.87-.46-1.27-.77-1.07-.84-2.18-.87-3.37-.25-2.69,1.41-3.92,3.98-3.37,7.17.21,1.19.54,2.35,1.19,3.39,1.12,1.78,2.55,2.34,4.6,1.75.96-.27,1.89-.77,2.98-.45,1.11.32,1.37.61,1.36,1.75-.04,2.89-.12,5.76-.11,8.65,0,.82-.34.98-1,1h-3.35c-1.94,0-3.91,0-5.85.02-.87,0-1.59-.25-2-1.05-.43-.82-.07-1.48.48-2.1.71-.8,1-1.78.61-2.76-2.21-5.56-7.83-6.22-11.34-2.8-1.85,1.8-2.55,4.24-.5,6.51.43.46.52.98.2,1.53-.32.54-.68.95-1.44.93-2.66-.07-5.33-.07-7.99-.05-.66,0-.84-.2-.82-.84.04-2.57,0-5.15,0-7.72,0-1.09-.29-2.03-1.3-2.57s-1.89-.18-2.75.45c-1.55,1.14-2.68,1-3.91-.48-1.91-2.26-2.28-5.76-.84-7.95,1.12-1.71,2.32-2.18,4.28-1.66.89.23,1.78.5,2.68.7,1.57.36,2.48-.36,2.48-1.94s-.09-3.1-.14-4.64c-.05-1.71-.07-3.41-.16-5.1-.04-.66.21-.77.78-.77,1.71.02,3.41,0,5.12,0v-.2l-.04-.04Z"/>
        <path class="cls-2" d="M172.28,566.06h5.1c1.66-.02,2.55-1.3,2.05-2.92-.18-.59-.45-1.14-.66-1.71-.91-2.34-.21-4.35,1.98-5.56,1.85-1.02,3.83-1.18,5.83-.57,2.41.71,3.66,3.75,2.57,6.06-.39.84-.93,1.61-1.32,2.43-.55,1.18-.18,1.87,1.09,2.19.82.21,1.66.25,2.5.18,2.23-.2,4.46-.04,6.69-.07.66,0,.75.25.75.8,0,2.53.04,5.08.05,7.62v.46c-.09,1.43-.89,1.85-2.14,1.16-.04,0-.05-.04-.07-.05-1.11-.84-2.21-1.66-3.71-.98-1.77.8-3.12,2-3.6,3.96-.64,2.53-.18,4.9,1.21,7.08,1.07,1.64,2.51,2.03,4.55,1.43.91-.29,1.8-.66,2.8-.43,1.02.23,1.39.68,1.39,1.71-.02,2.91-.07,5.83-.07,8.74,0,.7-.12.96-.91.95-3.12-.04-6.26,0-9.38.04-.86,0-1.53-.29-1.93-1.03-.39-.75-.14-1.41.39-2.03.73-.84,1.03-1.78.68-2.91-.84-2.6-3.76-4.92-6.31-4.82-2.28.09-4.33.8-5.67,2.8-1.16,1.69-1.71,3.6.07,5.69.64.75.5,1.37-.02,2.07-.3.39-.64.5-1.12.5-2.64-.04-5.26-.07-7.9-.07-.7,0-.98-.23-.96-.96.04-2.44,0-4.9,0-7.35v-.75c-.18-2.05-2.03-2.94-3.75-1.8-2.16,1.44-3.62,1.12-4.82-1.23-1.25-2.44-1.78-4.96.09-7.4.96-1.27,2.21-1.73,3.76-1.32.93.25,1.84.54,2.76.75,1.82.43,2.75-.45,2.68-2.32-.14-3.09-.21-6.19-.34-9.29-.02-.57.09-.8.73-.78,1.68.05,3.35,0,5.01,0v-.21l-.05-.02Z"/>
        <path class="cls-2" d="M106.22,432.1h4.92c1.85-.02,2.75-1.3,2.14-3.07-.2-.55-.45-1.09-.66-1.62-.86-2.18-.21-4.21,1.8-5.42,2-1.18,4.17-1.36,6.35-.61,2.34.8,3.35,3.99,2.12,6.35-.37.71-.82,1.37-1.16,2.1-.52,1.14-.16,1.84,1.03,2.14.82.2,1.66.27,2.5.2,2.19-.18,4.39-.04,6.6-.09.62-.02.91.14.89.87,0,2.51-.11,5.03.07,7.53v.37c-.11,1.66-1.02,2.12-2.41,1.16-.98-.68-1.91-1.46-3.19-.98-1.69.62-3.09,1.66-3.71,3.39-1.02,2.82-.54,5.49,1.12,7.94,1,1.46,2.53,1.82,4.39,1.23.82-.27,1.62-.59,2.51-.48,1.23.14,1.71.61,1.69,1.84-.04,2.98-.09,5.96-.11,8.92,0,.59-.2.71-.73.71-3.28-.02-6.56,0-9.86,0-.73,0-1.25-.37-1.59-.96-.34-.57-.27-1.18.11-1.75,1.44-2.23,1.39-3.16-.23-5.3-3.12-4.1-7.78-3.05-10.08-.82-1.66,1.61-2.76,4.28-.61,6.6.45.48.54,1.02.18,1.61-.34.55-.7.93-1.46.91-2.69-.07-5.39-.09-8.08-.09-.61,0-.71-.2-.71-.75.02-2.57,0-5.15,0-7.72,0-.25.02-.5-.02-.75-.3-1.98-2.1-2.75-3.8-1.61-2.02,1.37-3.39,1.12-4.62-1.02-1.18-2.07-1.82-4.28-.71-6.62,1.07-2.28,2.59-2.94,4.99-2.25.82.25,1.66.5,2.51.64,1.53.25,2.32-.41,2.3-1.94,0-1.52-.09-3.03-.14-4.55-.05-1.77-.07-3.53-.16-5.3-.02-.54.14-.68.68-.68,1.71.04,3.41,0,5.12,0v-.18.04Z"/>
        <path class="cls-2" d="M238.52,499.14h4.92c1.8,0,2.68-1.18,2.14-2.89-.25-.78-.62-1.55-.89-2.34-.61-1.84.2-3.8,2.05-4.89,1.98-1.16,4.12-1.28,6.26-.59,2.26.75,3.37,3.91,2.26,6.13-.36.71-.82,1.37-1.19,2.09-.68,1.36-.21,2.14,1.27,2.44,1.89.37,3.76-.11,5.65,0,1.11.07,2.23.04,3.35.04.45,0,.68.09.68.61,0,2.69.07,5.39.04,8.08-.02,1.68-.93,2.19-2.25,1.28-1.11-.75-2.12-1.64-3.62-.96-1.77.8-3.16,2-3.64,3.92-.64,2.48-.23,4.87,1.12,7.03,1.03,1.64,2.51,2.12,4.42,1.57.86-.25,1.68-.64,2.6-.55,1.32.14,1.8.66,1.78,1.94-.04,2.89-.11,5.76-.11,8.65,0,.62-.25.82-.78.84-3.25.04-6.51.07-9.76.07-.77,0-1.37-.43-1.69-1.12s-.12-1.32.37-1.87c1.05-1.16,1.12-2.44.39-3.76-2.62-4.76-7.17-4.99-10.54-2.44-2.41,1.8-2.75,4.58-.98,6.97.37.5.55.96.21,1.52-.34.57-.66,1-1.5.96-2.51-.09-5.01-.04-7.53-.05q-1.23,0-1.23-1.27c0-2.44.02-4.9,0-7.35,0-1.07-.3-2.02-1.34-2.55-1-.5-1.87-.21-2.66.45-1.77,1.5-3.01.7-4.03-.55-1.5-1.87-2.64-5.78-.43-8.33.98-1.12,2.1-1.69,3.6-1.27,1.07.3,2.14.59,3.23.82,1.36.29,2.23-.39,2.25-1.82.02-1.39-.05-2.78-.09-4.17-.05-1.94-.09-3.91-.18-5.85-.04-.59.23-.64.7-.64h5.12v-.2.05Z"/>
        <path class="cls-2" d="M238.48,566.06c1.69,0,3.41.02,5.1,0,1.59-.02,2.46-1.25,2-2.78-.21-.68-.5-1.32-.75-1.98-.78-2.07-.18-4.05,1.71-5.24,2.03-1.28,4.26-1.44,6.51-.68,2.21.75,3.32,3.87,2.23,6.08-.36.75-.84,1.44-1.21,2.18-.62,1.25-.25,2,1.09,2.32.82.2,1.66.27,2.5.18,2.23-.21,4.46-.05,6.69-.07.5,0,.7.11.7.66,0,2.64.05,5.26.05,7.9,0,.59.07,1.32-.57,1.66s-1.27.04-1.82-.32c-2.55-1.64-4.99-1.02-6.55,1.66-1.44,2.5-.93,6.96,1.07,9.04,1.12,1.18,2.48,1.41,3.99.89.93-.3,1.85-.71,2.87-.48,1.12.25,1.44.64,1.43,1.78-.04,2.91-.11,5.83-.09,8.74,0,.64-.27.86-.78.86-3.32.04-6.63.09-9.95.04-1.41-.02-2.1-1.53-1.34-2.73,1.41-2.18,1.36-3.17-.2-5.24-3.73-4.94-10.04-2.55-11.49,1.05-.66,1.66-.55,3.1.57,4.49.77.95.75,1.3.07,2.21-.27.37-.59.5-1.03.48-2.66-.04-5.33-.05-7.99-.07-.68,0-.98-.23-.96-.98.05-2.51.04-5.03.04-7.53,0-1.07-.25-2.05-1.28-2.6-1.05-.57-1.96-.16-2.82.48-1.37,1.02-2.12,1.02-3.32.05-1.62-1.3-3.16-5.62-1.61-8.19,1.16-1.93,2.5-2.57,4.65-1.98.89.23,1.77.54,2.68.71,1.48.29,2.34-.43,2.34-1.94,0-1.27-.05-2.53-.09-3.82-.05-2.02-.09-4.03-.18-6.05-.04-.57.16-.66.66-.66,1.71.02,3.41,0,5.12,0v-.21l-.04.09Z"/>
        <path class="cls-2" d="M172.41,365.71h4.83c1.93,0,2.82-1.23,2.18-3.07-.16-.46-.36-.91-.55-1.37-1.07-2.59-.16-4.85,2.41-6.01,1.57-.71,3.25-.82,4.9-.46,2.73.59,4.21,3.76,2.98,6.3-.36.75-.84,1.44-1.21,2.18-.68,1.36-.23,2.14,1.27,2.43,1.36.27,2.71.04,4.07.02,1.68-.02,3.35.02,5.01,0,.43,0,.59.14.59.59,0,2.69.07,5.39.05,8.1,0,1.66-.93,2.19-2.25,1.3-1.14-.77-2.19-1.64-3.71-.95-1.87.87-3.25,2.18-3.66,4.24-.5,2.43-.05,4.74,1.32,6.81.96,1.46,2.43,1.94,4.12,1.52.86-.21,1.66-.68,2.59-.64,1.16.05,1.41.29,1.41,1.43-.02,3.07-.07,6.13-.05,9.2,0,.66-.21.82-.84.82-2.94,0-5.89.05-8.83.11-.84,0-1.53-.27-1.94-1.02-.43-.78-.16-1.48.39-2.12.78-.87,1-1.87.61-3.01-1.68-4.89-8.11-6.28-11.52-2.41-1.59,1.8-2.23,4.16-.32,6.26.48.54.54,1.14.27,1.8-.2.48-.45.71-1.03.71-2.69-.04-5.39-.05-8.1-.04-.64,0-.77-.21-.77-.8.04-2.26,0-4.53,0-6.79,0-.66-.05-1.3-.29-1.91-.73-1.89-2.41-2.43-4.07-1.28-1.84,1.27-2.96,1.07-4.28-.73-1.68-2.32-1.94-5.51-.61-7.56,1.12-1.75,2.35-2.25,4.35-1.71.95.25,1.87.61,2.85.75,1.44.2,2.28-.46,2.25-1.94-.07-3.12-.16-6.26-.32-9.38-.04-.91.12-1.25,1.12-1.19,1.57.09,3.16.02,4.74.02v-.21l.04.05Z"/>
        <path class="cls-2" d="M238.77,365.73h4.83c1.77,0,2.69-1.18,2.18-2.85-.18-.55-.39-1.11-.61-1.64-1.02-2.5-.14-4.8,2.28-5.92,1.62-.75,3.35-.89,5.08-.5,2.69.61,4.16,3.8,2.94,6.31-.36.71-.82,1.37-1.19,2.09-.71,1.39-.23,2.21,1.3,2.48,1.34.25,2.66.04,3.98,0,1.68-.04,3.35.04,5.01,0,.52,0,.61.21.61.66.02,2.64-.07,5.26.05,7.9.04.61.07,1.37-.66,1.71-.62.29-1.21,0-1.73-.36-2.43-1.62-4.78-1.11-6.4,1.41-1.66,2.57-1.16,7.26,1.02,9.42,1.02,1.02,2.23,1.21,3.6.87.89-.23,1.73-.71,2.69-.64,1.05.07,1.25.29,1.23,1.36-.04,3.07-.05,6.13-.04,9.2,0,.68-.16.89-.87.89-3.01,0-6.01.04-9.02.09-.77,0-1.32-.25-1.68-.93-.36-.7-.3-1.41.25-1.98,1.23-1.3,1.18-2.75.21-4.32-2.8-4.53-7.29-4.28-10.27-2.02-2.41,1.82-2.78,4.57-1.03,6.97.34.45.54.89.39,1.46-.18.7-.5,1.07-1.34,1.05-2.57-.07-5.15-.07-7.72-.04-.71,0-.96-.14-.95-.91.05-2.32,0-4.65.02-6.97,0-.7-.12-1.36-.43-1.98-.62-1.25-2.19-2.21-3.87-.98-1.93,1.41-3.25,1.14-4.48-.93-1.34-2.26-2-4.67-.55-7.17,1.11-1.93,2.48-2.41,4.62-1.8.86.25,1.71.52,2.6.66,1.57.27,2.35-.43,2.32-2.03-.05-2.66-.14-5.33-.25-7.99-.11-2.48-.12-2.48,2.3-2.48h3.53v-.16l.04.05Z"/>
        <path class="cls-2" d="M132.49,392.6v4.92c0,.46-.12.64-.62.64-3.1-.02-6.21,0-9.29,0-.75,0-1.34-.34-1.64-1-.32-.66-.18-1.3.29-1.89,1.19-1.53,1.23-2.46.27-4.16-2.26-3.96-6.88-4.89-10.38-2.1-2.34,1.85-2.73,4.55-.96,6.92.32.45.54.91.45,1.46-.12.7-.37,1.12-1.27,1.11-2.64-.09-5.26-.09-7.9-.09-.57,0-.73-.18-.71-.73.04-2.35,0-4.71,0-7.06,0-.98-.3-1.82-.93-2.55-1.02-1.21-2.21-1.36-3.51-.45-1.94,1.36-3.35,1.09-4.57-.98-1.59-2.73-1.85-5.53-.12-7.72.98-1.25,2.18-1.77,3.75-1.34,1.02.29,2.02.61,3.03.78,1.61.3,2.48-.54,2.41-2.16-.12-3.16-.21-6.31-.36-9.47-.04-.62.12-.84.8-.84,3.35-.02,6.69-.11,10.04-.18,1.71-.04,2.59-1.25,2.09-2.89-.18-.59-.45-1.14-.66-1.73-.95-2.43-.16-4.57,2.18-5.74,1.75-.87,3.64-1.03,5.51-.5,2.51.7,3.83,3.73,2.71,6.13-.36.78-.86,1.5-1.25,2.26-.64,1.27-.25,2.09,1.12,2.37.78.16,1.61.23,2.41.16,2.19-.18,4.41-.02,6.6-.09.59-.02.78.14.78.77-.02,2.51-.09,5.03.09,7.53v.37c-.07.57,0,1.27-.59,1.57-.62.32-1.28.07-1.82-.34-.91-.68-1.8-1.41-3.03-1.03-1.43.45-2.62,1.28-3.42,2.57-1.61,2.59-1.11,7.08,1.03,9.26,1.14,1.18,2.53,1.32,4.03.8.86-.29,1.68-.61,2.62-.48.68.11,1.03.37,1,1.14-.05,1.57,0,3.16,0,4.74h-.16Z"/>
        <path class="cls-2" d="M165.74,492.6c0,1.61-.04,3.23.02,4.83.02.68-.2.84-.82.84-3.23.04-6.44.12-9.67.16-1,0-1.93.14-2.35,1.12-.46,1.02-.52,2.1.14,3.1,1.27,1.93,1.14,2.8-.5,4.42-2.14,2.12-5.17,2.02-7.42,1-2.14-.96-2.82-3.78-1.55-5.76.21-.34.45-.68.62-1.03.95-1.84.21-3.01-1.85-3.03-2.64,0-5.28-.04-7.9,0-.82,0-1.03-.2-1.03-1.03.04-2.51-.02-5.01-.04-7.53,0-.59-.04-1.25.59-1.55.61-.3,1.23-.05,1.75.32.91.66,1.78,1.44,3.01,1.09,1.52-.46,2.78-1.34,3.6-2.75,1.46-2.55.93-6.94-1.11-9.04-1.11-1.16-2.41-1.43-3.89-.82-.93.39-1.85.66-2.87.29-.7-.25-1.05-.64-1.03-1.43.05-3.1.07-6.21.09-9.29,0-.66.14-.95.91-.95,2.91.04,5.83,0,8.74-.07,1.02-.02,1.62.54,2.05,1.32.41.75.23,1.5-.34,2.14-1.07,1.21-1.03,2.46-.29,3.83,2.43,4.41,7.81,5.3,11.04,1.71,1.85-2.03,2.25-4.23.45-6.31-.43-.48-.61-1-.27-1.61.34-.59.71-1,1.52-.96,2.44.07,4.9.07,7.35.05.68,0,.82.23.8.86-.04,2.32,0,4.65,0,6.97,0,1.02.37,1.87.98,2.64.84,1.03,2.1,1.21,3.23.54.05-.04.09-.07.14-.11,2.18-1.43,3.53-1.14,4.78,1.16,1.05,1.94,1.71,4.03.71,6.21-1.3,2.84-2.96,3.17-5.1,2.46-.78-.27-1.61-.48-2.43-.62-1.64-.27-2.43.5-2.39,2.16.04,1.55,0,3.1,0,4.64h.32v.04Z"/>
        <path class="cls-2" d="M165.74,626.42c0,1.61-.04,3.23,0,4.83,0,.57-.12.73-.71.75-3.19.04-6.38.11-9.58.16-1.05,0-2.12.09-2.6,1.19-.48,1.12-.43,2.26.39,3.32.91,1.18.91,2.02.05,3.21-2.21,3.05-5.67,3.16-8.36,1.78-2.07-1.05-2.59-3.73-1.32-5.67.18-.29.39-.55.55-.86.98-1.78.5-3.05-1.89-3.16-2.62-.12-5.26-.04-7.9,0-.8,0-.98-.23-.96-1,.04-2.51,0-5.01-.02-7.53,0-.59-.04-1.25.59-1.55.61-.3,1.19-.04,1.73.32.3.21.59.45.89.66.77.5,1.59.66,2.46.3,2.05-.82,3.51-2.21,3.92-4.44.39-2.19.09-4.32-1.05-6.26-1.18-2-2.71-2.53-4.87-1.69-.89.34-1.77.55-2.69.18-.64-.25-.98-.64-.96-1.39.07-3.12.09-6.26.11-9.4,0-.61.14-.84.82-.84,2.89,0,5.76,0,8.65-.09,1.09-.04,1.77.48,2.23,1.34.43.8.18,1.55-.41,2.21-.93,1.05-.96,2.19-.37,3.44,2.16,4.53,7.85,5.65,11.16,2.12,1.68-1.78,2.48-4.17.46-6.47-.41-.46-.55-.96-.23-1.52.34-.57.7-1,1.5-.98,2.44.07,4.9.07,7.35.05.68,0,.82.23.8.86-.04,2.3,0,4.58-.02,6.88,0,.84.23,1.59.66,2.28.7,1.14,2.18,2.05,3.87.82,1.91-1.39,3.26-1.11,4.48.96,1.34,2.3,2.02,4.74.46,7.26-1.14,1.85-2.43,2.3-4.51,1.71-.8-.23-1.59-.52-2.41-.66-1.87-.34-2.66.41-2.59,2.3.05,1.52,0,3.03,0,4.55h.32Z"/>
        <path class="cls-2" d="M199.8,392.6v-4.74c0-1.19-.55-1.8-1.73-2.02-.95-.18-1.84.04-2.73.34-2.48.82-3.69.25-4.6-2.21-.73-1.98-.89-3.98.11-5.92.2-.37.41-.77.68-1.09,1.18-1.46,2.32-1.64,3.92-.66.45.27.89.57,1.37.77,1.3.55,2.5,0,2.94-1.36.29-.89.27-1.84.27-2.76-.02-2.14,0-4.28-.07-6.42,0-.61.16-.78.77-.78,2.48.04,4.96,0,7.44,0,.62,0,1.11.21,1.39.73.27.48.07.96-.21,1.39-2.35,3.53-.87,7.24,3.3,8.15,3.12.68,5.76-.16,7.69-2.8,1.18-1.61,1.16-2.68-.05-4.26-.45-.59-.66-1.21-.34-1.89.34-.7.95-1.09,1.71-1.09,3.23,0,6.44.05,9.67.05.46,0,.57.2.57.61.09,3.16.21,6.31.3,9.47.02.78-.59,1.27-1.5,1.25-.66,0-1.27-.27-1.87-.46-3.33-1.16-5.33.41-6.55,3.23-.96,2.25-.25,7.12,2.43,8.69,1.98,1.16,2.91,1.18,4.39.04.54-.41,1.11-.93,1.84-.59.78.36.95,1.16,1.07,1.94.02.12,0,.25,0,.37v7.15c0,.54-.11.78-.71.77-2.41-.07-4.83.2-7.24-.2-.39-.07-.8-.04-1.19.04-.91.14-1.34.7-1.3,1.61.04.86.41,1.61.7,2.39.3.78.61,1.55.55,2.41-.11,1.82-1.21,3.23-3.03,3.64-2,.45-3.99.41-5.94-.32-2.39-.91-3.1-2.57-2.16-4.9.21-.54.45-1.07.64-1.62.55-1.66-.27-3.03-2.02-3.17-1.3-.11-2.6-.05-3.91-.07-2.02,0-4.03-.04-6.05-.02-.61,0-.8-.16-.78-.77.04-1.61,0-3.23,0-4.83h.18l.07-.05Z"/>
        <path class="cls-2" d="M165.74,559.49c0,1.59-.05,3.16.02,4.74.04.7-.12.91-.84.91-3.14,0-6.26.07-9.4.11-1.05,0-2.14.11-2.64,1.18-.52,1.12-.45,2.26.34,3.33.96,1.3.95,2.03,0,3.33-2.12,2.91-5.53,3.03-8.22,1.71-2.07-1.02-2.64-3.71-1.39-5.64.21-.34.45-.68.62-1.03.91-1.78.16-3.07-1.87-3.09-2.44,0-4.9.04-7.35.07-1.57.02-1.57.04-1.57-1.48,0-2.35-.04-4.71-.05-7.06,0-.61,0-1.23.62-1.55.59-.3,1.14,0,1.66.3.34.21.66.46.98.7.77.55,1.64.64,2.48.29,2.25-.93,3.71-2.51,3.96-5.03.23-2.16-.18-4.19-1.36-6.03-1.03-1.61-2.53-2.09-4.33-1.46-.93.32-1.85.71-2.87.34-.7-.27-1.12-.64-1.09-1.5.07-3.14.09-6.26.11-9.4,0-.62.16-.84.84-.84,3.01.02,6.01-.04,9.02-.04.91,0,1.48.59,1.84,1.32.34.68.27,1.36-.23,2-1.21,1.52-1.25,2.55-.23,4.23,2.71,4.41,6.99,4.49,10.22,2.1,2.5-1.84,2.85-4.53,1.05-7.03-.36-.5-.54-.96-.2-1.53.32-.55.66-.95,1.43-.93,2.48.07,4.96.07,7.44.04.7,0,.78.25.78.86-.04,2.3,0,4.58-.02,6.88,0,.8.23,1.53.62,2.19.93,1.57,2.46,1.87,3.94.82,1.77-1.27,3.05-1.05,4.26.77,1.68,2.48,2.14,5.8.29,8.03-1.05,1.25-2.26,1.75-3.85,1.28-.91-.27-1.84-.54-2.76-.73-1.71-.37-2.57.41-2.53,2.16.04,1.55,0,3.1,0,4.64h.32l-.04.04Z"/>
        <path class="cls-2" d="M67.54,471.3c0-1.68.04-3.35,0-5.01-.02-.66.23-.77.8-.77,2.94,0,5.89-.04,8.83-.05.98,0,1.52.64,1.91,1.39.36.68.21,1.37-.27,2-1.23,1.61-1.27,2.57-.2,4.3,2.64,4.26,8.26,4.8,11.18,1.03,1.27-1.64,2.02-3.83.11-5.99-.39-.45-.61-.91-.27-1.52.36-.62.73-1.07,1.57-1.03,2.39.07,4.78.07,7.15.05.64,0,.86.16.84.82-.04,2.3,0,4.58-.02,6.88,0,1.02.34,1.87.96,2.64,1.02,1.23,2.28,1.41,3.6.5,1.96-1.36,3.37-1.11,4.55.98,1.21,2.16,1.93,4.44.64,6.85-1.14,2.14-2.53,2.71-4.83,2.03-.86-.25-1.69-.55-2.6-.66-1.52-.18-2.3.48-2.26,2.02.07,2.94.2,5.89.3,8.83.05,1.64.04,1.62-1.55,1.64-2.94.04-5.89.07-8.83.12-2.48.05-3.55,2.02-2.21,4.12,1.39,2.19.93,3.25-.87,4.78-2.14,1.82-4.58,1.73-6.97.7-2.23-.96-2.89-3.85-1.53-5.87.12-.18.27-.34.37-.54.41-.7.86-1.43.41-2.25-.46-.86-1.34-1.05-2.23-1.05-2.64-.04-5.26-.05-7.9-.04-.73,0-1.02-.16-1-.98.04-2.53-.04-5.08-.02-7.63,0-1.52.95-2.05,2.18-1.21,1.18.8,2.26,1.68,3.8.96,1.78-.86,3.14-2.1,3.6-4.1.55-2.41.11-4.67-1.16-6.76-1.07-1.77-2.6-2.23-4.74-1.57-.77.23-1.5.55-2.34.46-.73-.07-1.19-.29-1.16-1.18.07-1.64.02-3.28.02-4.92h.14v.02Z"/>
        <path class="cls-2" d="M67.54,605.04c0-1.68.02-3.35,0-5.01,0-.57.16-.73.73-.73,2.98,0,5.96-.02,8.93-.04.95,0,1.46.64,1.85,1.34.37.68.3,1.39-.23,1.98-1.57,1.75-1,3.09-.12,4.46,2.57,4.08,7.99,4.62,10.97,1.12,1.75-2.05,1.84-4.05.25-6.21-.34-.46-.59-.93-.23-1.52.34-.57.7-1.03,1.5-1,2.41.07,4.83.07,7.26.04.7,0,.8.25.8.87-.04,2.3,0,4.58,0,6.88,0,.98.34,1.82.93,2.55,1.02,1.27,2.34,1.46,3.66.55,1.94-1.34,3.3-1.12,4.49.93,1.27,2.18,1.98,4.48.68,6.94-1.12,2.1-2.46,2.66-4.76,2.03-.86-.23-1.71-.52-2.59-.66-1.61-.25-2.39.46-2.34,2.12.09,3.03.21,6.06.3,9.11q.04,1.25-1.21,1.27c-3.01.04-6.01.07-9.02.12-1.02,0-2.07.07-2.57,1.12-.5,1.07-.37,2.16.29,3.17,1.07,1.69.96,2.69-.41,4.12-2.12,2.19-5.05,2.34-7.62,1.11-2.14-1.02-2.76-3.82-1.46-5.76.18-.25.36-.5.52-.77,1.02-1.73.27-3.09-1.75-3.12-2.66-.05-5.33-.07-7.99-.04-.84,0-1.09-.25-1.07-1.11.05-2.48-.04-4.96-.02-7.44,0-1.59.93-2.12,2.21-1.25,1.14.78,2.21,1.64,3.71.96,1.84-.84,3.21-2.12,3.66-4.16.55-2.46.09-4.8-1.28-6.92-.96-1.48-2.37-1.96-4.1-1.53-.89.21-1.73.7-2.69.62-1.09-.07-1.3-.29-1.3-1.32v-4.83h.14l-.11-.04Z"/>
        <path class="cls-2" d="M67.52,538.13v-5.12c0-.48.12-.64.62-.62,3.07.02,6.13,0,9.2,0,.87,0,1.3.64,1.68,1.28.36.62.37,1.34-.14,1.91-1.5,1.64-1.27,3.05.05,4.92,2.64,3.75,6.62,3.83,9.74,1.64,2.53-1.78,3-4.6,1.19-7.08-.36-.48-.55-.95-.23-1.53s.7-1,1.5-.98c2.41.07,4.83.07,7.26.05.64,0,.84.18.82.82-.04,2.3-.04,4.58,0,6.88,0,1.43.59,2.57,1.84,3.33.93.57,1.8.39,2.68-.21,2.03-1.39,3.37-1.16,4.62,1,1.57,2.69,1.78,5.44.16,7.58-1.05,1.39-2.18,1.84-3.89,1.41-.93-.23-1.84-.52-2.76-.73-1.77-.39-2.64.34-2.59,2.18.09,3.1.18,6.19.32,9.29.04.78-.21.98-.96.98-2.91,0-5.83.05-8.74.07h-.75c-2.32.07-3.51,2.05-2.23,3.99,1.59,2.41.89,3.75-1.36,5.31-2.14,1.48-4.49,1.28-6.69.16-2.07-1.05-2.59-3.8-1.27-5.74.12-.18.25-.36.36-.54,1.16-1.8.5-3.17-1.66-3.25-2.73-.09-5.46-.11-8.19-.11-.7,0-.89-.16-.87-.87.04-2.53-.02-5.08-.02-7.63,0-.59,0-1.23.61-1.55.59-.3,1.19-.05,1.66.3,1.12.86,2.23,1.59,3.71.89,1.84-.86,3.17-2.16,3.6-4.19.5-2.34.09-4.57-1.16-6.6-1.05-1.73-2.59-2.25-4.55-1.66-.91.27-1.78.71-2.78.5-.66-.14-.95-.41-.93-1.12.04-1.68,0-3.35,0-5.03h.12l.02.05Z"/>
        <path class="cls-2" d="M226.21,565.29c-1.55,0-3.1-.02-4.65,0-1,.02-2.05.12-2.55,1.18-.46,1.02-.34,2.05.23,3.01,1.21,2.02,1.03,3.03-.7,4.6-2.16,1.96-5.23,1.78-7.29.77-2.09-1.02-2.73-3.78-1.44-5.69.16-.23.29-.46.43-.71,1.25-2.12.12-3.3-1.94-3.35-2.57-.07-5.14,0-7.72.05-.84.02-1.09-.21-1.05-1.09.07-2.1-.02-4.21-.04-6.33,0-.43-.04-.87,0-1.3.09-1.41.89-1.84,2.14-1.12.09.05.16.09.23.14.93.66,1.82,1.46,3.1,1.02,1.64-.57,3.03-1.52,3.69-3.16,1.21-2.92.71-5.72-1.03-8.26-.95-1.39-2.39-1.73-4.05-1.28-.95.25-1.84.77-2.87.57-.7-.12-1.07-.41-1.03-1.23.09-3.16.12-6.33.12-9.49,0-.59.2-.73.73-.73,2.98,0,5.96-.04,8.93-.07.86,0,1.53.32,1.93,1.07s.11,1.44-.43,2.03c-.77.86-1.09,1.82-.64,2.91.96,2.37,2.59,4.17,5.12,4.65,2.53.48,4.85-.27,6.6-2.32,1.64-1.93,1.69-3.96.21-5.99-.37-.52-.68-1.02-.3-1.68s.84-.95,1.64-.93c2.48.05,4.96.05,7.44.02.71,0,.87.21.87.89.05,2.69.2,5.39.3,8.08.04.95.39,1.75,1.28,2.21.91.45,1.71.23,2.51-.3,2.07-1.41,3.42-1.12,4.65,1.09,1.18,2.16,1.82,4.42.55,6.79-1.12,2.09-2.51,2.64-4.78,1.98-.8-.23-1.61-.46-2.41-.62-1.69-.32-2.57.48-2.5,2.23.11,2.66.21,5.33.3,7.99.07,2.18.05,2.19-2.05,2.23-1.18.04-2.35,0-3.53,0v.09l-.02.05Z"/>
        <path class="cls-2" d="M199.8,605.27c0-1.59.02-3.16,0-4.74,0-.55.11-.75.71-.75,3.03.02,6.08,0,9.11-.04.78,0,1.39.34,1.75,1,.37.7.18,1.36-.32,1.96-1.12,1.37-1.21,2.39-.32,3.91,1.14,1.93,2.68,3.37,4.98,3.83,3.1.61,6.72-1.61,7.51-4.65.37-1.44-.07-2.66-.98-3.8-.66-.82-.61-1.32.09-2.12.27-.3.55-.43.96-.43,2.66.05,5.33.09,7.99.09.48,0,.62.12.64.62.07,2.73.2,5.46.3,8.17.04,1.03.39,1.87,1.36,2.37.95.48,1.78.16,2.59-.43,1.75-1.27,2.96-1.11,4.21.68,1.53,2.18,2.39,5.71.29,8.19-1.02,1.19-2.21,1.62-3.71,1.21-.89-.25-1.78-.52-2.68-.73-1.87-.45-2.82.41-2.73,2.34.14,3.1.21,6.19.34,9.29.04.62-.18.75-.77.77-3.1.11-6.21.12-9.29.12h-.37c-2.91.05-3.17,2.39-2.21,3.98,1.53,2.51.91,3.8-1.53,5.44-2.05,1.39-4.35,1.14-6.46.09-2.1-1.05-2.68-3.8-1.36-5.71.16-.23.32-.45.46-.7,1.02-1.85.21-3.26-1.93-3.3-2.55-.04-5.08,0-7.63,0-1.34,0-1.23.2-1.21-1.23,0-2.07-.04-4.16-.07-6.22,0-.41-.04-.8,0-1.21.09-1.41.91-1.84,2.14-1.14.05.04.11.07.16.11.95.73,1.91,1.5,3.19,1.07,1.48-.48,2.69-1.39,3.5-2.75,1.43-2.48.87-6.97-1.14-9.02-1.14-1.16-2.5-1.36-4.01-.84-.87.3-1.73.66-2.69.48-.64-.12-.96-.37-.95-1.09.05-1.61,0-3.23,0-4.83h.12l-.04.02Z"/>
        <path class="cls-2" d="M226.12,498.43h-4.74c-2.59,0-2.98,1.8-2.35,3.75.02.05.05.11.09.16.62,1.03,1.41,2.09.66,3.33-1,1.68-2.48,2.75-4.46,2.96-.93.11-1.85,0-2.76-.2-2.1-.45-3.55-2.37-3.44-4.53.02-.46.21-.84.43-1.19.23-.39.54-.77.77-1.16,1.09-1.87.27-3.33-1.91-3.35-2.32-.02-4.65,0-6.97.04-1.84.04-1.82.05-1.84-1.73,0-1.89-.05-3.78-.07-5.67,0-.43-.04-.87,0-1.3.09-1.43.89-1.84,2.14-1.14.05.04.11.05.16.09.95.73,1.89,1.5,3.19,1.09,1.52-.5,2.75-1.41,3.53-2.82,1.39-2.5.82-6.88-1.18-8.95-1.16-1.21-2.55-1.36-4.1-.82-.87.3-1.73.66-2.69.45-.61-.14-.87-.41-.87-1.07.07-3.23.11-6.44.12-9.67,0-.54.18-.68.68-.68,3.03,0,6.06,0,9.11-.04.84,0,1.44.37,1.8,1.07.34.68.12,1.3-.34,1.89-1.18,1.48-1.23,2.41-.25,4.07,2.48,4.16,6.49,4.82,10.11,2.35,2.68-1.82,3.1-4.62,1.21-7.21-.37-.52-.48-.98-.14-1.53.32-.5.61-.93,1.36-.91,2.6.07,5.21.07,7.81.05.62,0,.75.2.77.78.07,2.73.2,5.44.3,8.17.04.96.41,1.75,1.3,2.21.91.48,1.71.21,2.51-.32,2.03-1.39,3.37-1.07,4.67,1.09,1.62,2.71,1.59,5.58-.02,7.65-.96,1.23-2.18,1.66-3.69,1.28-.93-.23-1.84-.52-2.76-.75-1.84-.43-2.76.39-2.69,2.28.12,3.1.2,6.19.34,9.29.04.66-.16.84-.8.84-1.64-.04-3.28,0-4.92,0v.16l-.05-.02Z"/>
        <path class="cls-2" d="M133.56,392.53v-4.46c0-1.71-1.09-2.64-2.82-2.34-.73.12-1.43.37-2.14.57-1.66.46-2.75.07-3.57-1.46-1.16-2.18-1.46-4.42-.43-6.76.21-.48.52-.93.87-1.3,1.36-1.43,2.12-1.52,3.8-.46.32.2.62.39.96.57,1.71.89,3.3.09,3.5-1.84.23-2.23,0-4.46.05-6.69.04-.84-.34-1.91.14-2.43.5-.54,1.59-.14,2.41-.16,1.89,0,3.78.02,5.67.05,1.23.02,1.75.93,1.16,2.03-.07.14-.16.27-.25.39-1.82,2.68-.84,6.17,2.21,7.35,3.51,1.36,6.74.66,9.01-2.43,1.12-1.53,1.12-2.69-.05-4.19-.48-.61-.7-1.25-.34-1.98s1.02-1.05,1.82-1.05c3.14.02,6.26.05,9.4.05.57,0,.64.23.66.71.09,3.16.21,6.31.3,9.47.02.71-.59,1.25-1.46,1.16-.61-.05-1.19-.25-1.8-.43-4.26-1.27-7.86,2.07-7.01,6.49.16.78.29,1.59.54,2.34.54,1.64,1.64,2.8,3.19,3.55,1.21.59,2.32.46,3.37-.37.57-.45,1.19-1.11,1.98-.64.78.45.95,1.32.95,2.19,0,2.43-.02,4.83,0,7.26,0,.57-.14.75-.73.73-2.37-.07-4.76.12-7.15-.2-2.12-.29-2.87.73-2.19,2.78.18.55.41,1.09.61,1.64,1.07,2.96-.14,5.21-3.23,5.74-1.82.32-3.64.23-5.39-.45-2.28-.89-3-2.5-2.14-4.8.21-.55.45-1.09.64-1.64.62-1.78-.27-3.19-2.16-3.32-1.21-.07-2.43-.04-3.62-.05-1.98,0-3.98-.05-5.96,0-.78.02-.91-.25-.89-.95.05-1.59,0-3.16,0-4.74h.09v.04Z"/>
        <path class="cls-2" d="M67.63,392.62v-4.37c.04-1.94-1.11-2.89-3.01-2.5-.71.16-1.43.39-2.14.57-1.52.39-2.51,0-3.3-1.34-1.05-1.8-1.39-3.73-.96-5.8.3-1.5,1.19-2.51,2.48-3.3.66-.41,1.25-.43,1.91,0,.61.37,1.19.77,1.84,1.07,1.57.73,3.21-.12,3.3-1.87.12-2.44.04-4.89.05-7.35,0-1.34.67-2.02,2.02-2.02h6.13c1.28,0,1.8.86,1.21,2.02-.07.14-.14.27-.25.39-2.41,2.68-.05,6.94,2.8,7.69,3.33.86,6.22.09,8.24-2.5,1.3-1.66,1.32-2.8.11-4.53-.43-.61-.75-1.25-.39-1.98.37-.77,1.09-.91,1.89-.91,3.01.02,6.01.04,9.02,0,.7,0,.98.14.98.89.05,3.07.14,6.13.27,9.2.04.91-.52,1.18-1.23,1.27-.7.09-1.34-.23-1.98-.41-3.87-1.12-6.97,1-7.08,5.06-.07,2.66.52,5.19,2.94,6.85,1.59,1.09,2.8,1.11,4.33,0,1.55-1.11,2.78-.66,2.91,1.27.16,2.62.05,5.26.07,7.9,0,.36-.2.41-.46.41-2.44.04-4.89.3-7.33-.14-2.19-.41-3.1.68-2.44,2.8.34,1.09.96,2.07,1,3.26.05,1.94-.87,3.35-2.75,3.91-2.21.66-4.41.54-6.53-.37-2.03-.86-2.69-2.46-1.93-4.51.18-.48.39-.96.59-1.44.86-2.16-.16-3.69-2.51-3.69-3.03-.02-6.08-.04-9.11,0-.73,0-.87-.23-.84-.89.05-1.55,0-3.1,0-4.65h.18l-.02.02Z"/>
        <path class="cls-2" d="M93.92,431.37h-4.65c-1.02,0-2.05.12-2.51,1.19-.45,1.02-.39,2.09.23,3.01,1.39,2.07.86,3.07-.68,4.49-2.12,1.98-4.62,1.94-7.1.95-2.25-.89-3-3.83-1.68-5.83.16-.25.36-.5.52-.77,1-1.73.59-3-1.77-3.12-2.62-.14-5.26-.09-7.9-.07-.84,0-1.11-.21-1.09-1.11.05-2.02-.02-4.03-.05-6.05,0-.43-.05-.87-.02-1.3.04-.61,0-1.3.64-1.62.62-.3,1.19,0,1.73.36,2.43,1.59,4.51,1.19,6.26-1.18,1.91-2.6,1.37-7.72-1.03-9.84-.93-.82-2.03-1.02-3.21-.75-.62.14-1.23.37-1.85.55-.75.21-1.48.14-2.18-.18-.52-.23-.8-.62-.78-1.23.05-2.98.11-5.96.11-8.93,0-.66.23-.86.84-.86,3.35.04,6.69.04,10.04.07,1.12,0,1.66.8,1.37,1.89-.07.29-.21.59-.39.84-1.46,2.14-.95,4.83,1.19,6.3,2.84,1.93,5.83,1.85,8.83.59,2.28-.96,3.25-3.46,2.46-5.9-.29-.87-.66-1.73-.93-2.6-.25-.84-.02-1.21.8-1.11,2.78.36,5.56.2,8.35.2.55,0,.48.3.48.66v7.06c0,.54,0,1.05.2,1.55.54,1.36,1.91,1.87,3.17,1.19.36-.2.66-.45,1-.68,1.02-.7,1.73-.71,2.73-.05,2.87,1.91,3.37,7.24.93,9.63-.87.86-1.85,1.18-3.05.87-1.11-.29-2.19-.62-3.32-.82-1.59-.29-2.44.59-2.37,2.21.12,3.19.21,6.38.36,9.56.02.57-.14.68-.66.68-1.68-.02-3.35,0-5.01,0,0,.05,0,.11,0,.14Z"/>
        <path class="cls-2" d="M138.68,399.18h4.83c1.73.02,2.46,1.19,1.43,2.57-2.14,2.8-.23,6.26,2.48,7.26,2.35.86,4.6.82,6.88.05,2.73-.93,3.92-3.53,2.98-6.26-.29-.82-.61-1.61-.86-2.44-.27-.96-.05-1.3.89-1.18,2.71.37,5.44.18,8.17.2.55,0,.66.21.66.71-.04,2.39-.04,4.78-.05,7.15,0,1.03.25,1.96,1.21,2.55,1,.61,1.87.27,2.73-.34,1.78-1.27,2.94-1.09,4.21.7,1.41,1.98,2.25,5.37.64,7.65-1.21,1.75-2.43,2.23-4.46,1.66-.89-.25-1.77-.55-2.68-.7-1.57-.27-2.37.45-2.34,2.03.05,2.1.14,4.21.21,6.31.04,1.14.05,2.3.12,3.44.04.55-.18.66-.68.68-3.19.04-6.38.12-9.58.16-1.05,0-2.14.07-2.62,1.18-.5,1.12-.45,2.26.37,3.32.93,1.21.93,2.05.02,3.28-2.18,2.94-5.56,3.1-8.29,1.75-2.07-1.03-2.62-3.71-1.36-5.65.2-.3.41-.62.59-.95,1.02-1.8.29-3-1.89-3.09-2.57-.11-5.14-.05-7.72.02-.93.02-1.21-.2-1.18-1.18.07-2.48-.02-4.96,0-7.44,0-1.53.91-2.09,2.14-1.25,1.18.78,2.25,1.71,3.8.98,1.85-.87,3.26-2.18,3.64-4.26.46-2.5.07-4.87-1.44-6.97-.96-1.34-2.32-1.77-3.92-1.34-.59.16-1.18.36-1.77.54-.68.2-1.36.12-2-.14-.59-.23-.91-.62-.89-1.36.07-2.94.11-5.89.09-8.83,0-.75.25-.86.89-.84,1.59.05,3.16,0,4.74,0l-.02.02Z"/>
        <path class="cls-2" d="M204.85,399.18h4.83c.7,0,1.32.16,1.66.8.36.68.21,1.41-.3,1.89-1.84,1.69-.54,5.3,1.27,6.46,2.8,1.8,5.67,1.75,8.58.59,2.46-.98,3.48-3.51,2.62-6.06-.29-.84-.64-1.68-.89-2.53-.25-.89-.02-1.25.86-1.14,2.71.36,5.44.2,8.17.2.55,0,.57.29.57.7,0,2.48-.02,4.96,0,7.44,0,1.71,1.18,2.85,2.64,2.62.7-.11,1.21-.59,1.77-.96,1-.7,1.75-.7,2.71,0,2.69,1.89,3.32,6.81,1.19,9.29-.96,1.12-2.14,1.5-3.57,1.12-.89-.25-1.78-.5-2.68-.71-1.89-.46-2.85.37-2.76,2.3.12,3.03.2,6.06.36,9.1.04.84-.21,1-1,1-3.1,0-6.21.07-9.29.12-2.59.05-3.62,1.96-2.28,4.19,1.19,2,1.05,2.84-.59,4.46-2.19,2.19-5.64,1.85-7.51.84-2.07-1.14-2.6-3.78-1.27-5.74.21-.3.41-.62.55-.96.77-1.71-.02-2.96-1.93-2.98-2.69-.04-5.4-.04-8.1.02-.73,0-.93-.2-.91-.93.04-2.51-.04-5.03-.05-7.53,0-.59,0-1.27.61-1.55.59-.27,1.19-.04,1.75.32,2.5,1.66,4.71,1.18,6.42-1.37,1.69-2.53,1.18-7.38-1.03-9.49-1.14-1.09-2.5-1.23-3.96-.73-.84.29-1.68.62-2.6.46-1.19-.21-1.61-.62-1.61-1.82.02-2.89.07-5.76.07-8.65,0-.59.14-.8.78-.78,1.64.05,3.28,0,4.92,0v.04Z"/>
        <path class="cls-2" d="M200.35,459.37c0-1.52-.09-3.05.02-4.55.09-1.16-.98-2.34-2.14-2.53-.84-.14-1.66-.07-2.46.18-3.32,1-4.49.3-5.39-3.1-.46-1.77-.34-3.48.54-5.12.43-.78,1.02-1.39,1.77-1.85.7-.43,1.37-.48,2.09-.04.61.37,1.19.77,1.84,1.07,1.46.7,2.73.09,3.16-1.46.21-.75.25-1.52.23-2.3,0-2.23,0-4.46-.05-6.69,0-.57.11-.8.75-.8,2.55.04,5.08,0,7.63,0,1.28,0,1.73.78,1.14,1.91-.04.09-.09.18-.16.23-2.87,2.68-.3,7.6,3.3,8.19,3.26.54,6.3-.54,7.94-3.26.86-1.43.82-2.44-.25-3.75-.5-.62-.8-1.3-.41-2.05.39-.73,1.07-1.07,1.93-1.07,3.01.04,6.01.07,9.02.07.61,0,.84.14.86.8.07,3.12.21,6.26.32,9.38.04.77-.59,1.28-1.52,1.16-.64-.07-1.27-.27-1.87-.48-3.32-1.16-5.28.36-6.56,3.21-1.09,2.41.14,7.31,2.68,8.81,1.71,1.02,2.73,1.05,4.33-.12.2-.14.39-.29.61-.41.8-.45,1.41-.2,1.57.71.09.52.04,1.05.04,1.57v6.97c0,.55-.12.75-.71.73-2.28-.09-4.58.11-6.87-.14-1.32-.14-2.07.52-2.66,1.57-.54.98-.29,1.8.36,2.66,1.44,1.89.98,4.23-1.11,5.78-2.98,2.21-7.44.98-8.9-2.43-.41-.95-.21-1.82.32-2.64.32-.5.64-.96.71-1.59.23-1.98-.7-3.09-2.69-3.1-2.91-.04-5.83-.04-8.74,0-.7,0-.91-.16-.87-.87.05-1.55.02-3.1.02-4.65h.18l.04.02Z"/>
        <path class="cls-2" d="M105.96,498.16h-4.74c-.5,0-.7-.12-.71-.66-.07-3.19-.2-6.38-.3-9.56-.02-.62.34-.89.84-1.05.48-.16.98-.09,1.46.05.29.09.59.16.89.25,4.19,1.25,7.58-1.53,7.13-5.92-.23-2.25-.78-4.39-2.78-5.83-1.61-1.16-2.96-1.25-4.41-.18-1.64,1.19-3.03.64-3.14-1.39-.14-2.53-.04-5.08-.05-7.63,0-.41.21-.45.52-.45,2.57.07,5.14-.18,7.7.16,1.27.16,2.12-.34,2.73-1.44.57-1.03.41-1.89-.3-2.8-1.53-1.94-.86-4.55,1.48-5.96,2.96-1.8,6.71-.78,8.38,2.26.57,1.05.5,2.07-.16,3.05-.25.39-.54.75-.62,1.23-.37,1.84-.05,3.48,2.66,3.37,3.03-.11,6.08,0,9.11-.04.7,0,.95.14.93.89-.11,2.98-.09,5.96-.21,8.92-.12,2.84,1.57,3.07,3.48,2.94.62-.04,1.25-.32,1.85-.52,1.48-.48,2.57-.14,3.3,1.21,1.27,2.28,1.61,4.65.46,7.08-.18.39-.43.75-.7,1.09-1.23,1.5-2.28,1.66-3.92.64-.46-.29-.95-.59-1.46-.78-1.25-.5-2.39.04-2.82,1.3-.3.89-.3,1.82-.29,2.75.02,2.1.02,4.21.05,6.33,0,.45,0,.77-.62.73-2.39-.14-4.76-.05-7.15.05-.61.04-1.21.04-1.61-.66-.39-.7.04-1.12.32-1.61,1.64-2.73,1.34-5.85-.78-7.67-1.48-1.25-3.26-1.37-5.08-1.23-3.23.23-5.49,2.14-6.17,5.19-.2.87-.12,1.71.41,2.48.27.37.46.8.62,1.23.45,1.14-.14,2.07-1.37,2.09-1.64.04-3.28,0-4.92,0v.07h0Z"/>
        <path class="cls-2" d="M165.84,437.95v4.28c0,1.23-.54,1.73-1.75,1.52-.64-.11-1.25-.34-1.87-.52-2.73-.75-4.46.04-5.9,2.46-1.59,2.64-.57,8.42,2.78,9.92,1.32.59,2.46.66,3.62-.27.55-.43,1.14-1.07,1.89-.68.77.41.61,1.27.61,2.02,0,2.43-.02,4.83,0,7.26,0,.64-.16.86-.82.82-2.35-.07-4.71-.05-7.06-.16-1.25-.05-1.85.62-2.37,1.57-.45.82-.37,1.55.16,2.34,1.91,2.75.78,5.81-2.46,6.85-3.1.98-5.81-.16-7.31-3.07-.5-.98-.46-1.93.25-2.76.93-1.07,1.02-2.28.46-3.48s-1.69-1.5-2.94-1.5c-2.76.02-5.51,0-8.28.02-.66,0-.82-.18-.8-.82.07-2.89.09-5.76.12-8.65.02-2.09-1.5-3.35-3.57-2.94-.7.14-1.37.37-2.05.57-1.52.45-2.64.09-3.41-1.27-1.28-2.26-1.66-4.64-.5-7.08.16-.36.39-.7.64-1,1.25-1.53,2.32-1.71,3.98-.66.21.12.41.27.62.39,1.98,1.18,3.69.34,3.83-1.96.11-1.64.02-3.28.02-4.92,0-1.14.02-2.3,0-3.44,0-.46.12-.66.62-.64,2.66,0,5.33-.02,7.99,0,1.14,0,1.53.93.86,1.98-.45.68-.98,1.27-1.18,2.07-.55,2.09.77,4.87,2.91,5.74,3.33,1.36,6.72.87,9.06-2.19,1.28-1.69,1.3-2.75.02-4.42-.45-.59-.64-1.23-.3-1.91s.95-1.07,1.73-1.07c3.16,0,6.33.07,9.49.07.61,0,.7.25.7.77-.02,1.59,0,3.16,0,4.74h.25l-.04.04Z"/>
        <path class="cls-2" d="M126.96,599.42c1.61,0,3.23.04,4.83,0,.62-.02.77.2.75.78-.09,2.98-.09,5.96-.21,8.92-.12,2.91,1.5,3.07,3.42,3.01.66,0,1.27-.29,1.87-.52,1.48-.54,2.57-.2,3.32,1.12,1.28,2.26,1.64,4.62.52,7.08-.27.57-.61,1.09-1.07,1.5-1.37,1.23-1.94,1.28-3.53.3-.5-.3-.98-.64-1.53-.84-1.23-.43-2.32.05-2.76,1.27-.32.93-.32,1.89-.3,2.84.02,2.1.02,4.21.05,6.33,0,.41,0,.73-.57.7-2.41-.16-4.83-.09-7.24.07-.16,0-.3,0-.46-.04-1.14-.12-1.57-.91-.96-1.87.84-1.3,1.41-2.64,1.27-4.24-.23-2.5-1.68-4.32-4.14-4.83-2.53-.54-4.92-.2-6.99,1.5-1.27,1.03-1.85,2.43-2.07,4.01-.11.82.16,1.52.59,2.18,1.37,2.03.57,3.26-1.73,3.19-2.91-.11-5.83,0-8.74.04-.62,0-.77-.21-.77-.8-.07-3.12-.18-6.26-.3-9.38-.04-.84.5-1.05,1.14-1.16.77-.14,1.46.2,2.16.41,1.8.59,3.53.73,5.01-.73,1.62-1.61,2.34-3.55,1.93-5.81-.25-1.43-.52-2.85-1.48-4.05-.57-.71-1.25-1.25-2.05-1.69-1.28-.7-2.44-.59-3.62.29-1.62,1.23-3.01.64-3.12-1.41-.14-2.48-.04-4.96-.04-7.44,0-.68.5-.52.86-.52,2.53.02,5.08,0,7.62.14,1.21.05,1.91-.46,2.48-1.41.54-.89.52-1.71-.12-2.57-1.66-2.26-1.09-4.8,1.37-6.26,3.09-1.82,6.85-.7,8.42,2.51.5,1.03.25,1.98-.32,2.89-.23.37-.48.71-.57,1.14-.5,2.23.27,3.26,2.53,3.32,1.52.04,3.03,0,4.57,0h0l.02.04Z"/>
        <path class="cls-2" d="M232.01,504.9c0,1.46-.02,2.91,0,4.37.02,1.16-.54,1.71-1.68,1.52-.61-.11-1.19-.29-1.78-.46-3.26-.95-5.9.46-6.63,3.83-.62,2.91,0,5.65,2.3,7.7,1.75,1.57,3.35,1.73,4.98.32.43-.37.98-.8,1.59-.48.59.3.59.98.59,1.57,0,2.51-.05,5.03-.02,7.53,0,.68-.11.96-.89.93-2.28-.09-4.58-.02-6.88-.12-1.27-.05-1.94.57-2.48,1.55-.52.93-.32,1.75.34,2.55,1.41,1.8,1.11,4.01-.73,5.55-2.94,2.48-7.65,1.43-9.24-2.1-.48-1.05-.16-2.02.45-2.87.61-.86.7-1.77.57-2.75-.14-1.11-1.21-1.85-2.64-1.85-2.89-.02-5.76-.07-8.65,0-.91,0-1.05-.32-1.03-1.11.11-2.89.14-5.76.2-8.65.02-1.48-.82-2.43-2.28-2.66-.84-.14-1.66,0-2.48.23-.5.16-1,.34-1.52.43-1.07.2-2.02-.11-2.59-1.05-1.53-2.5-1.94-5.1-.46-7.79.18-.32.39-.64.64-.91,1.25-1.32,2.21-1.44,3.75-.48.41.27.84.54,1.28.75,1.44.64,2.66.04,3.09-1.48.21-.75.25-1.52.23-2.3,0-2.19,0-4.41-.07-6.6,0-.66.12-.91.86-.91,2.44.04,4.9,0,7.35,0,.57,0,1.16,0,1.46.59.29.55.09,1.18-.3,1.55-2.8,2.68-.39,7.56,3.32,8.2,3.21.54,5.97-.41,7.74-2.96,1.09-1.57,1.05-2.64-.12-4.12-.48-.61-.71-1.27-.36-1.98.36-.68.96-1.05,1.73-1.03,3.16.02,6.33.07,9.49.07.48,0,.55.2.55.61v4.83h.36Z"/>
        <path class="cls-2" d="M198.62,471.48c0,1.39.04,2.78,0,4.17-.07,2.16,1.16,3.19,3.3,2.69.62-.14,1.25-.36,1.87-.54,1.46-.43,2.59-.04,3.33,1.25,1.28,2.23,1.62,4.57.57,6.99-.25.57-.62,1.07-1.07,1.5-1.39,1.27-1.91,1.32-3.51.34-.34-.21-.68-.43-1.03-.61-1.69-.89-3.16-.14-3.5,1.73-.16.93-.11,1.85-.09,2.78.04,1.93.02,3.85.04,5.76,0,.36.04.66-.5.66-2.44-.04-4.89,0-7.33.05-1.66.04-2.16-.95-1.23-2.32,1.03-1.52,1.27-3.12.8-4.85-.64-2.35-2.23-3.66-4.62-3.91-2.82-.3-5.4.2-7.21,2.62-1.18,1.59-1.59,3.33-.5,5.17.18.32.29.68.43,1.02.48,1.3-.02,2.1-1.44,2.14-2.35.05-4.71.04-7.06.04-.84,0-1.68-.04-2.51,0-.46,0-.64-.12-.66-.62-.07-3.16-.2-6.31-.3-9.47-.02-.8.45-1.23,1.36-1.27.73-.04,1.39.25,2.07.48,3.03,1.02,4.99,0,6.47-3.09,1.07-2.21.2-7.35-2.62-8.95-1.71-.98-2.64-1.03-4.24.12-1.48,1.07-2.73.66-2.87-1.16-.2-2.66-.07-5.33-.11-7.99,0-.43.29-.39.57-.39,2.51.05,5.03-.14,7.53.12,1.23.12,2.07-.29,2.66-1.39.55-1.05.55-1.68-.18-2.64-1.48-1.98-1.21-4.28.8-5.74,3.05-2.23,7.15-1.89,9.22,2.46.43.89.18,1.71-.39,2.43-.93,1.11-1,2.34-.43,3.55.57,1.18,1.69,1.39,2.91,1.39,2.98-.02,5.96,0,8.93-.02.61,0,.77.14.75.77-.05,1.59-.02,3.16-.02,4.74h-.18v-.04Z"/>
        <path class="cls-2" d="M264.84,471.46c0,1.39.02,2.78,0,4.19-.05,2.26,1.11,3.21,3.35,2.71.66-.14,1.3-.37,1.96-.55,1.44-.39,2.46-.04,3.14,1.25,1.37,2.55,1.68,5.14.09,7.74-.34.57-.8,1.02-1.36,1.37-.77.52-1.52.54-2.34.07-.75-.43-1.41-1-2.28-1.21-1.11-.27-1.94.07-2.44,1.11-.45.93-.43,1.93-.43,2.91,0,2.1,0,4.21.04,6.33,0,.62-.11.86-.78.84-2.41-.04-4.83.07-7.24.02-1.46-.02-1.89-.87-1.05-2.12.98-1.44,1.34-2.98.98-4.65-.54-2.55-1.94-3.89-4.78-4.3-3-.43-6.53.66-7.83,3.8-.57,1.39-.8,2.8.2,4.14.2.27.3.61.41.93.46,1.19-.11,2.1-1.43,2.12-3.23.05-6.46.02-9.67.05-.52,0-.61-.21-.62-.66-.07-3.19-.18-6.38-.27-9.58-.02-.82.84-1.34,1.84-1.09.96.23,1.91.5,2.85.75,1.28.34,2.39-.04,3.35-.87,2.23-1.94,2.62-4.39,1.98-7.17-.52-2.19-1.62-3.85-3.71-4.76-1.03-.45-2.05-.41-2.98.32-.2.16-.39.3-.61.43-.45.29-.87.7-1.43.41-.57-.29-.64-.87-.66-1.44-.09-2.64-.14-5.26-.27-7.9-.04-.66.16-.82.8-.82,2.51.05,5.01-.05,7.53.18,1.25.11,1.73-.77,2.23-1.62.46-.8.36-1.57-.18-2.34-1.77-2.53-1-5.24,1.82-6.56,3.14-1.46,6.56-.18,7.99,2.98.41.93.27,1.82-.34,2.6-.45.59-.7,1.21-.73,1.96-.09,1.85.68,2.71,2.55,2.71h6.69c.93,0,1.85.04,2.78,0,.64-.04.86.16.84.82-.04,1.64,0,3.28,0,4.92h-.04.04Z"/>
        <path class="cls-2" d="M132.35,538.13v4.74c0,1.44.82,2.28,2.28,2.39,1.02.07,1.94-.09,2.89-.46,1.57-.62,2.73-.25,3.51,1.23,1.25,2.35,1.57,4.78.27,7.26-.25.46-.55.89-.96,1.23-1.25,1.12-1.96,1.19-3.39.32-.32-.2-.62-.39-.95-.57-1.87-1.03-3.37-.27-3.66,1.85-.14,1.11-.04,2.23-.05,3.33v4.92c0,.41,0,.71-.57.68-2.32-.09-4.64-.14-6.96.11-.21.02-.43,0-.64-.04-1.32-.18-1.71-.93-.98-2.03.89-1.34,1.34-2.75,1.14-4.37-.32-2.55-1.98-4.32-4.53-4.65-3.03-.39-5.8.12-7.62,2.84-1.07,1.59-1.61,3.37-.25,5.17.14.2.23.43.32.66.54,1.34-.07,2.25-1.53,2.26-3.12.04-6.26.04-9.38.05-.52,0-.77-.07-.78-.7-.07-3.19-.2-6.38-.3-9.56-.02-.75.73-1.28,1.68-1.12.64.11,1.27.3,1.87.5,2.89,1,4.89-.07,6.22-2.89,1.59-3.33-.09-8.15-3.26-9.56-1.18-.54-2.26-.5-3.28.34-.05.04-.11.07-.16.11-1.59,1.14-2.96.57-3.09-1.43-.14-2.5-.04-5.01-.05-7.53,0-.57.39-.45.7-.45,2.6,0,5.21.04,7.81.07,1.44,0,2.03-.39,2.62-1.71.3-.71.32-1.41-.18-2-1-1.16-1.53-2.39-.89-3.91.73-1.77,2.07-2.82,3.91-3.23,2.71-.61,4.9.37,6.4,2.76.73,1.14.62,2.21-.04,3.3-.23.37-.48.71-.61,1.14-.57,2.16.32,3.39,2.57,3.41,3.07.02,6.13.02,9.2-.04.75,0,.93.21.91.93-.05,1.55,0,3.1,0,4.65h-.18l-.02-.04Z"/>
        <path class="cls-2" d="M232.01,571.82c0,1.43-.02,2.85,0,4.28.02,1.27-.64,1.85-1.89,1.55-.87-.21-1.73-.48-2.59-.71-1.73-.46-3.09.2-4.21,1.46-2.03,2.3-1.91,4.87-.98,7.56.61,1.77,1.71,3.03,3.44,3.75,1.09.45,2.09.3,3.05-.41.57-.43,1.14-1.16,1.94-.71.77.43.55,1.28.55,2.03,0,2.39-.04,4.78,0,7.17,0,.68-.2.82-.84.8-2.51-.04-5.01-.05-7.53-.02-1.46.02-2.62,2.03-1.98,3.35.07.16.16.34.3.46,2.55,2.41.07,6.01-2.37,6.79-2.91.93-5.3.12-7.04-2.37-.84-1.19-.82-2.35-.04-3.53.39-.59.64-1.18.68-1.89.09-1.75-.87-2.8-2.64-2.82-2.89-.04-5.76-.09-8.65-.02-.95.02-1.11-.29-1.07-1.14.11-2.73.16-5.46.2-8.19.04-2.32-1.53-3.57-3.8-3.05-.7.16-1.36.39-2.05.59-1.39.37-2.46,0-3.16-1.25-1.25-2.18-1.62-4.44-.64-6.83.3-.73.71-1.36,1.32-1.87,1.27-1.07,1.91-1.12,3.32-.27.48.29.95.61,1.44.84,1.34.59,2.57.02,3-1.37.27-.84.29-1.71.27-2.57,0-2.19-.02-4.41-.07-6.6,0-.55.11-.75.71-.75,2.6.04,5.21,0,7.81.02,1.12,0,1.5.59,1.11,1.62-.07.2-.14.43-.29.57-2.71,2.71-.23,7.24,2.92,7.99,3.39.8,6.53-.25,8.28-3.03.96-1.52.93-2.5-.16-3.89-.5-.64-.78-1.3-.39-2.05.39-.73,1.05-1.05,1.91-1.05,3.03.04,6.06.07,9.11.05.62,0,.77.21.77.78-.04,1.57,0,3.16,0,4.74h.3l-.05-.04Z"/>
        <path class="cls-2" d="M172.16,631.94c-1.55,0-3.1-.04-4.65,0-.73.04-.84-.25-.86-.91-.05-2.98-.16-5.94-.27-8.92-.04-1.14.46-1.68,1.61-1.53.66.09,1.32.29,1.96.52,3.39,1.14,5.4-.78,6.38-3.39,1.14-3.07-.23-7.17-2.85-8.76-1.53-.93-2.59-.91-3.92.07-.59.43-1.19,1.09-1.98.66-.8-.45-1.12-1.3-1.14-2.21v-6.22c0-1.53,0-1.52,1.5-1.5,2.48.02,4.96.04,7.44.02,1.46,0,2.69-2.12,2-3.42-.05-.11-.12-.21-.21-.3-2.64-2.44-.27-6.31,2.82-7.04,2.91-.7,5.21.32,6.76,2.89.7,1.14.61,2.14-.14,3.17-.3.39-.57.8-.64,1.32-.32,1.94.75,3.3,2.73,3.33,3.03.05,6.08.09,9.11.07.8,0,1.11.12,1.05,1.03-.12,2.91-.12,5.83-.21,8.74-.05,2.02,1.12,3.07,3.1,2.68.7-.14,1.37-.37,2.05-.59,1.48-.43,2.62,0,3.39,1.34,1.25,2.21,1.57,4.51.54,6.92-.21.48-.52.91-.87,1.3-1.46,1.5-2.1,1.57-3.87.46-.34-.21-.68-.43-1.03-.61-1.57-.77-3-.04-3.32,1.69-.18.95-.12,1.91-.11,2.87.05,1.93,0,3.85.04,5.76,0,.52-.12.7-.68.7-2.32-.05-4.64,0-6.97.05-1.93.05-2.41-.86-1.36-2.46.95-1.44,1.16-2.98.73-4.62-.54-2.14-1.87-3.53-4.08-3.91-3.05-.52-5.85-.05-7.81,2.59-1.14,1.55-1.53,3.28-.46,5.1.18.32.29.68.43,1.02.5,1.34,0,2.1-1.44,2.14-1.59.04-3.16,0-4.74,0h0l.02-.05Z"/>
        <path class="cls-2" d="M68.18,459.16v-4.08c0-2.02-1.52-3.3-3.51-2.89-.75.14-1.48.41-2.23.59-1.52.39-2.5,0-3.3-1.34-1.02-1.68-1.32-3.53-1.05-5.44.23-1.69,1.21-2.92,2.73-3.75.55-.3,1.05-.32,1.57,0,.59.34,1.14.73,1.75,1.03,1.82.95,3.51.04,3.58-2.03.09-2.41,0-4.83,0-7.24,0-1.22.61-1.83,1.82-1.82,2.19,0,4.41,0,6.6.05,1.28.04,1.68.78,1,1.82-2.57,3.89-.95,7.62,3.67,8.45,2.94.54,5.72-.64,7.33-3.09,1.02-1.53.98-2.59-.14-4.05-.46-.61-.73-1.25-.36-1.96.37-.71,1-1.05,1.82-1.03,3.07.02,6.13.04,9.2,0,.64,0,.77.23.78.78.09,3.16.23,6.31.32,9.47.02.86-.62,1.05-1.3,1.11-.73.07-1.39-.27-2.07-.46-3.35-.96-5.71.36-6.76,3.71-.64,2.05.27,6.47,2.28,7.9,1.71,1.23,3.26,1.73,5.03.2.41-.36.89-.77,1.5-.46.62.3.66.95.66,1.53,0,2.6-.05,5.21-.04,7.81,0,.66-.18.84-.82.82-2.26-.07-4.53.09-6.78-.2-1.32-.16-2.07.55-2.66,1.59-.55.96-.3,1.78.34,2.64,1.57,2.09.84,4.76-1.62,6.13-3.09,1.71-6.67.61-8.28-2.55-.52-1.02-.37-1.98.25-2.87.29-.41.57-.82.68-1.3.48-2.26-.68-3.67-3.01-3.67-2.66,0-5.33-.04-7.99.04-.95.04-1.12-.27-1.09-1.12.07-1.43.02-2.85.02-4.28h.09l-.02-.04Z"/>
        <path class="cls-2" d="M165.84,571.83v4.28c0,1.27-.66,1.82-1.94,1.5-.93-.23-1.84-.5-2.76-.73-1.28-.32-2.39.07-3.33.91-2.26,2-2.59,4.49-1.91,7.28.48,1.98,1.48,3.5,3.3,4.44,1.16.61,2.28.62,3.39-.2.61-.45,1.21-1.21,2.03-.77.84.45.61,1.39.61,2.19,0,2.32-.02,4.65,0,6.97,0,.68-.2.82-.84.82-2.44-.05-4.9,0-7.35-.09-1.18-.04-1.61.77-2.09,1.55-.45.71-.46,1.52.12,2.16,1.21,1.37,1.59,2.82.62,4.48-1.03,1.8-2.6,2.57-4.64,2.71-2.57.18-4.32-.96-5.58-3.09-.64-1.05-.55-2.07.18-3.01.84-1.07,1.02-2.21.39-3.37-.61-1.12-1.66-1.55-2.94-1.53-2.69.02-5.39-.02-8.1.04-.75,0-1-.14-.96-.95.09-2.87.09-5.76.12-8.65.02-1.53-.78-2.46-2.32-2.71-1.02-.18-1.96.12-2.91.43-2.14.7-3.25.23-4.17-1.82-1.03-2.3-1.25-4.64.14-6.9.46-.77,1.14-1.28,1.93-1.69.52-.27,1.02-.25,1.5.02.57.3,1.12.66,1.68.98,1.89,1.07,3.51.2,3.73-1.98.12-1.18-.02-2.35,0-3.53.02-1.61,0-3.23,0-4.83,0-.41,0-.7.57-.7,2.66,0,5.33-.04,7.99-.04,1.18,0,1.59.87.95,1.93-.43.68-1,1.27-1.21,2.07-.54,1.89.57,4.58,2.44,5.56,3.33,1.75,7.42,1.28,9.79-2.34,1-1.53.96-2.51-.2-3.96-.5-.61-.71-1.27-.36-1.96.36-.7.98-1.07,1.82-1.05,3.1.04,6.21.05,9.29.04.62,0,.78.21.78.8-.04,1.59,0,3.16,0,4.74h.25-.02Z"/>
        <path class="cls-2" d="M160.14,499.52c1.61,0,3.23.02,4.83,0,.5,0,.62.18.62.64.07,3.16.18,6.31.27,9.47.02.82-.64,1.36-1.57,1.18-.7-.12-1.37-.37-2.05-.57-2.78-.78-4.53-.04-5.94,2.53-1.82,3.32-.3,8.36,2.98,9.97,1.19.59,2.3.54,3.37-.29.57-.45,1.19-1.14,1.96-.73.8.43.59,1.34.59,2.1,0,2.3-.04,4.58,0,6.88,0,.75-.16,1.02-.96.98-2.44-.09-4.89-.09-7.35-.11-1.43,0-2.71,2.12-2.05,3.41.11.2.23.37.36.54,1.57,2.12,1.16,4.62-1.12,6.03-3.41,2.1-7.01,1.16-8.86-2.68-.45-.91-.07-1.75.45-2.51,1.3-1.93.86-3.62-1.19-4.65-.39-.2-.77-.21-1.16-.21-2.78,0-5.58,0-8.36.05-.77,0-.91-.23-.89-.95.07-2.82.09-5.64.12-8.45.02-2.05-1.34-3.25-3.39-2.98-.75.09-1.43.37-2.14.59-1.59.48-2.78.11-3.55-1.32-1.21-2.21-1.61-4.51-.48-6.92.29-.62.7-1.16,1.21-1.61,1.21-1.05,1.77-1.11,3.14-.27.34.21.68.43,1.03.62,1.91,1.09,3.58.25,3.71-1.96.12-2.07.02-4.16.04-6.22,0-.89-.29-2.07.16-2.6.46-.57,1.68-.18,2.57-.2,1.89-.04,3.78-.07,5.67-.07,1.25,0,1.73.82,1.14,1.91-.07.14-.18.27-.27.37-2.71,2.92.05,7.33,2.92,7.95,3.42.77,6.4-.16,8.26-2.87,1.07-1.57,1.05-2.66-.14-4.12-.48-.59-.66-1.21-.34-1.89.34-.73.96-1.09,1.8-1.07,1.55.02,3.1,0,4.65,0v.05l-.04-.04Z"/>
        <path class="cls-2" d="M264.86,605.22v4.37c-.04,2.05,1.12,3.01,3.16,2.59.7-.14,1.37-.37,2.05-.57,1.53-.45,2.6-.04,3.33,1.37,1.28,2.51,1.55,5.05,0,7.58-.36.59-.84,1.05-1.43,1.43-.75.5-1.46.48-2.25.05-.78-.43-1.46-1.03-2.35-1.25-.96-.23-1.8.09-2.26.95-.46.84-.54,1.77-.54,2.69,0,2.3,0,4.58.04,6.88,0,.41,0,.7-.57.7-2.53,0-5.08.04-7.62.02-1.21,0-1.69-.91-1.02-1.94,1.07-1.61,1.52-3.28,1.02-5.17-.5-1.93-1.62-3.26-3.58-3.75-2.8-.7-5.44-.36-7.62,1.66-1.87,1.73-2.19,3.92-1.03,6.19.73,1.43.73,1.89.04,2.5-.34.32-.75.43-1.19.43-3.19,0-6.38.02-9.58.05-.48,0-.64-.14-.66-.62-.07-3.23-.2-6.44-.27-9.67-.02-.75.86-1.27,1.8-1.07.48.09.95.27,1.43.41,3.57,1.07,6.06-.36,6.96-3.98.71-2.91-.78-6.72-3.19-8.13-1.36-.78-2.66-.87-3.96.18-.52.41-1.07,1.03-1.8.61-.68-.39-.57-1.16-.59-1.84-.07-2.44-.14-4.89-.27-7.33-.04-.64.12-.84.8-.82,2.57.05,5.15,0,7.72.07,1.14.04,1.55-.75,2.02-1.5.45-.7.48-1.46-.04-2.18-.04-.05-.05-.11-.11-.16-2.44-2.18-.48-5.6,1.68-6.55,3.46-1.52,6.28-.5,8.1,2.87.52.95.21,1.85-.34,2.71-.21.34-.48.64-.59,1.05-.62,2.19.39,3.53,2.66,3.51,3.01,0,6.01,0,9.02-.05.86,0,1.11.23,1.07,1.09-.07,1.55-.02,3.1-.02,4.65h-.04l.02-.04Z"/>
        <path class="cls-2" d="M172.07,565.04c-1.46,0-2.91-.04-4.37,0-.78.04-1.03-.12-1.05-.98-.02-2.91-.14-5.83-.27-8.74-.05-1.27.62-1.91,1.87-1.62.93.21,1.84.52,2.76.73,1.34.32,2.51-.02,3.51-.95,2.05-1.89,2.51-4.19,1.93-6.85-.48-2.18-1.46-3.91-3.53-4.89-1.18-.55-2.26-.52-3.28.3-.09.07-.21.14-.3.21-1.44,1.03-2.68.62-2.8-1.12-.18-2.62-.07-5.26-.09-7.9,0-.57.45-.41.75-.41,2.51,0,5.03-.04,7.53.09,1.3.05,2.02-.5,2.57-1.55.43-.82.36-1.59-.18-2.34-1.73-2.39-1.11-4.98,1.5-6.4,3.23-1.77,6.96-.45,8.42,2.94.41.95.11,1.77-.43,2.51-.39.54-.71,1.09-.71,1.77-.04,1.91.93,2.92,2.89,2.96,2.98.04,5.96.07,8.93,0,.98-.02,1.16.29,1.11,1.18-.12,2.94-.14,5.89-.21,8.83-.04,1.62.68,2.39,2.3,2.5.89.05,1.71-.25,2.53-.5,1.94-.61,3.07-.2,3.96,1.64,1.02,2.09,1.3,4.23.32,6.44-.23.54-.54,1.03-.96,1.44-1.34,1.32-2.09,1.41-3.67.43-.39-.25-.78-.52-1.19-.7-1.55-.71-2.96,0-3.28,1.68-.16.82-.16,1.66-.12,2.5.05,2.1.04,4.21.07,6.33,0,.41-.14.54-.54.52-2.41-.09-4.83-.07-7.24.09-.64.05-1.21-.05-1.59-.71-.37-.64-.09-1.14.27-1.62,1.25-1.68,1.28-3.5.68-5.39-.45-1.36-1.32-2.34-2.66-2.92-2.76-1.21-6.71-.46-8.67,1.68-1.53,1.69-1.82,3.57-.87,5.64.16.36.32.73.46,1.11.45,1.18-.16,2.07-1.46,2.09-1.61.02-3.23,0-4.83,0h-.04Z"/>
        <path class="cls-2" d="M259.17,532.63c1.64,0,3.28.04,4.92,0,.61,0,.8.16.78.77-.04,2.98,0,5.96-.05,8.93-.05,2.57,1.14,3.55,3.67,2.87.68-.18,1.36-.45,2.03-.57,1.03-.2,1.87.12,2.51,1,1.75,2.39,1.8,6.01.11,8.35-1.21,1.68-2.35,1.91-4.08.82-.39-.25-.78-.52-1.19-.7-1.44-.66-2.66-.07-3.1,1.43-.27.87-.25,1.77-.23,2.68,0,2.07,0,4.16.02,6.22,0,.32.11.7-.46.68-2.44-.11-4.89,0-7.33.09-1.66.07-2.1-.82-1.25-2.23,1.57-2.6,1.39-5.74-.57-7.47-2.23-1.98-4.87-1.77-7.45-.95-2.35.75-3.69,2.5-4.08,4.94-.12.75,0,1.48.41,2.14.3.46.54.96.71,1.5.34,1-.21,1.93-1.28,1.94-3.32.04-6.63,0-9.95.02-.39,0-.54-.12-.54-.54-.09-3.25-.2-6.51-.27-9.76,0-.68.77-1.16,1.66-1,.78.14,1.53.43,2.32.61,2.37.57,3.75-.02,5.23-1.94,2.21-2.91.89-9.06-2.46-10.54-1.3-.57-2.46-.66-3.62.29-.54.43-1.14,1.07-1.89.64-.7-.39-.57-1.23-.59-1.94-.07-2.41-.14-4.83-.27-7.24-.04-.66.16-.84.8-.82,2.41.07,4.83-.09,7.24.14,1.32.12,2-.61,2.53-1.62.46-.86.29-1.64-.29-2.41-1.55-2.12-1.16-4.53,1.07-5.96,3.39-2.16,6.92-1.25,8.83,2.51.46.93.2,1.82-.37,2.6-.55.77-.78,1.61-.7,2.53.12,1.23.8,1.93,2.03,1.96,1.69.05,3.41,0,5.12,0v.04l.04-.02Z"/>
        <path class="cls-2" d="M99.77,504.9v4.46c0,.86-.34,1.28-1.23,1.37-.64.05-1.21-.2-1.8-.37-4.58-1.28-7.92,1.73-7.21,6.49.32,2.1.93,4.03,2.82,5.31,1.73,1.16,2.8,1.18,4.48,0,.2-.14.39-.3.61-.41.86-.45,1.39-.16,1.61.78.12.54,0,1.05,0,1.57,0,2.19-.04,4.41.02,6.6,0,.75-.16,1.02-.95.98-2.41-.09-4.83-.05-7.24-.14-1.18-.04-1.59.8-2.07,1.57-.45.71-.5,1.5.07,2.16,1.25,1.41,1.61,2.89.61,4.57-1.07,1.8-2.69,2.66-4.78,2.66-2.25,0-3.98-.87-5.23-2.78-.75-1.18-.68-2.26.04-3.37.3-.46.55-.93.66-1.5.45-2.26-1.34-3.44-3.17-3.44-2.73,0-5.46.04-8.19.09-.62,0-.78-.18-.77-.78.05-2.89.07-5.76.11-8.65.02-2-1.46-3.25-3.44-2.89-.73.14-1.43.36-2.14.55-1.73.46-2.78.04-3.6-1.53-.93-1.78-1.21-3.67-.78-5.65.3-1.43,1.18-2.39,2.37-3.16.71-.46,1.37-.45,2.07,0,.55.34,1.09.71,1.66,1,1.66.8,3.19-.09,3.42-1.93.18-1.46-.05-2.91,0-4.37.04-1.39.02-2.78,0-4.19,0-.46.05-.73.64-.71,2.6.05,5.21.05,7.81.07.5,0,1.03.09,1.27.61.21.46-.05.89-.32,1.28-2.6,3.78-.5,7.99,4.1,8.44,3.07.29,5.39-.8,7.04-3.32.93-1.41.84-2.48-.21-3.82-.5-.62-.78-1.3-.37-2.05.37-.7,1.02-1.03,1.84-1.03,3.07.02,6.13.04,9.2.02.54,0,.78.14.77.71-.04,1.61,0,3.23,0,4.83h.32l-.02-.02Z"/>
        <path class="cls-2" d="M94.06,566.27h4.74c.48,0,.64.12.66.62.09,3.23.23,6.44.32,9.67.02.77-.82,1.28-1.78,1.07-.87-.2-1.73-.46-2.59-.7-1.84-.5-3.26.14-4.44,1.55-1.73,2.05-1.78,4.35-1.12,6.81.5,1.87,1.5,3.28,3.21,4.21,1.27.68,2.48.62,3.62-.3.52-.43,1.09-1.03,1.8-.68.75.39.62,1.25.62,2-.04,2.43-.04,4.83,0,7.26,0,.66-.18.84-.82.82-2.28-.07-4.58,0-6.87-.12-1.3-.07-2.02.54-2.59,1.53-.55.98-.34,1.87.39,2.62,2.02,2.03.25,5.53-2.53,6.53-3.01,1.07-5.96-.11-7.44-2.98-.54-1.05-.27-1.98.29-2.89.27-.45.57-.87.66-1.41.37-2.12-.75-3.44-3.05-3.51-2.73-.09-5.46,0-8.19.05-.66,0-.91-.12-.89-.86.07-2.91.07-5.83.11-8.74.02-1.55-.84-2.5-2.39-2.71-1-.14-1.89.14-2.82.43-2.23.68-3.32.18-4.24-1.98-.73-1.69-.93-3.44-.5-5.26.37-1.52,1.37-2.51,2.73-3.21.52-.27,1.02-.2,1.5.09.64.36,1.25.78,1.93,1.11,1.59.75,3.1-.09,3.35-1.84.12-.93.04-1.85,0-2.78-.04-1.98,0-3.96-.02-5.96,0-.39.04-.62.54-.62,2.64.04,5.26.05,7.9.07.52,0,1.02.11,1.27.61.23.48-.05.91-.32,1.28-2.55,3.82-.64,7.79,3.94,8.38,3.14.41,5.51-.71,7.21-3.32.93-1.41.86-2.53-.21-3.82-.54-.64-.75-1.32-.37-2.05.37-.71,1.02-1,1.85-.98,1.52.04,3.03,0,4.55,0v.02-.02Z"/>
        <path class="cls-2" d="M238.27,431.21c-1.55,0-3.1-.04-4.65,0-.64.02-.84-.18-.84-.84-.05-3.01-.14-6.01-.23-9.01-.04-1.16.62-1.75,1.78-1.52.48.09.95.27,1.43.41,3.55,1.07,6.21-.34,6.88-4.01.55-2.94-.07-5.74-2.6-7.76-1.61-1.27-3-1.25-4.64-.07-.46.34-.95.84-1.57.54-.68-.32-.68-1.03-.68-1.69,0-2.35.04-4.71,0-7.06,0-.66.2-.82.84-.82,2.57.04,5.15.04,7.72.04.62,0,1.28.18,1.68-.62.46-.93.82-1.8.32-2.8-.09-.16-.2-.32-.3-.46-1.55-2.16-1.14-4.42,1.02-5.99,2.09-1.53,6.99-1.39,8.69,2.1.29.59.25,1.14.07,1.69-.27.75-.59,1.5-.86,2.25-.68,1.89.52,3.62,2.51,3.6,2.91,0,5.83-.04,8.74-.09.66,0,.91.11.89.86-.05,2.85-.04,5.71-.04,8.56,0,2.21,1.48,3.37,3.66,2.87.66-.14,1.3-.36,1.96-.55,1.53-.45,2.6-.04,3.33,1.39,1.28,2.51,1.55,5.05,0,7.58-.36.59-.86,1.03-1.43,1.43-.73.48-1.43.5-2.18.07-.64-.36-1.25-.8-1.91-1.11-1.41-.64-2.59-.09-3.07,1.37-.29.87-.25,1.77-.25,2.68,0,2.1,0,4.21.04,6.33,0,.54-.14.68-.68.68-2.48,0-4.96.04-7.44.02-1.28,0-1.78-.89-1.07-1.96,1.16-1.69,1.5-3.5.91-5.46-.61-2.02-1.98-3.25-4.07-3.58-2.84-.46-5.44-.04-7.45,2.21-1.52,1.68-1.73,3.73-.7,5.69.14.27.25.55.37.84.48,1.21-.07,2.1-1.39,2.14-1.61.05-3.23,0-4.83,0v.05l.02.02Z"/>
        <path class="cls-2" d="M172.1,431.16h-4.74c-.52,0-.68-.12-.7-.68-.07-3.12-.2-6.26-.29-9.38-.02-.82.41-1.27,1.3-1.32.77-.05,1.46.25,2.16.5,3.55,1.27,5.64-.89,6.55-3.5.96-2.75-.09-6.53-2.34-8.24-1.8-1.37-3.12-1.52-4.76-.14-.46.39-1.02.84-1.68.46-.57-.34-.57-.96-.57-1.57,0-2.39.02-4.78,0-7.15,0-.62.18-.78.77-.77,2.53.04,5.08.02,7.62.04,1.52,0,2.6-1.61,2.09-3.07-.11-.32-.29-.61-.5-.89-1.41-1.93-1.19-3.99.61-5.58,2.44-2.16,7.54-2.09,9.4,2.19.39.91-.12,1.68-.45,2.46-.21.54-.61,1-.66,1.61-.16,1.62,1.09,3,2.78,3,2.89,0,5.76.04,8.65,0,.7,0,.89.16.87.87-.09,2.78-.09,5.58-.14,8.36-.05,2.1,1.5,3.42,3.62,3.01.7-.14,1.36-.37,2.05-.57,1.61-.45,2.73-.04,3.5,1.43,1.16,2.18,1.48,4.42.46,6.76-.23.52-.54.98-.93,1.37-1.43,1.43-2.09,1.52-3.82.43-.29-.18-.57-.37-.87-.54-1.75-.91-3.19-.18-3.53,1.77-.12.71-.14,1.41-.12,2.12.04,2.14.04,4.28.07,6.42,0,.5-.18.62-.64.62-2.48,0-4.96.05-7.44.04-1.34,0-1.89-1-1.11-2.12,1.23-1.78,1.44-3.66.73-5.64-.71-1.94-2.18-3.03-4.21-3.3-2.91-.37-5.6.11-7.45,2.62-1.18,1.59-1.53,3.35-.46,5.19.16.29.27.62.39.93.52,1.37.04,2.14-1.48,2.18-1.59.04-3.16,0-4.74,0v.02l.02.05Z"/>
        <path class="cls-2" d="M105.99,431.25c-1.59,0-3.16-.02-4.74,0-.59,0-.8-.12-.82-.77-.05-3.07-.16-6.13-.23-9.2-.04-1.05.43-1.52,1.5-1.41.52.05,1.02.23,1.52.37,4.35,1.32,7.79-1.59,7.22-6.15-.27-2.1-.8-4.12-2.66-5.49-1.82-1.34-2.94-1.37-4.76-.07-.46.34-.98.8-1.59.45-.57-.32-.59-.98-.59-1.57,0-2.43.02-4.83,0-7.26,0-.48.05-.73.64-.71,2.57.04,5.14.02,7.72,0,.57,0,1.23.37,1.66-.37.54-.95.89-1.91.39-2.98-.07-.16-.18-.32-.29-.46-1.66-2.26-1.16-4.71,1.23-6.21,2.23-1.41,6.97-1.21,8.61,2.55.2.46.21.89.05,1.34-.25.66-.52,1.32-.8,1.96-.89,2.1.34,3.99,2.64,3.99,2.85,0,5.71-.04,8.54-.11.66,0,.84.16.82.82-.09,2.82-.12,5.64-.18,8.45-.04,2.14,1.28,3.3,3.42,3.03.73-.09,1.43-.34,2.14-.55,1.77-.52,2.84-.09,3.66,1.55,1.11,2.21,1.37,4.46.29,6.78-.27.57-.62,1.07-1.09,1.48-1.37,1.19-1.91,1.25-3.46.29-.5-.3-.98-.64-1.53-.84-1.27-.45-2.37.05-2.8,1.32-.3.89-.3,1.82-.29,2.75.02,2.1.04,4.21.04,6.33,0,.3.16.77-.43.71-2.57-.2-5.14.05-7.7.04-1.34,0-1.77-.86-1.03-1.96,1.14-1.69,1.53-3.5.93-5.46-.55-1.82-1.77-3.05-3.64-3.48-2.59-.59-5.05-.29-7.19,1.43-1.27,1.02-1.87,2.41-2.1,3.99-.11.71.07,1.36.43,1.94.29.45.52.91.7,1.41.37,1.09-.21,1.98-1.37,2.02-.8.04-1.61.04-2.43.04h-2.43v.04-.02Z"/>
      </g>
    </g>
    <polygon class="cls-2" points="66.83 388.57 66.79 547.62 256.44 628.71 256.44 468.66 66.83 388.57"/>
  </g>
  <path class="cls-5" d="M514.34,292.18c-3.07-2.05-6.58-3.28-9.92-4.73-19.12-7.9-38-16.41-57.21-24.09-3.51,3.67-7.19,7.2-10.88,10.68,21.03,8.65,41.87,17.74,62.81,26.63-15.52,24-31.8,47.49-47.46,71.41-35.56-14.57-70.75-30-106.11-45.03-6.19,3.09-12.63,5.65-19.15,7.9,36.19,15.21,72.26,30.67,108.32,46.15-58.71,25.84-117.94,50.54-176.86,75.92-58.87-25.41-118.08-50.08-176.77-75.92,19.56-8.4,39.09-16.89,58.75-25.04-2.18-4.17-4.26-8.38-6.24-12.64-22.86,9.31-45.42,19.33-68.22,28.82-11.75-17.99-23.86-35.74-35.76-53.65-3.87-5.99-8.49-11.57-11.15-18.26,17.1-7.35,34.42-14.21,51.26-22.13-1.32-4.35-2.62-8.7-4.14-12.98-20.3,8.08-40.31,16.94-60.42,25.47-4.65,1.44-6.87,7.2-3.73,11.16,17.3,26.64,35.26,52.88,52.9,79.33,1.53,1.93,1.59,4.44,1.62,6.83-.09,52.93-.02,105.86-.04,158.81-.82,4.74,2.82,8.24,7.03,9.52,63.38,26.95,126.71,54.04,189.9,81.41,5.05,2.96,10.42-.11,15.14-2.16,45.25-19.58,90.53-39.06,135.84-58.41,4.83-1.48,6.88-8.26,2.94-11.73-2.35-2.87-6.58-2.05-9.58-.8-44.05,18.74-88.1,37.54-132.04,56.57.12-50.67-.21-101.32.18-151.98,60.19-25.81,120.58-51.18,180.61-77.38.09,50.63.05,101.26.02,151.89-6.72,2.94-13.55,5.64-20.21,8.69-6.35,1.37-7.28,10.74-1.53,13.5,5.76,1.27,10.99-2.19,16.1-4.23,6.71-3.33,14.61-4.9,19.87-10.61-.11-55.3-.46-110.68.18-165.95,17.85-28.14,37.2-55.39,55.27-83.41,2.46-2.92,1.62-7.37-1.32-9.56h0ZM250.88,621.38c-60.12-26.29-120.68-51.54-180.89-77.61.02-50.58-.04-101.16.04-151.73,60.1,25.93,120.36,51.54,180.57,77.22.68,50.7.11,101.42.29,152.13Z"/>
  <g>
    <path class="cls-1" d="M360.88,214.26c.05-16.32-7.56-31.71-20.56-41.57,10.25-23.02-.11-50.02-23.13-60.28-2.6-1.16-5.3-2.07-8.06-2.73-2.62-22.44-22.92-38.49-45.35-35.86-12.5,1.46-23.63,8.6-30.18,19.33-11.75-19.26-36.9-25.36-56.18-13.61-10.72,6.55-17.83,17.66-19.31,30.12-24.54,5.78-39.75,30.35-33.97,54.89.66,2.78,1.57,5.48,2.73,8.08-22.97,17.57-27.36,50.43-9.79,73.41,4.89,6.38,11.16,11.56,18.37,15.12,4.33,28.61,31.03,48.26,59.64,43.93,16.46-2.5,30.76-12.68,38.5-27.43,13.45,25.61,45.1,35.47,70.71,22.03,14.75-7.74,24.93-22.04,27.43-38.5,17.87-8.81,29.18-27.04,29.14-46.96l.02.04ZM187.23,293.6c-20.54-.11-37.75-15.6-40-36.02.04-.32.04-.64.02-.96-.09-1.07-.12-2.14-.12-3.23.02-22.2,18.01-40.18,40.2-40.2,3.35,0,6.06-2.71,6.06-6.06s-2.71-6.06-6.06-6.06c-26.45.04-48.72,19.8-51.92,46.07-18.14-12.84-22.44-37.95-9.58-56.09,2.21-3.12,4.83-5.9,7.83-8.28,16.37,16.91,43.34,17.32,60.24.95,8.31-8.04,12.98-19.12,12.97-30.69,0-3.35-2.71-6.06-6.06-6.06s-6.06,2.71-6.06,6.06c0,16.85-13.64,30.53-30.5,30.55-9.56,0-18.57-4.46-24.34-12.07-9.59-15.84-4.55-36.45,11.29-46.07,4.08-2.48,8.65-4.05,13.39-4.62,3.09-.52,5.35-3.21,5.31-6.35,0-15.91,12.89-28.82,28.82-28.82s28.82,12.89,28.82,28.82v138.82c-.02,22.26-18.05,40.27-40.31,40.31v.02ZM279.95,293.6c-22.24-.02-40.27-18.05-40.31-40.31V114.48c-.09-15.91,12.73-28.89,28.66-28.98,15.91-.09,28.89,12.73,28.98,28.66,0,.16-.04.48-.04.64,0,3.07,2.28,5.65,5.33,6.01,18.39,2.19,31.51,18.89,29.32,37.27-.57,4.74-2.14,9.31-4.62,13.39-10.18,13.43-29.34,16.07-42.77,5.87-7.62-5.78-12.09-14.78-12.07-24.34,0-3.35-2.71-6.06-6.06-6.06s-6.06,2.71-6.06,6.06c-.05,23.52,18.99,42.64,42.52,42.69,11.56.02,22.63-4.65,30.69-12.97,17.41,13.8,20.33,39.11,6.53,56.53-2.37,3-5.17,5.64-8.29,7.85-3.19-26.27-25.47-46.03-51.92-46.07-3.35,0-6.06,2.71-6.06,6.06s2.71,6.06,6.06,6.06c22.2.02,40.18,18.01,40.2,40.2,0,1.09-.04,2.16-.12,3.23-.02.32,0,.64.02.96-2.26,20.42-19.46,35.92-40,36.02h0l.02.02Z"/>
    <path class="cls-1" d="M233.59,48.49c3.35,0,6.06-2.71,6.06-6.06h0V6.06c0-3.35-2.71-6.06-6.06-6.06s-6.06,2.71-6.06,6.06v36.36c0,3.35,2.71,6.06,6.06,6.06h0Z"/>
    <path class="cls-1" d="M359.11,55.54l-25.72,25.72c-2.37,2.37-2.37,6.21,0,8.58s6.21,2.37,8.58,0l25.72-25.72c2.37-2.37,2.37-6.21,0-8.58s-6.21-2.37-8.58,0Z"/>
    <path class="cls-1" d="M417.16,183.57h-36.36c-3.35,0-6.06,2.71-6.06,6.06s2.71,6.06,6.06,6.06h36.36c3.35,0,6.06-2.71,6.06-6.06s-2.71-6.06-6.06-6.06h0Z"/>
    <path class="cls-1" d="M341.95,289.43c-2.37-2.37-6.21-2.37-8.58,0s-2.37,6.21,0,8.58l25.72,25.72c2.37,2.37,6.21,2.37,8.58,0s2.37-6.21,0-8.58l-25.72-25.72Z"/>
    <path class="cls-1" d="M233.59,330.77c-3.35,0-6.06,2.71-6.06,6.06v36.36c0,3.35,2.71,6.06,6.06,6.06s6.06-2.71,6.06-6.06h0v-36.36c0-3.35-2.71-6.06-6.06-6.06Z"/>
    <path class="cls-1" d="M125.22,289.43l-25.72,25.72c-2.37,2.37-2.37,6.21,0,8.58s6.21,2.37,8.58,0h0l25.72-25.72c2.37-2.37,2.37-6.21,0-8.58s-6.21-2.37-8.58,0h0Z"/>
    <path class="cls-1" d="M86.37,183.57h-36.36c-3.35,0-6.06,2.71-6.06,6.06s2.71,6.06,6.06,6.06h36.36c3.35,0,6.06-2.71,6.06-6.06s-2.71-6.06-6.06-6.06h0Z"/>
    <path class="cls-1" d="M125.22,89.83c2.37,2.37,6.21,2.37,8.58,0s2.37-6.21,0-8.58l-25.72-25.72c-2.37-2.37-6.21-2.37-8.58,0s-2.37,6.21,0,8.58c0,0,25.72,25.72,25.72,25.72Z"/>
  </g>
</svg>